<?xml version="1.0" encoding="utf-8" ?>
<svg baseProfile="full" height="200mm" version="1.1" viewBox="0,0,200,200" width="200mm" xmlns="http://www.w3.org/2000/svg" xmlns:ev="http://www.w3.org/2001/xml-events" xmlns:xlink="http://www.w3.org/1999/xlink"><defs /><rect fill="#1a1a1a" height="200" width="200" x="0" y="0" /><rect fill="#1a1a1a" height="200" width="180" x="10" y="0" /><text alignment-baseline="middle" fill="#e1ed5e" style="dominant-baseline: central; font-size:9.0px; font-family:Arial;" text-anchor="middle" x="100.0" y="100.0">2026</text><line stroke="#e1ed5e" stroke-width="0.3" x1="100.0" x2="100.0" y1="15.0" y2="10.0" /><path d="M 100.0 14.0 a86.0,86.0 0 0,1 42.46469731375804,11.215312516191453" fill="none" id="id25" stroke="none" /><text fill="#e1ed5e" style="font-size:6.75px; font-family:Arial;" text-anchor="middle"><textPath startOffset="22.20632615414155" xlink:href="#id25">January</textPath></text><path d="M 103.2404852339499 79.25152402106235 l 0.33243996615123883 -2.1285770969923994 a23.154380836559596,23.154380836559596 0 0,0 0.39326149496850127,0.06489151626431772 l -0.3690306672586153 2.122539317788457" fill="#ff0d01" stroke="none" /><path d="M 104.307194497241 79.44645832069477 l 0.35056715859122717 -1.6728747007166376 a22.709212420087248,22.709212420087248 0 0,0 0.3819011235665182,0.08346879370020689 l -0.3793110063112733 1.6665924089205602" fill="#ff0601" stroke="none" /><path d="M 105.01212808612495 79.60689891045804 l 1.2496627915142895 -5.084566714433877 a26.235883475214493,26.235883475214493 0 0,0 0.43762841804109864,0.11156122796187454 l -1.337000098240413 5.062302490303135" fill="#ff3905" stroke="none" /><path d="M 106.0581310904928 79.89281104454417 l 15.054012023688646 -49.96489177545833 a73.1834618259715,73.1834618259715 0 0,0 1.2030476903805778,0.373792773537329 l -15.911845086779943 49.69835886703848" fill="#40ffc2" stroke="none" /><path d="M 108.09893153111575 80.62456947434976 l 15.501544165682635 -37.08502669377489 a61.194490622454786,61.194490622454786 0 0,0 0.9683772936947603,0.4146086196114018 l -16.13760521716771 36.8126985462007" fill="#31ff3b" stroke="none" /><path d="M 108.43124777332544 80.76684994638697 l 25.2937433199763 -57.69945016083909 a84.0,84.0 0 0,0 1.3192715261328791,0.591918677933875 l -26.283196964575957 57.255511152388685" fill="#4dd2ff" stroke="none" /><path d="M 108.76106565485865 80.91482961587045 l 0.7384869966468116 -1.6087255492318195 a22.77013020339399,22.77013020339399 0 0,0 0.35480393971883956,0.16658520709942043 l -0.7660691476652491 1.595775359492396" fill="#ff0701" stroke="none" /><line stroke="#e1ed5e" stroke-width="0.3" x1="143.23703022742887" x2="145.7803849466894" y1="26.81831364943548" y2="22.513508569990506" /><path d="M 143.74570117128098 25.957352633546492 a86.0,86.0 0 0,1 28.547481713284135,27.462654790039103" fill="none" id="id26" stroke="none" /><text fill="#e1ed5e" style="font-size:6.75px; font-family:Arial;" text-anchor="middle"><textPath startOffset="19.985693538727396" xlink:href="#id26">February</textPath></text><path d="M 111.2981086023043 82.29822771554956 l 0.7619974171409863 -1.193890520473317 a22.416338461881757,22.416338461881757 0 0,0 0.32347093881572686,0.21039449653528788 l -0.7824353817409934 1.1805970997785011" fill="#ff0200" stroke="none" /><path d="M 112.77801427241765 83.33499621200491 l 0.9872669430261659 -1.28758717861257 a22.622521728458423,22.622521728458423 0 0,0 0.3069848672766221,0.23960655822268262 l -1.0092843654622183 1.2704022311666634" fill="#ff0500" stroke="none" /><path d="M 113.34407831869373 83.78471172551755 l 1.4687136151682343 -1.7847328300859033 a23.31136127815774,23.31136127815774 0 0,0 0.30764609911735685,0.25764476058261654 l -1.4992172512447084 1.7591869121094674" fill="#ff0f01" stroke="none" /><path d="M 114.94478906791727 85.2469230424477 l 8.386216137309342 -8.278637556818584 a32.78407658235616,32.78407658235616 0 0,0 0.3929963646320518,0.4050172991090585 l -8.527476765644503 8.133056062159412" fill="#ff930d" stroke="none" /><path d="M 115.68641384162765 86.03803664274999 l 1.1025941068432574 -0.9813829134618834 a22.476084749355678,22.476084749355678 0 0,0 0.25473766882192816,0.29120919132208795 l -1.1193236392430337 0.9622581659368478" fill="#ff0300" stroke="none" /><path d="M 117.65298651832404 88.62581576622439 l 1.6022386206090231 -1.0323554735829323 a22.90602372000134,22.90602372000134 0 0,0 0.21070531725903882,0.3332852109124094 l -1.6197715341140175 1.0046226149563167" fill="#ff0901" stroke="none" /><line stroke="#e1ed5e" stroke-width="0.3" x1="172.23445277983987" x2="176.4835382374775" y1="55.19839476539836" y2="52.563006222186495" /><path d="M 173.08426987136738 54.67131705675599 a86.0,86.0 0 0,1 12.851231095245387,41.99856678651699" fill="none" id="id27" stroke="none" /><text fill="#e1ed5e" style="font-size:6.75px; font-family:Arial;" text-anchor="middle"><textPath startOffset="22.20632615414155" xlink:href="#id27">March</textPath></text><path d="M 118.03404312379186 89.2402003453031 l 27.280743252064838 -16.276734496447343 a52.767452498633254,52.767452498633254 0 0,0 0.45867561697485976,0.7840253112957839 l -27.556878543510024 15.804729772797664" fill="#7bff26" stroke="none" /><path d="M 118.21658344932153 89.55222093294921 l 1.5273809215951464 -0.8760006213266549 a22.760758236731416,22.760758236731416 0 0,0 0.1919949714298708,0.34153763079912064 l -1.5422335343174502 0.8495794805927404" fill="#ff0701" stroke="none" /><path d="M 118.3937258080291 89.86733742301442 l 29.24415447422101 -16.10990360132349 a54.3878655345926,54.3878655345926 0 0,0 0.4446645720516547,0.8238959191671932 l -29.51712714549113 15.60412669882384" fill="#6aff28" stroke="none" /><path d="M 118.56541770881063 90.18545643968196 l 36.12104604888512 -19.095265479687843 a61.85779156299858,61.85779156299858 0 0,0 0.4895324496818146,0.9456208777360211 l -36.44438793172705 18.470671879691476" fill="#31ff43" stroke="none" /><path d="M 118.73160827565052 90.50648371742162 l 19.99453778295013 -10.133591692274154 a43.415869863548636,43.415869863548636 0 0,0 0.33211070345223676,0.6695149124898873 l -20.166008499355772 9.787917191285317" fill="#e5ff1a" stroke="none" /><path d="M 118.89224826269711 90.83032412892265 l 2.0108675587826528 -0.976008968191967 a23.23521404902431,23.23521404902431 0 0,0 0.17154426441114906,0.36131597009163613 l -2.027370017035558 0.9412505824597907" fill="#ff0e01" stroke="none" /><path d="M 119.04729006885535 91.15688171328212 l 1.86054764141995 -0.863799669752146 a23.051289203271264,23.051289203271264 0 0,0 0.16399091418935915,0.36133224159683247 l -1.8751408725726562 0.8316454193132506" fill="#ff0b01" stroke="none" /><path d="M 119.196687751892 91.48605970444005 l 36.22405918992312 -16.065765156566574 a60.62690089145254,60.62690089145254 0 0,0 0.41488804245470434,0.9576188041313364 l -36.495237942220506 15.439847207848636" fill="#30ff34" stroke="none" /><path d="M 119.34039704204932 91.81776055985345 l 2.3099549290423633 -0.977260409094922 a23.50817257807183,23.50817257807183 0 0,0 0.15445799984335729,0.3740322981193395 l -2.3264346157719182 0.9373535405222793" fill="#ff1202" stroke="none" /><path d="M 119.47837535516314 92.15188598940014 l 4.032414226590187 -1.6247169494993834 a25.347421035602316,25.347421035602316 0 0,0 0.15957583594147118,0.40610309670256795 l -4.059783612413359 1.555064847901031" fill="#ff2c04" stroke="none" /><path d="M 119.61058180528143 92.48833698450437 l 27.23358859311693 -10.431589549222172 a50.16310011268675,50.16310011268675 0 0,0 0.3019231276560576,0.8090038753832499 l -27.409116309274612 9.96126253680959" fill="#98ff23" stroke="none" /><path d="M 119.7369772167798 92.82701384747503 l 1.869561599152734 -0.6794525481143037 a22.989199924131697,22.989199924131697 0 0,0 0.13196558216673504,0.3730844714617702 l -1.8809802621292784 0.6471704502259189" fill="#ff0a01" stroke="none" /><path d="M 120.28053869075195 94.5502522615342 l 2.4641027607391432 -0.6621490016835232 a23.55151792388624,23.55151792388624 0 0,0 0.10183639131005638,0.3924171573961006 l -2.475135483919502 0.6196354187385722" fill="#ff1202" stroke="none" /><path d="M 120.45610955862082 95.25157060432595 l 20.92033125965771 -4.856188105364009 a42.47656450479197,42.47656450479197 0 0,0 0.1591973355903402,0.7136504399909398 l -21.00082298225009 4.495359495823105" fill="#f0ff19" stroke="none" /><path d="M 120.67395015179393 96.31383870115 l 25.295020534605744 -4.510097251065912 a46.69394950295105,46.69394950295105 0 0,0 0.13427431851199625,0.7924946286911606 l -25.368906714637962 4.074016834058914" fill="#bfff1e" stroke="none" /><path d="M 120.73433829027371 96.67025291283417 l 3.0536239992816285 -0.49038437950427843 a24.09274899864999,24.09274899864999 0 0,0 0.06223284019157005,0.410036660811061 l -3.0616127329124985 0.4377486063011353" fill="#ff1a02" stroke="none" /><path d="M 120.78858239683441 97.02765380044208 l 4.194641384448677 -0.59974875340576 a25.237300427317052,25.237300427317052 0 0,0 0.05778620845356115,0.43057437328149084 l -4.2043435919600745 0.5274560380596047" fill="#ff2b04" stroke="none" /><path d="M 120.83666639777658 97.38593545837742 l 2.3584775084564504 -0.2958828590608064 a23.376965044795767,23.376965044795767 0 0,0 0.04665335013689676,0.399697413252141 l -2.363221211596936 0.25524170748381275" fill="#ff1001" stroke="none" /><path d="M 120.87857604477298 97.74499172005257 l 32.93426544589493 -3.5570932191552673 a54.12580191679032,54.12580191679032 0 0,0 0.09207281996295652,0.927160731891156 l -32.99061539154012 2.989656956559676" fill="#6dff28" stroke="none" /><path d="M 120.98425023603335 99.18683210126433 l 1.9923905154430346 -0.07720781017573032 a22.993885907462985,22.993885907462985 0 0,0 0.01192211692440448,0.3956370192890472 l -1.9934243268230842 0.04290064346168402" fill="#ff0a01" stroke="none" /><line stroke="#e1ed5e" stroke-width="0.3" x1="184.98032266829074" x2="189.97916517819016" y1="98.17113171792111" y2="98.06355123074" /><path d="M 185.9800911702706 98.14961562048488 a86.0,86.0 0 0,1 -9.607161424134198,41.387399972396054" fill="none" id="id28" stroke="none" /><text fill="#e1ed5e" style="font-size:6.75px; font-family:Arial;" text-anchor="middle"><textPath startOffset="21.466115282336823" xlink:href="#id28">April</textPath></text><path d="M 120.99980553446 99.90962569577887 l 2.342969968923004 -0.010083154360879858 a23.342991665643932,23.342991665643932 0 0,0 -0.0017292740669214684,0.4018223922619364 l -2.34279639756658 -0.03024871610474124" fill="#ff0f01" stroke="none" /><path d="M 120.9904718944345 100.63252640178507 l 1.9035195702056642 0.057360615355622036 a22.904383625835386,22.904383625835386 0 0,0 -0.015267262815215267,0.39398021470340844 l -1.9022501745392457 -0.09011807707303665" fill="#ff0901" stroke="none" /><path d="M 120.9764740272857 100.99374915477107 l 4.147130055713026 0.19646805188659097 a25.15178123152105,25.15178123152105 0 0,0 -0.024209965731790125,0.43228520147618116 l -4.143133739093707 -0.26782496969819547" fill="#ff2a04" stroke="none" /><path d="M 120.92983693683757 101.71520430193887 l 2.3328283367995537 0.19117574642547952 a23.340648673978286,23.340648673978286 0 0,0 -0.03626181362588037,0.40014609171339577 l -2.329191926896598 -0.23130322668744582" fill="#ff0f01" stroke="none" /><path d="M 120.89721153311464 102.0752229133903 l 4.051021994977819 0.40229164801745476 a25.07094801905633,25.07094801905633 0 0,0 -0.046342690537453775,0.4290757586611451 l -4.043497002939313 -0.47196372856339136" fill="#ff2803" stroke="none" /><path d="M 120.64145759157962 103.86396538481128 l 1.265492301216461 0.23689307913217833 a22.287473920271342,22.287473920271342 0 0,0 -0.07383528830649597,0.3764845443594016 l -1.2612270799343008 -0.2586413505595249" fill="#ff0000" stroke="none" /><path d="M 120.5718875245553 104.21870165774334 l 2.4455640649135497 0.5015147570903974 a23.49645761974361,23.49645761974361 0 0,0 -0.08466105011277543,0.39550824101204857 l -2.436568976076331 -0.543536817518615" fill="#ff1202" stroke="none" /><path d="M 120.49622156327973 104.57218783832717 l 2.453719860469173 0.5473627453753862 a23.51403005723594,23.51403005723594 0 0,0 -0.09152492902716362,0.3942869988190806 l -2.4439343655114563 -0.5895184015430317" fill="#ff1202" stroke="none" /><path d="M 120.41448212921028 104.9243191809786 l 23.945318152897016 5.7760166889674265 a45.632105680081224,45.632105680081224 0 0,0 -0.19076107540967707,0.7619956710324021 l -23.84234576319228 -6.187340199397224" fill="#cbff1d" stroke="none" /><path d="M 120.32669344350535 105.2749913415812 l 21.693425394517682 5.629672698285387 a43.41200392730031,43.41200392730031 0 0,0 -0.19393159991801734,0.7216916276209165 l -21.593305718257888 -6.002255259081852" fill="#e5ff1a" stroke="none" /><path d="M 120.23288151984713 105.62410040840565 l 1.6174295829441876 0.4495942097560669 a22.678753528433877,22.678753528433877 0 0,0 -0.10778602801824068,0.37521730372992546 l -1.6094509180398473 -0.47736898899057434" fill="#ff0600" stroke="none" /><path d="M 120.13307415673323 105.97154293290107 l 1.4286263557199488 0.4237357669197563 a22.49014269934954,22.49014269934954 0 0,0 -0.11327880857656371,0.3702017006962098 l -1.4211207746372523 -0.4482644401680232" fill="#ff0300" stroke="none" /><path d="M 119.9155931802556 106.66101706037122 l 1.2954279110655067 0.4332719260726358 a22.365964141070414,22.365964141070414 0 0,0 -0.12525916465641848,0.3640617650068446 l -1.2877779154658575 -0.45550639416878086" fill="#ff0100" stroke="none" /><line stroke="#e1ed5e" stroke-width="0.3" x1="174.80103733775053" x2="179.2010983576182" y1="140.37084112569926" y2="142.7455964860345" /><path d="M 175.68104954172406 140.8457921977663 a86.0,86.0 0 0,1 -30.038265399797805,32.042727171017184" fill="none" id="id29" stroke="none" /><text fill="#e1ed5e" style="font-size:6.75px; font-family:Arial;" text-anchor="middle"><textPath startOffset="22.206326154141568" xlink:href="#id29">May</textPath></text><line stroke="#e1ed5e" stroke-width="0.3" x1="143.8653032363475" x2="146.44561519142675" y1="172.8068346515853" y2="177.08958963109032" /><path d="M 144.38136562736335 173.6633856474863 a86.0,86.0 0 0,1 -40.68145358897372,12.25698825130547" fill="none" id="id30" stroke="none" /><text fill="#e1ed5e" style="font-size:6.75px; font-family:Arial;" text-anchor="middle"><textPath startOffset="21.466115282336833" xlink:href="#id30">June</textPath></text><line stroke="#e1ed5e" stroke-width="0.3" x1="102.19456741930631" x2="102.32365962044197" y1="184.97166512339345" y2="189.96999836594603" /><path d="M 102.22038585953345 185.97133177190398 a86.0,86.0 0 0,1 -42.740103519485714,-10.115201625700543" fill="none" id="id31" stroke="none" /><text fill="#e1ed5e" style="font-size:6.75px; font-family:Arial;" text-anchor="middle"><textPath startOffset="22.20632615414155" xlink:href="#id31">July</textPath></text><line stroke="#e1ed5e" stroke-width="0.3" x1="58.666819895761336" x2="56.23545636021788" y1="174.27360380694188" y2="178.64263932499728" /><path d="M 58.180547188652646 175.14741091055294 a86.0,86.0 0 0,1 -31.652253787137756,-30.449443065178592" fill="none" id="id32" stroke="none" /><text fill="#e1ed5e" style="font-size:6.75px; font-family:Arial;" text-anchor="middle"><textPath startOffset="22.20632615414155" xlink:href="#id32">August</textPath></text><line stroke="#e1ed5e" stroke-width="0.3" x1="26.63291911575756" x2="22.317208475507996" y1="142.92168965132927" y2="145.44649492493687" /><path d="M 25.769776987707644 143.4266507060508 a86.0,86.0 0 0,1 -11.730757126820373,-40.83630448921669" fill="none" id="id33" stroke="none" /><text fill="#e1ed5e" style="font-size:6.75px; font-family:Arial;" text-anchor="middle"><textPath startOffset="21.46611528233685" xlink:href="#id33">September</textPath></text><line stroke="#e1ed5e" stroke-width="0.3" x1="15.007084014347285" x2="10.007500721073583" y1="101.09737516637583" y2="101.16192664675087" /><path d="M 14.007167355692545 101.11028546245083 a86.0,86.0 0 0,1 10.666146001902534,-42.60595125391555" fill="none" id="id34" stroke="none" /><text fill="#e1ed5e" style="font-size:6.75px; font-family:Arial;" text-anchor="middle"><textPath startOffset="22.20632615414155" xlink:href="#id34">October</textPath></text><line stroke="#e1ed5e" stroke-width="0.3" x1="26.266209847984243" x2="21.928928074336255" y1="57.711370442889674" y2="55.22380399835377" /><path d="M 25.398753493254645 57.213857153982495 a86.0,86.0 0 0,1 29.58750427330803,-30.492523968695096" fill="none" id="id35" stroke="none" /><text fill="#e1ed5e" style="font-size:6.75px; font-family:Arial;" text-anchor="middle"><textPath startOffset="21.46611528233685" xlink:href="#id35">November</textPath></text><line stroke="#e1ed5e" stroke-width="0.3" x1="56.762969772571076" x2="54.21961505331055" y1="26.818313649435495" y2="22.513508569990535" /><path d="M 56.25429882871897 25.957352633546506 a86.0,86.0 0 0,1 42.265352541879196,-11.944610805530505" fill="none" id="id36" stroke="none" /><text fill="#e1ed5e" style="font-size:6.75px; font-family:Arial;" text-anchor="middle"><textPath startOffset="22.20632615414155" xlink:href="#id36">December</textPath></text></svg>