<?xml version="1.0" encoding="utf-8" ?>
<svg baseProfile="full" height="200mm" version="1.1" viewBox="0,0,200,200" width="200mm" xmlns="http://www.w3.org/2000/svg" xmlns:ev="http://www.w3.org/2001/xml-events" xmlns:xlink="http://www.w3.org/1999/xlink"><defs /><rect fill="#1a1a1a" height="200" width="200" x="0" y="0" /><text alignment-baseline="middle" fill="#e1ed5e" style="dominant-baseline: central; font-size:9.0px; font-family:Arial;" text-anchor="middle" x="100.0" y="100.0">2025</text><line stroke="#e1ed5e" stroke-width="0.3" x1="100.0" x2="100.0" y1="15.0" y2="10.0" /><path d="M 100.0 14.0 a86.0,86.0 0 0,1 42.46469731375804,11.215312516191453" fill="none" id="id49" stroke="none" /><text fill="#e1ed5e" style="font-size:6.75px; font-family:Arial;" text-anchor="middle"><textPath startOffset="22.20632615414155" xlink:href="#id49">January</textPath></text><path d="M 100.36148047927253 79.00311137660856 l 0.23304362912599225 -13.536529372199688 a34.538535252290075,34.538535252290075 0 0,0 0.594347938074321,0.015350253743241058 l -0.466018202395181 13.530512326314087" fill="#ff2b04" stroke="none" /><path d="M 101.08401301168833 79.027996857942 l 1.6704817766674378 -32.31819977368757 a53.361343389577584,53.361343389577584 0 0,0 0.9168951342790997,0.05530961843171556 l -2.2265389597861494 32.28465688587554" fill="#b4ff20" stroke="none" /><path d="M 101.44485096284872 79.0497635885617 l 2.3933187736457446 -34.70295234946104 a55.7853830871711,55.7853830871711 0 0,0 0.9574094930855519,0.07431340312284176 l -2.9903184560936378 34.65661368414974" fill="#94ff23" stroke="none" /><path d="M 101.80526077348638 79.07773832637324 l 2.2709664792669657 -26.319607465628522 a47.417400059330646,47.417400059330646 0 0,0 0.8125871819077458,0.07716494416826576 l -2.7236787882649556 26.27661697694508" fill="#fff617" stroke="none" /><path d="M 102.16513564639614 79.11191278185805 l 1.389271205964722 -13.402956146487561 a34.47476559901475,34.47476559901475 0 0,0 0.589737318660171,0.06626385917756007 l -1.6197752281346183 13.3770563338394" fill="#ff2a04" stroke="none" /><path d="M 102.52436894288641 79.15227682838746 l 4.084253352760979 -33.73016590979459 a54.976539225645226,54.976539225645226 0 0,0 0.9384895042859275,0.12184287248543535 l -4.664257585554752 33.65486471414502" fill="#9fff22" stroke="none" /><path d="M 102.88285421437855 79.19881850522331 l 1.5749354364582908 -11.363917638612268 a32.47253440727789,32.47253440727789 0 0,0 0.5530088375304928,0.08149912745410788 l -1.7703132544174394 11.33512402699719" fill="#ff0801" stroke="none" /><path d="M 103.2404852339499 79.25152402106235 l 3.609612917902041 -23.111960559395452 a44.392135993024155,44.392135993024155 0 0,0 0.7539703993249018,0.1244115761562794 l -4.006912523365818 23.046402720299547" fill="#ffc912" stroke="none" /><path d="M 103.59715602781102 79.31037775812273 l 5.772956681232816 -33.204090128420496 a54.702205122212135,54.702205122212135 0 0,0 0.9263033822804058,0.16927602232952957 l -6.343655184616122 33.099798624740224" fill="#a2ff22" stroke="none" /><path d="M 103.95276090670814 79.375362276772 l 7.780195830029201 -40.5953520077075 a62.334175349017,62.334175349017 0 0,0 1.0520631229456143,0.211033965166891 l -8.47782536244194 40.4554140864634" fill="#43ff2d" stroke="none" /><path d="M 104.307194497241 79.44645832069477 l 2.558181044353378 -12.207408036021107 a33.472573961039544,33.472573961039544 0 0,0 0.5629087159833467,0.12303004256094728 l -2.767932484490253 12.16156449536429" fill="#ff1902" stroke="none" /><path d="M 104.66035177308747 79.52364482259891 l 6.356697865934893 -27.92965200823849 a49.64390107963791,49.64390107963791 0 0,0 0.831597546980582,0.19681227153115238 l -6.836519099877999 27.816093824566472" fill="#e8ff1a" stroke="none" /><path d="M 105.01212808612495 79.60689891045804 l 3.3394692803063397 -13.587468925072747 a34.991832148218734,34.991832148218734 0 0,0 0.5836822747688861,0.14879360806656292 l -3.5728604437602507 13.527972320837316" fill="#ff3304" stroke="none" /><path d="M 106.0581310904928 79.89281104454417 l 8.403048957955672 -27.890068847258462 a50.1284598304582,50.1284598304582 0 0,0 0.8240513131884457,0.2560367542839015 l -8.881885643854837 27.74129195809204" fill="#e1ff1b" stroke="none" /><path d="M 106.40334571778207 80.00007090966166 l 13.892924883958484 -43.39255207866684 a66.5623412231102,66.5623412231102 0 0,0 1.0881902444597802,0.35875921464903615 l -14.637797950660682 43.146979139758564" fill="#33ff54" stroke="none" /><path d="M 106.74666289553966 80.11325718540242 l 10.356507511060002 -30.527270225115384 a53.23618270242087,53.23618270242087 0 0,0 0.8652603424434147,0.3018723436463221 l -10.880449857566692 30.344477028296854" fill="#b6ff1f" stroke="none" /><path d="M 107.76421540070413 80.48803036053334 l 14.433186529351662 -36.27152040835043 a60.037674957974126,60.037674957974126 0 0,0 0.9569322971830129,0.39035671116000475 l -15.055402696123062 36.01770281100685" fill="#5eff29" stroke="none" /><path d="M 108.09893153111575 80.62456947434976 l 20.42838826473017 -48.87173277778773 a73.9694752833937,73.9694752833937 0 0,0 1.1705360983047406,0.5011624695079016 l -21.266608120825225 48.51285078031704" fill="#3effb7" stroke="none" /><path d="M 108.43124777332544 80.76684994638697 l 25.111295304946328 -57.28325434446691 a83.54557042816947,83.54557042816947 0 0,0 1.3121344309572984,0.5887164713699228 l -26.09361185437041 56.84251754258046" fill="#4cd7ff" stroke="none" /><path d="M 108.76106565485865 80.91482961587045 l 16.634345003518792 -36.236380496074744 a60.87200402729209,60.87200402729209 0 0,0 0.9485069542661235,0.4453367331176587 l -17.255630169084515 35.94467878031708" fill="#54ff2b" stroke="none" /><path d="M 109.41281617654863 81.2277094730956 l 5.208530439505038 -10.387544470720233 a32.620235344881834,32.620235344881834 0 0,0 0.499772314981063,0.256002790995328 l -5.386563242074857 10.296349154412406" fill="#ff0a01" stroke="none" /><path d="M 109.73455568895987 81.39251694778311 l 6.073279042126488 -11.608997930528824 a34.10166215693854,34.10166215693854 0 0,0 0.51778494763609,0.276582786998891 l -6.2722090362908896 11.50273641702818" fill="#ff2403" stroke="none" /><line stroke="#e1ed5e" stroke-width="0.3" x1="143.23703022742887" x2="145.7803849466894" y1="26.81831364943548" y2="22.513508569990506" /><path d="M 143.74570117128098 25.957352633546492 a86.0,86.0 0 0,1 28.547481713284135,27.462654790039103" fill="none" id="id50" stroke="none" /><text fill="#e1ed5e" style="font-size:6.75px; font-family:Arial;" text-anchor="middle"><textPath startOffset="19.985693538727396" xlink:href="#id50">February</textPath></text><path d="M 110.99172775467656 82.1063720568725 l 18.490481041136192 -30.100980994436917 a56.32657563308492,56.32657563308492 0 0,0 0.8217801898301134,0.5145986794813575 l -19.005880383338567 29.778237973632613" fill="#8dff24" stroke="none" /><path d="M 111.2981086023043 82.29822771554956 l 21.97346585658143 -34.42782350437129 a61.84248074001493,61.84248074001493 0 0,0 0.8923957557869092,0.5804390231666957 l -22.56282863815262 34.04448555704507" fill="#48ff2c" stroke="none" /><path d="M 111.60114157652 82.49532879139004 l 26.5559882691189 -40.069663852000986 a69.07076527539306,69.07076527539306 0 0,0 0.9853941442978762,0.6653425249346039 l -27.241787107823317 39.60660941476771" fill="#37ff77" stroke="none" /><path d="M 112.77801427241765 83.33499621200491 l 15.606543133600724 -20.353952882990185 a46.6485396571408,46.6485396571408 0 0,0 0.6330150072209237,0.49407825385359844 l -15.954590695981079 20.08229623991336" fill="#ffeb16" stroke="none" /><path d="M 113.06298171725822 83.55741782278167 l 8.004280660947327 -10.075114961178217 a33.86765131561205,33.86765131561205 0 0,0 0.45333722302006607,0.36656717352490936 l -8.176521282531883 9.935841690389179" fill="#ff2003" stroke="none" /><path d="M 113.34407831869373 83.78471172551755 l 16.834044041518474 -20.45618066975472 a47.492269936444295,47.492269936444295 0 0,0 0.6267678412185064,0.5249000421423347 l -17.1836694196961 20.163379470218565" fill="#fff717" stroke="none" /><path d="M 113.6212207817346 84.01681056812373 l 7.1590112456804516 -8.400409531433477 a32.03713379059879,32.03713379059879 0 0,0 0.4166447577045632,0.3613102281957779 l -7.302549802031779 8.275934309818027" fill="#ff0000" stroke="none" /><path d="M 114.16331599549186 84.49514656593476 l 15.225198647262344 -16.667316721978782 a43.574457259463685,43.574457259463685 0 0,0 0.5494367976297329,0.5106416236114573 l -15.509843328686923 16.402770512292687" fill="#ffbd11" stroke="none" /><path d="M 114.68862486808459 84.99185889309783 l 28.973170935894892 -29.60341363643323 a62.42229753418255,62.42229753418255 0 0,0 0.7614456142648185,0.758175724810546 l -29.478452350327032 29.100302060972567" fill="#42ff2d" stroke="none" /><path d="M 115.4437574822437 85.77008943001954 l 9.940059404479321 -9.158791605518303 a34.51622153702322,34.51622153702322 0 0,0 0.3988371741840208,0.4404059692777207 l -10.096240219279377 8.986332848971033" fill="#ff2b04" stroke="none" /><path d="M 115.68641384162765 86.03803664274999 l 9.990057520249833 -8.891823105189431 a34.37407071133845,34.37407071133845 0 0,0 0.38958611958328254,0.44536428145405066 l -10.141635503410964 8.718543267532434" fill="#ff2803" stroke="none" /><path d="M 116.38621287248628 86.86637796730983 l 40.408355868613526 -32.38747580485224 a72.785942233529,72.785942233529 0 0,0 0.7751561414596293,0.9843695813150957 l -40.95986609066712 31.687113829584103" fill="#3cffa8" stroke="none" /><path d="M 116.60985879189232 87.15038557335679 l 42.939861717241556 -33.218865585375084 a75.28926924425346,75.28926924425346 0 0,0 0.7841702203172812,1.0318760905375246 l -43.505307877782954 32.47480471895653" fill="#40ffc7" stroke="none" /><path d="M 117.04232023915458 87.72973835380427 l 20.63857904026132 -14.859523895571405 a46.431405686752186,46.431405686752186 0 0,0 0.46141182912340034,0.6526343100510915 l -20.8913034891886 14.50206308518852" fill="#ffe815" stroke="none" /><path d="M 117.2510076193507 88.02491185347247 l 10.34409130473928 -7.180531589994404 a33.59207126868691,33.59207126868691 0 0,0 0.3256439932293775,0.4778423777058828 l -10.46615976363739 7.001411189018114" fill="#ff1b02" stroke="none" /><line stroke="#e1ed5e" stroke-width="0.3" x1="172.23445277983987" x2="176.4835382374775" y1="55.19839476539836" y2="52.563006222186495" /><path d="M 173.08426987136738 54.67131705675599 a86.0,86.0 0 0,1 12.851231095245387,41.99856678651699" fill="none" id="id51" stroke="none" /><text fill="#e1ed5e" style="font-size:6.75px; font-family:Arial;" text-anchor="middle"><textPath startOffset="22.20632615414155" xlink:href="#id51">March</textPath></text><path d="M 117.84615892207809 88.93136811851018 l 53.538476766234254 -33.20589564446945 a84.0,84.0 0 0,0 0.7515368068551043,1.2353289071716742 l -54.10212937137558 32.279398964090696" fill="#4dd2ff" stroke="none" /><path d="M 118.03404312379186 89.2402003453031 l 32.715249916833244 -19.519168959625464 a59.095741677978445,59.095741677978445 0 0,0 0.5136836153959825,0.8780518117021541 l -33.046393206699555 18.953137735569413" fill="#6aff28" stroke="none" /><path d="M 118.21658344932153 89.55222093294921 l 18.933973699092643 -10.859224761865981 a42.827004431819205,42.827004431819205 0 0,0 0.36126078959199426,0.642642634121995 l -19.118092129977068 10.531698617809193" fill="#ffb110" stroke="none" /><line stroke="#e1ed5e" stroke-width="0.3" x1="184.98032266829074" x2="189.97916517819016" y1="98.17113171792111" y2="98.06355123074" /><path d="M 185.9800911702706 98.14961562048488 a86.0,86.0 0 0,1 -9.607161424134198,41.387399972396054" fill="none" id="id52" stroke="none" /><text fill="#e1ed5e" style="font-size:6.75px; font-family:Arial;" text-anchor="middle"><textPath startOffset="21.466115282336823" xlink:href="#id52">April</textPath></text><line stroke="#e1ed5e" stroke-width="0.3" x1="174.80103733775053" x2="179.2010983576182" y1="140.37084112569926" y2="142.7455964860345" /><path d="M 175.68104954172406 140.8457921977663 a86.0,86.0 0 0,1 -30.038265399797805,32.042727171017184" fill="none" id="id53" stroke="none" /><text fill="#e1ed5e" style="font-size:6.75px; font-family:Arial;" text-anchor="middle"><textPath startOffset="22.206326154141568" xlink:href="#id53">May</textPath></text><line stroke="#e1ed5e" stroke-width="0.3" x1="143.8653032363475" x2="146.44561519142675" y1="172.8068346515853" y2="177.08958963109032" /><path d="M 144.38136562736335 173.6633856474863 a86.0,86.0 0 0,1 -40.68145358897372,12.25698825130547" fill="none" id="id54" stroke="none" /><text fill="#e1ed5e" style="font-size:6.75px; font-family:Arial;" text-anchor="middle"><textPath startOffset="21.466115282336833" xlink:href="#id54">June</textPath></text><line stroke="#e1ed5e" stroke-width="0.3" x1="102.19456741930631" x2="102.32365962044197" y1="184.97166512339345" y2="189.96999836594603" /><path d="M 102.22038585953345 185.97133177190398 a86.0,86.0 0 0,1 -42.740103519485714,-10.115201625700543" fill="none" id="id55" stroke="none" /><text fill="#e1ed5e" style="font-size:6.75px; font-family:Arial;" text-anchor="middle"><textPath startOffset="22.20632615414155" xlink:href="#id55">July</textPath></text><line stroke="#e1ed5e" stroke-width="0.3" x1="58.666819895761336" x2="56.23545636021788" y1="174.27360380694188" y2="178.64263932499728" /><path d="M 58.180547188652646 175.14741091055294 a86.0,86.0 0 0,1 -31.652253787137756,-30.449443065178592" fill="none" id="id56" stroke="none" /><text fill="#e1ed5e" style="font-size:6.75px; font-family:Arial;" text-anchor="middle"><textPath startOffset="22.20632615414155" xlink:href="#id56">August</textPath></text><line stroke="#e1ed5e" stroke-width="0.3" x1="26.63291911575756" x2="22.317208475507996" y1="142.92168965132927" y2="145.44649492493687" /><path d="M 25.769776987707644 143.4266507060508 a86.0,86.0 0 0,1 -11.730757126820373,-40.83630448921669" fill="none" id="id57" stroke="none" /><text fill="#e1ed5e" style="font-size:6.75px; font-family:Arial;" text-anchor="middle"><textPath startOffset="21.46611528233685" xlink:href="#id57">September</textPath></text><line stroke="#e1ed5e" stroke-width="0.3" x1="15.007084014347285" x2="10.007500721073583" y1="101.09737516637583" y2="101.16192664675087" /><path d="M 14.007167355692545 101.11028546245083 a86.0,86.0 0 0,1 10.666146001902534,-42.60595125391555" fill="none" id="id58" stroke="none" /><text fill="#e1ed5e" style="font-size:6.75px; font-family:Arial;" text-anchor="middle"><textPath startOffset="22.20632615414155" xlink:href="#id58">October</textPath></text><line stroke="#e1ed5e" stroke-width="0.3" x1="26.266209847984243" x2="21.928928074336255" y1="57.711370442889674" y2="55.22380399835377" /><path d="M 25.398753493254645 57.213857153982495 a86.0,86.0 0 0,1 29.58750427330803,-30.492523968695096" fill="none" id="id59" stroke="none" /><text fill="#e1ed5e" style="font-size:6.75px; font-family:Arial;" text-anchor="middle"><textPath startOffset="21.46611528233685" xlink:href="#id59">November</textPath></text><line stroke="#e1ed5e" stroke-width="0.3" x1="56.762969772571076" x2="54.21961505331055" y1="26.818313649435495" y2="22.513508569990535" /><path d="M 56.25429882871897 25.957352633546506 a86.0,86.0 0 0,1 42.265352541879196,-11.944610805530505" fill="none" id="id60" stroke="none" /><text fill="#e1ed5e" style="font-size:6.75px; font-family:Arial;" text-anchor="middle"><textPath startOffset="22.20632615414155" xlink:href="#id60">December</textPath></text></svg>