<?xml version="1.0" encoding="utf-8" ?>
<svg baseProfile="full" height="200mm" version="1.1" viewBox="0,0,200,200" width="200mm" xmlns="http://www.w3.org/2000/svg" xmlns:ev="http://www.w3.org/2001/xml-events" xmlns:xlink="http://www.w3.org/1999/xlink"><defs /><rect fill="#1a1a1a" height="200" width="200" x="0" y="0" /><text alignment-baseline="middle" fill="#e1ed5e" style="dominant-baseline: central; font-size:9.0px; font-family:Arial;" text-anchor="middle" x="100.0" y="100.0">2025</text><line stroke="#e1ed5e" stroke-width="0.3" x1="100.0" x2="100.0" y1="15.0" y2="10.0" /><path d="M 100.0 14.0 a86.0,86.0 0 0,1 42.46469731375804,11.215312516191453" fill="none" id="id61" stroke="none" /><text fill="#e1ed5e" style="font-size:6.75px; font-family:Arial;" text-anchor="middle"><textPath startOffset="22.20632615414155" xlink:href="#id61">January</textPath></text><path d="M 100.36148047927253 79.00311137660856 l 0.052952189680437134 -3.075771149032369 a24.07622692524655,24.07622692524655 0 0,0 0.41430986360896516,0.010700401443859213 l -0.10588868848427009 3.0744039554461504" fill="#ff1702" stroke="none" /><path d="M 100.72285384407766 79.0124445844662 l 0.14690697777103603 -4.265341274946533 a25.2678704117956,25.2678704117956 0 0,0 0.43455824024849227,0.0187129919426406 l -0.2203060504088598 4.262180556479698" fill="#ff2903" stroke="none" /><path d="M 101.80526077348638 79.07773832637324 l 0.3645531856279798 -4.225027904934083 a25.24072633196522,25.24072633196522 0 0,0 0.4325477705174243,0.04107562278268164 l -0.43722608323564827 4.218126737636223" fill="#ff2803" stroke="none" /><path d="M 102.52436894288641 79.15227682838746 l 0.3118351103940411 -2.57531771455356 a23.594128459997275,23.594128459997275 0 0,0 0.40276893079061327,0.052290966762335155 l -0.35611876969250045 2.569568424627088" fill="#ff1001" stroke="none" /><path d="M 103.59715602781102 79.31037775812273 l 0.6481933959974525 -3.728188713300755 a24.784117566962983,24.784117566962983 0 0,0 0.4196834821891114,0.07669447382075213 l -0.7122719992894647 3.716478758129264" fill="#ff2203" stroke="none" /><path d="M 104.66035177308747 79.52364482259891 l 0.5561119836914504 -2.443409221216633 a23.505894882219067,23.505894882219067 0 0,0 0.3937531922054053,0.0931886589396082 l -0.5980888628593792 2.4334746501361564" fill="#ff0f01" stroke="none" /><path d="M 105.36241919743992 79.69619591428918 l 0.8151745030635303 -3.0865068165074234 a24.19233986266996,24.19233986266996 0 0,0 0.4017104749871608,0.10980264751509632 l -0.868182867274402 3.0720176281660336" fill="#ff1902" stroke="none" /><path d="M 106.74666289553966 80.11325718540242 l 0.8208949485699942 -2.4197039295985134 a23.5551586298119,23.5551586298119 0 0,0 0.3828475970237658,0.1335680091919674 l -0.8624245496570337 2.4052150672343386" fill="#ff1001" stroke="none" /><path d="M 107.4271985657038 80.35727306442388 l 1.6339865739094321 -4.321407567573106 a25.62000816977572,25.62000816977572 0 0,0 0.4111606698124041,0.15952395212295112 l -1.7081304087215032 4.292640911559608" fill="#ff2e04" stroke="none" /><path d="M 108.09893153111575 80.62456947434976 l 1.7794049999796226 -4.256948934762776 a25.61388083798557,25.61388083798557 0 0,0 0.4053289823088579,0.1735407169682578 l -1.8524177400787958 4.225688689831728" fill="#ff2d04" stroke="none" /><path d="M 108.43124777332544 80.76684994638697 l 1.2323867079281177 -2.811289516677424 a24.069548133595283,24.069548133595283 0 0,0 0.37802701785163145,0.16960970368694628 l -1.2805958442465295 2.7896594824739465" fill="#ff1702" stroke="none" /><line stroke="#e1ed5e" stroke-width="0.3" x1="143.23703022742887" x2="145.7803849466894" y1="26.81831364943548" y2="22.513508569990506" /><path d="M 143.74570117128098 25.957352633546492 a86.0,86.0 0 0,1 28.547481713284135,27.462654790039103" fill="none" id="id62" stroke="none" /><text fill="#e1ed5e" style="font-size:6.75px; font-family:Arial;" text-anchor="middle"><textPath startOffset="19.985693538727396" xlink:href="#id62">February</textPath></text><path d="M 111.2981086023043 82.29822771554956 l 5.108708065658642 -8.004276647471805 a30.495648621836644,30.495648621836644 0 0,0 0.4400565286910798,0.2862250072293814 l -5.245731620134002 7.915152716082896" fill="#ff720a" stroke="none" /><path d="M 112.19680574252982 82.90503203632743 l 2.5015563405035564 -3.5061659915688983 a25.307085335252584,25.307085335252584 0 0,0 0.35243693503471274,0.2560604217425798 l -2.5615385918920577 3.4625863350096435" fill="#ff2904" stroke="none" /><path d="M 113.06298171725822 83.55741782278167 l 18.088287330538577 -22.768014019692167 a50.07866229648506,50.07866229648506 0 0,0 0.6703305607608812,0.5420273617695129 l -18.47752128986395 22.453280560658524" fill="#9aff23" stroke="none" /><path d="M 113.6212207817346 84.01681056812373 l 2.784482335356967 -3.267321582174377 a25.292869925499428,25.292869925499428 0 0,0 0.32893522031784045,0.2852493816781455 l -2.840311354321572 3.21890720707656" fill="#ff2904" stroke="none" /><path d="M 114.16331599549186 84.49514656593476 l 1.9038610979954191 -2.0841932279582926 a23.822861755723707,23.822861755723707 0 0,0 0.30038599896956625,0.279176048793402 l -1.9394549807598322 2.05111259309025" fill="#ff1402" stroke="none" /><path d="M 114.42810811169701 84.74124197986012 l 1.5931147131950134 -1.684832946826878 a23.31876616934778,23.31876616934778 0 0,0 0.28928234882852183,0.2782893903749334 l -1.6218803056359534 1.6571604696896427" fill="#ff0c01" stroke="none" /><path d="M 115.19652480421416 85.50635884689758 l 2.03973195562098 -1.9453883959764358 a23.818695170106402,23.818695170106402 0 0,0 0.2804171330511717,0.2991294460198105 l -2.072916410642615 1.9099895330785703" fill="#ff1402" stroke="none" /><path d="M 115.4437574822437 85.77008943001954 l 1.552231459445376 -1.4302293258109986 a23.11068198175417,23.11068198175417 0 0,0 0.2670454263130023,0.2948782295862326 l -1.5766205263744142 1.403298308955217" fill="#ff0901" stroke="none" /><path d="M 117.04232023915458 87.72973835380427 l 2.3032939956358995 -1.6583434402102344 a23.838180085199088,23.838180085199088 0 0,0 0.23689177860111663,0.3350666210223413 l -2.3314983940408993 1.6184503188561" fill="#ff1402" stroke="none" /><path d="M 117.2510076193507 88.02491185347247 l 2.7962880350291055 -1.9410921635088905 a24.40397790270186,24.40397790270186 0 0,0 0.23657394482623595,0.3471430723409724 l -2.8292864455240747 1.8926710678975116" fill="#ff1c02" stroke="none" /><path d="M 117.45458315368197 88.32363383020206 l 1.3167075595380957 -0.8808207831915295 a22.584160361026278,22.584160361026278 0 0,0 0.21337016205922832,0.3249773953015997 l -1.331674356955249 0.8580253239122557" fill="#ff0100" stroke="none" /><path d="M 117.65298651832404 88.62581576622439 l 1.2477171665074636 -0.8039299700800839 a22.484284852846777,22.484284852846777 0 0,0 0.20682587389119336,0.3271488631548179 l -1.2613706366446127 0.7823334592110598" fill="#ff0000" stroke="none" /><line stroke="#e1ed5e" stroke-width="0.3" x1="172.23445277983987" x2="176.4835382374775" y1="55.19839476539836" y2="52.563006222186495" /><path d="M 173.08426987136738 54.67131705675599 a86.0,86.0 0 0,1 12.851231095245387,41.99856678651699" fill="none" id="id63" stroke="none" /><text fill="#e1ed5e" style="font-size:6.75px; font-family:Arial;" text-anchor="middle"><textPath startOffset="22.20632615414155" xlink:href="#id63">March</textPath></text><path d="M 117.84615892207809 88.93136811851018 l 1.6958520019089238 -1.05180961441487 a22.995549417417184,22.995549417417184 0 0,0 0.2057381164410055,0.3381793682336928 l -1.7137059166361532 1.0224624729740959" fill="#ff0801" stroke="none" /><path d="M 118.03404312379186 89.2402003453031 l 4.326044529302528 -2.5810835713919285 a26.03752455795678,26.03752455795678 0 0,0 0.22632848613315606,0.38686874825826456 l -4.369832689906011 2.5062354107797686" fill="#ff3404" stroke="none" /><path d="M 118.21658344932153 89.55222093294921 l 10.92883387908415 -6.268027270142336 a33.59871326032407,33.59871326032407 0 0,0 0.2834169198320483,0.5041670758714579 l -11.035108440208631 6.078976684336085" fill="#ff9c0e" stroke="none" /><path d="M 118.3937258080291 89.86733742301442 l 15.217517314782267 -8.38296546438769 a38.37374292439067,38.37374292439067 0 0,0 0.31373623156145813,0.5813055888076276 l -15.35956164556219 8.119778892247604" fill="#ffd914" stroke="none" /><path d="M 118.56541770881063 90.18545643968196 l 5.580242583561493 -2.9499758514732917 a27.3120095703087,27.3120095703087 0 0,0 0.2161427786679014,0.41751905152169577 l -5.63019479538951 2.853484077691251" fill="#ff4606" stroke="none" /><path d="M 118.89224826269711 90.83032412892265 l 3.629543060385425 -1.7616608124702384 a25.034480343908655,25.034480343908655 0 0,0 0.18482814517869764,0.3892952108000564 l -3.6593293994058786 1.6989231860296417" fill="#ff2503" stroke="none" /><path d="M 119.04729006885535 91.15688171328212 l 5.468153194473965 -2.5387089362226236 a27.028743021649905,27.028743021649905 0 0,0 0.1922872182298857,0.4236793967328967 l -5.5110427296671975 2.444207530647664" fill="#ff4206" stroke="none" /><path d="M 119.196687751892 91.48605970444005 l 3.6828783279067947 -1.6333966882656459 a25.02884319866171,25.02884319866171 0 0,0 0.17127987093040584,0.3953375570954228 l -3.7104489086798815 1.5697599865836203" fill="#ff2503" stroke="none" /><path d="M 119.61058180528143 92.48833698450437 l 12.81168857333795 -4.907406020787848 a34.71940224474314,34.71940224474314 0 0,0 0.20897014922390023,0.5599361064983966 l -12.894263311063476 4.686146777260118" fill="#ffaa0f" stroke="none" /><path d="M 120.08093135843002 93.85539295169968 l 14.174616534344496 -4.337321168488716 a35.82336361337509,35.82336361337509 0 0,0 0.17535383452753237,0.5912059569661644 l -14.24717626598373 4.092685824776021" fill="#ffb911" stroke="none" /><path d="M 120.28053869075195 94.5502522615342 l 60.84161607225586 -16.349243215397394 a84.0,84.0 0 0,0 0.36321467251878925,1.3996142978045985 l -61.11402707664495 15.299532492043943" fill="#4dd2ff" stroke="none" /><line stroke="#e1ed5e" stroke-width="0.3" x1="184.98032266829074" x2="189.97916517819016" y1="98.17113171792111" y2="98.06355123074" /><path d="M 185.9800911702706 98.14961562048488 a86.0,86.0 0 0,1 -9.607161424134198,41.387399972396054" fill="none" id="id64" stroke="none" /><text fill="#e1ed5e" style="font-size:6.75px; font-family:Arial;" text-anchor="middle"><textPath startOffset="21.466115282336823" xlink:href="#id64">April</textPath></text><line stroke="#e1ed5e" stroke-width="0.3" x1="174.80103733775053" x2="179.2010983576182" y1="140.37084112569926" y2="142.7455964860345" /><path d="M 175.68104954172406 140.8457921977663 a86.0,86.0 0 0,1 -30.038265399797805,32.042727171017184" fill="none" id="id65" stroke="none" /><text fill="#e1ed5e" style="font-size:6.75px; font-family:Arial;" text-anchor="middle"><textPath startOffset="22.206326154141568" xlink:href="#id65">May</textPath></text><line stroke="#e1ed5e" stroke-width="0.3" x1="143.8653032363475" x2="146.44561519142675" y1="172.8068346515853" y2="177.08958963109032" /><path d="M 144.38136562736335 173.6633856474863 a86.0,86.0 0 0,1 -40.68145358897372,12.25698825130547" fill="none" id="id66" stroke="none" /><text fill="#e1ed5e" style="font-size:6.75px; font-family:Arial;" text-anchor="middle"><textPath startOffset="21.466115282336833" xlink:href="#id66">June</textPath></text><line stroke="#e1ed5e" stroke-width="0.3" x1="102.19456741930631" x2="102.32365962044197" y1="184.97166512339345" y2="189.96999836594603" /><path d="M 102.22038585953345 185.97133177190398 a86.0,86.0 0 0,1 -42.740103519485714,-10.115201625700543" fill="none" id="id67" stroke="none" /><text fill="#e1ed5e" style="font-size:6.75px; font-family:Arial;" text-anchor="middle"><textPath startOffset="22.20632615414155" xlink:href="#id67">July</textPath></text><line stroke="#e1ed5e" stroke-width="0.3" x1="58.666819895761336" x2="56.23545636021788" y1="174.27360380694188" y2="178.64263932499728" /><path d="M 58.180547188652646 175.14741091055294 a86.0,86.0 0 0,1 -31.652253787137756,-30.449443065178592" fill="none" id="id68" stroke="none" /><text fill="#e1ed5e" style="font-size:6.75px; font-family:Arial;" text-anchor="middle"><textPath startOffset="22.20632615414155" xlink:href="#id68">August</textPath></text><line stroke="#e1ed5e" stroke-width="0.3" x1="26.63291911575756" x2="22.317208475507996" y1="142.92168965132927" y2="145.44649492493687" /><path d="M 25.769776987707644 143.4266507060508 a86.0,86.0 0 0,1 -11.730757126820373,-40.83630448921669" fill="none" id="id69" stroke="none" /><text fill="#e1ed5e" style="font-size:6.75px; font-family:Arial;" text-anchor="middle"><textPath startOffset="21.46611528233685" xlink:href="#id69">September</textPath></text><line stroke="#e1ed5e" stroke-width="0.3" x1="15.007084014347285" x2="10.007500721073583" y1="101.09737516637583" y2="101.16192664675087" /><path d="M 14.007167355692545 101.11028546245083 a86.0,86.0 0 0,1 10.666146001902534,-42.60595125391555" fill="none" id="id70" stroke="none" /><text fill="#e1ed5e" style="font-size:6.75px; font-family:Arial;" text-anchor="middle"><textPath startOffset="22.20632615414155" xlink:href="#id70">October</textPath></text><line stroke="#e1ed5e" stroke-width="0.3" x1="26.266209847984243" x2="21.928928074336255" y1="57.711370442889674" y2="55.22380399835377" /><path d="M 25.398753493254645 57.213857153982495 a86.0,86.0 0 0,1 29.58750427330803,-30.492523968695096" fill="none" id="id71" stroke="none" /><text fill="#e1ed5e" style="font-size:6.75px; font-family:Arial;" text-anchor="middle"><textPath startOffset="21.46611528233685" xlink:href="#id71">November</textPath></text><line stroke="#e1ed5e" stroke-width="0.3" x1="56.762969772571076" x2="54.21961505331055" y1="26.818313649435495" y2="22.513508569990535" /><path d="M 56.25429882871897 25.957352633546506 a86.0,86.0 0 0,1 42.265352541879196,-11.944610805530505" fill="none" id="id72" stroke="none" /><text fill="#e1ed5e" style="font-size:6.75px; font-family:Arial;" text-anchor="middle"><textPath startOffset="22.20632615414155" xlink:href="#id72">December</textPath></text></svg>