<?xml version="1.0" encoding="utf-8" ?>
<svg baseProfile="full" height="200mm" version="1.1" viewBox="0,0,200,200" width="200mm" xmlns="http://www.w3.org/2000/svg" xmlns:ev="http://www.w3.org/2001/xml-events" xmlns:xlink="http://www.w3.org/1999/xlink"><defs /><rect fill="#1a1a1a" height="200" width="200" x="0" y="0" /><text alignment-baseline="middle" fill="#e1ed5e" style="dominant-baseline: central; font-size:9.0px; font-family:Arial;" text-anchor="middle" x="100.0" y="100.0">2024</text><line stroke="#e1ed5e" stroke-width="0.3" x1="100.0" x2="100.0" y1="15.0" y2="10.0" /><path d="M 100.0 14.0 a86.0,86.0 0 0,1 42.35913384403234,11.155469271406648" fill="none" id="id49" stroke="none" /><text fill="#e1ed5e" style="font-size:6.75px; font-family:Arial;" text-anchor="middle"><textPath startOffset="22.145653131862478" xlink:href="#id49">January</textPath></text><path d="M 106.04205211174951 79.88797359093562 l 3.3224599514549698 -11.059388606857391 a32.547675804529206,32.547675804529206 0 0,0 0.533718906740335,0.16534748160905818 l -3.5118194910669347 11.000724537441686" fill="#ff6c09" stroke="none" /><path d="M 107.06938296918511 80.22567764915836 l 10.168277080981056 -28.442480712736362 a51.205439375880374,51.205439375880374 0 0,0 0.8251655323388079,0.3030122132083817 l -10.65503176497399 28.263737650519257" fill="#9fff22" stroke="none" /><path d="M 108.07796709384702 80.6158196554323 l 1.6656282241592923 -3.996901387317929 a25.330073680788818,25.330073680788818 0 0,0 0.39993161789991494,0.1707070262774671 l -1.7339949172296372 3.9677197113810605" fill="#ff0000" stroke="none" /><path d="M 108.4095320186766 80.7573450057729 l 8.10372434573763 -18.542907192341925 a41.23634738324846,41.23634738324846 0 0,0 0.6462061542388722,0.28903979338059466 l -8.420843902832134 18.40106364805148" fill="#ffe315" stroke="none" /><path d="M 109.3889696526874 81.21577127319529 l 28.166908958062173 -56.352686180414125 a84.0,84.0 0 0,0 1.2842911131456847,0.6557681933086643 l -29.130127292921436 55.86086003543262" fill="#4dd2ff" stroke="none" /><line stroke="#e1ed5e" stroke-width="0.3" x1="143.13028292997686" x2="145.6673583964461" y1="26.7553504044142" y2="22.446841604673864" /><path d="M 143.63769802327073 25.89364864446614 a86.0,86.0 0 0,1 29.32050498858742,28.57503671076993" fill="none" id="id50" stroke="none" /><text fill="#e1ed5e" style="font-size:6.75px; font-family:Arial;" text-anchor="middle"><textPath startOffset="20.669276256404974" xlink:href="#id50">February</textPath></text><path d="M 115.6541949942343 86.00192230759917 l 10.714568684214413 -9.58103338673369 a35.37352367537111,35.37352367537111 0 0,0 0.40088129826367574,0.45612932865913675 l -10.877461046436679 9.395691780263256" fill="#ff940d" stroke="none" /><path d="M 115.8921839302757 86.27271002978787 l 7.395057307245534 -6.387674371771152 a30.77186043991765,30.77186043991765 0 0,0 0.3418686824587245,0.4027204483198053 l -7.503620553211371 6.2597871410017945" fill="#ff5207" stroke="none" /><path d="M 116.7966241395341 87.39550010848427 l 19.515808907475495 -14.645026834775603 a45.39966410228627,45.39966410228627 0 0,0 0.4624236410977009,0.6273664801807534 l -19.76433456815702 14.307854045325975" fill="#e5ff1a" stroke="none" /><line stroke="#e1ed5e" stroke-width="0.3" x1="172.87174338648825" x2="177.1583165268699" y1="56.24261187166439" y2="53.66864786411523" /><path d="M 173.72905801456457 55.72781907015455 a86.0,86.0 0 0,1 12.242430191666344,42.057860355516425" fill="none" id="id51" stroke="none" /><text fill="#e1ed5e" style="font-size:6.75px; font-family:Arial;" text-anchor="middle"><textPath startOffset="22.145653131862474" xlink:href="#id51">March</textPath></text><path d="M 120.592083275326 95.88100663000786 l 11.302090317101225 -2.2607345969202464 a32.525977895763354,32.525977895763354 0 0,0 0.104816834350234,0.5484459686987102 l -11.339233443733617 2.066386063188222" fill="#ff6b09" stroke="none" /><path d="M 120.77682067341334 96.94652285012252 l 17.28504573639158 -2.5403064800090998 a38.470717304149964,38.470717304149964 0 0,0 0.0904162310006701,0.654206806725773 l -17.326106483947466 2.243211365083241" fill="#ffbe11" stroke="none" /><path d="M 120.86939407059847 97.66154086499901 l 24.88511219037014 -2.7884287263078456 a46.04084949615343,46.04084949615343 0 0,0 0.08126781613971895,0.7861924009320379 l -24.929312398991527 2.3608318030928763" fill="#ddff1b" stroke="none" /><line stroke="#e1ed5e" stroke-width="0.3" x1="184.99686870605535" x2="189.99668451229388" y1="99.2704041080226" y2="99.22748670261217" /><path d="M 185.99683186730306 99.26182062694052 a86.0,86.0 0 0,1 -10.086455211305974,41.156179273409016" fill="none" id="id52" stroke="none" /><text fill="#e1ed5e" style="font-size:6.75px; font-family:Arial;" text-anchor="middle"><textPath startOffset="21.40746469413373" xlink:href="#id52">April</textPath></text><line stroke="#e1ed5e" stroke-width="0.3" x1="174.33088141563837" x2="178.70328620479359" y1="141.23008692659167" y2="143.65538615756765" /><path d="M 175.20536237346943 141.71514677278685 a86.0,86.0 0 0,1 -30.301960400862466,31.631185727798858" fill="none" id="id53" stroke="none" /><text fill="#e1ed5e" style="font-size:6.75px; font-family:Arial;" text-anchor="middle"><textPath startOffset="22.145653131862474" xlink:href="#id53">May</textPath></text><path d="M 112.7482090630111 116.68781488649013 l 32.372336747387955 42.376427968301 a74.32663343807565,74.32663343807565 0 0,0 -1.0205648855330574,0.7658509163581813 l -31.64011887294413 -42.925897911923194" fill="#40ffc9" stroke="none" /><line stroke="#e1ed5e" stroke-width="0.3" x1="143.1302829299769" x2="145.66735839644613" y1="173.24464959558577" y2="177.55315839532614" /><path d="M 143.63769802327073 174.10635135553383 a86.0,86.0 0 0,1 -40.68552437913181,11.842963189579606" fill="none" id="id54" stroke="none" /><text fill="#e1ed5e" style="font-size:6.75px; font-family:Arial;" text-anchor="middle"><textPath startOffset="21.407464694133747" xlink:href="#id54">June</textPath></text><path d="M 101.08105385017728 120.97215588758144 l 1.2080090271478936 23.435052404463132 a44.46616643189944,44.46616643189944 0 0,0 -0.7626460796955383,0.03275130412623898 l -0.8055371868515256 -23.452336277015203" fill="#f1ff19" stroke="none" /><path d="M 100.72087961077811 120.9876233191556 l 0.4675903473530016 13.61338277736168 a34.62141077039766,34.62141077039766 0 0,0 -0.5941474042732889,0.015303129548143992 l -0.23382962900896878 -13.61940362425987" fill="#ff890c" stroke="none" /><line stroke="#e1ed5e" stroke-width="0.3" x1="101.45913802915013" x2="101.54496967792366" y1="184.9874750549273" y2="189.98673829345242" /><path d="M 101.47630435890484 185.9873277026323 a86.0,86.0 0 0,1 -42.54439059252881,-10.42667462771756" fill="none" id="id55" stroke="none" /><text fill="#e1ed5e" style="font-size:6.75px; font-family:Arial;" text-anchor="middle"><textPath startOffset="22.145653131862474" xlink:href="#id55">July</textPath></text><line stroke="#e1ed5e" stroke-width="0.3" x1="58.13341422392154" x2="55.67067388415222" y1="173.97424548756322" y2="178.32567169271397" /><path d="M 57.64086615596768 174.84453072859336 a86.0,86.0 0 0,1 -31.369924170532247,-30.572349798747897" fill="none" id="id56" stroke="none" /><text fill="#e1ed5e" style="font-size:6.75px; font-family:Arial;" text-anchor="middle"><textPath startOffset="22.145653131862474" xlink:href="#id56">August</textPath></text><path d="M 89.03521579738668 117.91015095944536 l -3.837920573063073 6.268954825170008 a28.35047134034023,28.35047134034023 0 0,0 -0.4128852905521543,-0.257670958168599 l 3.94496999240494 -6.202148070159861" fill="#ff2e04" stroke="none" /><path d="M 88.72937992617639 117.7192867562869 l -3.9767652729407414 6.252135532217867 a28.409713945172825,28.409713945172825 0 0,0 -0.4092546024706273,-0.26527388884763 l 4.083505507668378 -6.182947801666343" fill="#ff2f04" stroke="none" /><path d="M 88.1277618465304 117.32195027204791 l -5.529706763430492 8.068007425133846 a30.781124715570485,30.781124715570485 0 0,0 -0.433288169767389,-0.3024687933527068 l 5.667390024371646 -7.97189381597601" fill="#ff5207" stroke="none" /><path d="M 87.83215693770417 117.11559508785305 l -3.2764068849769674 4.608676599395501 a26.654621302416295,26.654621302416295 0 0,0 -0.37065026579030913,-0.26832220869875545 l 3.3550381611412305 -4.551753619323681" fill="#ff1402" stroke="none" /><path d="M 86.96720088162412 116.46651593811092 l -7.381295431210247 9.326025649436652 a32.89362336114422,32.89362336114422 0 0,0 -0.43975521042216204,-0.35423566887808067 l 7.54030141198767 -9.19794168676516" fill="#ff710a" stroke="none" /><path d="M 86.40962598614128 116.0094264158162 l -6.701994187894033 7.894932301414492 a31.35599739950157,31.35599739950157 0 0,0 -0.40735997728982604,-0.35186784617206923 l 6.836533644946721 -7.7787203227777" fill="#ff5a08" stroke="none" /><path d="M 86.13680546590413 115.77377054828092 l -6.458156824021306 7.348196958239576 a30.782831292664426,30.782831292664426 0 0,0 -0.39392492103499394,-0.3522500934510935 l 6.583346771879671 -7.2362513349051" fill="#ff5207" stroke="none" /><path d="M 85.60350026404147 115.28858382429668 l -5.719668753354787 6.074090007063305 a29.343211615559646,29.343211615559646 0 0,0 -0.36375453983841305,-0.34846862070461465 l 5.823095779058515 -5.975009256053107" fill="#ff3d05" stroke="none" /><line stroke="#e1ed5e" stroke-width="0.3" x1="26.387840678322732" x2="22.057713659400548" y1="142.50000000000003" y2="145.00000000000006" /><path d="M 25.521815274538298 143.00000000000003 a86.0,86.0 0 0,1 -11.493303480769221,-40.785679425670985" fill="none" id="id57" stroke="none" /><text fill="#e1ed5e" style="font-size:6.75px; font-family:Arial;" text-anchor="middle"><textPath startOffset="21.40746469413373" xlink:href="#id57">September</textPath></text><path d="M 81.81346652052679 110.50000000000001 l -6.177996642681442 3.5668680247047386 a28.13373604940947,28.13373604940947 0 0,0 -0.2378863256985896,-0.4203223436819289 l 6.238316333401409 -3.4602889109236883" fill="#ff2b04" stroke="none" /><path d="M 79.03789590574601 101.26102812881392 l -19.549336866317493 1.1760395605917646 a40.584678730089934,40.584678730089934 0 0,0 -0.03586605379267199,-0.6957918618845628 l 19.566644509566736 -0.840275905330471" fill="#ffdb14" stroke="none" /><line stroke="#e1ed5e" stroke-width="0.3" x1="15.003131293944662" x2="10.003315487706104" y1="100.72959589197737" y2="100.7725132973878" /><path d="M 14.003168132696942 100.73817937305945 a86.0,86.0 0 0,1 10.791469493833604,-42.45332614584628" fill="none" id="id58" stroke="none" /><text fill="#e1ed5e" style="font-size:6.75px; font-family:Arial;" text-anchor="middle"><textPath startOffset="22.145653131862435" xlink:href="#id58">October</textPath></text><path d="M 80.83023694016515 91.42560881287825 l -11.082931911595928 -4.9572544748540635 a33.14107703976595,33.14107703976595 0 0,0 0.23674649559050537,-0.5173338188051269 l 10.996200951150376 5.146777275873862" fill="#ff740a" stroke="none" /><path d="M 81.1358732173502 90.77261029715801 l -11.973857233890586 -5.85701359073362 a34.329586087333404,34.329586087333404 0 0,0 0.26348788880768115,-0.5271522811546885 l 11.871549431871161 6.061697728052079" fill="#ff850c" stroke="none" /><path d="M 81.29705330413844 90.45014215332179 l -11.182163616668767 -5.709692418741327 a33.5555314768664,33.5555314768664 0 0,0 0.26635411135481174,-0.5107691286288573 l 11.082501436339015 5.900807790474672" fill="#ff7a0b" stroke="none" /><path d="M 81.46374523516351 90.13048839642627 l -4.368442313741399 -2.325949478575453 a25.949073572434717,25.949073572434717 0 0,0 0.2127263661270497,-0.39139255380381816 l 4.327870597998999 2.400596865853891" fill="#ff0a01" stroke="none" /><path d="M 81.63589988554816 89.8137432299009 l -10.638460238431033 -5.900974561877297 a33.16545671253657,33.16545671253657 0 0,0 0.2804323117130747,-0.4954970242918825 l 10.53559456169659 6.0827283562682855" fill="#ff750a" stroke="none" /><line stroke="#e1ed5e" stroke-width="0.3" x1="26.387840678322718" x2="22.05771365940052" y1="57.49999999999999" y2="54.99999999999999" /><path d="M 25.521815274538284 56.99999999999999 a86.0,86.0 0 0,1 29.574782752854787,-30.34633250058573" fill="none" id="id59" stroke="none" /><text fill="#e1ed5e" style="font-size:6.75px; font-family:Arial;" text-anchor="middle"><textPath startOffset="21.40746469413373" xlink:href="#id59">November</textPath></text><path d="M 82.18462484594161 88.88188828441811 l -5.48748742613513 -3.4245980067235884 a27.468414779499405,27.468414779499405 0 0,0 0.25307868090071745,-0.39788172162752294 l 5.427891053608523 3.518293403029783" fill="#ff2103" stroke="none" /><path d="M 82.576782715395 88.27688183743585 l -8.942266763173953 -6.016756158949259 a31.778009535160905,31.778009535160905 0 0,0 0.30841354699269646,-0.44998458211286124 l 8.837663479365942 6.169375476132155" fill="#ff6108" stroke="none" /><path d="M 83.2033758604659 87.39550010848427 l -9.566806226990419 -7.179109745418016 a32.960911257991114,32.960911257991114 0 0,0 0.3434966787338821,-0.4496481788541691 l 9.44215757090223 7.342278837513069" fill="#ff720a" stroke="none" /><path d="M 83.42222388311158 87.10902102172516 l -9.372680412199887 -7.28825297867729 a32.8729006392892,32.8729006392892 0 0,0 0.3502272092949268,-0.44250063792387273 l 9.2461867722634 7.448073560515846" fill="#ff700a" stroke="none" /><path d="M 83.8745106332314 86.54754324733833 l -5.559478558173698 -4.63791474293524 a28.24003142268935,28.24003142268935 0 0,0 0.3137406122687305,-0.36958565236301605 l 5.479043382397853 4.732667177747813" fill="#ff2c04" stroke="none" /><path d="M 84.10781606972428 86.27271002978789 l -9.37915107208059 -8.101487310098255 a33.39365044966952,33.39365044966952 0 0,0 0.37844377814550084,-0.4305995495634125 l 9.238696229976497 8.261299137472967" fill="#ff780b" stroke="none" /><path d="M 84.83555147118756 85.47280134310135 l -8.642277970211174 -8.279106799225517 a32.967981363094594,32.967981363094594 0 0,0 0.3950085357318552,-0.40531355601357144 l 8.498882633328515 8.42624304730682" fill="#ff720a" stroke="none" /><path d="M 85.60350026404147 84.71141617570332 l -3.7643650088191793 -3.9976251893251944 a26.491033698125474,26.491033698125474 0 0,0 0.3337494687448965,-0.30891352568002 l 3.6951857687603296 4.06165646113758" fill="#ff1202" stroke="none" /><path d="M 85.86807049272753 84.46653392183569 l -8.30223241319308 -9.125607759153137 a33.337089608841694,33.337089608841694 0 0,0 0.4266115181818216,-0.3814786501753468 l 8.144355868187866 9.266781939211885" fill="#ff770b" stroke="none" /><path d="M 86.13680546590413 84.22622945171909 l -3.578083148793626 -4.071201803662925 a26.420088850362987,26.420088850362987 0 0,0 0.3432353516603711,-0.2964785218281769 l 3.507668317370406 4.132024457955812" fill="#ff1101" stroke="none" /><path d="M 86.40962598614128 83.9905735841838 l -8.290795013547145 -9.766535679051009 a33.81103044750244,33.81103044750244 0 0,0 0.44570290553818237,-0.3718212157730991 l 8.121917773847052 9.90741907873599" fill="#ff7e0b" stroke="none" /><path d="M 86.68645165197937 83.75963576809568 l -3.0878372780299235 -3.766659403878123 a25.87057102611334,25.87057102611334 0 0,0 0.34586394695482026,-0.2786035132425995 l 3.022722560719858 3.8191112109141216" fill="#ff0801" stroke="none" /><path d="M 87.54013794807813 83.09580414077388 l -7.07575436278281 -9.599619731087234 a32.92556073247373,32.92556073247373 0 0,0 0.45785185609369217,-0.331449435283513 l 6.9099214963151505 9.719669937743825" fill="#ff710a" stroke="none" /><path d="M 87.83215693770416 82.88440491214696 l -7.069122606920007 -9.94360623711085 a33.20031964459855,33.20031964459855 0 0,0 0.467341783883019,-0.32624086074237163 l 6.897385731863222 10.063491913658348" fill="#ff750a" stroke="none" /><path d="M 88.12776184653039 82.6780497279521 l -4.147142243391333 -6.050804471955439 a28.33559973995016,28.33559973995016 0 0,0 0.4035849076770036,-0.27154993730725013 l 4.04266104761734 6.121104083319798" fill="#ff2e04" stroke="none" /><path d="M 88.72937992617638 82.28071324371311 l -4.380290561716097 -6.8865443099416765 a29.16158305341857,29.16158305341857 0 0,0 0.4246980075720872,-0.2650429672538144 l 4.261428425354311 6.960723074037028" fill="#ff3a05" stroke="none" /><path d="M 89.03521579738668 82.08984904055464 l -6.002940576600609 -9.80535229337868 a32.49696608516632,32.49696608516632 0 0,0 0.47827370134232866,-0.28718961573646634 l 5.833734118700846 9.90695590965107" fill="#ff6b09" stroke="none" /><line stroke="#e1ed5e" stroke-width="0.3" x1="56.869717070023135" x2="54.33264160355391" y1="26.7553504044142" y2="22.446841604673864" /><path d="M 56.362301976729285 25.89364864446614 a86.0,86.0 0 0,1 42.16139366436587,-11.88097634709845" fill="none" id="id60" stroke="none" /><text fill="#e1ed5e" style="font-size:6.75px; font-family:Arial;" text-anchor="middle"><textPath startOffset="22.145653131862474" xlink:href="#id60">December</textPath></text><path d="M 89.97174638481275 81.54914285379989 l -6.24020239509818 -11.481269558336988 a34.0675046050493,34.0675046050493 0 0,0 0.5162219515985473,-0.2748591129091671 l 6.042191627713071 11.586699138968731" fill="#ff810b" stroke="none" /><path d="M 91.92203290615298 80.6158196554323 l -4.774438292898698 -11.456913829724853 a33.411935204247484,33.411935204247484 0 0,0 0.5313222240215477,-0.21608412300399085 l 4.577061607686709 11.537185209308136" fill="#ff780b" stroke="none" /><path d="M 92.25597844496254 80.48000691201159 l -4.399143182953114 -11.088714554062292 a32.92946148011702,32.92946148011702 0 0,0 0.5272284919412487,-0.20394330684086207 l 4.208142428518335 11.162597749041195" fill="#ff710a" stroke="none" /><path d="M 92.592206182469 80.34994680014964 l -3.142518852294787 -8.335904609411314 a29.908576227110196,29.908576227110196 0 0,0 0.4819707930396938,-0.17698635119528133 l 2.998958907600966 8.388621809615318" fill="#ff4506" stroke="none" /><path d="M 94.6519064749342 79.69241777938228 l -2.126203072216599 -8.073539384529983 a29.34881894029689,29.34881894029689 0 0,0 0.48830104703935723,-0.12412421667101478 l 1.9872967319518637 8.108848833036262" fill="#ff3d05" stroke="none" /><path d="M 95.00130118170881 79.60360301121753 l -4.091237249309575 -16.693644115317753 a38.18766930328313,38.18766930328313 0 0,0 0.638039299149317,-0.15057553730829745 l 3.804065796420352 16.76141579627228" fill="#ffbb11" stroke="none" /><path d="M 95.35216902796891 79.52079915486377 l -3.839300618619819 -16.91666692414413 a38.34686856647524,38.34686856647524 0 0,0 0.643200395908549,-0.1401825326184008 l 3.5483378060921518 16.98008091489625" fill="#ffbd11" stroke="none" /><path d="M 96.76829788921471 79.25015418208739 l -2.628587448947876 -16.877417043650375 a38.080886336547835,38.080886336547835 0 0,0 0.646785529164474,-0.0950551995042382 l 2.3384768141757175 16.9200533164535" fill="#ffb911" stroke="none" /><path d="M 97.84075906011542 79.11130261209362 l -1.551071843369868 -15.00521306565595 a36.08516632354535,36.08516632354535 0 0,0 0.6167134261354648,-0.05840340264956052 l 1.2932588538493879 15.029628223810693" fill="#ff9e0e" stroke="none" /><path d="M 98.1996594967304 79.07731436759882 l -0.7130940199048647 -8.28723343040877 a29.31785675587821,29.31785675587821 0 0,0 0.5017974630857855,-0.03884229723179448 l 0.5707275620438619 8.298253494635619" fill="#ff3c05" stroke="none" /><path d="M 99.27912038922189 79.0123766808444 l -0.5351194587646474 -15.57941917538809 a36.588606566258534,36.588606566258534 0 0,0 0.627906983961111,-0.016172656567428927 l 0.26759916073279244 15.586309549305563" fill="#ffa50f" stroke="none" /></svg>