<?xml version="1.0" encoding="utf-8" ?>
<svg baseProfile="full" height="200mm" version="1.1" viewBox="0,0,200,200" width="200mm" xmlns="http://www.w3.org/2000/svg" xmlns:ev="http://www.w3.org/2001/xml-events" xmlns:xlink="http://www.w3.org/1999/xlink"><defs /><rect fill="#1a1a1a" height="200" width="200" x="0" y="0" /><text alignment-baseline="middle" fill="#e1ed5e" style="dominant-baseline: central; font-size:9.0px; font-family:Arial;" text-anchor="middle" x="100.0" y="100.0">2021</text><line stroke="#e1ed5e" stroke-width="0.3" x1="100.0" x2="100.0" y1="15.0" y2="10.0" /><path d="M 100.0 14.0 a86.0,86.0 0 0,1 42.46469731375804,11.215312516191453" fill="none" id="id13" stroke="none" /><text fill="#e1ed5e" style="font-size:6.75px; font-family:Arial;" text-anchor="middle"><textPath startOffset="22.20632615414155" xlink:href="#id13">January</textPath></text><line stroke="#e1ed5e" stroke-width="0.3" x1="143.23703022742887" x2="145.7803849466894" y1="26.81831364943548" y2="22.513508569990506" /><path d="M 143.74570117128098 25.957352633546492 a86.0,86.0 0 0,1 28.547481713284135,27.462654790039103" fill="none" id="id14" stroke="none" /><text fill="#e1ed5e" style="font-size:6.75px; font-family:Arial;" text-anchor="middle"><textPath startOffset="19.985693538727396" xlink:href="#id14">February</textPath></text><path d="M 113.34407831869373 83.78471172551755 l 2.6117641638042355 -3.1737305349684157 a25.110216241990553,25.110216241990553 0 0,0 0.3313860560378304,0.27752629177890126 l -2.6660077568011835 3.1283030857956953" fill="red" stroke="none" /><line stroke="#e1ed5e" stroke-width="0.3" x1="172.23445277983987" x2="176.4835382374775" y1="55.19839476539836" y2="52.563006222186495" /><path d="M 173.08426987136738 54.67131705675599 a86.0,86.0 0 0,1 12.851231095245387,41.99856678651699" fill="none" id="id15" stroke="none" /><text fill="#e1ed5e" style="font-size:6.75px; font-family:Arial;" text-anchor="middle"><textPath startOffset="22.20632615414155" xlink:href="#id15">March</textPath></text><path d="M 120.96714384426684 98.82574320788733 l 7.237286772489345 -0.40532145017865917 a28.248627822231196,28.248627822231196 0 0,0 0.02301105211396372,0.4857269409403906 l -7.243191432836805 0.2806834026152688" fill="red" stroke="none" /><line stroke="#e1ed5e" stroke-width="0.3" x1="184.98032266829074" x2="189.97916517819016" y1="98.17113171792111" y2="98.06355123074" /><path d="M 185.9800911702706 98.14961562048488 a86.0,86.0 0 0,1 -9.607161424134198,41.387399972396054" fill="none" id="id16" stroke="none" /><text fill="#e1ed5e" style="font-size:6.75px; font-family:Arial;" text-anchor="middle"><textPath startOffset="21.466115282336823" xlink:href="#id16">April</textPath></text><path d="M 120.92983693683757 101.71520430193887 l 9.915697553592006 0.8125933877063216 a30.94893793266671,30.94893793266671 0 0,0 -0.0480819807070947,0.5305806504959591 l -9.900240976607837 -0.9831554267508513" fill="red" stroke="none" /><path d="M 120.81339534386255 102.79330883721812 l 7.601909066936297 1.0202314147010754 a28.670064771663355,28.670064771663355 0 0,0 -0.06985386054560297,0.48855773795974683 l -7.583221155374093 -1.1509346246412315" fill="red" stroke="none" /><line stroke="#e1ed5e" stroke-width="0.3" x1="174.80103733775053" x2="179.2010983576182" y1="140.37084112569926" y2="142.7455964860345" /><path d="M 175.68104954172406 140.8457921977663 a86.0,86.0 0 0,1 -30.038265399797805,32.042727171017184" fill="none" id="id17" stroke="none" /><text fill="#e1ed5e" style="font-size:6.75px; font-family:Arial;" text-anchor="middle"><textPath startOffset="22.206326154141568" xlink:href="#id17">May</textPath></text><path d="M 118.48025628344425 109.97397251340804 l 7.145319178913264 3.856397660126273 a29.119568281723673,29.119568281723673 0 0,0 -0.2418637930914371,0.43905303854866123 l -7.077878976370317 -3.9788212170727393" fill="red" stroke="none" /><path d="M 118.12598468904814 110.60418214915192 l 20.396677223471475 11.932597551284157 a44.63072842887821,44.63072842887821 0 0,0 -0.39364116364509794,0.6597652324666131 l -20.18825518412815 -12.281924877636873" fill="red" stroke="none" /><path d="M 117.55443506779139 111.5257021239791 l 10.21805627642116 6.708861462831606 a33.22364496357682,33.22364496357682 0 0,0 -0.3179928316483656,0.475356137480333 l -10.101060339362073 -6.8837545145177454" fill="red" stroke="none" /><path d="M 116.93607887273984 112.41649034213515 l 10.869631383496623 7.968944530188126 a34.47786939164755,34.47786939164755 0 0,0 -0.3550214668715202,0.4756092716533479 l -10.73084864993001 -8.15486668135079" fill="red" stroke="none" /><path d="M 113.75828350139079 115.86535959552629 l 7.341834227409927 8.466233458325425 a32.20623214080615,32.20623214080615 0 0,0 -0.421954587205223,0.35959885332556435 l -7.195014163627657 -8.591356701873936" fill="red" stroke="none" /><line stroke="#e1ed5e" stroke-width="0.3" x1="143.8653032363475" x2="146.44561519142675" y1="172.8068346515853" y2="177.08958963109032" /><path d="M 144.38136562736335 173.6633856474863 a86.0,86.0 0 0,1 -40.68145358897372,12.25698825130547" fill="none" id="id18" stroke="none" /><text fill="#e1ed5e" style="font-size:6.75px; font-family:Arial;" text-anchor="middle"><textPath startOffset="21.466115282336833" xlink:href="#id18">June</textPath></text><line stroke="#e1ed5e" stroke-width="0.3" x1="102.19456741930631" x2="102.32365962044197" y1="184.97166512339345" y2="189.96999836594603" /><path d="M 102.22038585953345 185.97133177190398 a86.0,86.0 0 0,1 -42.740103519485714,-10.115201625700543" fill="none" id="id19" stroke="none" /><text fill="#e1ed5e" style="font-size:6.75px; font-family:Arial;" text-anchor="middle"><textPath startOffset="22.20632615414155" xlink:href="#id19">July</textPath></text><path d="M 94.81253420990036 120.34920634021253 l -2.151957759276256 8.441623376583813 a29.711597294973842,29.711597294973842 0 0,0 -0.49449939113950764,-0.1306017836349709 l 2.296947593227253 -8.403330243645259" fill="red" stroke="none" /><path d="M 93.42475214034765 119.94407469862007 l -3.3861323870767857 10.270833694601855 a31.814615912041404,31.814615912041404 0 0,0 -0.5186240934127961,-0.1759454507146636 l 3.5624262134268077 -10.211025256989068" fill="red" stroke="none" /><line stroke="#e1ed5e" stroke-width="0.3" x1="58.666819895761336" x2="56.23545636021788" y1="174.27360380694188" y2="178.64263932499728" /><path d="M 58.180547188652646 175.14741091055294 a86.0,86.0 0 0,1 -31.652253787137756,-30.449443065178592" fill="none" id="id20" stroke="none" /><text fill="#e1ed5e" style="font-size:6.75px; font-family:Arial;" text-anchor="middle"><textPath startOffset="22.20632615414155" xlink:href="#id20">August</textPath></text><line stroke="#e1ed5e" stroke-width="0.3" x1="26.63291911575756" x2="22.317208475507996" y1="142.92168965132927" y2="145.44649492493687" /><path d="M 25.769776987707644 143.4266507060508 a86.0,86.0 0 0,1 -11.730757126820373,-40.83630448921669" fill="none" id="id21" stroke="none" /><text fill="#e1ed5e" style="font-size:6.75px; font-family:Arial;" text-anchor="middle"><textPath startOffset="21.46611528233685" xlink:href="#id21">September</textPath></text><line stroke="#e1ed5e" stroke-width="0.3" x1="15.007084014347285" x2="10.007500721073583" y1="101.09737516637583" y2="101.16192664675087" /><path d="M 14.007167355692545 101.11028546245083 a86.0,86.0 0 0,1 10.666146001902534,-42.60595125391555" fill="none" id="id22" stroke="none" /><text fill="#e1ed5e" style="font-size:6.75px; font-family:Arial;" text-anchor="middle"><textPath startOffset="22.20632615414155" xlink:href="#id22">October</textPath></text><line stroke="#e1ed5e" stroke-width="0.3" x1="26.266209847984243" x2="21.928928074336255" y1="57.711370442889674" y2="55.22380399835377" /><path d="M 25.398753493254645 57.213857153982495 a86.0,86.0 0 0,1 29.58750427330803,-30.492523968695096" fill="none" id="id23" stroke="none" /><text fill="#e1ed5e" style="font-size:6.75px; font-family:Arial;" text-anchor="middle"><textPath startOffset="21.46611528233685" xlink:href="#id23">November</textPath></text><path d="M 81.96595687620814 89.24020034530311 l -10.854244765726373 -6.476057436514649 a33.639380892881384,33.639380892881384 0 0,0 0.30096705834309073,-0.49471070995637856 l 10.741161909097064 6.661935919678102" fill="red" stroke="none" /><path d="M 82.95767976084542 87.72973835380427 l -9.123300312840406 -6.568664380462577 a32.24197315160607,32.24197315160607 0 0,0 0.3281578623252312,-0.447606955420396 l 9.008879838001542 6.724733779554474" fill="red" stroke="none" /><path d="M 84.31358615837235 86.03803664274999 l -10.691462913013366 -9.516121079934557 a35.313068840340115,35.313068840340115 0 0,0 0.4080447963558055,-0.45057325565368694 l 10.526074476041517 9.698747122857801" fill="red" stroke="none" /><path d="M 86.10567301691215 84.25364557470407 l -41.68298094926353 -47.23906327588782 a84.0,84.0 0 0,0 1.092424805412906,-0.9473400263212777 l 40.863662345203856 47.94956829562878" fill="red" stroke="none" /><path d="M 86.37877921826538 84.01681056812374 l -15.626972647560962 -18.33674588166454 a45.09229178920843,45.09229178920843 0 0,0 0.5950947052676052,-0.4983747016540845 l 15.309020405334246 18.60302174071244" fill="red" stroke="none" /><path d="M 88.70189139769569 82.29822771554957 l -5.91682290004255 -9.270423511649803 a31.99770636613914,31.99770636613914 0 0,0 0.46683259040961,-0.29233052528719494 l 5.7563711572606975 9.370898378259927" fill="red" stroke="none" /><line stroke="#e1ed5e" stroke-width="0.3" x1="56.762969772571076" x2="54.21961505331055" y1="26.818313649435495" y2="22.513508569990535" /><path d="M 56.25429882871897 25.957352633546506 a86.0,86.0 0 0,1 42.265352541879196,-11.944610805530505" fill="none" id="id24" stroke="none" /><text fill="#e1ed5e" style="font-size:6.75px; font-family:Arial;" text-anchor="middle"><textPath startOffset="22.20632615414155" xlink:href="#id24">December</textPath></text><path d="M 89.63071344664047 81.73862282372117 l -5.427583487088263 -9.558531216532863 a31.992005346011545,31.992005346011545 0 0,0 0.48121446814682783,-0.2677953305238614 l 5.26224492986939 9.650541944616908" fill="red" stroke="none" /><path d="M 90.58718382345135 81.22770947309562 l -5.140312256319713 -10.25149469242293 a32.46804052666567,32.46804052666567 0 0,0 0.5017529549891881,-0.24620799592403503 l 4.963088034320099 10.338457848481795" fill="red" stroke="none" /><path d="M 92.91201910852362 80.23233633223022 l -2.619018030129435 -7.304177078366794 a28.759526933665605,28.759526933665605 0 0,0 0.4674354331946054,-0.16307904430627396 l 2.4929005928715444 7.348176975845277" fill="red" stroke="none" /><path d="M 95.33964822691252 79.52364482259891 l -3.110491262674657 -13.666677317908434 a35.016177253695396,35.016177253695396 0 0,0 0.5888675128320243,-0.12870363010798933 l 2.8747810256891118 13.71819444611229" fill="red" stroke="none" /><path d="M 96.04723909329186 79.375362276772 l -2.2597090920813336 -11.790665432095462 a33.00525203868898,33.00525203868898 0 0,0 0.5588966025803085,-0.10213478174437314 l 2.0564173683981317 11.827815695190571" fill="red" stroke="none" /><path d="M 98.19473922651362 79.07773832637324 l -0.7963914527835065 -9.229863416129891 a30.264157707340672,30.264157707340672 0 0,0 0.5194047308767193,-0.04031580366428031 l 0.6373965325444529 9.242204481982634" fill="red" stroke="none" /></svg>