<?xml version="1.0" encoding="utf-8" ?>
<svg baseProfile="full" height="200mm" version="1.1" viewBox="0,0,200,200" width="200mm" xmlns="http://www.w3.org/2000/svg" xmlns:ev="http://www.w3.org/2001/xml-events" xmlns:xlink="http://www.w3.org/1999/xlink"><defs /><rect fill="#1a1a1a" height="200" width="200" x="0" y="0" /><text alignment-baseline="middle" fill="#e1ed5e" style="dominant-baseline: central; font-size:9.0px; font-family:Arial;" text-anchor="middle" x="100.0" y="100.0">2023</text><line stroke="#e1ed5e" stroke-width="0.3" x1="100.0" x2="100.0" y1="15.0" y2="10.0" /><path d="M 100.0 14.0 a86.0,86.0 0 0,1 42.46469731375804,11.215312516191453" fill="none" id="id49" stroke="none" /><text fill="#e1ed5e" style="font-size:6.75px; font-family:Arial;" text-anchor="middle"><textPath startOffset="22.20632615414155" xlink:href="#id49">January</textPath></text><path d="M 103.2404852339499 79.25152402106235 l 2.1488247391745525 -13.758692067658226 a34.92548222404991,34.92548222404991 0 0,0 0.5931856890873564,0.097880721310526 l -2.385339634400784 13.719665083408076" fill="#ff7c0b" stroke="none" /><line stroke="#e1ed5e" stroke-width="0.3" x1="143.23703022742887" x2="145.7803849466894" y1="26.81831364943548" y2="22.513508569990506" /><path d="M 143.74570117128098 25.957352633546492 a86.0,86.0 0 0,1 28.547481713284135,27.462654790039103" fill="none" id="id50" stroke="none" /><text fill="#e1ed5e" style="font-size:6.75px; font-family:Arial;" text-anchor="middle"><textPath startOffset="19.985693538727396" xlink:href="#id50">February</textPath></text><path d="M 110.99172775467656 82.1063720568725 l 9.083693040606896 -14.787504498466287 a38.35464688629909,38.35464688629909 0 0,0 0.5595775820708024,0.3504074305569904 l -9.336889775049961 14.628952726586354" fill="#ffae10" stroke="none" /><path d="M 111.2981086023043 82.29822771554956 l 18.09741664109455 -28.3548653667696 a54.63799754814481,54.63799754814481 0 0,0 0.7884340429621681,0.5128194332623054 l -18.582817709841 28.03914700934777" fill="#80ff26" stroke="none" /><path d="M 112.19680574252982 82.90503203632743 l 19.290300344080578 -27.03716639855907 a54.21331140112661,54.21331140112661 0 0,0 0.7549969921538107,0.5485374233158699 l -19.75284265258818 26.701109740426524" fill="#85ff25" stroke="none" /><path d="M 112.48926042617603 83.11751280151076 l 19.87122132871531 -26.86112934255619 a54.4123585915799,54.4123585915799 0 0,0 0.7481798964950854,0.5635135866441717 l -20.33064737896878 26.51509916640617" fill="#82ff25" stroke="none" /><path d="M 112.77801427241765 83.33499621200491 l 19.69580169850801 -25.68713752509636 a53.36902282708214,53.36902282708214 0 0,0 0.7242111461272207,0.5652582867991491 l -20.135045399794663 25.34430084907399" fill="#8fff24" stroke="none" /><path d="M 113.34407831869373 83.78471172551755 l 21.540039756881125 -26.174753007282387 a54.89824490619327,54.89824490619327 0 0,0 0.7245064195201901,0.6067532906589576 l -21.987403713360433 25.80009855922961" fill="#7dff26" stroke="none" /><path d="M 114.16331599549186 84.49514656593476 l 23.03349347483048 -25.215206701270972 a55.1518443227138,55.1518443227138 0 0,0 0.6954177890870739,0.6463150455878686 l -23.4641191477124 24.814987069608463" fill="#7aff26" stroke="none" /><path d="M 114.42810811169701 84.74124197986012 l 23.227147194679073 -24.564372251580867 a54.8069334740305,54.8069334740305 0 0,0 0.6799106922002097,0.6540735472040663 l -23.646541130491702 24.1609156176145" fill="#7eff26" stroke="none" /><path d="M 114.94478906791727 85.2469230424477 l 23.44834413061817 -23.147548213230806 a53.94895796154622,53.94895796154622 0 0,0 0.6467086026142788,0.6664900622850861 l -23.843316996935556 22.740493955395603" fill="#88ff25" stroke="none" /><path d="M 116.38621287248628 86.86637796730983 l 25.182350047344613 -20.18376485100178 a53.27282320261945,53.27282320261945 0 0,0 0.5673452154526205,0.720470808816142 l -25.526049343391197 19.7473016482326" fill="#90ff24" stroke="none" /><path d="M 116.60985879189232 87.15038557335679 l 13.56110517599156 -10.491056841236073 a38.14543225586195,38.14543225586195 0 0,0 0.3973011335670561,0.5228017206588456 l -13.73968224978273 10.256070344696193" fill="#ffab0f" stroke="none" /><path d="M 116.82858285166822 87.43820079747576 l 13.106818270596612 -9.783665133923591 a37.35569590788473,37.35569590788473 0 0,0 0.3802051833850809,0.5185994428540713 l -13.273286066495318 9.556603247398026" fill="#ff9f0e" stroke="none" /><line stroke="#e1ed5e" stroke-width="0.3" x1="172.23445277983987" x2="176.4835382374775" y1="55.19839476539836" y2="52.563006222186495" /><path d="M 173.08426987136738 54.67131705675599 a86.0,86.0 0 0,1 12.851231095245387,41.99856678651699" fill="none" id="id51" stroke="none" /><text fill="#e1ed5e" style="font-size:6.75px; font-family:Arial;" text-anchor="middle"><textPath startOffset="22.20632615414155" xlink:href="#id51">March</textPath></text><path d="M 119.47837535516314 92.15188598940014 l 58.435126065489385 -23.54434203179955 a84.0,84.0 0 0,0 0.5288258004731983,1.3458039804168624 l -58.83174541584429 22.534989046486903" fill="#4dd2ff" stroke="none" /><path d="M 119.7369772167798 92.82701384747503 l 29.443841969591812 -10.700740463208279 a52.328033394888344,52.328033394888344 0 0,0 0.3003801530016758,0.8492151421621584 l -29.623675203403298 10.192327694619506" fill="#9bff22" stroke="none" /><path d="M 119.85752413597 93.16781622104841 l 31.647853980026248 -10.88876705476564 a54.46867056687512,54.46867056687512 0 0,0 0.2974059605643732,0.8892059675423086 l -31.830597234362394 10.342387984301018" fill="#82ff25" stroke="none" /><path d="M 120.53481517161879 95.60439243477599 l 32.57451805917695 -6.972782409667878 a54.31244394096925,54.31244394096925 0 0,0 0.1878194247414499,0.9158742177503436 l -32.6897167798334 6.4110325357541225" fill="#84ff25" stroke="none" /><path d="M 120.73433829027371 96.67025291283417 l 40.25661822733346 -6.464848571728447 a61.772411973743424,61.772411973743424 0 0,0 0.1595613951245336,1.0513102318618035 l -40.361935515897294 5.770939227474561" fill="#31ff2f" stroke="none" /><path d="M 120.87857604477298 97.74499172005257 l 40.457931252818746 -4.369693113601518 a61.69322325848451,61.69322325848451 0 0,0 0.10494567908195471,1.0567886664662451 l -40.527154057582926 3.672628916430838" fill="#32ff2f" stroke="none" /><path d="M 120.91429891909075 98.10471618934814 l 33.14008126700822 -3.0032017688967043 a54.27588026256576,54.27588026256576 0 0,0 0.07631063718588338,0.9311830614238092 l -33.1868663880136 2.4323047902651265" fill="#84ff25" stroke="none" /><path d="M 120.94382443527127 98.46500227214037 l 17.416255315370165 -1.2764580041023537 a38.462969227665624,38.462969227665624 0 0,0 0.04271112907640549,0.6607222624188004 l -17.435647035450987 0.9764766774305181" fill="#ffaf10" stroke="none" /><path d="M 120.96714384426684 98.82574320788733 l 15.766110428419706 -0.8829749246382188 a36.79081640570444,36.79081640570444 0 0,0 0.029969434230737394,0.6326073896367715 l -15.77897347088394 0.6114564283784475" fill="#ff970e" stroke="none" /><path d="M 120.98425023603335 99.18683210126433 l 33.904082571267324 -1.3138287655232201 a54.929529336912836,54.929529336912836 0 0,0 0.02848045232513882,0.945127558920043 l -33.92167471804811 0.730031059178178" fill="#7cff26" stroke="none" /><line stroke="#e1ed5e" stroke-width="0.3" x1="184.98032266829074" x2="189.97916517819016" y1="98.17113171792111" y2="98.06355123074" /><path d="M 185.9800911702706 98.14961562048488 a86.0,86.0 0 0,1 -9.607161424134198,41.387399972396054" fill="none" id="id52" stroke="none" /><text fill="#e1ed5e" style="font-size:6.75px; font-family:Arial;" text-anchor="middle"><textPath startOffset="21.466115282336823" xlink:href="#id52">April</textPath></text><path d="M 120.92983693683757 101.71520430193887 l 33.27987305652029 2.7272922195612654 a54.391437128536175,54.391437128536175 0 0,0 -0.08450202835183651,0.9324728414220628 l -33.22799643189138 -3.299746449531899" fill="#83ff25" stroke="none" /><path d="M 120.70491114924044 103.5080841355445 l 34.21944339981618 5.797884649336538 a55.70714296798622,55.70714296798622 0 0,0 -0.1683245908780082,0.9440536967871499 l -34.114572366598985 -6.386057096856907" fill="#74ff27" stroke="none" /><path d="M 120.5718875245553 104.21870165774334 l 11.526207572920711 2.3636932166449593 a32.766074393631385,32.766074393631385 0 0,0 -0.11806078648669188,0.5515406900062106 l -11.483812747709576 -2.5617477260673387" fill="#ff5d08" stroke="none" /><path d="M 120.32669344350535 105.2749913415812 l 32.24191277300596 8.367116431716761 a54.3099020809733,54.3099020809733 0 0,0 -0.2426150660907534,0.9028609159436162 l -32.09310963057343 -8.920868280835926" fill="#84ff25" stroke="none" /><path d="M 120.13307415673323 105.97154293290107 l 33.01098082587844 9.791176832922018 a55.43242656072997,55.43242656072997 0 0,0 -0.279203174530723,0.9124521289539661 l -32.83755087884158 -10.357955934428041" fill="#77ff27" stroke="none" /><path d="M 119.67450827220406 107.3425965602758 l 31.731155387669123 11.84218020494268 a54.86891575239366,54.86891575239366 0 0,0 -0.33785069901364034,0.8820215653059895 l -31.522610409061976 -12.386625337081814" fill="#7dff26" stroke="none" /><path d="M 119.54520255179757 107.68017299344265 l 31.557914975673754 12.400498059982404 a54.90684812464115,54.90684812464115 0 0,0 -0.3532272210002578,0.876680994569086 l -31.339785140416105 -12.941878422394304" fill="#7dff26" stroke="none" /><line stroke="#e1ed5e" stroke-width="0.3" x1="174.80103733775053" x2="179.2010983576182" y1="140.37084112569926" y2="142.7455964860345" /><path d="M 175.68104954172406 140.8457921977663 a86.0,86.0 0 0,1 -30.038265399797805,32.042727171017184" fill="none" id="id53" stroke="none" /><text fill="#e1ed5e" style="font-size:6.75px; font-family:Arial;" text-anchor="middle"><textPath startOffset="22.206326154141568" xlink:href="#id53">May</textPath></text><path d="M 117.14729908036423 112.12312394758627 l 27.613428653281076 19.522667483236425 a54.817687497090354,54.817687497090354 0 0,0 -0.5513620635535593,0.7657936827870477 l -27.273286797351915 -19.995094771474605" fill="#7eff26" stroke="none" /><path d="M 116.93607887273984 112.41649034213515 l 27.315389803751778 20.025962103651487 a54.869893390853655,54.869893390853655 0 0,0 -0.5649998211149302,0.7569095913346316 l -26.966628715941756 -20.493184574495434" fill="#7dff26" stroke="none" /><path d="M 116.71984013943494 112.70617746262583 l 26.96055735982899 20.488570671039167 a54.86226781086576,54.86226781086576 0 0,0 -0.5778647443676243,0.7469680790466032 l -26.603885798243297 -20.94961674419902" fill="#7dff26" stroke="none" /><path d="M 116.27256486870786 113.27417163493432 l 26.925828577853384 21.964458144060643 a55.74820378330566,55.74820378330566 0 0,0 -0.6129753929673893,0.7383683484978086 l -26.54375718499245 -22.424687749672223" fill="#73ff27" stroke="none" /><path d="M 114.81725581225074 114.88116024355365 l 23.752492655454617 23.854933320204328 a54.66361167579647,54.66361167579647 0 0,0 -0.6724926990358623,0.6581756469574108 l -23.33835000404296 -24.26025907008431" fill="#80ff26" stroke="none" /><path d="M 114.55890576462653 115.13401014063108 l 23.1454542739668 24.059743593011163 a54.385375770084266,54.385375770084266 0 0,0 -0.6802423499043606,0.6432116004212638 l -22.72787608967163 -24.454589830178346" fill="#83ff25" stroke="none" /><path d="M 113.75828350139079 115.86535959552629 l 22.43026574255389 25.865452750181987 a55.23650781334865,55.23650781334865 0 0,0 -0.7236890596558994,0.6167435167376136 l -21.98171120632094 -26.247720657142548" fill="#79ff26" stroke="none" /><path d="M 113.48314897796784 116.09983520530334 l 21.471393235506333 25.638364842277237 a54.44168774537949,54.44168774537949 0 0,0 -0.7236333953418019,0.5955010196555716 l -21.02688971161984 -26.004160980789987" fill="#82ff25" stroke="none" /><path d="M 113.20401910651253 116.32954008644616 l 21.32256171501361 26.369821450750756 a54.911931844633074,54.911931844633074 0 0,0 -0.7401148032875656,0.5879919613485677 l -20.865489419008693 -26.732947326104448" fill="#7dff26" stroke="none" /><path d="M 112.92097659922987 116.55440617244103 l 20.505295716818217 26.271465734444284 a54.32652193479307,54.32652193479307 0 0,0 -0.7421294487600091,0.5690332152860393 l -20.050037539564716 -26.620538291557693" fill="#83ff25" stroke="none" /><path d="M 111.1453310114006 117.79835938074945 l 9.40780017844126 15.023637107493524 a38.72614950109402,38.72614950109402 0 0,0 -0.5680218834699049,0.348925434330259 l -9.147799095039048 -15.183351008652162" fill="#ffb310" stroke="none" /><line stroke="#e1ed5e" stroke-width="0.3" x1="143.8653032363475" x2="146.44561519142675" y1="172.8068346515853" y2="177.08958963109032" /><path d="M 144.38136562736335 173.6633856474863 a86.0,86.0 0 0,1 -40.68145358897372,12.25698825130547" fill="none" id="id54" stroke="none" /><text fill="#e1ed5e" style="font-size:6.75px; font-family:Arial;" text-anchor="middle"><textPath startOffset="21.466115282336833" xlink:href="#id54">June</textPath></text><path d="M 109.2508944713604 118.85261126421891 l 14.898101788353852 30.36118533836182 a54.81944724631834,54.81944724631834 0 0,0 -0.8507125430859368,0.4083937183973559 l -14.373276577267681 -30.613133333258737" fill="#7eff26" stroke="none" /><path d="M 107.2578585660854 119.70592522655815 l 11.800054213008504 32.038511617938 a55.14245899349793,55.14245899349793 0 0,0 -0.893519055917348,0.32038414356665945 l -11.246815596461422 -32.23688330254462" fill="#7aff26" stroke="none" /><path d="M 106.91757812671514 119.82793768551818 l 11.192841290008817 32.0821760964448 a54.97860678760417,54.97860678760417 0 0,0 -0.8962305306828439,0.3040500560388061 l -10.638941026388746 -32.270089139381724" fill="#7cff26" stroke="none" /><path d="M 104.83641907484287 120.43548508189849 l 7.798492159165322 32.95123266072701 a54.86148570009777,54.86148570009777 0 0,0 -0.9208365849360045,0.20957940874490474 l -7.2301354248364555 -33.0805888030496" fill="#7dff26" stroke="none" /><path d="M 104.13013068566511 120.58985236759428 l 6.931282338638645 34.55437392478077 a56.24269331636692,56.24269331636692 0 0,0 -0.9508560748105622,0.1822338297939758 l -6.3354586492563785 -34.66856495292321" fill="#6dff28" stroke="none" /><line stroke="#e1ed5e" stroke-width="0.3" x1="102.19456741930631" x2="102.32365962044197" y1="184.97166512339345" y2="189.96999836594603" /><path d="M 102.22038585953345 185.97133177190398 a86.0,86.0 0 0,1 -42.740103519485714,-10.115201625700543" fill="none" id="id55" stroke="none" /><text fill="#e1ed5e" style="font-size:6.75px; font-family:Arial;" text-anchor="middle"><textPath startOffset="22.20632615414155" xlink:href="#id55">July</textPath></text><path d="M 99.81925306533755 120.99922214144158 l -0.2603540093445543 30.24799113662158 a51.24911159044707,51.24911159044707 0 0,0 -0.8820711802845931,-0.015185655299735186 l 0.7809848795218153 -30.239028004042684" fill="#a8ff21" stroke="none" /><path d="M 95.86986931433489 120.58985236759428 l -6.851372856493924 34.15600288876462 a55.83638677239645,55.83638677239645 0 0,0 -0.9407328763335766,-0.19713972081013637 l 7.438297194256887 -34.03300718722794" fill="#72ff27" stroke="none" /><path d="M 93.08242187328487 119.8279376855182 l -1.8919346989723638 5.422875264887989 a26.7434304247296,26.7434304247296 0 0,0 -0.4333460121521583,-0.1553824622451459 l 1.9850002717542485 -5.389505261602885" fill="#ff0000" stroke="none" /><path d="M 92.06813273071674 119.44442032107085 l -12.10920330356167 29.684868744535763 a53.05969801834236,53.05969801834236 0 0,0 -0.8427106495030057,-0.35225311983811497 l 12.618385412562139 -29.47203058167767" fill="#92ff23" stroke="none" /><path d="M 91.07499286063937 119.00905698771935 l -14.560914876990006 31.012777510210714 a55.260948774848316,55.260948774848316 0 0,0 -0.8575639600005053,-0.4116828148762746 l 15.092591504990754 -30.75754041883488" fill="#79ff26" stroke="none" /><line stroke="#e1ed5e" stroke-width="0.3" x1="58.666819895761336" x2="56.23545636021788" y1="174.27360380694188" y2="178.64263932499728" /><path d="M 58.180547188652646 175.14741091055294 a86.0,86.0 0 0,1 -31.652253787137756,-30.449443065178592" fill="none" id="id56" stroke="none" /><text fill="#e1ed5e" style="font-size:6.75px; font-family:Arial;" text-anchor="middle"><textPath startOffset="22.20632615414155" xlink:href="#id56">August</textPath></text><path d="M 89.1626897886671 117.98757091392108 l -18.830997404689896 31.25534792226483 a57.48976893592589,57.48976893592589 0 0,0 -0.8432402201595522,-0.5179870153356579 l 19.36621682478176 -30.92657244010079" fill="#5fff29" stroke="none" /><path d="M 87.95078237400918 117.19931262002967 l -19.37021911703719 27.649467745836507 a54.75942024487515,54.75942024487515 0 0,0 -0.7673429009954843,-0.5474787856426364 l 19.843289345881562 -27.311944698349652" fill="#7eff26" stroke="none" /><path d="M 87.65650970185807 116.9893568818739 l -20.15485995029425 27.74078484521355 a55.289495817879924,55.289495817879924 0 0,0 -0.7651408791740876,-0.5660329304780218 l 20.6293857998869 -27.38974196599576" fill="#78ff26" stroke="none" /><path d="M 87.36589467227662 116.77436683061367 l -20.94640987330179 27.81065646398776 a55.81644294781273,55.81644294781273 0 0,0 -0.7624825694957045,-0.5846391203645771 l 21.42202117129098 -27.445978001795815" fill="#72ff27" stroke="none" /><path d="M 86.79598089348748 116.32954008644616 l -22.237362287675975 27.501164301885094 a56.36685340078522,56.36685340078522 0 0,0 -0.7492225021000738,-0.6165591124200994 l 22.707454918320735 -27.114310070607814" fill="#6cff28" stroke="none" /><path d="M 83.28015986056508 112.70617746262583 l -27.263969489669527 20.719147538635816 a55.243351282568554,55.243351282568554 0 0,0 -0.5688453478505272,-0.7620613028239553 l 27.616576104215138 -20.24677335630255" fill="#79ff26" stroke="none" /><path d="M 82.6465618267979 111.8261652097733 l -41.24140544023658 28.105535591941106 a70.90766127155072,70.90766127155072 0 0,0 -0.6786771294366436,-1.0145302243856447 l 41.71908567508395 -27.391468453349642" fill="#3bff9f" stroke="none" /><line stroke="#e1ed5e" stroke-width="0.3" x1="26.63291911575756" x2="22.317208475507996" y1="142.92168965132927" y2="145.44649492493687" /><path d="M 25.769776987707644 143.4266507060508 a86.0,86.0 0 0,1 -11.730757126820373,-40.83630448921669" fill="none" id="id57" stroke="none" /><text fill="#e1ed5e" style="font-size:6.75px; font-family:Arial;" text-anchor="middle"><textPath startOffset="21.46611528233685" xlink:href="#id57">September</textPath></text><path d="M 81.87401531095188 110.60418214915194 l -29.863530895489518 17.47095822186902 a55.5986250989277,55.5986250989277 0 0,0 -0.4761572257483088,-0.8302202585041881 l 30.159840117390203 -16.954318117506524" fill="#75ff27" stroke="none" /><path d="M 80.45479744820244 107.68017299344265 l -18.37038547006183 7.218535494446661 a40.737738396362566,40.737738396362566 0 0,0 -0.2508391719558489,-0.6548619249108566 l 18.491918921611187 -6.901250002702646" fill="#ffcf13" stroke="none" /><path d="M 80.32549172779594 107.34259656027581 l -32.356736422254954 12.075649275131024 a55.536642820564545,55.536642820564545 0 0,0 -0.32654419112181454,-0.8985093688176768 l 32.55980487438199 -11.51689210930723" fill="#75ff27" stroke="none" /><path d="M 80.20201598880116 107.00284435728193 l -32.80239093256301 11.602698442301907 a55.79395726323304,55.79395726323304 0 0,0 -0.31247052152942195,-0.90818559977344 l 32.997252285035664 -11.03634013943917" fill="#73ff27" stroke="none" /><path d="M 80.0844068197444 106.66101706037122 l -32.316906126114866 10.80878993139303 a55.07656616129483,55.07656616129483 0 0,0 -0.2929752013158505,-0.9016849538904025 l 32.498173578446966 -10.250906077524824" fill="#7bff26" stroke="none" /><path d="M 79.97269907076064 106.31721596034903 l -17.01902573061324 5.368315049286281 a38.84561692090439,38.84561692090439 0 0,0 -0.19565839408164437,-0.6394229525777343 l 17.108910897201017 -5.074565124156499" fill="#ffb410" stroke="none" /><path d="M 79.86692584326677 105.97154293290107 l -16.276981692741916 4.827811899940102 a37.97786502382024,37.97786502382024 0 0,0 -0.1804985983201407,-0.6283392999438958 l 16.357672927948162 -4.546915124491609" fill="#ffa80f" stroke="none" /><path d="M 79.58551787078972 104.9243191809786 l -33.20932319194709 8.010651759195458 a55.16181623500566,55.16181623500566 0 0,0 -0.21470931625200368,-0.9249621149487504 l 33.34229307412965 -7.437820986898132" fill="#7aff26" stroke="none" /><path d="M 79.50377843672027 104.57218783832718 l -33.32168266837399 7.4332233274589 a55.140699244269946,55.140699244269946 0 0,0 -0.19867971493924708,-0.928165484313286 l 33.44469642203767 -6.85854402372945" fill="#7aff26" stroke="none" /><path d="M 79.4281124754447 104.21870165774334 l -34.37961099202283 7.050268076349169 a56.09506990890893,56.09506990890893 0 0,0 -0.1858351320617843,-0.9475693347308987 l 34.495876057060286 -6.457435014550316" fill="#6fff27" stroke="none" /><path d="M 79.29508885075956 103.50808413554451 l -34.032832198942835 5.766266653558644 a55.517872162132804,55.517872162132804 0 0,0 -0.15153271590131362,-0.943594366566768 l 34.12704666920544 -5.179593057298663" fill="#76ff27" stroke="none" /><path d="M 79.1416061653843 102.43462659150553 l -34.57953412363087 4.036181019822794 a55.81429214320075,55.81429214320075 0 0,0 -0.1031705887784274,-0.9552315184601743 l 34.64388701391035 -3.440353179477838" fill="#72ff27" stroke="none" /><path d="M 79.07016306316243 101.71520430193888 l -34.13556661176916 2.7974164766939795 a55.24999922409646,55.24999922409646 0 0,0 -0.0695188149187348,-0.9485289966104717 l 34.17866198535223 -2.2094143435867473" fill="#79ff26" stroke="none" /><path d="M 79.0235259727143 100.99374915477108 l -15.860038547375764 0.7513607806817287 a36.87782622864326,36.87782622864326 0 0,0 -0.024581472013573743,-0.6343385673547597 l 15.870622152240538 -0.4782449663129722" fill="#ff990e" stroke="none" /><line stroke="#e1ed5e" stroke-width="0.3" x1="15.007084014347285" x2="10.007500721073583" y1="101.09737516637583" y2="101.16192664675087" /><path d="M 14.007167355692545 101.11028546245083 a86.0,86.0 0 0,1 10.666146001902534,-42.60595125391555" fill="none" id="id58" stroke="none" /><text fill="#e1ed5e" style="font-size:6.75px; font-family:Arial;" text-anchor="middle"><textPath startOffset="22.20632615414155" xlink:href="#id58">October</textPath></text><path d="M 79.08570108090925 98.10471618934814 l -17.517108737285852 -1.5874255564407593 a38.5888890613119,38.5888890613119 0 0,0 0.06564314447617456,-0.6610175065850494 l 17.48718846712745 1.888718593730239" fill="#ffb110" stroke="none" /><path d="M 79.12142395522702 97.74499172005258 l -16.81437999093099 -1.8160513447096025 a37.91216771930914,37.91216771930914 0 0,0 0.07566121742785607,-0.6482191053950472 l 16.780628420499546 2.1052141884295117" fill="#ffa70f" stroke="none" /><path d="M 79.16333360222342 97.38593545837743 l -34.388114327884686 -4.314161805046624 a55.6576744619109,55.6576744619109 0 0,0 0.12744017482215714,-0.9495773277637574 l 34.30875815400469 4.905457474875041" fill="#74ff27" stroke="none" /><path d="M 79.21141760316559 97.0276538004421 l -34.06797048930369 -4.871029716098019 a55.41443801306622,55.41443801306622 0 0,0 0.14313841336104502,-0.9431033015315838 l 33.97907618250334 5.456732130021695" fill="#77ff27" stroke="none" /><path d="M 79.32604984820605 96.31383870115002 l -34.237570587813615 -6.10455218963038 a55.777532937105256,55.777532937105256 0 0,0 0.17666677263835268,-0.9437609636955674 l 34.127418091265405 6.69299123078852" fill="#73ff27" stroke="none" /><path d="M 79.3925641242962 95.95851677861259 l -33.64332354852646 -6.598051715564731 a55.284216570195994,55.284216570195994 0 0,0 0.19117993962455032,-0.9322612817829051 l 33.52476431298692 7.176188653511038" fill="#78ff26" stroke="none" /><path d="M 79.81627453868168 94.20196356495316 l -33.29323383616473 -9.563912429970662 a55.63968591424714,55.63968591424714 0 0,0 0.27235388564483,-0.9182419080252654 l 33.123674053408195 10.135583724742467" fill="#74ff27" stroke="none" /><line stroke="#e1ed5e" stroke-width="0.3" x1="26.266209847984243" x2="21.928928074336255" y1="57.711370442889674" y2="55.22380399835377" /><path d="M 25.398753493254645 57.213857153982495 a86.0,86.0 0 0,1 29.58750427330803,-30.492523968695096" fill="none" id="id59" stroke="none" /><text fill="#e1ed5e" style="font-size:6.75px; font-family:Arial;" text-anchor="middle"><textPath startOffset="21.46611528233685" xlink:href="#id59">November</textPath></text><path d="M 82.15384107792192 88.93136811851018 l -29.022488687080493 -18.000469734951253 a55.1514532673298,55.1514532673298 0 0,0 0.5073208951513597,-0.8024598227529588 l 28.70834019568317 18.497377205418427" fill="#7aff26" stroke="none" /><path d="M 82.95767976084542 87.72973835380427 l -27.213497276596417 -19.593384422192837 a54.53319470523424,54.53319470523424 0 0,0 0.5550372651229584,-0.7570702058642975 l 26.872197398959827 20.058917071728633" fill="#81ff25" stroke="none" /><path d="M 84.31358615837235 86.03803664274999 l -25.709837791546217 -22.88348482900688 a55.418739622290154,55.418739622290154 0 0,0 0.6403671237329651,-0.7071093721346126 l 25.312127027197207 23.322646988411048" fill="#77ff27" stroke="none" /><path d="M 84.80347519578584 85.50635884689758 l -24.596481301023 -23.458822210928236 a54.98975186604801,54.98975186604801 0 0,0 0.659185032132496,-0.6793481196127265 l 24.18903200518739 23.878734526091087" fill="#7cff26" stroke="none" /><path d="M 85.05521093208273 85.24692304244772 l -23.50497760139588 -23.203455188495518 a54.028537732189136,54.028537732189136 0 0,0 0.6590560541093503,-0.6562258579656806 l 23.102085747119215 23.604616897111306" fill="#87ff25" stroke="none" /><path d="M 86.10567301691215 84.25364557470407 l -22.27715063224711 -25.246556372830593 a54.669868561940376,54.669868561940376 0 0,0 0.710984768163415,-0.6165589847910641 l 21.83927206543692 25.626280351041338" fill="#7fff26" stroke="none" /><path d="M 87.22198572758235 83.33499621200491 l -20.37776111387555 -26.57654459555884 a54.489787557610846,54.489787557610846 0 0,0 0.7492445589594456,-0.5643154683395557 l 19.917270401157715 26.923376653404247" fill="#82ff25" stroke="none" /><path d="M 88.09926311788651 82.69761687909137 l -18.644863290815234 -27.10761283862271 a53.90066262162287,53.90066262162287 0 0,0 0.7689707376102437,-0.5192124746458521 l 18.17548785879845 27.424537225567228" fill="#88ff25" stroke="none" /><path d="M 88.39885842347998 82.49532879139004 l -19.54567591514292 -29.491979577000794 a56.380931394609014,56.380931394609014 0 0,0 0.8135848252171632,-0.5291782016554707 l 19.03512406414147 29.8240567028158" fill="#6cff28" stroke="none" /><path d="M 89.00827224532344 82.1063720568725 l -21.102152317862245 -34.352566839583595 a61.31624586831365,61.31624586831365 0 0,0 0.904087413235964,-0.5447025505715638 l 20.507702838408633 34.71071599961378" fill="#36ff2e" stroke="none" /><line stroke="#e1ed5e" stroke-width="0.3" x1="56.762969772571076" x2="54.21961505331055" y1="26.818313649435495" y2="22.513508569990535" /><path d="M 56.25429882871897 25.957352633546506 a86.0,86.0 0 0,1 42.265352541879196,-11.944610805530505" fill="none" id="id60" stroke="none" /><text fill="#e1ed5e" style="font-size:6.75px; font-family:Arial;" text-anchor="middle"><textPath startOffset="22.20632615414155" xlink:href="#id60">December</textPath></text><path d="M 98.55514903715128 79.0497635885617 l -2.299254939681529 -33.33903343326286 a54.41822442233981,54.41822442233981 0 0,0 0.9350552669686995,-0.056405087228719106 l 1.7250376238732068 33.37367178987189" fill="#82ff25" stroke="none" /><path d="M 98.91598698831166 79.02799685794201 l -1.64802746624826 -31.883784445101615 a52.92634813240018,52.92634813240018 0 0,0 0.9102302779128809,-0.03919643048718498 l 1.098956355946055 31.90742860211299" fill="#94ff23" stroke="none" /></svg>