<?xml version="1.0" encoding="utf-8" ?>
<svg baseProfile="full" height="200mm" version="1.1" viewBox="0,0,200,200" width="200mm" xmlns="http://www.w3.org/2000/svg" xmlns:ev="http://www.w3.org/2001/xml-events" xmlns:xlink="http://www.w3.org/1999/xlink"><defs /><rect fill="#1a1a1a" height="200" width="200" x="0" y="0" /><text alignment-baseline="middle" fill="#e1ed5e" style="dominant-baseline: central; font-size:9.0px; font-family:Arial;" text-anchor="middle" x="100.0" y="100.0">2025</text><line stroke="#e1ed5e" stroke-width="0.3" x1="100.0" x2="100.0" y1="15.0" y2="10.0" /><path d="M 100.0 14.0 a86.0,86.0 0 0,1 42.46469731375804,11.215312516191453" fill="none" id="id49" stroke="none" /><text fill="#e1ed5e" style="font-size:6.75px; font-family:Arial;" text-anchor="middle"><textPath startOffset="22.20632615414155" xlink:href="#id49">January</textPath></text><path d="M 100.36148047927253 79.00311137660856 l 0.32223428912583224 -18.7172416420081 a39.720015214267605,39.720015214267605 0 0,0 0.6835121689567109,0.017653102766828428 l -0.6443730932774109 18.708921747098916" fill="#ff3605" stroke="none" /><path d="M 101.08401301168833 79.027996857942 l 2.309810012060321 -44.68704924034041 a65.7467048183486,65.7467048183486 0 0,0 1.1297098220095108,0.06814718156731703 l -3.0786818829094433 44.640668789392784" fill="#31ff2f" stroke="none" /><path d="M 101.44485096284872 79.0497635885617 l 3.309291811879139 -47.98449639166292 a69.09847509285177,69.09847509285177 0 0,0 1.1858937296936043,0.0920481773285449 l -4.134775730935084 47.92042295214591" fill="#35ff62" stroke="none" /><path d="M 101.80526077348638 79.07773832637324 l 3.140112741205016 -36.392670477906776 a57.52789033794568,57.52789033794568 0 0,0 0.9858496297206938,0.09361830130903971 l -3.766087498015954 36.33322663208256" fill="#a1ff22" stroke="none" /><path d="M 102.16513564639614 79.11191278185805 l 1.920974287672983 -18.53254715542198 a39.63183958394447,39.63183958394447 0 0,0 0.6779560180816252,0.07617625795295327 l -2.2396970092643333 18.496734943998426" fill="#ff3405" stroke="none" /><path d="M 102.52436894288641 79.15227682838746 l 5.647382340691256 -46.6394042815169 a67.98006980663959,67.98006980663959 0 0,0 1.160469227651846,0.1506622114390499 l -6.449366296850948 46.53528374691372" fill="#33ff51" stroke="none" /><path d="M 102.88285421437855 79.19881850522331 l 2.177696093600769 -15.71312606011211 a36.86331273275095,36.86331273275095 0 0,0 0.6277840055900493,0.09251904348167428 l -2.4478490796194743 15.673312532469467" fill="#ff0000" stroke="none" /><path d="M 103.2404852339499 79.25152402106235 l 4.991087106658242 -31.957390163773493 a53.34479458252745,53.34479458252745 0 0,0 0.9060252491480332,0.14950192923332406 l -5.5404415619451495 31.866741971600543" fill="#e0ff1b" stroke="none" /><path d="M 103.59715602781102 79.31037775812273 l 7.982387672677208 -45.911988320509224 a67.60074231704345,67.60074231704345 0 0,0 1.144721608809821,0.20919055713361093 l -8.771504402589931 45.767782282024875" fill="#32ff4b" stroke="none" /><path d="M 103.95276090670814 79.375362276772 l 10.757839130602532 -56.1320403611821 a78.15362681290925,78.15362681290925 0 0,0 1.3190605030697986,0.26459112783886024 l -11.722466043139457 55.93854527726603" fill="#43ffe3" stroke="none" /><path d="M 104.307194497241 79.44645832069477 l 3.537250313917503 -16.879437834490453 a38.246088292471924,38.246088292471924 0 0,0 0.6431849691977635,0.1405753222291613 l -3.827278007268794 16.81604901416542" fill="#ff1a02" stroke="none" /><path d="M 104.66035177308747 79.52364482259891 l 8.789538790222888 -38.61891266523712 a60.60651976114595,60.60651976114595 0 0,0 1.0152351460766134,0.2402733581443155 l -9.452997623262025 38.46189339495193" fill="#75ff27" stroke="none" /><path d="M 105.01212808612495 79.60689891045804 l 4.61755386162173 -18.78767682476765 a40.34679829162668,40.34679829162668 0 0,0 0.6730059434083354,0.17156420007720496 l -4.94026869371509 18.705409628521576" fill="#ff4206" stroke="none" /><path d="M 106.0581310904928 79.89281104454417 l 11.619071148229065 -38.56418020253221 a61.276529257633236,61.276529257633236 0 0,0 1.0073121052026013,0.3129767744305249 l -12.281168626142383 38.35846329321916" fill="#6cff28" stroke="none" /><path d="M 106.40334571778207 80.00007090966166 l 19.21003715334621 -59.99978727101504 a84.0,84.0 0 0,0 1.37326871103033,0.45274510296305515 l -20.239988686618958 59.66022844379275" fill="#4dd2ff" stroke="none" /><path d="M 106.74666289553966 80.11325718540242 l 14.320159054202392 -42.21069358057422 a65.57364252437515,65.57364252437515 0 0,0 1.0657840120329058,0.37183111458063084 l -15.04462507029857 41.95794161282138" fill="#33ff2f" stroke="none" /><line stroke="#e1ed5e" stroke-width="0.3" x1="143.23703022742887" x2="145.7803849466894" y1="26.81831364943548" y2="22.513508569990506" /><path d="M 143.74570117128098 25.957352633546492 a86.0,86.0 0 0,1 28.547481713284135,27.462654790039103" fill="none" id="id50" stroke="none" /><text fill="#e1ed5e" style="font-size:6.75px; font-family:Arial;" text-anchor="middle"><textPath startOffset="19.985693538727396" xlink:href="#id50">February</textPath></text><line stroke="#e1ed5e" stroke-width="0.3" x1="172.23445277983987" x2="176.4835382374775" y1="55.19839476539836" y2="52.563006222186495" /><path d="M 173.08426987136738 54.67131705675599 a86.0,86.0 0 0,1 12.851231095245387,41.99856678651699" fill="none" id="id51" stroke="none" /><text fill="#e1ed5e" style="font-size:6.75px; font-family:Arial;" text-anchor="middle"><textPath startOffset="22.20632615414155" xlink:href="#id51">March</textPath></text><line stroke="#e1ed5e" stroke-width="0.3" x1="184.98032266829074" x2="189.97916517819016" y1="98.17113171792111" y2="98.06355123074" /><path d="M 185.9800911702706 98.14961562048488 a86.0,86.0 0 0,1 -9.607161424134198,41.387399972396054" fill="none" id="id52" stroke="none" /><text fill="#e1ed5e" style="font-size:6.75px; font-family:Arial;" text-anchor="middle"><textPath startOffset="21.466115282336823" xlink:href="#id52">April</textPath></text><line stroke="#e1ed5e" stroke-width="0.3" x1="174.80103733775053" x2="179.2010983576182" y1="140.37084112569926" y2="142.7455964860345" /><path d="M 175.68104954172406 140.8457921977663 a86.0,86.0 0 0,1 -30.038265399797805,32.042727171017184" fill="none" id="id53" stroke="none" /><text fill="#e1ed5e" style="font-size:6.75px; font-family:Arial;" text-anchor="middle"><textPath startOffset="22.206326154141568" xlink:href="#id53">May</textPath></text><line stroke="#e1ed5e" stroke-width="0.3" x1="143.8653032363475" x2="146.44561519142675" y1="172.8068346515853" y2="177.08958963109032" /><path d="M 144.38136562736335 173.6633856474863 a86.0,86.0 0 0,1 -40.68145358897372,12.25698825130547" fill="none" id="id54" stroke="none" /><text fill="#e1ed5e" style="font-size:6.75px; font-family:Arial;" text-anchor="middle"><textPath startOffset="21.466115282336833" xlink:href="#id54">June</textPath></text><line stroke="#e1ed5e" stroke-width="0.3" x1="102.19456741930631" x2="102.32365962044197" y1="184.97166512339345" y2="189.96999836594603" /><path d="M 102.22038585953345 185.97133177190398 a86.0,86.0 0 0,1 -42.740103519485714,-10.115201625700543" fill="none" id="id55" stroke="none" /><text fill="#e1ed5e" style="font-size:6.75px; font-family:Arial;" text-anchor="middle"><textPath startOffset="22.20632615414155" xlink:href="#id55">July</textPath></text><line stroke="#e1ed5e" stroke-width="0.3" x1="58.666819895761336" x2="56.23545636021788" y1="174.27360380694188" y2="178.64263932499728" /><path d="M 58.180547188652646 175.14741091055294 a86.0,86.0 0 0,1 -31.652253787137756,-30.449443065178592" fill="none" id="id56" stroke="none" /><text fill="#e1ed5e" style="font-size:6.75px; font-family:Arial;" text-anchor="middle"><textPath startOffset="22.20632615414155" xlink:href="#id56">August</textPath></text><line stroke="#e1ed5e" stroke-width="0.3" x1="26.63291911575756" x2="22.317208475507996" y1="142.92168965132927" y2="145.44649492493687" /><path d="M 25.769776987707644 143.4266507060508 a86.0,86.0 0 0,1 -11.730757126820373,-40.83630448921669" fill="none" id="id57" stroke="none" /><text fill="#e1ed5e" style="font-size:6.75px; font-family:Arial;" text-anchor="middle"><textPath startOffset="21.46611528233685" xlink:href="#id57">September</textPath></text><line stroke="#e1ed5e" stroke-width="0.3" x1="15.007084014347285" x2="10.007500721073583" y1="101.09737516637583" y2="101.16192664675087" /><path d="M 14.007167355692545 101.11028546245083 a86.0,86.0 0 0,1 10.666146001902534,-42.60595125391555" fill="none" id="id58" stroke="none" /><text fill="#e1ed5e" style="font-size:6.75px; font-family:Arial;" text-anchor="middle"><textPath startOffset="22.20632615414155" xlink:href="#id58">October</textPath></text><line stroke="#e1ed5e" stroke-width="0.3" x1="26.266209847984243" x2="21.928928074336255" y1="57.711370442889674" y2="55.22380399835377" /><path d="M 25.398753493254645 57.213857153982495 a86.0,86.0 0 0,1 29.58750427330803,-30.492523968695096" fill="none" id="id59" stroke="none" /><text fill="#e1ed5e" style="font-size:6.75px; font-family:Arial;" text-anchor="middle"><textPath startOffset="21.46611528233685" xlink:href="#id59">November</textPath></text><line stroke="#e1ed5e" stroke-width="0.3" x1="56.762969772571076" x2="54.21961505331055" y1="26.818313649435495" y2="22.513508569990535" /><path d="M 56.25429882871897 25.957352633546506 a86.0,86.0 0 0,1 42.265352541879196,-11.944610805530505" fill="none" id="id60" stroke="none" /><text fill="#e1ed5e" style="font-size:6.75px; font-family:Arial;" text-anchor="middle"><textPath startOffset="22.20632615414155" xlink:href="#id60">December</textPath></text></svg>