<?xml version="1.0" encoding="utf-8" ?>
<svg baseProfile="full" height="200mm" version="1.1" viewBox="0,0,200,200" width="200mm" xmlns="http://www.w3.org/2000/svg" xmlns:ev="http://www.w3.org/2001/xml-events" xmlns:xlink="http://www.w3.org/1999/xlink"><defs /><rect fill="#1a1a1a" height="200" width="200" x="0" y="0" /><text alignment-baseline="middle" fill="#e1ed5e" style="dominant-baseline: central; font-size:9.0px; font-family:Arial;" text-anchor="middle" x="100.0" y="100.0">2025</text><line stroke="#e1ed5e" stroke-width="0.3" x1="100.0" x2="100.0" y1="15.0" y2="10.0" /><path d="M 100.0 14.0 a86.0,86.0 0 0,1 42.46469731375804,11.215312516191453" fill="none" id="id61" stroke="none" /><text fill="#e1ed5e" style="font-size:6.75px; font-family:Arial;" text-anchor="middle"><textPath startOffset="22.20632615414155" xlink:href="#id61">January</textPath></text><path d="M 100.36148047927253 79.00311137660856 l 0.04365643959685342 -2.5358199196639446 a23.536195684422385,23.536195684422385 0 0,0 0.4050168680567499,0.010460390785752956 l -0.08729994284847115 2.534692736735832" fill="#ff1302" stroke="none" /><path d="M 100.72285384407766 79.0124445844662 l 0.12111747672989864 -3.516561163068637 a24.518646310269343,24.518646310269343 0 0,0 0.42167304249320303,0.01815812822256437 l -0.1816313516124332 3.513955308321878" fill="#ff2103" stroke="none" /><path d="M 101.80526077348638 79.07773832637324 l 0.30055592080808935 -3.4833247999736394 a24.49626737015981,24.49626737015981 0 0,0 0.4197900526952219,0.03986412375170566 l -0.3604711005935554 3.4776351317067555" fill="#ff2103" stroke="none" /><path d="M 102.52436894288641 79.15227682838746 l 0.25709249689678143 -2.123221021200759 a23.138729542702727,23.138729542702727 0 0,0 0.3949949400999671,0.051281679655662535 l -0.2936021655045946 2.1184810183809595" fill="#ff0d01" stroke="none" /><path d="M 103.59715602781102 79.31037775812273 l 0.5344031287510009 -3.073705664489556 a24.119816215089287,24.119816215089287 0 0,0 0.4084344916279578,0.07463879269743948 l -0.5872327414818596 3.0640513904413784" fill="#ff1c02" stroke="none" /><path d="M 104.66035177308747 79.52364482259891 l 0.45848659652466506 -2.014469046892829 a23.065985358148037,23.065985358148037 0 0,0 0.3863841564697968,0.09144464626498543 l -0.4930944399569854 2.006278488486975" fill="#ff0c01" stroke="none" /><path d="M 105.36241919743992 79.69619591428918 l 0.6720707239616877 -2.5446709420954057 a23.631925010624563,23.631925010624563 0 0,0 0.3924048634719888,0.10725907236648832 l -0.7157734766573873 2.532725328902624" fill="#ff1502" stroke="none" /><path d="M 106.74666289553966 80.11325718540242 l 0.6767869459957006 -1.9949252161674622 a23.106600861191076,23.106600861191076 0 0,0 0.37555708089769396,0.1310244912686176 l -0.7110260309566682 1.9829798717266371" fill="#ff0d01" stroke="none" /><path d="M 107.4271985657038 80.35727306442388 l 1.3471404411496979 -3.562785025240208 a24.808966330155318,24.808966330155318 0 0,0 0.3981447291532748,0.15447396936197968 l -1.4082683353026397 3.5390683519876815" fill="#ff2503" stroke="none" /><path d="M 108.09893153111575 80.62456947434976 l 1.4670306812382607 -3.5096420971240616 a24.803914650672354,24.803914650672354 0 0,0 0.3925116051810087,0.1680529849937291 l -1.5272260442095846 3.4838695841675418" fill="#ff2503" stroke="none" /><path d="M 108.43124777332544 80.76684994638697 l 1.0160413799564851 -2.317768003830772 a23.530689353785952,23.530689353785952 0 0,0 0.36956391017533197,0.16581255396625819 l -1.0557874085985974 2.2999351193479827" fill="#ff1302" stroke="none" /><line stroke="#e1ed5e" stroke-width="0.3" x1="143.23703022742887" x2="145.7803849466894" y1="26.81831364943548" y2="22.513508569990506" /><path d="M 143.74570117128098 25.957352633546492 a86.0,86.0 0 0,1 28.547481713284135,27.462654790039103" fill="none" id="id62" stroke="none" /><text fill="#e1ed5e" style="font-size:6.75px; font-family:Arial;" text-anchor="middle"><textPath startOffset="19.985693538727396" xlink:href="#id62">February</textPath></text><path d="M 111.2981086023043 82.29822771554956 l 4.2118750222104735 -6.599126912138915 a28.828688728339923,28.828688728339923 0 0,0 0.416002061337526,0.27057931254408985 l -4.324844109332279 6.5256486754352965" fill="#ff5e08" stroke="none" /><path d="M 112.19680574252982 82.90503203632743 l 2.062408446872326 -2.8906590029839463 a24.550977058960317,24.550977058960317 0 0,0 0.34190705852303005,0.2484100186421976 l -2.111860821749145 2.854729749525074" fill="#ff2203" stroke="none" /><path d="M 113.06298171725822 83.55741782278167 l 14.91289081758077 -18.7710920887228 a44.97390687268966,44.97390687268966 0 0,0 0.6020005892947685,0.48677594354158166 l -15.233794805440029 18.511610047917088" fill="#d2ff1c" stroke="none" /><path d="M 113.6212207817346 84.01681056812373 l 2.295666819741102 -2.693743698919943 a24.53925716255984,24.53925716255984 0 0,0 0.31913444322366197,0.2767502443605352 l -2.341695061611528 2.6538284611397365" fill="#ff2203" stroke="none" /><path d="M 114.16331599549186 84.49514656593476 l 1.5696385272645785 -1.7183133750207726 a23.327308737801797,23.327308737801797 0 0,0 0.294137497431119,0.27336874759971375 l -1.5989839084905444 1.6910400413464184" fill="#ff1001" stroke="none" /><path d="M 114.42810811169701 84.74124197986012 l 1.3134436303235872 -1.3890607398452899 a22.9117070667383,22.9117070667383 0 0,0 0.28423255277757603,0.2734314905748717 l -1.3371594267135816 1.3662461625081164" fill="#ff0a01" stroke="none" /><path d="M 115.19652480421416 85.50635884689758 l 1.6816572733202206 -1.6038757134294912 a23.323873595753383,23.323873595753383 0 0,0 0.27459160624288176,0.29291518019383717 l -1.7090162015335655 1.5746911163575994" fill="#ff1001" stroke="none" /><path d="M 115.4437574822437 85.77008943001954 l 1.2797374265081225 -1.1791527517318845 a22.74015203149682,22.74015203149682 0 0,0 0.2627639287524228,0.29015049304315593 l -1.299844995876581 1.1569494714191795" fill="#ff0801" stroke="none" /><path d="M 117.04232023915458 87.72973835380427 l 1.8989510311303093 -1.367221462706064 a23.33993793650921,23.33993793650921 0 0,0 0.2319405000909559,0.32806338870276996 l -1.9222041510251482 1.3343315736715007" fill="#ff1001" stroke="none" /><path d="M 117.2510076193507 88.02491185347247 l 2.305400030355162 -1.6003336840187083 a23.80641001996616,23.80641001996616 0 0,0 0.23078107811065862,0.3386427552380712 l -2.3326055741345537 1.5604129055102307" fill="#ff1702" stroke="none" /><path d="M 117.45458315368197 88.32363383020206 l 1.085559716918221 -0.7261928080617339 a22.306061213525673,22.306061213525673 0 0,0 0.21074274269883725,0.320975655358843 l -1.0978990949749832 0.7073990887252168" fill="#ff0100" stroke="none" /><path d="M 117.65298651832404 88.62581576622439 l 1.0286805785052207 -0.6628001672963427 a22.22371883795335,22.22371883795335 0 0,0 0.204429008965785,0.32335759845117873 l -1.0399371837169613 0.6449949211309577" fill="#ff0000" stroke="none" /><line stroke="#e1ed5e" stroke-width="0.3" x1="172.23445277983987" x2="176.4835382374775" y1="55.19839476539836" y2="52.563006222186495" /><path d="M 173.08426987136738 54.67131705675599 a86.0,86.0 0 0,1 12.851231095245387,41.99856678651699" fill="none" id="id63" stroke="none" /><text fill="#e1ed5e" style="font-size:6.75px; font-family:Arial;" text-anchor="middle"><textPath startOffset="22.20632615414155" xlink:href="#id63">March</textPath></text><path d="M 117.84615892207809 88.93136811851018 l 1.3981454012258083 -0.8671645719696591 a22.645230974011916,22.645230974011916 0 0,0 0.20260386400839545,0.3330274813306701 l -1.4128650635204276 0.8429693174319075" fill="#ff0601" stroke="none" /><path d="M 118.03404312379186 89.2402003453031 l 3.5666079689347954 -2.127974682613204 a25.15318777012453,25.15318777012453 0 0,0 0.2186414801746435,0.3737291632955747 l -3.6027091235797664 2.066266106963734" fill="#ff2a04" stroke="none" /><path d="M 118.21658344932153 89.55222093294921 l 9.010278498125059 -5.167675889548594 a31.387010768897692,31.387010768897692 0 0,0 0.2647604343039211,0.47097926986351746 l -9.097896573721412 5.011813109750283" fill="#ff810b" stroke="none" /><path d="M 118.3937258080291 89.86733742301442 l 12.546084108629417 -6.911336955981537 a35.323784589972014,35.323784589972014 0 0,0 0.28880036757379984,0.5351032199399022 l -12.663192575421682 6.694352752709176" fill="#ffb510" stroke="none" /><path d="M 118.56541770881063 90.18545643968196 l 4.600631716180816 -2.432107970401817 a26.20393710258117,26.20393710258117 0 0,0 0.20737367431022014,0.4005799330525133 l -4.641814823651152 2.352555315088959" fill="#ff3905" stroke="none" /><path d="M 118.89224826269711 90.83032412892265 l 2.9923772432480575 -1.4524014835625159 a24.32622783876322,24.32622783876322 0 0,0 0.17959915719708577,0.37828162855258834 l -3.0169345942868997 1.400677439369387" fill="#ff1f03" stroke="none" /><path d="M 119.04729006885535 91.15688171328212 l 4.508219604921975 -2.09303890919436 a25.970397960083716,25.970397960083716 0 0,0 0.18475796584649176,0.40708968714631183 l -4.543579887731814 2.0151272132059854" fill="#ff3605" stroke="none" /><path d="M 119.196687751892 91.48605970444005 l 3.03634951142017 -1.3466541098547615 a24.321580293638892,24.321580293638892 0 0,0 0.16643985902395664,0.3841661423050307 l -3.0590800802868077 1.2941888229631282" fill="#ff1e03" stroke="none" /><path d="M 119.61058180528143 92.48833698450437 l 10.562598293121388 -4.045911525409667 a32.31096294633192,32.31096294633192 0 0,0 0.19447416464335057,0.521094074772626 l -10.630677046266365 3.863494313607708" fill="#ff8d0d" stroke="none" /><path d="M 120.08093135843002 93.85539295169968 l 11.686264425978719 -3.575904995563123 a33.22112403877765,33.22112403877765 0 0,0 0.1626159829765243,0.5482602538613699 l -11.746086306066944 3.3742153549552234" fill="#ff990e" stroke="none" /><path d="M 120.28053869075195 94.5502522615342 l 50.16087820093819 -13.479135673041906 a72.94035810794557,72.94035810794557 0 0,0 0.3153929557569127,1.2153377154150975 l -50.38546748856541 12.613701532077958" fill="#3fffc0" stroke="none" /><path d="M 120.91429891909075 98.10471618934814 l 62.74289675727228 -5.6858514319555935 a84.0,84.0 0 0,0 0.118102064722021,1.441144331168925 l -62.831473305813795 4.6049931835789" fill="#4dd2ff" stroke="none" /><line stroke="#e1ed5e" stroke-width="0.3" x1="184.98032266829074" x2="189.97916517819016" y1="98.17113171792111" y2="98.06355123074" /><path d="M 185.9800911702706 98.14961562048488 a86.0,86.0 0 0,1 -9.607161424134198,41.387399972396054" fill="none" id="id64" stroke="none" /><text fill="#e1ed5e" style="font-size:6.75px; font-family:Arial;" text-anchor="middle"><textPath startOffset="21.466115282336823" xlink:href="#id64">April</textPath></text><path d="M 120.99513854157772 99.54816195383933 l 1.4579812352196653 -0.03137733010696607 a22.458318833142226,22.458318833142226 0 0,0 0.004991086387730931,0.3865651410999415 l -1.4583053287251118 0.006275930946561853" fill="#ff0300" stroke="none" /><path d="M 120.99980553446 99.90962569577887 l 1.4505763306893968 -0.006242668599505449 a22.450589763533287,22.450589763533287 0 0,0 -0.0016631639689230781,0.3864607337264125 l -1.4504688694309709 -0.01872754333059177" fill="#ff0300" stroke="none" /><path d="M 120.99824983174949 100.27111621757518 l 1.7435428858139943 0.0225115310166128 a22.743688207134895,22.743688207134895 0 0,0 -0.008423761008896686,0.39141907355013406 l -1.7428970621200903 -0.052520420356861684" fill="#ff0801" stroke="none" /><path d="M 120.9764740272857 100.99374915477107 l 2.521243975527413 0.11944257487664177 a23.52407165366327,23.52407165366327 0 0,0 -0.02264320619541751,0.404309657464724 l -2.518814418444466 -0.1628239486767891" fill="#ff1302" stroke="none" /><path d="M 120.95626037817324 101.35467743843564 l 2.509790746255902 0.1622406306178849 a23.515029147388763,23.515029147388763 0 0,0 -0.02958799967535317,0.40370474779500465 l -2.5066261879162113 -0.2054185149096598" fill="#ff1302" stroke="none" /><path d="M 120.92983693683757 101.71520430193887 l 2.152578958706658 0.17640427402176503 a23.15979504614669,23.15979504614669 0 0,0 -0.03598084112003459,0.39704558352444885 l -2.149223521309548 -0.21343124609478445" fill="#ff0e01" stroke="none" /><path d="M 120.89721153311464 102.0752229133903 l 2.515738670625823 0.24982847712058515 a23.528112997249643,23.528112997249643 0 0,0 -0.04349081888459139,0.40267096906294125 l -2.5110655502401795 -0.2930957680683178" fill="#ff1302" stroke="none" /><path d="M 120.8583938346157 102.4346265915055 l 1.2498377818150173 0.14588315489686718 a22.258322842411655,22.258322842411655 0 0,0 -0.047694806409758574,0.3801745344243994 l -1.2471414661584106 -0.1673754436086615" fill="#ff0100" stroke="none" /><path d="M 120.81339534386255 102.79330883721812 l 1.5204621640490836 0.20405706658267428 a22.534094025386693,22.534094025386693 0 0,0 -0.054903728823335426,0.38399655151446827 l -1.516724384209147 -0.23019909007755185" fill="#ff0500" stroke="none" /><path d="M 120.76222939487914 103.15116336523771 l 3.6490686564504986 0.5538331770036256 a24.690858063843606,24.690858063843606 0 0,0 -0.06739222226352144,0.41965143236584773 l -3.638994679825689 -0.6165638390626782" fill="#ff2403" stroke="none" /><path d="M 120.70491114924044 103.5080841355445 l 2.149816968674771 0.36424878850103154 a23.180456415232015,23.180456415232015 0 0,0 -0.07004202036894512,0.3928328470298549 l -2.143228505966637 -0.4012003862641048" fill="#ff0e01" stroke="none" /><path d="M 120.64145759157962 103.86396538481128 l 3.536528134755736 0.6620182821140407 a24.597957678151886,24.597957678151886 0 0,0 -0.08148959830146686,0.4155137061184775 l -3.524608603478605 -0.7227957153004632" fill="#ff2203" stroke="none" /><path d="M 120.5718875245553 104.21870165774334 l 3.3798098057057175 0.6931016521050186 a24.450145536480342,24.450145536480342 0 0,0 -0.0880973221592882,0.41156136001948757 l -3.3673784448219863 -0.7511768315406752" fill="#ff2003" stroke="none" /><path d="M 120.41448212921028 104.9243191809786 l 2.5527965244190285 0.6157777998367682 a23.626014545629495,23.626014545629495 0 0,0 -0.09876651263840897,0.3945231222449736 l -2.5418186974855588 -0.6596287614791377" fill="#ff1402" stroke="none" /><path d="M 120.32669344350535 105.2749913415812 l 2.1441384661281906 0.556426546964588 a23.215161453279983,23.215161453279983 0 0,0 -0.10370756923659133,0.3859344452920742 l -2.134242820549822 -0.5932519254322105" fill="#ff0e01" stroke="none" /><line stroke="#e1ed5e" stroke-width="0.3" x1="174.80103733775053" x2="179.2010983576182" y1="140.37084112569926" y2="142.7455964860345" /><path d="M 175.68104954172406 140.8457921977663 a86.0,86.0 0 0,1 -30.038265399797805,32.042727171017184" fill="none" id="id65" stroke="none" /><text fill="#e1ed5e" style="font-size:6.75px; font-family:Arial;" text-anchor="middle"><textPath startOffset="22.206326154141568" xlink:href="#id65">May</textPath></text><line stroke="#e1ed5e" stroke-width="0.3" x1="143.8653032363475" x2="146.44561519142675" y1="172.8068346515853" y2="177.08958963109032" /><path d="M 144.38136562736335 173.6633856474863 a86.0,86.0 0 0,1 -40.68145358897372,12.25698825130547" fill="none" id="id66" stroke="none" /><text fill="#e1ed5e" style="font-size:6.75px; font-family:Arial;" text-anchor="middle"><textPath startOffset="21.466115282336833" xlink:href="#id66">June</textPath></text><line stroke="#e1ed5e" stroke-width="0.3" x1="102.19456741930631" x2="102.32365962044197" y1="184.97166512339345" y2="189.96999836594603" /><path d="M 102.22038585953345 185.97133177190398 a86.0,86.0 0 0,1 -42.740103519485714,-10.115201625700543" fill="none" id="id67" stroke="none" /><text fill="#e1ed5e" style="font-size:6.75px; font-family:Arial;" text-anchor="middle"><textPath startOffset="22.20632615414155" xlink:href="#id67">July</textPath></text><line stroke="#e1ed5e" stroke-width="0.3" x1="58.666819895761336" x2="56.23545636021788" y1="174.27360380694188" y2="178.64263932499728" /><path d="M 58.180547188652646 175.14741091055294 a86.0,86.0 0 0,1 -31.652253787137756,-30.449443065178592" fill="none" id="id68" stroke="none" /><text fill="#e1ed5e" style="font-size:6.75px; font-family:Arial;" text-anchor="middle"><textPath startOffset="22.20632615414155" xlink:href="#id68">August</textPath></text><line stroke="#e1ed5e" stroke-width="0.3" x1="26.63291911575756" x2="22.317208475507996" y1="142.92168965132927" y2="145.44649492493687" /><path d="M 25.769776987707644 143.4266507060508 a86.0,86.0 0 0,1 -11.730757126820373,-40.83630448921669" fill="none" id="id69" stroke="none" /><text fill="#e1ed5e" style="font-size:6.75px; font-family:Arial;" text-anchor="middle"><textPath startOffset="21.46611528233685" xlink:href="#id69">September</textPath></text><line stroke="#e1ed5e" stroke-width="0.3" x1="15.007084014347285" x2="10.007500721073583" y1="101.09737516637583" y2="101.16192664675087" /><path d="M 14.007167355692545 101.11028546245083 a86.0,86.0 0 0,1 10.666146001902534,-42.60595125391555" fill="none" id="id70" stroke="none" /><text fill="#e1ed5e" style="font-size:6.75px; font-family:Arial;" text-anchor="middle"><textPath startOffset="22.20632615414155" xlink:href="#id70">October</textPath></text><line stroke="#e1ed5e" stroke-width="0.3" x1="26.266209847984243" x2="21.928928074336255" y1="57.711370442889674" y2="55.22380399835377" /><path d="M 25.398753493254645 57.213857153982495 a86.0,86.0 0 0,1 29.58750427330803,-30.492523968695096" fill="none" id="id71" stroke="none" /><text fill="#e1ed5e" style="font-size:6.75px; font-family:Arial;" text-anchor="middle"><textPath startOffset="21.46611528233685" xlink:href="#id71">November</textPath></text><line stroke="#e1ed5e" stroke-width="0.3" x1="56.762969772571076" x2="54.21961505331055" y1="26.818313649435495" y2="22.513508569990535" /><path d="M 56.25429882871897 25.957352633546506 a86.0,86.0 0 0,1 42.265352541879196,-11.944610805530505" fill="none" id="id72" stroke="none" /><text fill="#e1ed5e" style="font-size:6.75px; font-family:Arial;" text-anchor="middle"><textPath startOffset="22.20632615414155" xlink:href="#id72">December</textPath></text></svg>