<?xml version="1.0" encoding="utf-8" ?>
<svg baseProfile="full" height="200mm" version="1.1" viewBox="0,0,200,200" width="200mm" xmlns="http://www.w3.org/2000/svg" xmlns:ev="http://www.w3.org/2001/xml-events" xmlns:xlink="http://www.w3.org/1999/xlink"><defs /><rect fill="#1a1a1a" height="200" width="200" x="0" y="0" /><text alignment-baseline="middle" fill="#e1ed5e" style="dominant-baseline: central; font-size:9.0px; font-family:Arial;" text-anchor="middle" x="100.0" y="100.0">2024</text><line stroke="#e1ed5e" stroke-width="0.3" x1="100.0" x2="100.0" y1="15.0" y2="10.0" /><path d="M 100.0 14.0 a86.0,86.0 0 0,1 42.35913384403234,11.155469271406648" fill="none" id="id37" stroke="none" /><text fill="#e1ed5e" style="font-size:6.75px; font-family:Arial;" text-anchor="middle"><textPath startOffset="22.145653131862478" xlink:href="#id37">January</textPath></text><path d="M 102.51750503828377 79.15144685158666 l 0.5521414943072523 -4.572523635287978 a25.60573909649722,25.60573909649722 0 0,0 0.43593426732741897,0.0564404186136164 l -0.630553583525463 4.562371620473965" fill="#ff3b05" stroke="none" /><path d="M 103.58742460773223 79.30868818359171 l 0.8571596132694886 -4.94386886803525 a26.01762513415943,26.01762513415943 0 0,0 0.439407045265498,0.08007460106618637 l -0.9419013920860403 4.928426093037698" fill="#ff4106" stroke="none" /><path d="M 104.29559338865022 79.4440306129975 l 2.0158902496694355 -9.646764605153377 a30.855144892184605,30.855144892184605 0 0,0 0.5175400796042654,0.11279545154504035 l -2.181192745892835 9.610737695474619" fill="#ff830c" stroke="none" /><path d="M 104.64783097203109 79.52079915486377 l 0.9243601158074348 -4.0729012261350475 a25.176477705141966,25.176477705141966 0 0,0 0.4206484051818555,0.099271878256692 l -0.9941406747291753 4.056433204232127" fill="#ff3505" stroke="none" /><path d="M 105.3480935250658 79.69241777938227 l 1.1677514465805203 -4.434142447871165 a25.585331251829444,25.585331251829444 0 0,0 0.42376447964919717,0.11549889332532717 l -1.2436973271644103 4.413443060401695" fill="#ff3b05" stroke="none" /><path d="M 106.72888874123014 80.10723608172694 l 5.708125051180865 -16.87505744646369 a38.81432725143917,38.81432725143917 0 0,0 0.6293359233843231,0.2189157027836252 l -5.996966746610206 16.77458331111147" fill="#ffe815" stroke="none" /><path d="M 107.06938296918511 80.22567764915836 l 1.3281390288970572 -3.715041241735348 a24.94531173773051,24.94531173773051 0 0,0 0.4019887670198906,0.1476158433743112 l -1.3917169475710724 3.691694549352315" fill="#ff3204" stroke="none" /><path d="M 108.73861861582097 80.90454125486305 l 13.01415552882775 -28.438278511617995 a52.27465313689141,52.27465313689141 0 0,0 0.8127744870308274,0.38041949932014163 l -13.500418729730082 28.210682780727318" fill="#7cff26" stroke="none" /><path d="M 109.06512990194946 81.05736502329252 l 14.70130741842896 -30.72007826912377 a55.056594789735584,55.056594789735584 0 0,0 0.8490244730089214,0.41530041490756603 l -15.226492140699948 30.463184104118984" fill="#5fff29" stroke="none" /><path d="M 109.3889696526874 81.21577127319529 l 12.215462673118816 -24.43910816027951 a48.321924090155136,48.321924090155136 0 0,0 0.7388025914176978,0.37723786735475545 l -12.633192486250092 24.225812341251917" fill="#a7ff21" stroke="none" /><line stroke="#e1ed5e" stroke-width="0.3" x1="143.13028292997686" x2="145.6673583964461" y1="26.7553504044142" y2="22.446841604673864" /><path d="M 143.63769802327073 25.89364864446614 a86.0,86.0 0 0,1 29.32050498858742,28.57503671076993" fill="none" id="id38" stroke="none" /><text fill="#e1ed5e" style="font-size:6.75px; font-family:Arial;" text-anchor="middle"><textPath startOffset="20.669276256404974" xlink:href="#id38">February</textPath></text><path d="M 112.16784306229584 82.88440491214696 l 18.824385733633683 -26.478855976766706 a53.4882642208996,53.4882642208996 0 0,0 0.7437899464113021,0.5384465617567306 l -19.276156690418954 26.1518086436369" fill="#6fff27" stroke="none" /><path d="M 112.45986205192187 83.09580414077388 l 19.470646760773764 -26.415671776972736 a53.816060103424725,53.816060103424725 0 0,0 0.7389380990200511,0.554512925428442 l -19.921237848704582 26.07753982428028" fill="#6cff28" stroke="none" /><path d="M 112.7482090630111 83.31218511350987 l 22.04610520574838 -28.859059403809123 a57.31633330080984,57.31633330080984 0 0,0 0.7767456413039672,0.6040021087819745 l -22.538260791687573 28.476356243406357" fill="#49ff2c" stroke="none" /><path d="M 114.65682725009322 84.96080404539774 l 11.395972776909238 -11.69327199951551 a37.327914918528634,37.327914918528634 0 0,0 0.4550594201830782,0.4511700468003052 l -11.595024117222279 11.495921942486547" fill="#ffd614" stroke="none" /><path d="M 114.91283532996326 85.21462403516908 l 9.83435212359669 -9.750298337014407 a34.84856668943312,34.84856668943312 0 0,0 0.41754092095416817,0.42843376824645735 l -10.000279845701668 9.580041876700207" fill="#ffb710" stroke="none" /><path d="M 115.41159269507618 85.73525988315684 l 3.279094909400412 -3.0350812940965164 a25.468129573616938,25.468129573616938 0 0,0 0.2942203233245925,0.32339967514819296 l -3.330712933566882 2.9783440433906514" fill="#ff3905" stroke="none" /><path d="M 116.7966241395341 87.39550010848427 l 6.6544720969001725 -4.993639919944008 a29.319761927992975,29.319761927992975 0 0,0 0.29863989822289205,0.405162377392486 l -6.7392140147068895 4.878671233282647" fill="#ff6e0a" stroke="none" /><path d="M 117.01052211995028 87.68569379921539 l 5.034643185588796 -3.6446934057551017 a27.215418089569713,27.215418089569713 0 0,0 0.27070904410027125,0.38078617234941453 l -5.096467328219028 3.5577300066961834" fill="#ff5107" stroke="none" /><path d="M 117.21940702142032 87.97951657250589 l 3.05066938171667 -2.1296041553621525 a24.720456629915113,24.720456629915113 0 0,0 0.2399182272280163,0.35004786356876566 l -3.0867773457600114 2.076921556723338" fill="#ff2f04" stroke="none" /><path d="M 117.42321728460499 88.27688183743584 l 3.493721413824091 -2.350731687053577 a25.210941555273685,25.210941555273685 0 0,0 0.2385141885157536,0.36114088123068144 l -3.5335600412605688 2.2904109274838365" fill="#ff3605" stroke="none" /><path d="M 117.81537515405839 88.88188828441811 l 3.370963091888216 -2.103730284690569 a24.973546687481704,24.973546687481704 0 0,0 0.2238486441787012,0.3656399373871999 l -3.4065797005223195 2.0455532311788143" fill="#ff3204" stroke="none" /><line stroke="#e1ed5e" stroke-width="0.3" x1="172.87174338648825" x2="177.1583165268699" y1="56.24261187166439" y2="53.66864786411523" /><path d="M 173.72905801456457 55.72781907015455 a86.0,86.0 0 0,1 12.242430191666344,42.057860355516425" fill="none" id="id39" stroke="none" /><text fill="#e1ed5e" style="font-size:6.75px; font-family:Arial;" text-anchor="middle"><textPath startOffset="22.145653131862474" xlink:href="#id39">March</textPath></text><path d="M 118.18653347947321 89.5 l 3.8458068114023116 -2.2203775978144216 a25.440755195628842,25.440755195628842 0 0,0 0.21511568054298852,0.38008879553305885 l -3.883355856966676 2.154032032182245" fill="#ff3905" stroke="none" /><path d="M 119.31412917781788 91.75594674310238 l 17.89989545913457 -7.640400977926842 a40.46232217777344,40.46232217777344 0 0,0 0.267194207433117,0.6411688292036284 l -18.028415511104168 7.3319996392819355" fill="#fffc17" stroke="none" /><path d="M 119.4528033332814 92.08871423366111 l 21.497160292036142 -8.742707944007305 a44.20695677627086,44.20695677627086 0 0,0 0.27985387664536726,0.7054145832291547 l -21.644072843647635 8.372392343564586" fill="#d5ff1c" stroke="none" /><path d="M 119.94978838288452 93.4421083053983 l 3.9486527190703384 -1.298000578967226 a25.156520636159627,25.156520636159627 0 0,0 0.13133534714288836,0.411406104335184 l -3.9703527819904836 1.2300254409406548" fill="#ff3505" stroke="none" /><path d="M 120.16314734710363 94.1308016681162 l 13.498547436971705 -3.929230428964214 a35.05879207727583,35.05879207727583 0 0,0 0.16324293120760605,0.5792915737307874 l -13.564008860253894 3.6969309313304133" fill="#ffb911" stroke="none" /><path d="M 120.7213421655516 96.59031103205396 l 4.250776414892081 -0.6994636414603567 a25.307940286857253,25.307940286857253 0 0,0 0.06685936972232025,0.4292851152929497 l -4.262157276752666 0.6263903442359657" fill="#ff3705" stroke="none" /><path d="M 120.86939407059847 97.66154086499901 l 8.154640901372808 -0.9137445219520479 a29.20567469997073,29.20567469997073 0 0,0 0.05155164224222143,0.4987153748135861 l -8.169124936096697 0.7736246248555304" fill="#ff6d0a" stroke="none" /><path d="M 120.93736805541906 98.37931529534042 l 11.457596226779414 -0.886890410855655 a32.49187042638306,32.49187042638306 0 0,0 0.038272388985078676,0.5564721362082851 l -11.47113257692956 0.6900748504930359" fill="#ff980e" stroke="none" /><path d="M 120.98066250479742 99.09900007780936 l 50.717153838311745 -2.178012808299111 a71.7638989169675,71.7638989169675 0 0,0 0.04229051006781067,1.2312420576303396 l -50.7470690353764 1.3070644861046516" fill="#3effb5" stroke="none" /><line stroke="#e1ed5e" stroke-width="0.3" x1="184.99686870605535" x2="189.99668451229388" y1="99.2704041080226" y2="99.22748670261217" /><path d="M 185.99683186730306 99.26182062694052 a86.0,86.0 0 0,1 -10.086455211305974,41.156179273409016" fill="none" id="id40" stroke="none" /><text fill="#e1ed5e" style="font-size:6.75px; font-family:Arial;" text-anchor="middle"><textPath startOffset="21.40746469413373" xlink:href="#id40">April</textPath></text><path d="M 120.99922638620191 99.81974689727618 l 2.0927514714476176 -0.01796375442698001 a23.092828568640844,23.092828568640844 0 0,0 0.0,0.3964337143016135 l -2.0927514714476176 -0.017963754426979756" fill="#ff1802" stroke="none" /><path d="M 120.99922638620191 100.18025310272382 l 10.566981186425018 0.0907048245610112 a31.56737047516831,31.56737047516831 0 0,0 -0.009302706258845522,0.5418360020248243 l -10.563867048567504 -0.2720877425549065" fill="#ff8c0c" stroke="none" /><path d="M 120.9064616781168 101.97986365728391 l 2.545655958222524 0.24107626595219356 a23.557045565421017,23.557045565421017 0 0,0 -0.04158111044335882,0.4022595241969001 l -2.541142455297499 -0.2847403124320251" fill="#ff1e03" stroke="none" /><path d="M 120.86939407059847 102.33845913500097 l 2.1222477584291695 0.23780228791720395 a23.135529319933653,23.135529319933653 0 0,0 -0.047612824308853094,0.3943024872061013 l -2.1178528478606524 -0.27419845204671384" fill="#ff1802" stroke="none" /><path d="M 120.82617615685814 102.69636545807757 l 3.2764295477917895 0.4241994013664043 a24.30377597814421,24.30377597814421 0 0,0 -0.05712021966357983,0.41329345508005766 l -3.2686648115729993 -0.480381164646547" fill="#ff2904" stroke="none" /><path d="M 120.77682067341334 103.0534771498775 l 9.390620197624417 1.380097785284173 a30.491491852863696,30.491491852863696 0 0,0 -0.0805534509750024,0.5172109404062353 l -9.365545254511146 -1.5410969076218586" fill="#ff7e0b" stroke="none" /><path d="M 120.35273937422433 105.17358676015961 l 2.0270923308050275 0.5152789436077402 a23.09155820080008,23.09155820080008 0 0,0 -0.10095466416396398,0.38334130348614204 l -2.017948185836333 -0.5500007514666855" fill="#ff1802" stroke="none" /><path d="M 119.58574465831526 107.57618678355244 l 4.0719391860609 1.57511355238497 a25.365967411454776,25.365967411454776 0 0,0 -0.16058025325928116,0.4047671369986846 l -4.044300257835495 -1.6447817065972186" fill="#ff3805" stroke="none" /><line stroke="#e1ed5e" stroke-width="0.3" x1="174.33088141563837" x2="178.70328620479359" y1="141.23008692659167" y2="143.65538615756765" /><path d="M 175.20536237346943 141.71514677278685 a86.0,86.0 0 0,1 -30.301960400862466,31.631185727798858" fill="none" id="id41" stroke="none" /><text fill="#e1ed5e" style="font-size:6.75px; font-family:Arial;" text-anchor="middle"><textPath startOffset="22.145653131862474" xlink:href="#id41">May</textPath></text><path d="M 117.62189284568427 111.42229804090321 l 1.766418951501824 1.1449714230951633 a23.105040491755293,23.105040491755293 0 0,0 -0.21859080397422914,0.3309743377005118 l -1.7465037086068682 -1.1751256391347362" fill="#ff1802" stroke="none" /><path d="M 117.423217284605 111.72311816256416 l 2.2890731327999148 1.5401905618358755 a23.758993072494878,23.758993072494878 0 0,0 -0.230586982433722,0.3364332985462585 l -2.2622964135508723 -1.579258595452178" fill="#ff2103" stroke="none" /><path d="M 117.21940702142032 112.02048342749411 l 1.7986207427760088 1.2555769663839935 a23.193515464923408,23.193515464923408 0 0,0 -0.2307035806016362,0.3245134779171335 l -1.776802063644412 -1.286267671010631" fill="#ff1902" stroke="none" /><path d="M 115.89218393027572 113.72728997021213 l 3.2102242551321902 2.7729152527397947 a25.242004097960777,25.242004097960777 0 0,0 -0.2860627475631766,0.3254868949126096 l -3.162150443610428 -2.8276144254636972" fill="#ff3605" stroke="none" /><path d="M 115.41159269507618 114.26474011684316 l 3.026199830909056 2.801005384949216 a25.123532051907503,25.123532051907503 0 0,0 -0.29567306583662045,0.3139945496848226 l -2.9776709313361756 -2.8525413945785356" fill="#ff3405" stroke="none" /><path d="M 115.16444852881244 114.52719865689866 l 4.452894051754477 4.265771773042215 a27.166447458288616,27.166447458288616 0 0,0 -0.3254969879213583,0.33398858432686734 l -4.3790102626823115 -4.34158304943682" fill="#ff5107" stroke="none" /><path d="M 114.65682725009322 115.03919595460226 l 6.557804011232067 6.7288846265257405 a30.39588642794419,30.39588642794419 0 0,0 -0.3768040739860481,0.3609697792256443 l -6.441327451380707 -6.840466536056965" fill="#ff7d0b" stroke="none" /><path d="M 114.13192950727249 115.5334660781643 l 2.8561416862888187 3.139400035612057 a25.244216996780175,25.244216996780175 0 0,0 -0.32304780845212133,0.2888713423295265 l -2.8018288510133194 -3.1879669078249706" fill="#ff3605" stroke="none" /><path d="M 113.86319453409587 115.77377054828091 l 8.593963236265727 9.778352590798304 a34.0181559176505,34.0181559176505 0 0,0 -0.44194528547436684,0.3817418116535442 l -8.424838471028504 -9.924438534916566" fill="#ffac0f" stroke="none" /><path d="M 113.31354834802062 116.24036423190432 l 2.697912827007906 3.2910149744601513 a25.255527368523758,25.255527368523758 0 0,0 -0.33764142157070864,0.2719800288351924 l -2.6410206350819445 -3.336843297088747" fill="#ff3605" stroke="none" /><path d="M 110.96478420261333 117.91015095944535 l 2.1877574209476145 3.573537330764776 a25.190041955312715,25.190041955312715 0 0,0 -0.3707341347300486,0.22261519584851108 l -2.1260905296601296 -3.6105665271492104" fill="#ff3505" stroke="none" /><line stroke="#e1ed5e" stroke-width="0.3" x1="143.1302829299769" x2="145.66735839644613" y1="173.24464959558577" y2="177.55315839532614" /><path d="M 143.63769802327073 174.10635135553383 a86.0,86.0 0 0,1 -40.68552437913181,11.842963189579606" fill="none" id="id42" stroke="none" /><text fill="#e1ed5e" style="font-size:6.75px; font-family:Arial;" text-anchor="middle"><textPath startOffset="21.407464694133747" xlink:href="#id42">June</textPath></text><path d="M 110.34350942703117 118.27599006163325 l 2.045065921821387 3.6134355294265177 a25.152012879305296,25.152012879305296 0 0,0 -0.3775865828463695,0.20944091253295893 l -1.9827351508189228 -3.6480093573926204" fill="#ff3505" stroke="none" /><path d="M 110.02825361518725 118.45085714620011 l 3.000217868094845 5.520062955713488 a27.28270660552249,27.28270660552249 0 0,0 -0.41341249416625353,0.22011886759219365 l -2.9050165581420377 -5.57075229102825" fill="#ff5207" stroke="none" /><path d="M 109.71004243097381 118.62028667847754 l 1.567192700601839 3.0052986455072657 a24.38938237876866,24.38938237876866 0 0,0 -0.3728936552876691,0.19040215736236987 l -1.5153718236005875 -3.031758754542472" fill="#ff2a04" stroke="none" /><path d="M 109.06512990194946 118.94263497670748 l 1.9144238232974427 4.000409488631549 a25.434895111718216,25.434895111718216 0 0,0 -0.39546572930811685,0.18509792955147583 l -1.8454693801178195 -4.032683649753558" fill="#ff3905" stroke="none" /><path d="M 108.4095320186766 119.2426549942271 l 0.180514883804161 0.4130533806937215 a21.450775685432724,21.450775685432724 0 0,0 -0.33868213465125924,0.14456326399801936 l -0.1733976739824706 -0.4160912943511448" fill="#ff0000" stroke="none" /><path d="M 108.07796709384702 119.3841803445677 l 3.4645958701441235 8.313768846505026 a30.006785052200215,30.006785052200215 0 0,0 -0.47717295248569647,0.19406208567499167 l -3.321368456467986 -8.372018188759307" fill="#ff770b" stroke="none" /><path d="M 107.407793817531 119.65005319985036 l 3.305094653251701 8.767156236616621 a30.369454580934725,30.369454580934725 0 0,0 -0.48939775659693235,0.1797136350876638 l -3.154107745000642 -8.822600720713007" fill="#ff7c0b" stroke="none" /><path d="M 107.06938296918513 119.77432235084164 l 1.4048131054757118 3.929512280131246 a25.173076397697336,25.173076397697336 0 0,0 -0.4081565339659828,0.14197802979113777 l -1.3371507994647074 -3.9530487424909744" fill="#ff3505" stroke="none" /><path d="M 106.72888874123015 119.89276391827305 l 1.4252192096265393 4.213407348403469 a25.447926626988,25.447926626988 0 0,0 -0.4150160116072466,0.13642400628072998 l -1.3526804603715583 -4.237252276086218" fill="#ff3905" stroke="none" /><path d="M 106.0420521117495 120.11202640906438 l 2.4135194990245354 8.033821457577286 a29.38852570982535,29.38852570982535 0 0,0 -0.4844068535867513,0.14100377525797447 l -2.2752526330561773 -8.074068927137779" fill="#ff6f0a" stroke="none" /><path d="M 105.69591212413111 120.21278271476187 l 1.7022935576835356 6.040839298138765 a27.276108888672066,27.276108888672066 0 0,0 -0.4517684753147918,0.12313150687222317 l -1.5983436814340486 -6.069171299155131" fill="#ff5207" stroke="none" /><path d="M 104.9986988182912 120.39639698878246 l 1.0903103920665413 4.448838468965088 a25.580495658112987,25.580495658112987 0 0,0 -0.4273987341823084,0.1008649375206071 l -1.0137795041443538 -4.46689955013192" fill="#ff3b05" stroke="none" /><path d="M 104.29559338865022 120.5559693870025 l 0.9110145088728544 4.359534215921203 a25.45370475168309,25.45370475168309 0 0,0 -0.42847495647510997,0.0857069914360429 l -0.8360430668667858 -4.374530604020107" fill="#ff3905" stroke="none" /><path d="M 103.58742460773223 120.69131181640829 l 2.721178298900569 15.695033303065797 a36.92918333495951,36.92918333495951 0 0,0 -0.6255495860058414,0.1029339463277225 l -2.451351209841655 -15.73943324788919" fill="#ffd113" stroke="none" /><path d="M 103.2317021107853 120.74984581791261 l 0.9611105411064742 6.171019128085347 a27.245415162454872,27.245415162454872 0 0,0 -0.4627502655115884,0.06800835334963046 l -0.8550351699872004 -6.186608554733859" fill="#ff5207" stroke="none" /><path d="M 102.875027216393 120.80226474461374 l 0.5785399679079816 4.186027008419491 a25.225817152892965,25.225817152892965 0 0,0 -0.429466147289873,0.05560299097848188 l -0.5065959987273333 -4.195341595598368" fill="#ff3605" stroke="none" /><path d="M 102.51750503828377 120.84855314841334 l 0.5333897785669267 4.417232529097141 a25.449319933652063,25.449319933652063 0 0,0 -0.43417036480488874,0.04864969496910709 l -0.45748351216123867 -4.425737984573219" fill="#ff3905" stroke="none" /><path d="M 102.15924093988457 120.88869738790638 l 1.600442278148686 15.48282723689309 a36.565325397599764,36.565325397599764 0 0,0 -0.6249195833413117,0.05918053426886366 l -1.3344231314223591 -15.508019526667137" fill="#ffcc13" stroke="none" /><path d="M 101.80034050326958 120.92268563240118 l 0.3617755169571436 4.204379892052188 a25.21991608937457,25.21991608937457 0 0,0 -0.4316580853184812,0.03341306580017975 l -0.2895484368634266 -4.209970724847421" fill="#ff3605" stroke="none" /><path d="M 101.08105385017728 120.97215588758144 l 0.43202493918529783 8.381168403804429 a29.39229583373988,29.39229583373988 0 0,0 -0.504111799814889,0.021648729743624116 l -0.28808737876957935 -8.387349701973884" fill="#ff6f0a" stroke="none" /><path d="M 100.72087961077811 120.9876233191556 l 0.14420687025092344 4.198425683858484 a25.200901551370865,25.200901551370865 0 0,0 -0.43247949488228554,0.011139137677786251 l -0.07211406129789404 -4.200282538886315" fill="#ff3505" stroke="none" /><line stroke="#e1ed5e" stroke-width="0.3" x1="101.45913802915013" x2="101.54496967792366" y1="184.9874750549273" y2="189.98673829345242" /><path d="M 101.47630435890484 185.9873277026323 a86.0,86.0 0 0,1 -42.54439059252881,-10.42667462771756" fill="none" id="id43" stroke="none" /><text fill="#e1ed5e" style="font-size:6.75px; font-family:Arial;" text-anchor="middle"><textPath startOffset="22.145653131862474" xlink:href="#id43">July</textPath></text><path d="M 100.36049292484886 120.99690560180557 l 0.03928595547099065 2.2882099526557407 a23.28854717533418,23.28854717533418 0 0,0 -0.3997788803198426,0.003431620872874587 l -2.8026619729707205e-16 -2.2885471753341804" fill="#ff1a02" stroke="none" /><path d="M 99.63950707515114 120.99690560180557 l -0.35323593389804325 20.574222260624524 a41.57725436627964,41.57725436627964 0 0,0 -0.7135185195762482,-0.018377706039846765 l 0.7063677675450354 -20.56512683723463" fill="#f4ff19" stroke="none" /><path d="M 99.27912038922189 120.98762331915562 l -0.17538988973012665 5.106285272336816 a26.109296516733338,26.109296516733338 0 0,0 -0.44780457210293334,-0.019230655110586897 l 0.2630202224338987 -5.102522048800401" fill="#ff4206" stroke="none" /><path d="M 98.55909050195518 120.95050786540614 l -0.28715559076559144 4.175179267742417 a25.185042443165187,25.185042443165187 0 0,0 -0.43106119628453365,-0.03336686281396215 l 0.3587857818253612 -4.1696346379334015" fill="#ff3505" stroke="none" /><path d="M 98.19965949673042 120.92268563240118 l -0.2774902812971961 3.2248576927997035 a24.2367743194458,24.2367743194458 0 0,0 -0.414218518351807,-0.03922692434928613 l 0.3328083630340184 -3.2196190129452336" fill="#ff2803" stroke="none" /><path d="M 97.84075906011543 120.88869738790638 l -0.4355982600551601 4.214018023147157 a25.236471850912285,25.236471850912285 0 0,0 -0.4305391349735189,-0.048242808092481486 l 0.5078732966294783 -4.205919454547705" fill="#ff3605" stroke="none" /><path d="M 97.48249496171623 120.84855314841334 l -1.5705311116867993 13.00625057559394 a34.10072982730023,34.10072982730023 0 0,0 -0.5805603429985688,-0.07516515962415421 l 1.7935692765761622 -12.977373819769388" fill="#ffad10" stroke="none" /><path d="M 97.12497278360702 120.80226474461374 l -0.4512465880411814 3.2649955228295977 a24.29603083227632,24.29603083227632 0 0,0 -0.41265639196450415,-0.06064627901548501 l 0.5072280856133704 -3.25676817051523" fill="#ff2904" stroke="none" /><path d="M 96.76829788921471 120.74984581791261 l -0.6018930878282172 3.86458539282509 a24.911175724460925,24.911175724460925 0 0,0 -0.42197455383757854,-0.06943575225382216 l 0.6681451447188593 -3.8536836420755995" fill="#ff3104" stroke="none" /><path d="M 96.05791012581884 120.62667999033965 l -1.575543587297871 8.24390981009161 a29.39311542589521,29.39311542589521 0 0,0 -0.4947890287737222,-0.09897166312967637 l 1.7168291016025512 -8.215648750299072" fill="#ff6f0a" stroke="none" /><path d="M 95.70440661134978 120.55596938700252 l -1.5117269862088676 7.234160880338732 a28.390426383061765,28.390426383061765 0 0,0 -0.4761988181105708,-0.10378531601855488 l 1.6356882209385748 -7.207144106186458" fill="#ff6109" stroke="none" /><path d="M 95.35216902796893 120.47920084513623 l -0.9148549409441514 4.031019671864964 a25.133531076202555,25.133531076202555 0 0,0 -0.4199308532199423,-0.099102537947474 l 0.9839179479039816 -4.014720990271263" fill="#ff3505" stroke="none" /><path d="M 95.00130118170881 120.39639698878247 l -0.9765630471156285 3.984710485188734 a25.10263245194653,25.10263245194653 0 0,0 -0.41765366213423577,-0.10616592769258258 l 1.0448220024752428 -3.967359325660888" fill="#ff3404" stroke="none" /><path d="M 94.30408787586889 120.21278271476187 l -1.162034986690236 4.123652223041262 a25.284254073568153,25.284254073568153 0 0,0 -0.41675673295072324,-0.12131181108425187 l 1.232651732022566 -4.103096717654494" fill="#ff3705" stroke="none" /><path d="M 93.61358852112213 120.00534299687104 l -2.5509255396400703 7.990737920467436 a29.388033954532148,29.388033954532148 0 0,0 -0.4792730197458727,-0.157546561162254 l 2.6877212970336863 -7.94577043790316" fill="#ff6f0a" stroke="none" /><path d="M 93.27111125876986 119.89276391827306 l -2.6253367709148767 7.761341671436746 a29.19333983803298,29.19333983803298 0 0,0 -0.47334112902754033,-0.16465261566544942 l 2.7581836719874393 -7.715130623202707" fill="#ff6c0a" stroke="none" /><path d="M 92.59220618246901 119.65005319985036 l -1.4918800919981812 3.957389190042651 a25.22925943994536,25.22925943994536 0 0,0 -0.4039417533550773,-0.15625334785493758 l 1.5595941078467868 -3.931195954049673" fill="#ff3605" stroke="none" /><path d="M 92.25597844496254 119.51999308798841 l -3.6745454059514078 9.262254813716627 a30.96451946531369,30.96451946531369 0 0,0 -0.4924030065153934,-0.2002560160613423 l 3.833002873657242 -9.197811541075993" fill="#ff840c" stroke="none" /><path d="M 91.92203290615298 119.3841803445677 l -1.4626251434670492 3.5097678943332182 a24.8023338862328,24.8023338862328 0 0,0 -0.3915992366946022,-0.16715042821493026 l 1.5226594553320825 -3.4841428164588844" fill="#ff3004" stroke="none" /><path d="M 90.93487009805054 118.94263497670748 l -5.321423186602665 11.119727799898856 a33.32744462874427,33.32744462874427 0 0,0 -0.5139405410145108,-0.2513940724991376 l 5.5115239768792454 -11.026739977302496" fill="#ffa30f" stroke="none" /><path d="M 90.6110303473126 118.78422872680471 l -5.6106262050993365 11.22501081969353 a33.549103327153865,33.549103327153865 0 0,0 -0.5129382768698757,-0.26190993899967946 l 5.8024917036827945 -11.127042929021014" fill="#ffa60f" stroke="none" /><path d="M 89.97174638481275 118.45085714620012 l -7.8568319166902425 14.455685793288591 a37.45286174260904,37.45286174260904 0 0,0 -0.5622491587877837,-0.3118701305531151 l 8.103825263634128 -14.31868274730233" fill="#ffd814" stroke="none" /><line stroke="#e1ed5e" stroke-width="0.3" x1="58.13341422392154" x2="55.67067388415222" y1="173.97424548756322" y2="178.32567169271397" /><path d="M 57.64086615596768 174.84453072859336 a86.0,86.0 0 0,1 -31.369924170532247,-30.572349798747897" fill="none" id="id44" stroke="none" /><text fill="#e1ed5e" style="font-size:6.75px; font-family:Arial;" text-anchor="middle"><textPath startOffset="22.145653131862474" xlink:href="#id44">August</textPath></text><path d="M 89.65649057296885 118.27599006163327 l -3.4579354171347356 6.109840549104939 a28.02050346375256,28.02050346375256 0 0,0 -0.41658153503463374,-0.24051346139167515 l 3.562309420029769 -6.049580190437092" fill="#ff5c08" stroke="none" /><path d="M 89.03521579738668 117.91015095944536 l -5.078741688618008 8.29574286610196 a30.726919699482877,30.726919699482877 0 0,0 -0.4474949645666614,-0.2792699544740738 l 5.220400781974382 -8.20733711478634" fill="#ff810b" stroke="none" /><path d="M 88.72937992617639 117.7192867562869 l -7.338626345307438 11.537539528260329 a34.67370670309298,34.67370670309298 0 0,0 -0.4994902124091457,-0.3237635210140675 l 7.535602189973593 -11.409862165542366" fill="#ffb410" stroke="none" /><path d="M 88.4268655584334 117.5232005979908 l -6.02473733654242 9.122220210218758 a31.932170943506684,31.932170943506684 0 0,0 -0.4548109932535138,-0.30601713383068785 l 6.180444617892939 -9.017453402330949" fill="#ff910d" stroke="none" /><path d="M 88.1277618465304 117.32195027204791 l -5.140659427989789 7.500375735905378 a30.092965167333396,30.092965167333396 0 0,0 -0.423601344028602,-0.2957066366702343 l 5.268655863192157 -7.411024283430016" fill="#ff780b" stroke="none" /><path d="M 87.83215693770417 117.11559508785305 l -2.4232397769979532 3.4085902169789115 a25.182173870621526,25.182173870621526 0 0,0 -0.35017490334696744,-0.2534996253047018 l 2.4813956907188746 -3.3664898203011444" fill="#ff3505" stroke="none" /><path d="M 87.54013794807813 116.9041958592261 l -4.4372378284037115 6.019965310429249 a28.478573519367743,28.478573519367743 0 0,0 -0.3910338835426041,-0.29343911620257424 l 4.539924700857083 -5.9429071669626605" fill="#ff6309" stroke="none" /><path d="M 86.96720088162412 116.46651593811092 l -5.24719897376 6.629664490879199 a29.45491267440726,29.45491267440726 0 0,0 -0.3937830496472796,-0.3172037503563475 l 5.360232793762541 -6.538612446729441" fill="#ff700a" stroke="none" /><path d="M 86.68645165197938 116.24036423190432 l -5.874380753187515 7.165789357939094 a30.2658991121085,30.2658991121085 0 0,0 -0.3989703654237341,-0.33283526870923824 l 5.996525452773142 -7.063891905317985" fill="#ff7b0b" stroke="none" /><path d="M 86.40962598614128 116.0094264158162 l -2.1905577191349717 2.5804714850619606 a24.38487462191433,24.38487462191433 0 0,0 -0.31679496096514465,-0.2736399420841047 l 2.234532159862979 -2.5424874105131336" fill="#ff2a04" stroke="none" /><path d="M 86.13680546590413 115.77377054828092 l -9.726473554893598 11.066941441345064 a35.733685237584154,35.733685237584154 0 0,0 -0.45728052113448975,-0.4089030617300793 l 9.915019102851458 -10.898342849731602" fill="#ffc212" stroke="none" /><path d="M 85.08716467003676 114.78537596483092 l -34.47165399572244 34.17702624478578 a69.54239437993951,69.54239437993951 0 0,0 -0.8332278240746929,-0.8549651508655475 l 35.05326862094795 -33.58023840185249" fill="#3bff9d" stroke="none" /><path d="M 84.83555147118756 114.52719865689866 l -4.815870197045554 4.613494709378481 a27.66910332715387,27.66910332715387 0 0,0 -0.32563130824071007,-0.3458091649471359 l 4.894357339022517 -4.530144084486855" fill="#ff5808" stroke="none" /><path d="M 84.58840730492382 114.26474011684316 l -2.417555450066142 2.2376532325740146 a24.294186749926823,24.294186749926823 0 0,0 -0.2806583600813803,-0.3084927018376246 l 2.455611510989402 -2.195822955178716" fill="#ff2904" stroke="none" /><path d="M 84.3458050057657 113.99807769240083 l -6.156593734292091 5.505264080644868 a29.259030149282857,29.259030149282857 0 0,0 -0.33158692642053766,-0.37728505369403803 l 6.250191724671221 -5.398766749139529" fill="#ff6d0a" stroke="none" /><path d="M 82.98947788004972 112.3143062007846 l -3.420394594129762 2.4761019128403676 a25.222579763879402,25.222579763879402 0 0,0 -0.2508864804189599,-0.35290325408399 l 3.462396173078683 -2.4170214320468735" fill="#ff3605" stroke="none" /><path d="M 82.78059297857968 112.02048342749411 l -3.9350436102204496 2.746966050821646 a25.798998926724558,25.798998926724558 0 0,0 -0.25038575053128,-0.36532029289394846 l 3.9816190975670542 -2.6790110228576465" fill="#ff3e05" stroke="none" /><path d="M 82.576782715395 111.72311816256416 l -7.989724069394441 5.375842923944656 a30.629920967899306,30.629920967899306 0 0,0 -0.2897817492433901,-0.43876650247754356 l 8.080830257558558 -5.237896543128052" fill="#ff800b" stroke="none" /><path d="M 82.37810715431573 111.42229804090323 l -3.549997283489543 2.3010653493075313 a25.230529807786127,25.230529807786127 0 0,0 -0.2324600547005834,-0.3654658165781283 l 3.588975029816016 -2.239785858050731" fill="#ff3605" stroke="none" /><path d="M 81.99639281039703 110.81064883170644 l -18.732112992478587 11.248095634661402 a42.84975314664845,42.84975314664845 0 0,0 -0.3732545888081721,-0.6338678930436069 l 18.92244129141653 -10.924876573324235" fill="#e5ff1a" stroke="none" /><line stroke="#e1ed5e" stroke-width="0.3" x1="26.387840678322732" x2="22.057713659400548" y1="142.50000000000003" y2="145.00000000000006" /><path d="M 25.521815274538298 143.00000000000003 a86.0,86.0 0 0,1 -11.493303480769221,-40.785679425670985" fill="none" id="id45" stroke="none" /><text fill="#e1ed5e" style="font-size:6.75px; font-family:Arial;" text-anchor="middle"><textPath startOffset="21.40746469413373" xlink:href="#id45">September</textPath></text><path d="M 81.63589988554817 110.18625677009913 l -3.6923147452286647 2.04806474787861 a25.222292906625036,25.222292906625036 0 0,0 -0.20676833415427545,-0.3804304460410329 l 3.72692842899827 -1.98437946836299" fill="#ff3605" stroke="none" /><path d="M 81.4637452351635 109.86951160357371 l -17.51411116615419 9.325277709742544 a40.8419982437311,40.8419982437311 0 0,0 -0.32419197876996514,-0.6216808656060925 l 17.671611213899105 -9.023250601031947" fill="#fdff18" stroke="none" /><path d="M 81.1358732173502 109.22738970284198 l -3.769806801751588 1.844001414164583 a25.196639672163137,25.196639672163137 0 0,0 -0.18671998869994036,-0.390172962445612 l 3.800906048411441 -1.7790159496538664" fill="#ff3505" stroke="none" /><path d="M 80.83023694016515 108.57439118712176 l -5.889376167603002 2.6342430499281932 a27.45166552834423,27.45166552834423 0 0,0 -0.18871858973788933,-0.4318250653256618 l 5.933728639357859 -2.532755914826682" fill="#ff5507" stroke="none" /><path d="M 80.68587082218212 108.24405325689762 l -3.8365183671937517 1.6375815574712118 a25.171396233778907,25.171396233778907 0 0,0 -0.16622010069317994,-0.3988677313606566 l 3.8640643124234173 -1.5714813166692738" fill="#ff3505" stroke="none" /><path d="M 80.5471966667186 107.91128576633889 l -7.205300133658841 2.9303328375344955 a28.77838032978827,28.77838032978827 0 0,0 -0.18218266730337493,-0.4592193321311043 l 7.25454147592834 -2.806212488189826" fill="#ff6709" stroke="none" /><path d="M 80.41425534168474 107.57618678355246 l -17.966103519891174 6.94967479735556 a40.26340716167431,40.26340716167431 0 0,0 -0.24382237885957447,-0.646767827766237 l 18.08275658256518 -6.640238689395178" fill="#fffa17" stroke="none" /><path d="M 80.16572619554312 106.89939002012753 l -4.017054884072917 1.3973402127407077 a25.253150551273293,25.253150551273293 0 0,0 -0.13890985904285116,-0.41066231559579675 l 4.040450164688135 -1.3281762226707492" fill="#ff3605" stroke="none" /><path d="M 79.83685265289637 105.86919833188381 l -8.73804585754206 2.5435177994856555 a30.10071031320129,30.10071031320129 0 0,0 -0.14015680209767678,-0.4973670458843917 l 8.780421151714313 -2.393142829698268" fill="#ff790b" stroke="none" /><path d="M 79.64726062577567 105.17358676015961 l -21.063625669588248 5.354291276541879 a42.73349399941458,42.73349399941458 0 0,0 -0.17462222955670917,-0.7125182865733211 l 21.15243542566125 -4.991917165360459" fill="#e7ff1a" stroke="none" /><path d="M 79.56144815229197 104.8234425847677 l -4.254345689318607 1.004013998696461 a25.3712128012489,25.3712128012489 0 0,0 -0.09639748622136929,-0.4247451108212273 l 4.270954037097643 -0.9308345539362074" fill="#ff3805" stroke="none" /><path d="M 79.48165901384964 104.47187691870673 l -18.89232902898856 4.1174951806470546 a40.33581812859791,40.33581812859791 0 0,0 -0.14164074117022926,-0.6778022210250456 l 18.960227480983153 -3.7925765083366" fill="#fffb17" stroke="none" /><path d="M 79.34024301695615 103.76489593502545 l -61.97927094913153 11.294687805076363 a84.0,84.0 0 0,0 -0.24634073003106272,-1.4208278683176294 l 62.16402649665483 -10.22906690383814" fill="#4dd2ff" stroke="none" /><path d="M 79.2786578344484 103.40968896794605 l -2.461329100628602 0.4050107668628666 a23.494428724753636,23.494428724753636 0 0,0 -0.062068373748245614,-0.3985234843107837 l 2.467918966515115 -0.3626991006206329" fill="#ff1d03" stroke="none" /><path d="M 79.22317932658666 103.0534771498775 l -4.073140713225587 0.5986114185403321 a25.116893355449314,25.116893355449314 0 0,0 -0.05903125781854147,-0.42712077518678726 l 4.082816487599341 -0.5286023351534592" fill="#ff3405" stroke="none" /><path d="M 79.17382384314188 102.69636545807758 l -8.81214055701798 1.1409080203061344 a29.88569031124988,29.88569031124988 0 0,0 -0.061504627902003464,-0.5093465491383541 l 8.830427271179644 -0.989467794244381" fill="#ff760a" stroke="none" /><path d="M 79.13060592940153 102.33845913500099 l -4.160073126560064 0.46614487091323126 a25.18610791296712,25.18610791296712 0 0,0 -0.044456607763441416,-0.43007735232781363 l 4.167462126805171 -0.39466299630248625" fill="#ff3505" stroke="none" /><path d="M 79.0935383218832 101.97986365728391 l -5.206155685835034 0.49302835626823577 a26.229448726705044,26.229448726705044 0 0,0 -0.03860272565608611,-0.4486221867415092 l 5.213852034188861 -0.4035851221510645" fill="#ff4406" stroke="none" /><path d="M 79.03789590574601 101.26102812881392 l -16.362099305854663 0.9843032635633763 a37.39167918821349,37.39167918821349 0 0,0 -0.033044292061094924,-0.6410504381316724 l 16.37658518737233 -0.703281032054973" fill="#ffd714" stroke="none" /><path d="M 79.01933749520258 100.90099992219065 l -8.9948884215855 0.38627921144572824 a30.003178846716754,30.003178846716754 0 0,0 -0.017680891872269757,-0.5147598753159219 l 9.000194000454618 -0.23181307156568642" fill="#ff770b" stroke="none" /><path d="M 79.00696218219943 100.54070618675478 l -8.310039432952449 0.21403713805362165 a29.31279539467265,29.31279539467265 0 0,0 -0.008638297111154245,-0.5031375000751388 l 8.312489161662269 -0.07135272200943042" fill="#ff6e0a" stroke="none" /><line stroke="#e1ed5e" stroke-width="0.3" x1="15.003131293944662" x2="10.003315487706104" y1="100.72959589197737" y2="100.7725132973878" /><path d="M 14.003168132696942 100.73817937305945 a86.0,86.0 0 0,1 10.791469493833604,-42.45332614584628" fill="none" id="id46" stroke="none" /><text fill="#e1ed5e" style="font-size:6.75px; font-family:Arial;" text-anchor="middle"><textPath startOffset="22.145653131862435" xlink:href="#id46">October</textPath></text><path d="M 79.00077361379809 99.81974689727619 l -33.54077820907053 -0.28790724137955925 a54.54201385501025,54.54201385501025 0 0,0 0.016073189689916004,-0.9361827192046247 l 33.53089358778195 0.8636368765532363" fill="#65ff29" stroke="none" /><path d="M 79.00696218219943 99.45929381324524 l -4.978846412770438 -0.12823742240887245 a25.98049760952288,25.98049760952288 0 0,0 0.01531032332835352,-0.4457433586770223 l 4.975911402445234 0.2136870456500333" fill="#ff4006" stroke="none" /><path d="M 79.01933749520258 99.09900007780938 l -10.24230538947733 -0.43984866335186174 a31.25174553614987,31.25174553614987 0 0,0 0.027618224945650693,-0.5357861856774945 l 10.23324557507511 0.6156066424060682" fill="#ff880c" stroke="none" /><path d="M 79.03789590574601 98.7389718711861 l -10.379278771711828 -0.624391636883316 a31.398042735876672,31.398042735876672 0 0,0 0.036983962116934915,-0.5377386923162655 l 10.36703084842983 0.8024737533539065" fill="#ff8a0c" stroke="none" /><path d="M 79.06263194458094 98.37931529534042 l -16.134990767422266 -1.2489503302119564 a37.1832569031125,37.1832569031125 0 0,0 0.054723798436873444,-0.6359734890295685 l 16.11117334628765 1.5257448666172058" fill="#ffd413" stroke="none" /><path d="M 79.13060592940154 97.66154086499901 l -4.541786133924134 -0.5089166095655198 a25.570209776563566,25.570209776563566 0 0,0 0.052623386687890954,-0.43579713149648897 l 4.532380660976575 0.586807417985445" fill="#ff3b05" stroke="none" /><path d="M 79.17382384314186 97.30363454192245 l -9.381187524621314 -1.2145825429795587 a30.459486779197974,30.459486779197974 0 0,0 0.07158774740321763,-0.5179732788131943 l 9.358955260662889 1.37544412999282" fill="#ff7d0b" stroke="none" /><line stroke="#e1ed5e" stroke-width="0.3" x1="26.387840678322718" x2="22.05771365940052" y1="57.49999999999999" y2="54.99999999999999" /><path d="M 25.521815274538284 56.99999999999999 a86.0,86.0 0 0,1 29.574782752854787,-30.34633250058573" fill="none" id="id47" stroke="none" /><text fill="#e1ed5e" style="font-size:6.75px; font-family:Arial;" text-anchor="middle"><textPath startOffset="21.40746469413373" xlink:href="#id47">November</textPath></text><line stroke="#e1ed5e" stroke-width="0.3" x1="56.869717070023135" x2="54.33264160355391" y1="26.7553504044142" y2="22.446841604673864" /><path d="M 56.362301976729285 25.89364864446614 a86.0,86.0 0 0,1 42.16139366436587,-11.88097634709845" fill="none" id="id48" stroke="none" /><text fill="#e1ed5e" style="font-size:6.75px; font-family:Arial;" text-anchor="middle"><textPath startOffset="22.145653131862474" xlink:href="#id48">December</textPath></text></svg>