<?xml version="1.0" encoding="utf-8" ?>
<svg baseProfile="full" height="200mm" version="1.1" viewBox="0,0,200,200" width="200mm" xmlns="http://www.w3.org/2000/svg" xmlns:ev="http://www.w3.org/2001/xml-events" xmlns:xlink="http://www.w3.org/1999/xlink"><defs /><rect fill="#1a1a1a" height="200" width="200" x="0" y="0" /><text alignment-baseline="middle" fill="#e1ed5e" style="dominant-baseline: central; font-size:9.0px; font-family:Arial;" text-anchor="middle" x="100.0" y="100.0">2024</text><line stroke="#e1ed5e" stroke-width="0.3" x1="100.0" x2="100.0" y1="15.0" y2="10.0" /><path d="M 100.0 14.0 a86.0,86.0 0 0,1 42.35913384403234,11.155469271406648" fill="none" id="id61" stroke="none" /><text fill="#e1ed5e" style="font-size:6.75px; font-family:Arial;" text-anchor="middle"><textPath startOffset="22.145653131862478" xlink:href="#id61">January</textPath></text><path d="M 100.36049292484886 79.00309439819443 l 0.7344402715882108 -42.77746382725185 a63.783768113670995,63.783768113670995 0 0,0 1.0946105145983909,0.028193284005251177 l -1.468664100257343 42.75855282589655" fill="#33ff4f" stroke="none" /><path d="M 100.72087961077811 79.0123766808444 l 1.451321509714302 -42.25364222466201 a63.27855975993388,63.27855975993388 0 0,0 1.0853003396099388,0.04660746634279743 l -2.176447609925077 42.22250218989338" fill="#32ff49" stroke="none" /><path d="M 101.08105385017728 79.02784411241856 l 2.1972713947325957 -42.62647805204042 a63.683071968910504,63.683071968910504 0 0,0 1.0912720534079674,0.06564821686546315 l -2.9286878002730257 42.58247785735026" fill="#32ff4e" stroke="none" /><path d="M 101.44090949804482 79.04949213459386 l 2.9187134323346826 -42.43745273659962 a63.537704250126346,63.537704250126346 0 0,0 1.0874962337284206,0.08417908629744691 l -3.646778660838337 42.38109588330711" fill="#32ff4c" stroke="none" /><path d="M 102.51750503828377 79.15144685158666 l 5.013135280083472 -41.5159516019309 a62.817529371667646,62.817529371667646 0 0,0 1.0694599963998945,0.1384630078690082 l -5.725073098374158 41.423776997861495" fill="#31ff43" stroke="none" /><path d="M 102.87502721639298 79.19773525538626 l 6.869270024235511 -49.70261597233318 a71.17506258251294,71.17506258251294 0 0,0 1.2088741871421156,0.17766287564096203 l -7.721469316985309 49.57737202339334" fill="#3cffa6" stroke="none" /><path d="M 103.58742460773223 79.30868818359171 l 7.137648708784414 -41.16806099593605 a62.7822363601462,62.7822363601462 0 0,0 1.0603180279491418,0.19322526574423055 l -7.84330147028461 41.039467556260455" fill="#31ff42" stroke="none" /><path d="M 104.9986988182912 79.60360301121754 l 10.269849565216333 -41.90449082084 a64.14459596572945,64.14459596572945 0 0,0 1.06722772850579,0.2712851152246041 l -10.987682586947518 41.722020473780134" fill="#33ff53" stroke="none" /><path d="M 108.07796709384702 80.6158196554323 l 15.88561692700354 -38.11969766902164 a62.29726595707172,62.29726595707172 0 0,0 0.9835994430544865,0.4198401138017148 l -16.537651445228455 37.84138290556052" fill="#31ff3c" stroke="none" /><path d="M 108.4095320186766 80.7573450057729 l 17.857081826239405 -40.86049782828256 a65.59210304666168,65.59210304666168 0 0,0 1.0278800948175548,0.4597576923049061 l -18.55587532391259 40.5479363850678" fill="#35ff65" stroke="none" /><path d="M 108.73861861582097 80.90454125486305 l 17.682811109516923 -38.64013351360885 a63.49401989320818,63.49401989320818 0 0,0 0.9872149569904594,0.46206644727693247 l -18.343514780378886 38.330890834761384" fill="#32ff4b" stroke="none" /><path d="M 109.71004243097381 81.37971332152246 l 19.570568589933792 -37.529145747391844 a63.325452572444895,63.325452572444895 0 0,0 0.9595651073299881,0.5109143719336056 l -20.21192251305034 37.18766090773566" fill="#32ff49" stroke="none" /><line stroke="#e1ed5e" stroke-width="0.3" x1="143.13028292997686" x2="145.6673583964461" y1="26.7553504044142" y2="22.446841604673864" /><path d="M 143.63769802327073 25.89364864446614 a86.0,86.0 0 0,1 29.32050498858742,28.57503671076993" fill="none" id="id62" stroke="none" /><text fill="#e1ed5e" style="font-size:6.75px; font-family:Arial;" text-anchor="middle"><textPath startOffset="20.669276256404974" xlink:href="#id62">February</textPath></text><path d="M 111.8722381534696 82.67804972795209 l 23.84698396723563 -34.79346228394686 a63.18131887504261,63.18131887504261 0 0,0 0.8893670478846913,0.6208472711492592 l -24.440746106294082 34.37897019699247" fill="#32ff47" stroke="none" /><path d="M 113.31354834802062 83.75963576809568 l 5.902465116358993 -7.200047714554717 a30.310197717648073,30.310197717648073 0 0,0 0.3995543173748861,0.3333224221958601 l -6.025193767895772 7.097663108446987" fill="#ff4f07" stroke="none" /><path d="M 114.13192950727249 84.46653392183569 l 12.310013804037666 -13.530861567654322 a39.29263935627176,39.29263935627176 0 0,0 0.4950315514365106,0.45819381361769423 l -12.540475126788142 13.317550007904252" fill="#ffcd13" stroke="none" /><path d="M 114.91283532996326 85.21462403516908 l 7.1679617413197825 -7.106697479184078 a31.093801295134824,31.093801295134824 0 0,0 0.37255289563094784,0.3822720910361175 l -7.288901438101542 6.982602696080218" fill="#ff5b08" stroke="none" /><path d="M 115.41159269507618 85.73525988315684 l 3.6342941291143274 -3.3638483890472717 a25.95212780543988,25.95212780543988 0 0,0 0.29981170826881687,0.3295455866683694 l -3.691503538225022 3.3009652268212304" fill="#ff0e01" stroke="none" /><path d="M 117.62189284568427 88.57770195909679 l 33.541538856578995 -21.741220249458657 a60.97143338439178,60.97143338439178 0 0,0 0.5617568417185904,0.8831750605129657 l -33.90981338992348 21.162231514267017" fill="#33ff2f" stroke="none" /><line stroke="#e1ed5e" stroke-width="0.3" x1="172.87174338648825" x2="177.1583165268699" y1="56.24261187166439" y2="53.66864786411523" /><path d="M 173.72905801456457 55.72781907015455 a86.0,86.0 0 0,1 12.242430191666344,42.057860355516425" fill="none" id="id63" stroke="none" /><text fill="#e1ed5e" style="font-size:6.75px; font-family:Arial;" text-anchor="middle"><textPath startOffset="22.145653131862474" xlink:href="#id63">March</textPath></text><path d="M 119.0197475246899 91.09779779509293 l 40.39163926871206 -18.905326671185783 a65.59703913218915,65.59703913218915 0 0,0 0.46859880615902333,1.023972960077434 l -40.71022253972613 18.209164728893665" fill="#35ff65" stroke="none" /><path d="M 119.4528033332814 92.08871423366111 l 7.141882568116542 -2.9045414657195976 a28.70991878964049,28.70991878964049 0 0,0 0.18174926883379847,0.45812688487093695 l -7.190690511916465 2.7815135636350954" fill="#ff3805" stroke="none" /><path d="M 119.58574465831526 92.42381321644754 l 36.71835107013318 -14.203446993948047 a60.36972455859251,60.36972455859251 0 0,0 0.36557983763937046,0.9697439528359525 l -36.95676159158699 13.571034760917936" fill="#39ff2e" stroke="none" /><path d="M 119.71291397450082 92.76114493625339 l 41.45339385710631 -15.222260413663435 a65.15994875873119,65.15994875873119 0 0,0 0.3765619191097614,1.0533107070285672 l -41.70859594626002 14.50841475025395" fill="#34ff60" stroke="none" /><path d="M 119.83427380445688 93.10060997987247 l 39.96777541874506 -13.902867005336212 a63.31681442277181,63.31681442277181 0 0,0 0.34828643454415653,1.0296469572860394 l -40.200547274861584 13.21471837357601" fill="#32ff49" stroke="none" /><path d="M 119.94978838288452 93.4421083053983 l 40.01532263021103 -13.153831353850451 a63.121839044436534,63.121839044436534 0 0,0 0.3295419411570964,1.0322854370575036 l -40.23522928714538 12.464976883101562" fill="#32ff47" stroke="none" /><path d="M 120.16314734710363 94.1308016681162 l 8.960512380987803 -2.608274562198855 a30.332410102521713,30.332410102521713 0 0,0 0.1412356570874645,0.5011955216428203 l -9.00396653014985 2.4540711166530214" fill="#ff5007" stroke="none" /><path d="M 120.43855184770803 95.1765574152323 l 21.227467794615606 -5.00962460013114 a42.810587511703616,42.810587511703616 0 0,0 0.16265809017947416,0.7167015577625565 l -21.310336746352746 4.644488708429557" fill="#fffb17" stroke="none" /><path d="M 120.51834098615036 95.52812308129327 l 41.99128885834189 -9.15180596516626 a63.977015862071674,63.977015862071674 0 0,0 0.22465769544261718,1.075068399694182 l -42.14220426460887 8.429621114186672" fill="#33ff51" stroke="none" /><path d="M 120.65975698304385 96.23510406497455 l 42.20834411847086 -7.69176633230532 a63.90346818771228,63.90346818771228 0 0,0 0.1874050833914028,1.0809027200386985 l -42.3341640193545 6.966070579346028" fill="#33ff50" stroke="none" /><path d="M 120.77682067341334 96.94652285012252 l 11.272875855985403 -1.6567245480298045 a32.39396622307189,32.39396622307189 0 0,0 0.07613427922065852,0.5508697181919279 l -11.299654651761273 1.462966521637791" fill="#ff6d0a" stroke="none" /><line stroke="#e1ed5e" stroke-width="0.3" x1="184.99686870605535" x2="189.99668451229388" y1="99.2704041080226" y2="99.22748670261217" /><path d="M 185.99683186730306 99.26182062694052 a86.0,86.0 0 0,1 -10.086455211305974,41.156179273409016" fill="none" id="id64" stroke="none" /><text fill="#e1ed5e" style="font-size:6.75px; font-family:Arial;" text-anchor="middle"><textPath startOffset="21.40746469413373" xlink:href="#id64">April</textPath></text><path d="M 120.99922638620191 99.81974689727618 l 39.66023293022137 -0.34043540028310293 a60.661694017542686,60.661694017542686 0 0,0 0.0,1.0413770060138547 l -39.66023293022137 -0.34043540028309816" fill="#36ff2f" stroke="none" /><path d="M 120.86939407059847 102.33845913500097 l 39.05251680152901 4.375915963366346 a60.296917297062244,60.296917297062244 0 0,0 -0.12409080812155383,1.0276499029830892 l -38.97164390714779 -5.045659543272843" fill="#39ff2e" stroke="none" /><path d="M 120.82617615685814 102.69636545807757 l 39.6028835498912 5.127386152883897 a60.93342552583022,60.93342552583022 0 0,0 -0.143209460703545,1.0361923179377788 l -39.50902957263245 -5.80646677902176" fill="#33ff2f" stroke="none" /><path d="M 120.7213421655516 103.40968896794604 l 44.54297501164348 7.329529587576004 a66.14198297442246,66.14198297442246 0 0,0 -0.19396981394787322,1.1187663413791766 l -44.41059038020337 -8.093088961875768" fill="#36ff6c" stroke="none" /><path d="M 120.26092885502905 105.52220625578681 l 38.361569299096374 10.455616298790131 a60.76090933664495,60.76090933664495 0 0,0 -0.2829187303741377,1.0039787655363575 l -38.17643207664766 -11.112602988229497" fill="#35ff2f" stroke="none" /><path d="M 120.16314734710363 105.8691983318838 l 48.45686231557061 14.105086402184295 a71.4680192585686,71.4680192585686 0 0,0 -0.3529964742642953,1.1750104569446533 l -48.20758952130269 -14.934834462719671" fill="#3dffaa" stroke="none" /><path d="M 120.05942366710727 106.21446072829308 l 40.52213712654477 12.553861665145945 a63.42219984878341,63.42219984878341 0 0,0 -0.331110043164434,1.037197494261232 l -40.30066236760308 -13.24762819309856" fill="#32ff4a" stroke="none" /><path d="M 119.71291397450082 107.23885506374661 l 19.94188875711482 7.32293777555368 a42.24392489314942,42.24392489314942 0 0,0 -0.2558157638883781,0.678581706454994 l -19.813242309412 -7.664187762202833" fill="#fff316" stroke="none" /><path d="M 119.16976305983485 108.57439118712176 l 39.60605536207505 17.715284794769843 a64.38745137368127,64.38745137368127 0 0,0 -0.4599579987829453,1.005091236543271 l -39.296112898437045 -18.392565013527804" fill="#33ff56" stroke="none" /><line stroke="#e1ed5e" stroke-width="0.3" x1="174.33088141563837" x2="178.70328620479359" y1="141.23008692659167" y2="143.65538615756765" /><path d="M 175.20536237346943 141.71514677278685 a86.0,86.0 0 0,1 -30.301960400862466,31.631185727798858" fill="none" id="id65" stroke="none" /><text fill="#e1ed5e" style="font-size:6.75px; font-family:Arial;" text-anchor="middle"><textPath startOffset="22.145653131862474" xlink:href="#id65">May</textPath></text><path d="M 117.423217284605 111.72311816256416 l 35.101916571287376 23.618136017925462 a63.30792946882236,63.30792946882236 0 0,0 -0.6144193222246581,0.8964561532696822 l -34.6913075122474 -24.217226906265186" fill="#32ff49" stroke="none" /><path d="M 117.21940702142032 112.02048342749411 l 17.615112789932212 12.296716785974112 a42.48258462840286,42.48258462840286 0 0,0 -0.42257002401412097,0.5943976586697869 l -17.40142766738813 -12.597291671353403" fill="#fff617" stroke="none" /><path d="M 117.01052211995028 112.31430620078461 l 17.048972938373677 12.342141628080585 a42.04746868915589,42.04746868915589 0 0,0 -0.42827945877250806,0.5810433392765462 l -16.834591460017343 -12.632991276626008" fill="#fff116" stroke="none" /><path d="M 116.79662413953412 112.60449989151573 l 40.97963584614658 30.751882716799052 a72.23484014526196,72.23484014526196 0 0,0 -0.7527834253294519,0.9854176684288505 l -40.445700443462826 -31.45082129846878" fill="#3effb2" stroke="none" /><path d="M 116.35404254752997 113.17365903436017 l 35.174168333678644 28.333820160878595 a66.16666340205984,66.16666340205984 0 0,0 -0.720123875281327,0.8784340373389581 l -34.68259763915869 -28.933456479916046" fill="#36ff6c" stroke="none" /><path d="M 116.1254893667686 113.45245675266167 l 3.085133858823558 2.5737283916185976 a25.01772681508875,25.01772681508875 0 0,0 -0.2779415083168594,0.32741439792327837 l -3.0404977869995844 -2.6263095719914324" fill="#ff0000" stroke="none" /><path d="M 115.89218393027572 113.72728997021213 l 32.06035792320412 27.69297358320816 a63.36469445238833,63.36469445238833 0 0,0 -0.7180998197768198,0.8170657751402678 l -31.580247039468716 -28.23925163615972" fill="#32ff4a" stroke="none" /><path d="M 115.6541949942343 113.99807769240083 l 32.02657585002112 28.638361610755698 a63.963441626871116,63.963441626871116 0 0,0 -0.7389370476545306,0.8122212580903234 l -31.53024110152471 -29.183920444403697" fill="#33ff51" stroke="none" /><path d="M 115.41159269507618 114.26474011684316 l 31.513939757312382 29.168832163565707 a63.941229241997476,63.941229241997476 0 0,0 -0.7525096090901019,0.7991391274385183 l -31.008574314486022 -29.70551275094872" fill="#33ff51" stroke="none" /><path d="M 114.65682725009322 115.03919595460226 l 6.4816337945551155 6.650727273985346 a30.286751311392564,30.286751311392564 0 0,0 -0.3754511752433488,0.3596737328339461 l -6.366510133446455 -6.7610131371248725" fill="#ff4f07" stroke="none" /><path d="M 114.13192950727249 115.5334660781643 l 28.765717650475082 31.61856270990886 a63.74576025510943,63.74576025510943 0 0,0 -0.8157483415371531,0.7294471971564154 l -28.21870428211455 -32.10770543694866" fill="#33ff4e" stroke="none" /><path d="M 113.59037401385872 116.0094264158162 l 28.19764488963909 33.21675477802529 a64.57132055957973,64.57132055957973 0 0,0 -0.8511904194262561,0.7100933215217095 l -27.623280136050937 -33.695910283458865" fill="#34ff59" stroke="none" /><path d="M 113.31354834802062 116.24036423190432 l 21.443239717716466 26.15726583360685 a54.82329205564457,54.82329205564457 0 0,0 -0.7329331910100579,0.5903990970593601 l -20.991055756351155 -26.52151322445961" fill="#74ff27" stroke="none" /><path d="M 112.16784306229584 117.11559508785304 l 12.16703270853498 17.114455223805006 a41.99860144243389,41.99860144243389 0 0,0 -0.5911901309628728,0.4126966255514625 l -11.871447486398349 -17.32079666516159" fill="#fff016" stroke="none" /><path d="M 111.8722381534696 117.32195027204791 l 24.349429636102364 35.52654553059416 a64.07006107426457,64.07006107426457 0 0,0 -0.9125520518649635,0.6140057463988523 l -23.735981296140395 -35.93930095105014" fill="#33ff52" stroke="none" /><line stroke="#e1ed5e" stroke-width="0.3" x1="143.1302829299769" x2="145.66735839644613" y1="173.24464959558577" y2="177.55315839532614" /><path d="M 143.63769802327073 174.10635135553383 a86.0,86.0 0 0,1 -40.68552437913181,11.842963189579606" fill="none" id="id66" stroke="none" /><text fill="#e1ed5e" style="font-size:6.75px; font-family:Arial;" text-anchor="middle"><textPath startOffset="21.407464694133747" xlink:href="#id66">June</textPath></text><path d="M 110.34350942703117 118.27599006163325 l 12.759492403678303 22.54480048635114 a46.90507045674462,46.90507045674462 0 0,0 -0.7041474317350769,0.39057871057971016 l -12.370600783787133 -22.76051211236399" fill="#d0ff1d" stroke="none" /><path d="M 110.02825361518725 118.45085714620011 l 10.00672490565582 18.41124674549136 a41.954917085515724,41.954917085515724 0 0,0 -0.6357392309218528,0.33849533231130235 l -9.689196858947415 -18.580312545525235" fill="#fff016" stroke="none" /><path d="M 109.06512990194946 118.94263497670748 l 27.19538970584838 56.82790493012245 a84.0,84.0 0 0,0 -1.3060451445139751,0.6112950737178657 l -26.2158558474629 -57.28637623541085" fill="#4dd2ff" stroke="none" /><path d="M 108.4095320186766 119.2426549942271 l 13.974398491556626 31.9761585219803 a55.89639704931776,55.89639704931776 0 0,0 -0.8825373659952751,0.37670272262770277 l -13.423426050390919 -32.21133589426741" fill="#68ff28" stroke="none" /><path d="M 107.74402155503746 119.51999308798841 l 2.333554561426771 5.882081885459577 a27.3280616462237,27.3280616462237 0 0,0 -0.4375453494165309,0.16925194069897034 l -2.232236949516711 -5.921273714296588" fill="#ff2303" stroke="none" /><path d="M 106.38641147887787 120.00534299687104 l 13.041576486884953 40.85255259592251 a63.883723845602375,63.883723845602375 0 0,0 -1.0475694625369312,0.3245396973079477 l -12.338366391476397 -41.0704088810371" fill="#33ff50" stroke="none" /><path d="M 102.875027216393 120.80226474461374 l 5.838975819251794 42.24792034555497 a63.649506587323664,63.649506587323664 0 0,0 -1.0836242966989236,0.1402968601218893 l -5.112873700662094 -42.34192880187725" fill="#32ff4d" stroke="none" /><line stroke="#e1ed5e" stroke-width="0.3" x1="101.45913802915013" x2="101.54496967792366" y1="184.9874750549273" y2="189.98673829345242" /><path d="M 101.47630435890484 185.9873277026323 a86.0,86.0 0 0,1 -42.54439059252881,-10.42667462771756" fill="none" id="id67" stroke="none" /><text fill="#e1ed5e" style="font-size:6.75px; font-family:Arial;" text-anchor="middle"><textPath startOffset="22.145653131862474" xlink:href="#id67">July</textPath></text><line stroke="#e1ed5e" stroke-width="0.3" x1="58.13341422392154" x2="55.67067388415222" y1="173.97424548756322" y2="178.32567169271397" /><path d="M 57.64086615596768 174.84453072859336 a86.0,86.0 0 0,1 -31.369924170532247,-30.572349798747897" fill="none" id="id68" stroke="none" /><text fill="#e1ed5e" style="font-size:6.75px; font-family:Arial;" text-anchor="middle"><textPath startOffset="22.145653131862474" xlink:href="#id68">August</textPath></text><line stroke="#e1ed5e" stroke-width="0.3" x1="26.387840678322732" x2="22.057713659400548" y1="142.50000000000003" y2="145.00000000000006" /><path d="M 25.521815274538298 143.00000000000003 a86.0,86.0 0 0,1 -11.493303480769221,-40.785679425670985" fill="none" id="id69" stroke="none" /><text fill="#e1ed5e" style="font-size:6.75px; font-family:Arial;" text-anchor="middle"><textPath startOffset="21.40746469413373" xlink:href="#id69">September</textPath></text><line stroke="#e1ed5e" stroke-width="0.3" x1="15.003131293944662" x2="10.003315487706104" y1="100.72959589197737" y2="100.7725132973878" /><path d="M 14.003168132696942 100.73817937305945 a86.0,86.0 0 0,1 10.791469493833604,-42.45332614584628" fill="none" id="id70" stroke="none" /><text fill="#e1ed5e" style="font-size:6.75px; font-family:Arial;" text-anchor="middle"><textPath startOffset="22.145653131862435" xlink:href="#id70">October</textPath></text><line stroke="#e1ed5e" stroke-width="0.3" x1="26.387840678322718" x2="22.05771365940052" y1="57.49999999999999" y2="54.99999999999999" /><path d="M 25.521815274538284 56.99999999999999 a86.0,86.0 0 0,1 29.574782752854787,-30.34633250058573" fill="none" id="id71" stroke="none" /><text fill="#e1ed5e" style="font-size:6.75px; font-family:Arial;" text-anchor="middle"><textPath startOffset="21.40746469413373" xlink:href="#id71">November</textPath></text><line stroke="#e1ed5e" stroke-width="0.3" x1="56.869717070023135" x2="54.33264160355391" y1="26.7553504044142" y2="22.446841604673864" /><path d="M 56.362301976729285 25.89364864446614 a86.0,86.0 0 0,1 42.16139366436587,-11.88097634709845" fill="none" id="id72" stroke="none" /><text fill="#e1ed5e" style="font-size:6.75px; font-family:Arial;" text-anchor="middle"><textPath startOffset="22.145653131862474" xlink:href="#id72">December</textPath></text></svg>