<?xml version="1.0" encoding="utf-8" ?>
<svg baseProfile="full" height="200mm" version="1.1" viewBox="0,0,200,200" width="200mm" xmlns="http://www.w3.org/2000/svg" xmlns:ev="http://www.w3.org/2001/xml-events" xmlns:xlink="http://www.w3.org/1999/xlink"><defs /><rect fill="#1a1a1a" height="200" width="200" x="0" y="0" /><rect fill="#1a1a1a" height="200" width="180" x="10" y="0" /><text alignment-baseline="middle" fill="#e1ed5e" style="dominant-baseline: central; font-size:9.0px; font-family:Arial;" text-anchor="middle" x="100.0" y="100.0">2024</text><line stroke="#e1ed5e" stroke-width="0.3" x1="100.0" x2="100.0" y1="15.0" y2="10.0" /><path d="M 100.0 14.0 a86.0,86.0 0 0,1 42.35913384403234,11.155469271406648" fill="none" id="id1" stroke="none" /><text fill="#e1ed5e" style="font-size:6.75px; font-family:Arial;" text-anchor="middle"><textPath startOffset="22.145653131862478" xlink:href="#id1">January</textPath></text><line stroke="#e1ed5e" stroke-width="0.3" x1="143.13028292997686" x2="145.6673583964461" y1="26.7553504044142" y2="22.446841604673864" /><path d="M 143.63769802327073 25.89364864446614 a86.0,86.0 0 0,1 29.32050498858742,28.57503671076993" fill="none" id="id2" stroke="none" /><text fill="#e1ed5e" style="font-size:6.75px; font-family:Arial;" text-anchor="middle"><textPath startOffset="20.669276256404974" xlink:href="#id2">February</textPath></text><line stroke="#e1ed5e" stroke-width="0.3" x1="172.87174338648825" x2="177.1583165268699" y1="56.24261187166439" y2="53.66864786411523" /><path d="M 173.72905801456457 55.72781907015455 a86.0,86.0 0 0,1 12.242430191666344,42.057860355516425" fill="none" id="id3" stroke="none" /><text fill="#e1ed5e" style="font-size:6.75px; font-family:Arial;" text-anchor="middle"><textPath startOffset="22.145653131862474" xlink:href="#id3">March</textPath></text><line stroke="#e1ed5e" stroke-width="0.3" x1="184.99686870605535" x2="189.99668451229388" y1="99.2704041080226" y2="99.22748670261217" /><path d="M 185.99683186730306 99.26182062694052 a86.0,86.0 0 0,1 -10.086455211305974,41.156179273409016" fill="none" id="id4" stroke="none" /><text fill="#e1ed5e" style="font-size:6.75px; font-family:Arial;" text-anchor="middle"><textPath startOffset="21.40746469413373" xlink:href="#id4">April</textPath></text><line stroke="#e1ed5e" stroke-width="0.3" x1="174.33088141563837" x2="178.70328620479359" y1="141.23008692659167" y2="143.65538615756765" /><path d="M 175.20536237346943 141.71514677278685 a86.0,86.0 0 0,1 -30.301960400862466,31.631185727798858" fill="none" id="id5" stroke="none" /><text fill="#e1ed5e" style="font-size:6.75px; font-family:Arial;" text-anchor="middle"><textPath startOffset="22.145653131862474" xlink:href="#id5">May</textPath></text><line stroke="#e1ed5e" stroke-width="0.3" x1="143.1302829299769" x2="145.66735839644613" y1="173.24464959558577" y2="177.55315839532614" /><path d="M 143.63769802327073 174.10635135553383 a86.0,86.0 0 0,1 -40.68552437913181,11.842963189579606" fill="none" id="id6" stroke="none" /><text fill="#e1ed5e" style="font-size:6.75px; font-family:Arial;" text-anchor="middle"><textPath startOffset="21.407464694133747" xlink:href="#id6">June</textPath></text><line stroke="#e1ed5e" stroke-width="0.3" x1="101.45913802915013" x2="101.54496967792366" y1="184.9874750549273" y2="189.98673829345242" /><path d="M 101.47630435890484 185.9873277026323 a86.0,86.0 0 0,1 -42.54439059252881,-10.42667462771756" fill="none" id="id7" stroke="none" /><text fill="#e1ed5e" style="font-size:6.75px; font-family:Arial;" text-anchor="middle"><textPath startOffset="22.145653131862474" xlink:href="#id7">July</textPath></text><path d="M 96.41257539226777 120.69131181640829 l -2.9988985842457363 17.29685010764288 a38.55489721886336,38.55489721886336 0 0,0 -0.6511468045257037,-0.11866063862588758 l 3.295380122322497 -17.242821295085626" fill="#ffbb11" stroke="none" /><path d="M 95.70440661134978 120.55596938700252 l -9.244266861797351 44.23716339597472 a66.19273276904474,66.19273276904474 0 0,0 -1.1102651537116008,-0.24197712270590366 l 10.002294432128089 -44.07195481513509" fill="#35ff6a" stroke="none" /><path d="M 95.00130118170881 120.39639698878247 l -3.7187158863005254 15.17362983101399 a36.6226723095526,36.6226723095526 0 0,0 -0.6093222787094844,-0.15488734051171651 l 3.9786434582353887 -15.10755725866701" fill="#ffa10e" stroke="none" /><path d="M 93.95794788825049 120.11202640906438 l -4.280891508300531 14.249695546626096 a35.878839177750905,35.878839177750905 0 0,0 -0.5883435405976541,-0.18227033281042618 l 4.524875681769819 -14.174108626009021" fill="#ff960d" stroke="none" /><path d="M 93.61358852112213 120.00534299687104 l -11.737670492932686 36.76808564120725 a59.59617896009673,59.59617896009673 0 0,0 -0.9719207722337654,-0.319489662632758 l 12.367114002814196 -36.56117505717247" fill="#44ff2d" stroke="none" /><path d="M 92.93061703081489 119.77432235084164 l -4.643445254335501 12.988542801819708 a34.793615477629984,34.793615477629984 0 0,0 -0.5606922348002449,-0.2058939550153406 l 4.865726640789865 -12.906917997795649" fill="#ff870c" stroke="none" /><path d="M 92.59220618246901 119.65005319985036 l -5.953363267694105 15.792003369663815 a37.876904474002416,37.876904474002416 0 0,0 -0.6064412330972663,-0.23458449680350027 l 6.223576763284899 -15.687478984722276" fill="#ffb210" stroke="none" /><path d="M 92.25597844496254 119.51999308798841 l -6.456338855282916 16.274191508009544 a38.508101571946796,38.508101571946796 0 0,0 -0.6123623203798573,-0.2490424246861619 l 6.734755636853214 -16.16096182674409" fill="#ffbb11" stroke="none" /><path d="M 91.92203290615298 119.3841803445677 l -6.752337669221926 16.20315230391485 a38.553808948004836,38.553808948004836 0 0,0 -0.6087186078923229,-0.2598257770633711 l 7.02949135228468 -16.08485187719208" fill="#ffbb11" stroke="none" /><path d="M 91.59046798132341 119.24265499422711 l -7.002907411026817 16.024022617148145 a38.48742442563483,38.48742442563483 0 0,0 -0.603128358908718,-0.2697716434568513 l 7.27694917279117 -15.901447222781439" fill="#ffba11" stroke="none" /><path d="M 91.26138138417905 119.09545874513695 l -23.28451649868713 50.88087073581138 a76.95562273276904,76.95562273276904 0 0,0 -1.1965180644427063,-0.5600308698980294 l 24.154523277001328 -50.47366363434282" fill="#44ffe5" stroke="none" /><path d="M 90.28995756902619 118.62028667847754 l -8.061230596521012 15.45847258192487 a38.43409915356711,38.43409915356711 0 0,0 -0.5823885812301567,-0.31008911633776776 l 8.325407993537732 -15.317812997864529" fill="#ffba11" stroke="none" /><path d="M 89.97174638481275 118.45085714620012 l -8.314494537366427 15.297733467717512 a38.41124546553809,38.41124546553809 0 0,0 -0.5766365891987348,-0.3198505956733498 l 8.575875314721264 -15.152749956611014" fill="#ffb911" stroke="none" /><line stroke="#e1ed5e" stroke-width="0.3" x1="58.13341422392154" x2="55.67067388415222" y1="173.97424548756322" y2="178.32567169271397" /><path d="M 57.64086615596768 174.84453072859336 a86.0,86.0 0 0,1 -31.369924170532247,-30.572349798747897" fill="none" id="id8" stroke="none" /><text fill="#e1ed5e" style="font-size:6.75px; font-family:Arial;" text-anchor="middle"><textPath startOffset="22.145653131862474" xlink:href="#id8">August</textPath></text><path d="M 89.65649057296885 118.27599006163327 l -8.645022631153482 15.274926639178853 a38.55163240628779,38.55163240628779 0 0,0 -0.573148095881912,-0.33090720744294577 l 8.905963194895794 -15.124272534459735" fill="#ffbb11" stroke="none" /><path d="M 89.34428304082925 118.09573695890944 l -8.764598699738718 14.88420471645244 a38.27303506650544,38.27303506650544 0 0,0 -0.5632829260088458,-0.33823521263529727 l 9.018814382304992 -14.731555503281223" fill="#ffb711" stroke="none" /><path d="M 89.03521579738668 117.91015095944536 l -29.194093078003135 47.68635702164709 a76.91318016928658,76.91318016928658 0 0,0 -1.120133784029884,-0.6990463259711124 l 30.008390990822733 -47.17817489883443" fill="#44ffe4" stroke="none" /><path d="M 88.72937992617639 117.7192867562869 l -7.877947325396414 12.385441687793971 a35.67859733978234,35.67859733978234 0 0,0 -0.5139661102952854,-0.3331466231310268 l 8.089399067948708 -12.24838122295905" fill="#ff930d" stroke="none" /><path d="M 88.4268655584334 117.5232005979908 l -9.462221907994278 14.327009975876706 a38.16964933494559,38.16964933494559 0 0,0 -0.543651609434185,-0.3657930652277709 l 9.70676980552547 -14.162467236591814" fill="#ffb610" stroke="none" /><path d="M 88.1277618465304 117.32195027204791 l -9.837202409871757 14.352772304358655 a38.400362756952845,38.400362756952845 0 0,0 -0.5405397967458753,-0.3773387585648032 l 10.082137297791398 -14.181788729988723" fill="#ffb911" stroke="none" /><path d="M 87.83215693770417 117.11559508785305 l -8.43951001273626 11.87122774170799 a35.56541717049577,35.56541717049577 0 0,0 -0.49456081846461936,-0.3580238931256162 l 8.642051841574835 -11.72460307720931" fill="#ff920d" stroke="none" /><path d="M 87.54013794807813 116.9041958592261 l -10.109082757897161 13.714912266645918 a38.03796856106409,38.03796856106409 0 0,0 -0.522292121070908,-0.3919377446735175 l 10.343027867878837 -13.539355494708385" fill="#ffb410" stroke="none" /><path d="M 86.68645165197938 116.24036423190432 l -16.052841392989933 19.581856343948076 a46.32079806529625,46.32079806529625 0 0,0 -0.6106088460275308,-0.5093916164123231 l 16.386624573179354 -19.303402543623882" fill="#ddff1b" stroke="none" /><path d="M 86.40962598614128 116.0094264158162 l -11.06363026690482 13.032928635311277 a38.0956469165659,38.0956469165659 0 0,0 -0.49491781954989567,-0.4274982249257601 l 11.285727566217577 -12.841086277920796" fill="#ffb510" stroke="none" /><path d="M 86.13680546590413 115.77377054828092 l -11.302251325465335 12.859887282720095 a38.12067714631197,38.12067714631197 0 0,0 -0.487826626209004,-0.4362175772443408 l 11.52134297849771 -12.663974175592372" fill="#ffb510" stroke="none" /><path d="M 85.86807049272751 115.53346607816431 l -10.316625892327563 11.339779062520323 a36.33047158403869,36.33047158403869 0 0,0 -0.4577124369171681,-0.42365179836061984 l 10.509768100558698 -11.161009518027326" fill="#ff9d0e" stroke="none" /><path d="M 85.60350026404147 115.28858382429668 l -11.407280063714243 12.114136120581945 a37.639661426844015,37.639661426844015 0 0,0 -0.46660188057721497,-0.4469940466314175 l 11.613554430156771 -11.916529943644944" fill="#ffaf10" stroke="none" /><path d="M 85.34317274990678 115.03919595460226 l -6.921799968738958 7.102376545221477 a30.917412333736397,30.917412333736397 0 0,0 -0.37690987457666997,-0.37368844201453766 l 7.04270176344559 -6.98250809297828" fill="#ff4f07" stroke="none" /><path d="M 85.08716467003676 114.78537596483092 l -41.278594238002775 40.925787860227025 a79.12781136638452,79.12781136638452 0 0,0 -0.948076273134826,-0.9728097771973834 l 41.97505731228841 -40.2111553909619" fill="#47fffb" stroke="none" /><path d="M 84.83555147118756 114.52719865689866 l -45.493345586437314 43.581595970695986 a84.0,84.0 0 0,0 -0.9885766650549881,-1.0498341602220393 l 46.234778085228555 -42.79422035052945" fill="#4dd2ff" stroke="none" /><path d="M 84.58840730492382 114.26474011684316 l -12.52947311454596 11.59709326065134 a38.07279322853688,38.07279322853688 0 0,0 -0.4398355796483217,-0.48345634988633396 l 12.72670639503616 -11.380299335207333" fill="#ffb510" stroke="none" /><path d="M 84.3458050057657 113.99807769240083 l -12.750232305633817 11.40133634953172 a38.1043530834341,38.1043530834341 0 0,0 -0.43182925947012407,-0.49134242747319434 l 12.944072629062534 -11.180781644247226" fill="#ffb510" stroke="none" /><path d="M 84.1078160697243 113.72728997021213 l -12.875716197923502 11.121736987094302 a38.01402660217654,38.01402660217654 0 0,0 -0.422327574727288,-0.49750082110116256 l 13.064738336157902 -10.899069383543585" fill="#ffb410" stroke="none" /><path d="M 83.8745106332314 113.45245675266167 l -13.418223325040767 11.193959133398957 a38.47436517533252,38.47436517533252 0 0,0 -0.4187351685046065,-0.5107888201895991 l 13.608405312784004 -10.961968031510862" fill="#ffba11" stroke="none" /><line stroke="#e1ed5e" stroke-width="0.3" x1="26.387840678322732" x2="22.057713659400548" y1="142.50000000000003" y2="145.00000000000006" /><path d="M 25.521815274538298 143.00000000000003 a86.0,86.0 0 0,1 -11.493303480769221,-40.785679425670985" fill="none" id="id9" stroke="none" /><text fill="#e1ed5e" style="font-size:6.75px; font-family:Arial;" text-anchor="middle"><textPath startOffset="21.40746469413373" xlink:href="#id9">September</textPath></text><path d="M 80.83023694016515 108.57439118712176 l -22.780195373557067 10.18929163820466 a45.955139056831925,45.955139056831925 0 0,0 -0.31592214414310665,-0.7228916913903278 l 22.95175139971714 -9.796737877038483" fill="#e2ff1b" stroke="none" /><path d="M 80.68587082218212 108.24405325689762 l -22.928730585875897 9.786911660511864 a45.93010882708585,45.93010882708585 0 0,0 -0.303300907235402,-0.7278117645465816 l 23.093357337647785 -9.391867386524002" fill="#e2ff1b" stroke="none" /><path d="M 80.5471966667186 107.91128576633889 l -14.813902832055795 6.024685317136816 a36.992140266021764,36.992140266021764 0 0,0 -0.23418019727637693,-0.5902870749636668 l 14.915141704298296 -5.769497224959584" fill="#ffa60f" stroke="none" /><path d="M 80.41425534168474 107.57618678355246 l -14.877587417598123 5.754970420105993 a36.951874244256345,36.951874244256345 0 0,0 -0.2237687894960493,-0.5935732994697464 l 14.974186890908609 -5.4987288404421015" fill="#ffa50f" stroke="none" /><path d="M 80.16572619554312 106.89939002012753 l -15.103376366351156 5.253738311750936 a36.99105199516324,36.99105199516324 0 0,0 -0.20347646556266297,-0.6015420150374985 l 15.191338253486187 -4.993694622239277" fill="#ffa60f" stroke="none" /><path d="M 80.05021161711548 106.5578916946017 l -15.17893209729714 4.989616472282364 a36.97799274486094,36.97799274486094 0 0,0 -0.1930520354556875,-0.6047327514533476 l 15.262348848530083 -4.728314687137624" fill="#ffa60f" stroke="none" /><path d="M 79.56144815229197 104.8234425847677 l -16.65870841910962 3.931409827598538 a38.11632406287787,38.11632406287787 0 0,0 -0.1448223170269435,-0.6381138503315038 l 16.72374159769423 -3.644861643328008" fill="#ffb510" stroke="none" /><path d="M 79.48165901384964 104.47187691870673 l -16.82475605927745 3.666877275074966 a38.219709794437726,38.219709794437726 0 0,0 -0.13420994723191462,-0.6422431820525234 l 16.885223717333734 -3.3775176417370334" fill="#ffb710" stroke="none" /><path d="M 79.407916724674 104.11899336999214 l -16.843605583921864 3.3691928494708545 a38.17726723095526,38.17726723095526 0 0,0 -0.12302843924065024,-0.643736780977093 l 16.898960315444672 -3.0795535034604473" fill="#ffb610" stroke="none" /><path d="M 79.34024301695615 103.76489593502545 l -55.01690786427746 10.02591332249886 a76.9229746070133,76.9229746070133 0 0,0 -0.22558644905776853,-1.3011226908992124 l 55.18090913082746 -9.079997598679055" fill="#44ffe4" stroke="none" /><path d="M 79.2786578344484 103.40968896794605 l -30.16174082290621 4.96310297452074 a51.56735187424425,51.56735187424425 0 0,0 -0.13623236839828498,-0.874709531624057 l 30.242494683442764 -4.444605260965234" fill="#9dff22" stroke="none" /><path d="M 79.22317932658666 103.0534771498775 l -15.89432165041947 2.335917931585331 a37.065054413542924,37.065054413542924 0 0,0 -0.08711255616608402,-0.6303030613464855 l 15.932078723140767 -2.0627265620387596" fill="#ffa70f" stroke="none" /><line stroke="#e1ed5e" stroke-width="0.3" x1="15.003131293944662" x2="10.003315487706104" y1="100.72959589197737" y2="100.7725132973878" /><path d="M 14.003168132696942 100.73817937305945 a86.0,86.0 0 0,1 10.791469493833604,-42.45332614584628" fill="none" id="id10" stroke="none" /><text fill="#e1ed5e" style="font-size:6.75px; font-family:Arial;" text-anchor="middle"><textPath startOffset="22.145653131862435" xlink:href="#id10">October</textPath></text><path d="M 79.00077361379809 99.81974689727619 l -4.737068533035252 -0.04066203607652934 a25.737243047158405,25.737243047158405 0 0,0 0.007584604240909379,-0.4417651728953481 l 4.735672497195677 0.12197412494092985" fill="#ff0000" stroke="none" /><path d="M 79.06263194458094 98.37931529534042 l -17.008853772849324 -1.316592853527915 a38.05973397823458,38.05973397823458 0 0,0 0.05601373801689733,-0.6509645422601198 l 16.983746412134685 1.6083784431637156" fill="#ffb510" stroke="none" /><path d="M 79.0935383218832 98.0201363427161 l -22.50595587007361 -2.1313374202500555 a43.606650544135434,43.606650544135434 0 0,0 0.076971152740917,-0.7446260801674442 l 22.466052324851027 2.5173680227004125" fill="#fffe18" stroke="none" /><path d="M 79.407916724674 95.88100663000787 l -16.740093816205167 -3.348487596911379 a38.07170495767836,38.07170495767836 0 0,0 0.1336902226856431,-0.6397561119562106 l 16.680145882695157 3.635360160152999" fill="#ffb510" stroke="none" /><path d="M 80.9802524753101 91.09779779509293 l -20.451238973386985 -9.572212483137857 a43.58053204353084,43.58053204353084 0 0,0 0.3229540350055432,-0.6748497225670517 l 20.283905680421537 9.921874707769996" fill="#fffe18" stroke="none" /><line stroke="#e1ed5e" stroke-width="0.3" x1="26.387840678322718" x2="22.05771365940052" y1="57.49999999999999" y2="54.99999999999999" /><path d="M 25.521815274538284 56.99999999999999 a86.0,86.0 0 0,1 29.574782752854787,-30.34633250058573" fill="none" id="id11" stroke="none" /><text fill="#e1ed5e" style="font-size:6.75px; font-family:Arial;" text-anchor="middle"><textPath startOffset="21.40746469413373" xlink:href="#id11">November</textPath></text><line stroke="#e1ed5e" stroke-width="0.3" x1="56.869717070023135" x2="54.33264160355391" y1="26.7553504044142" y2="22.446841604673864" /><path d="M 56.362301976729285 25.89364864446614 a86.0,86.0 0 0,1 42.16139366436587,-11.88097634709845" fill="none" id="id12" stroke="none" /><text fill="#e1ed5e" style="font-size:6.75px; font-family:Arial;" text-anchor="middle"><textPath startOffset="22.145653131862474" xlink:href="#id12">December</textPath></text></svg>