<?xml version="1.0" encoding="utf-8" ?>
<svg baseProfile="full" height="200mm" version="1.1" viewBox="0,0,200,200" width="200mm" xmlns="http://www.w3.org/2000/svg" xmlns:ev="http://www.w3.org/2001/xml-events" xmlns:xlink="http://www.w3.org/1999/xlink"><defs /><rect fill="#1a1a1a" height="200" width="200" x="0" y="0" /><text alignment-baseline="middle" fill="#e1ed5e" style="dominant-baseline: central; font-size:9.0px; font-family:Arial;" text-anchor="middle" x="100.0" y="100.0">2025</text><line stroke="#e1ed5e" stroke-width="0.3" x1="100.0" x2="100.0" y1="15.0" y2="10.0" /><path d="M 100.0 14.0 a86.0,86.0 0 0,1 42.46469731375804,11.215312516191453" fill="none" id="id61" stroke="none" /><text fill="#e1ed5e" style="font-size:6.75px; font-family:Arial;" text-anchor="middle"><textPath startOffset="22.20632615414155" xlink:href="#id61">January</textPath></text><path d="M 100.36148047927253 79.00311137660856 l 0.04365643959685342 -2.5358199196639446 a23.536195684422385,23.536195684422385 0 0,0 0.4050168680567499,0.010460390785752956 l -0.08729994284847115 2.534692736735832" fill="#ff1602" stroke="none" /><path d="M 100.72285384407766 79.0124445844662 l 0.12111747672989864 -3.516561163068637 a24.518646310269343,24.518646310269343 0 0,0 0.42167304249320303,0.01815812822256437 l -0.1816313516124332 3.513955308321878" fill="#ff2403" stroke="none" /><path d="M 101.80526077348638 79.07773832637324 l 0.30055592080808935 -3.4833247999736394 a24.49626737015981,24.49626737015981 0 0,0 0.4197900526952219,0.03986412375170566 l -0.3604711005935554 3.4776351317067555" fill="#ff2403" stroke="none" /><path d="M 102.52436894288641 79.15227682838746 l 0.25709249689678143 -2.123221021200759 a23.138729542702727,23.138729542702727 0 0,0 0.3949949400999671,0.051281679655662535 l -0.2936021655045946 2.1184810183809595" fill="#ff1001" stroke="none" /><path d="M 103.59715602781102 79.31037775812273 l 0.5344031287510009 -3.073705664489556 a24.119816215089287,24.119816215089287 0 0,0 0.4084344916279578,0.07463879269743948 l -0.5872327414818596 3.0640513904413784" fill="#ff1f03" stroke="none" /><path d="M 104.66035177308747 79.52364482259891 l 0.45848659652466506 -2.014469046892829 a23.065985358148037,23.065985358148037 0 0,0 0.3863841564697968,0.09144464626498543 l -0.4930944399569854 2.006278488486975" fill="#ff0f01" stroke="none" /><path d="M 105.36241919743992 79.69619591428918 l 0.6720707239616877 -2.5446709420954057 a23.631925010624563,23.631925010624563 0 0,0 0.3924048634719888,0.10725907236648832 l -0.7157734766573873 2.532725328902624" fill="#ff1802" stroke="none" /><path d="M 106.74666289553966 80.11325718540242 l 0.6767869459957006 -1.9949252161674622 a23.106600861191076,23.106600861191076 0 0,0 0.37555708089769396,0.1310244912686176 l -0.7110260309566682 1.9829798717266371" fill="#ff1001" stroke="none" /><path d="M 107.4271985657038 80.35727306442388 l 1.3471404411496979 -3.562785025240208 a24.808966330155318,24.808966330155318 0 0,0 0.3981447291532748,0.15447396936197968 l -1.4082683353026397 3.5390683519876815" fill="#ff2803" stroke="none" /><path d="M 108.09893153111575 80.62456947434976 l 1.4670306812382607 -3.5096420971240616 a24.803914650672354,24.803914650672354 0 0,0 0.3925116051810087,0.1680529849937291 l -1.5272260442095846 3.4838695841675418" fill="#ff2803" stroke="none" /><path d="M 108.43124777332544 80.76684994638697 l 1.0160413799564851 -2.317768003830772 a23.530689353785952,23.530689353785952 0 0,0 0.36956391017533197,0.16581255396625819 l -1.0557874085985974 2.2999351193479827" fill="#ff1602" stroke="none" /><line stroke="#e1ed5e" stroke-width="0.3" x1="143.23703022742887" x2="145.7803849466894" y1="26.81831364943548" y2="22.513508569990506" /><path d="M 143.74570117128098 25.957352633546492 a86.0,86.0 0 0,1 28.547481713284135,27.462654790039103" fill="none" id="id62" stroke="none" /><text fill="#e1ed5e" style="font-size:6.75px; font-family:Arial;" text-anchor="middle"><textPath startOffset="19.985693538727396" xlink:href="#id62">February</textPath></text><path d="M 111.2981086023043 82.29822771554956 l 4.2118750222104735 -6.599126912138915 a28.828688728339923,28.828688728339923 0 0,0 0.416002061337526,0.27057931254408985 l -4.324844109332279 6.5256486754352965" fill="#ff6108" stroke="none" /><path d="M 112.19680574252982 82.90503203632743 l 2.062408446872326 -2.8906590029839463 a24.550977058960317,24.550977058960317 0 0,0 0.34190705852303005,0.2484100186421976 l -2.111860821749145 2.854729749525074" fill="#ff2503" stroke="none" /><path d="M 113.06298171725822 83.55741782278167 l 14.91289081758077 -18.7710920887228 a44.97390687268966,44.97390687268966 0 0,0 0.6020005892947685,0.48677594354158166 l -15.233794805440029 18.511610047917088" fill="#d1ff1d" stroke="none" /><path d="M 113.6212207817346 84.01681056812373 l 2.295666819741102 -2.693743698919943 a24.53925716255984,24.53925716255984 0 0,0 0.31913444322366197,0.2767502443605352 l -2.341695061611528 2.6538284611397365" fill="#ff2503" stroke="none" /><path d="M 114.16331599549186 84.49514656593476 l 1.5696385272645785 -1.7183133750207726 a23.327308737801797,23.327308737801797 0 0,0 0.294137497431119,0.27336874759971375 l -1.5989839084905444 1.6910400413464184" fill="#ff1302" stroke="none" /><path d="M 114.42810811169701 84.74124197986012 l 1.3134436303235872 -1.3890607398452899 a22.9117070667383,22.9117070667383 0 0,0 0.28423255277757603,0.2734314905748717 l -1.3371594267135816 1.3662461625081164" fill="#ff0d01" stroke="none" /><path d="M 115.19652480421416 85.50635884689758 l 1.6816572733202206 -1.6038757134294912 a23.323873595753383,23.323873595753383 0 0,0 0.27459160624288176,0.29291518019383717 l -1.7090162015335655 1.5746911163575994" fill="#ff1302" stroke="none" /><path d="M 115.4437574822437 85.77008943001954 l 1.2797374265081225 -1.1791527517318845 a22.74015203149682,22.74015203149682 0 0,0 0.2627639287524228,0.29015049304315593 l -1.299844995876581 1.1569494714191795" fill="#ff0b01" stroke="none" /><path d="M 117.04232023915458 87.72973835380427 l 1.8989510311303093 -1.367221462706064 a23.33993793650921,23.33993793650921 0 0,0 0.2319405000909559,0.32806338870276996 l -1.9222041510251482 1.3343315736715007" fill="#ff1302" stroke="none" /><path d="M 117.2510076193507 88.02491185347247 l 2.305400030355162 -1.6003336840187083 a23.80641001996616,23.80641001996616 0 0,0 0.23078107811065862,0.3386427552380712 l -2.3326055741345537 1.5604129055102307" fill="#ff1a02" stroke="none" /><path d="M 117.45458315368197 88.32363383020206 l 1.085559716918221 -0.7261928080617339 a22.306061213525673,22.306061213525673 0 0,0 0.21074274269883725,0.320975655358843 l -1.0978990949749832 0.7073990887252168" fill="#ff0400" stroke="none" /><path d="M 117.65298651832404 88.62581576622439 l 1.0286805785052207 -0.6628001672963427 a22.22371883795335,22.22371883795335 0 0,0 0.204429008965785,0.32335759845117873 l -1.0399371837169613 0.6449949211309577" fill="#ff0300" stroke="none" /><line stroke="#e1ed5e" stroke-width="0.3" x1="172.23445277983987" x2="176.4835382374775" y1="55.19839476539836" y2="52.563006222186495" /><path d="M 173.08426987136738 54.67131705675599 a86.0,86.0 0 0,1 12.851231095245387,41.99856678651699" fill="none" id="id63" stroke="none" /><text fill="#e1ed5e" style="font-size:6.75px; font-family:Arial;" text-anchor="middle"><textPath startOffset="22.20632615414155" xlink:href="#id63">March</textPath></text><path d="M 117.84615892207809 88.93136811851018 l 1.3981454012258083 -0.8671645719696591 a22.645230974011916,22.645230974011916 0 0,0 0.20260386400839545,0.3330274813306701 l -1.4128650635204276 0.8429693174319075" fill="#ff0901" stroke="none" /><path d="M 118.03404312379186 89.2402003453031 l 3.5666079689347954 -2.127974682613204 a25.15318777012453,25.15318777012453 0 0,0 0.2186414801746435,0.3737291632955747 l -3.6027091235797664 2.066266106963734" fill="#ff2d04" stroke="none" /><path d="M 118.21658344932153 89.55222093294921 l 9.010278498125059 -5.167675889548594 a31.387010768897692,31.387010768897692 0 0,0 0.2647604343039211,0.47097926986351746 l -9.097896573721412 5.011813109750283" fill="#ff830c" stroke="none" /><path d="M 118.3937258080291 89.86733742301442 l 12.546084108629417 -6.911336955981537 a35.323784589972014,35.323784589972014 0 0,0 0.28880036757379984,0.5351032199399022 l -12.663192575421682 6.694352752709176" fill="#ffb711" stroke="none" /><path d="M 118.56541770881063 90.18545643968196 l 4.600631716180816 -2.432107970401817 a26.20393710258117,26.20393710258117 0 0,0 0.20737367431022014,0.4005799330525133 l -4.641814823651152 2.352555315088959" fill="#ff3c05" stroke="none" /><path d="M 118.89224826269711 90.83032412892265 l 2.9923772432480575 -1.4524014835625159 a24.32622783876322,24.32622783876322 0 0,0 0.17959915719708577,0.37828162855258834 l -3.0169345942868997 1.400677439369387" fill="#ff2203" stroke="none" /><path d="M 119.04729006885535 91.15688171328212 l 4.508219604921975 -2.09303890919436 a25.970397960083716,25.970397960083716 0 0,0 0.18475796584649176,0.40708968714631183 l -4.543579887731814 2.0151272132059854" fill="#ff3905" stroke="none" /><path d="M 119.196687751892 91.48605970444005 l 3.03634951142017 -1.3466541098547615 a24.321580293638892,24.321580293638892 0 0,0 0.16643985902395664,0.3841661423050307 l -3.0590800802868077 1.2941888229631282" fill="#ff2203" stroke="none" /><path d="M 119.61058180528143 92.48833698450437 l 10.562598293121388 -4.045911525409667 a32.31096294633192,32.31096294633192 0 0,0 0.19447416464335057,0.521094074772626 l -10.630677046266365 3.863494313607708" fill="#ff900d" stroke="none" /><path d="M 120.08093135843002 93.85539295169968 l 11.686264425978719 -3.575904995563123 a33.22112403877765,33.22112403877765 0 0,0 0.1626159829765243,0.5482602538613699 l -11.746086306066944 3.3742153549552234" fill="#ff9c0e" stroke="none" /><path d="M 120.28053869075195 94.5502522615342 l 50.16087820093819 -13.479135673041906 a72.94035810794557,72.94035810794557 0 0,0 0.3153929557569127,1.2153377154150975 l -50.38546748856541 12.613701532077958" fill="#3fffc0" stroke="none" /><path d="M 120.91429891909075 98.10471618934814 l 62.74289675727228 -5.6858514319555935 a84.0,84.0 0 0,0 0.118102064722021,1.441144331168925 l -62.831473305813795 4.6049931835789" fill="#4dd2ff" stroke="none" /><line stroke="#e1ed5e" stroke-width="0.3" x1="184.98032266829074" x2="189.97916517819016" y1="98.17113171792111" y2="98.06355123074" /><path d="M 185.9800911702706 98.14961562048488 a86.0,86.0 0 0,1 -9.607161424134198,41.387399972396054" fill="none" id="id64" stroke="none" /><text fill="#e1ed5e" style="font-size:6.75px; font-family:Arial;" text-anchor="middle"><textPath startOffset="21.466115282336823" xlink:href="#id64">April</textPath></text><path d="M 120.99513854157772 99.54816195383933 l 1.4579812352196653 -0.03137733010696607 a22.458318833142226,22.458318833142226 0 0,0 0.004991086387730931,0.3865651410999415 l -1.4583053287251118 0.006275930946561853" fill="#ff0701" stroke="none" /><path d="M 120.99980553446 99.90962569577887 l 1.4505763306893968 -0.006242668599505449 a22.450589763533287,22.450589763533287 0 0,0 -0.0016631639689230781,0.3864607337264125 l -1.4504688694309709 -0.01872754333059177" fill="#ff0601" stroke="none" /><path d="M 120.99824983174949 100.27111621757518 l 1.7435428858139943 0.0225115310166128 a22.743688207134895,22.743688207134895 0 0,0 -0.008423761008896686,0.39141907355013406 l -1.7428970621200903 -0.052520420356861684" fill="#ff0b01" stroke="none" /><path d="M 120.9764740272857 100.99374915477107 l 2.521243975527413 0.11944257487664177 a23.52407165366327,23.52407165366327 0 0,0 -0.02264320619541751,0.404309657464724 l -2.518814418444466 -0.1628239486767891" fill="#ff1602" stroke="none" /><path d="M 120.95626037817324 101.35467743843564 l 2.509790746255902 0.1622406306178849 a23.515029147388763,23.515029147388763 0 0,0 -0.02958799967535317,0.40370474779500465 l -2.5066261879162113 -0.2054185149096598" fill="#ff1602" stroke="none" /><path d="M 120.92983693683757 101.71520430193887 l 2.152578958706658 0.17640427402176503 a23.15979504614669,23.15979504614669 0 0,0 -0.03598084112003459,0.39704558352444885 l -2.149223521309548 -0.21343124609478445" fill="#ff1101" stroke="none" /><path d="M 120.89721153311464 102.0752229133903 l 2.515738670625823 0.24982847712058515 a23.528112997249643,23.528112997249643 0 0,0 -0.04349081888459139,0.40267096906294125 l -2.5110655502401795 -0.2930957680683178" fill="#ff1602" stroke="none" /><path d="M 120.8583938346157 102.4346265915055 l 1.2498377818150173 0.14588315489686718 a22.258322842411655,22.258322842411655 0 0,0 -0.047694806409758574,0.3801745344243994 l -1.2471414661584106 -0.1673754436086615" fill="#ff0400" stroke="none" /><path d="M 120.81339534386255 102.79330883721812 l 1.5204621640490836 0.20405706658267428 a22.534094025386693,22.534094025386693 0 0,0 -0.054903728823335426,0.38399655151446827 l -1.516724384209147 -0.23019909007755185" fill="#ff0801" stroke="none" /><path d="M 120.76222939487914 103.15116336523771 l 3.6490686564504986 0.5538331770036256 a24.690858063843606,24.690858063843606 0 0,0 -0.06739222226352144,0.41965143236584773 l -3.638994679825689 -0.6165638390626782" fill="#ff2703" stroke="none" /><path d="M 120.70491114924044 103.5080841355445 l 2.149816968674771 0.36424878850103154 a23.180456415232015,23.180456415232015 0 0,0 -0.07004202036894512,0.3928328470298549 l -2.143228505966637 -0.4012003862641048" fill="#ff1101" stroke="none" /><path d="M 120.64145759157962 103.86396538481128 l 3.536528134755736 0.6620182821140407 a24.597957678151886,24.597957678151886 0 0,0 -0.08148959830146686,0.4155137061184775 l -3.524608603478605 -0.7227957153004632" fill="#ff2503" stroke="none" /><path d="M 120.5718875245553 104.21870165774334 l 3.3798098057057175 0.6931016521050186 a24.450145536480342,24.450145536480342 0 0,0 -0.0880973221592882,0.41156136001948757 l -3.3673784448219863 -0.7511768315406752" fill="#ff2303" stroke="none" /><path d="M 120.41448212921028 104.9243191809786 l 2.5527965244190285 0.6157777998367682 a23.626014545629495,23.626014545629495 0 0,0 -0.09876651263840897,0.3945231222449736 l -2.5418186974855588 -0.6596287614791377" fill="#ff1802" stroke="none" /><path d="M 120.32669344350535 105.2749913415812 l 2.1441384661281906 0.556426546964588 a23.215161453279983,23.215161453279983 0 0,0 -0.10370756923659133,0.3859344452920742 l -2.134242820549822 -0.5932519254322105" fill="#ff1202" stroke="none" /><path d="M 120.23288151984713 105.62410040840565 l 3.167148205674301 0.8803669165729722 a24.287228873154735,24.287228873154735 0 0,0 -0.11543067957968406,0.4018293386993756 l -3.1515248892085177 -0.9347537307769298" fill="#ff2103" stroke="none" /><path d="M 119.9155931802556 106.66101706037122 l 1.0533094073364024 0.3522923906214895 a22.1106622511246,22.1106622511246 0 0,0 -0.12382936260236374,0.35990609096225556 l -1.0470892137908079 -0.3703711846730455" fill="#ff0200" stroke="none" /><path d="M 119.79798401119884 107.00284435728193 l 2.2984432159900887 0.8129938935461574 a23.43799103527355,23.43799103527355 0 0,0 -0.1378106316015844,0.37919567085641614 l -2.2841083233832777 -0.8524373614087046" fill="#ff1502" stroke="none" /><path d="M 119.67450827220406 107.3425965602758 l 1.4553907928215166 0.5431570274275106 a22.55344195780645,22.55344195780645 0 0,0 -0.13887090761905688,0.362548118654858 l -1.445825605608953 -0.5681287129155125" fill="#ff0801" stroke="none" /><path d="M 119.54520255179757 107.68017299344265 l 2.1270576695960797 0.8358148669083213 a23.285379798093192,23.285379798093192 0 0,0 -0.14979971127362463,0.37179059839622985 l -2.1123553440650626 -0.8723048331473646" fill="#ff1302" stroke="none" /><path d="M 118.81262510543309 109.33194174019688 l 3.05692524295427 1.5163778638818364 a24.412358973947768,24.412358973947768 0 0,0 -0.18997619891322173,0.3748410635024473 l -3.0303703742547796 -1.5687731390869781" fill="#ff2303" stroke="none" /><line stroke="#e1ed5e" stroke-width="0.3" x1="174.80103733775053" x2="179.2010983576182" y1="140.37084112569926" y2="142.7455964860345" /><path d="M 175.68104954172406 140.8457921977663 a86.0,86.0 0 0,1 -30.038265399797805,32.042727171017184" fill="none" id="id65" stroke="none" /><text fill="#e1ed5e" style="font-size:6.75px; font-family:Arial;" text-anchor="middle"><textPath startOffset="22.206326154141568" xlink:href="#id65">May</textPath></text><path d="M 117.55443506779139 111.5257021239791 l 1.651125589123597 1.084078276288979 a22.975206677839164,22.975206677839164 0 0,0 -0.21990215213297792,0.3287238807229956 l -1.632220331579898 -1.1123390712177812" fill="#ff0e01" stroke="none" /><path d="M 117.14729908036423 112.12312394758627 l 1.5137515896381406 1.070220917068714 a22.853865336658355,22.853865336658355 0 0,0 -0.22986658006804722,0.3192645750152777 l -1.4951052171944905 -1.096119097535123" fill="#ff0c01" stroke="none" /><path d="M 116.93607887273984 112.41649034213515 l 2.1962540751136466 1.6101582732008122 a23.723259375676566,23.723259375676566 0 0,0 -0.2442803598695277,0.3272534617711138 l -2.168212448549027 -1.647724614481241" fill="#ff1902" stroke="none" /><path d="M 116.27256486870786 113.27417163493432 l 10.880101149853353 8.875326737601625 a35.04094105572082,35.04094105572082 0 0,0 -0.38529016463145244,0.4641068235613647 l -10.725714985328358 -9.06129481827676" fill="#ffb410" stroke="none" /><path d="M 115.07121518719521 114.62390073753431 l 1.1165008930363731 1.0833630885321435 a22.555715213573784,22.555715213573784 0 0,0 -0.27277311128878784,0.2763177216074666 l -1.0976871566920496 -1.1024213041202746" fill="#ff0801" stroke="none" /><path d="M 113.75828350139079 115.86535959552629 l 1.4651114032592976 1.6894926796547802 a23.236277473518776,23.236277473518776 0 0,0 -0.30443343470476575,0.25944477759772 l -1.4358124919774846 -1.7144618474754472" fill="#ff1202" stroke="none" /><path d="M 113.48314897796784 116.09983520530334 l 1.2165549595439487 1.4526528186299155 a22.89478394047037,22.89478394047037 0 0,0 -0.3043151475381221,0.2504306487541108 l -1.1913696834611356 -1.4733785862412048" fill="#ff0d01" stroke="none" /><path d="M 112.92097659922987 116.55440617244103 l 0.9395218376845385 1.2037190834193658 a22.526971157315714,22.526971157315714 0 0,0 -0.30773051709950244,0.23595463820947546 l -0.9186625920915422 -1.2197130634562128" fill="#ff0801" stroke="none" /><path d="M 112.63410532772338 116.77436683061366 l 1.3546679365235152 1.7985996088739786 a23.251685095941816,23.251685095941816 0 0,0 -0.3217756739035885,0.2380419509839657 l -1.3235072922013624 -1.8216515085977132" fill="#ff1202" stroke="none" /><path d="M 112.34349029814194 116.9893568818739 l 0.5908912371796192 0.8132920158188718 a22.00528421710996,22.00528421710996 0 0,0 -0.30835970419112924,0.22000646148243205 l -0.5768042051396054 -0.823342739145523" fill="#ff0000" stroke="none" /><path d="M 112.04921762599082 117.19931262002967 l 0.9921322179760566 1.41619088533729 a22.729139370223958,22.729139370223958 0 0,0 -0.32236750856515145,0.22172731189499245 l -0.9676078247880218 -1.4330589865973764" fill="#ff0b01" stroke="none" /><line stroke="#e1ed5e" stroke-width="0.3" x1="143.8653032363475" x2="146.44561519142675" y1="172.8068346515853" y2="177.08958963109032" /><path d="M 144.38136562736335 173.6633856474863 a86.0,86.0 0 0,1 -40.68145358897372,12.25698825130547" fill="none" id="id66" stroke="none" /><text fill="#e1ed5e" style="font-size:6.75px; font-family:Arial;" text-anchor="middle"><textPath startOffset="21.466115282336833" xlink:href="#id66">June</textPath></text><path d="M 108.92500713936063 119.00905698771935 l 0.8486095826118822 1.8074235307950257 a22.996726832436593,22.996726832436593 0 0,0 -0.35976955985950276,0.16515255934889356 l -0.81737202698496 -1.8217631604779938" fill="#ff0e01" stroke="none" /><path d="M 108.59647513512805 119.15986991738527 l 0.8664648062204588 1.9311814103129081 a23.116653703362175,23.116653703362175 0 0,0 -0.36444981487045175,0.15976408864642241 l -0.8330943166922533 -1.9458100522537851" fill="#ff1001" stroke="none" /><path d="M 107.93186726928326 119.44442032107085 l 0.7477685487644494 1.833102530769778 a22.97975318937383,22.97975318937383 0 0,0 -0.3675435606700178,0.14625316802521499 l -0.7161039120525653 -1.8457025432010619" fill="#ff0e01" stroke="none" /><path d="M 107.59598834532513 119.57807347666477 l 0.6989276508295648 1.8014320560714636 a22.932267402233965,22.932267402233965 0 0,0 -0.3692420244849389,0.13961573887610848 l -0.667815405584351 -1.813196045054203" fill="#ff0d01" stroke="none" /><path d="M 107.2578585660854 119.70592522655815 l 0.39375793051356534 1.0690983112184955 a22.13930527379301,22.13930527379301 0 0,0 -0.35874154885327214,0.1286319560058316 l -0.3752968210305584 -1.0757178082642873" fill="#ff0200" stroke="none" /><line stroke="#e1ed5e" stroke-width="0.3" x1="102.19456741930631" x2="102.32365962044197" y1="184.97166512339345" y2="189.96999836594603" /><path d="M 102.22038585953345 185.97133177190398 a86.0,86.0 0 0,1 -42.740103519485714,-10.115201625700543" fill="none" id="id67" stroke="none" /><text fill="#e1ed5e" style="font-size:6.75px; font-family:Arial;" text-anchor="middle"><textPath startOffset="22.20632615414155" xlink:href="#id67">July</textPath></text><path d="M 99.45781275523022 120.99299961872073 l -0.05634032862935954 2.181446555307582 a23.182173986256224,23.182173986256224 0 0,0 -0.3988213173891375,-0.013736212563445293 l 0.09388199769314005 -2.180153544318043" fill="#ff1101" stroke="none" /><path d="M 99.09653310690486 120.98055641714683 l -0.08378028865599126 1.9455688816333585 a22.947371923888028,22.947371923888028 0 0,0 -0.39448928871794714,-0.020390590209493974 l 0.11725764578742731 -1.9438384846616628" fill="#ff0e01" stroke="none" /><path d="M 98.73552117531835 120.96189622390904 l -0.24373797392789842 4.040565975146933 a25.047910769699545,25.047910769699545 0 0,0 -0.4301528280114357,-0.02966585748813322 l 0.31325356271826416 -4.035771773142515" fill="#ff2c04" stroke="none" /><path d="M 98.37488393609728 120.93702456842531 l -0.3133004745209924 4.0363761567850664 a25.0485169712375,25.0485169712375 0 0,0 -0.42958884377802925,-0.03706673305675212 l 0.3827336360405633 -4.030385171449651" fill="#ff2c04" stroke="none" /><path d="M 96.22490169976321 120.6578951692458 l -0.4010725992814379 2.1947284685787314 a23.23107424365132,23.23107424365132 0 0,0 -0.3927516049897897,-0.07527177985298941 l 0.4387918188429227 -2.187499490377274" fill="#ff1202" stroke="none" /><path d="M 95.51606077576429 120.51570834832081 l -0.5094197344633696 2.33078687655739 a23.385807186214528,23.385807186214528 0 0,0 -0.392525039205915,-0.0893374209714541 l 0.5494649230621473 -2.321672722008249" fill="#ff1402" stroke="none" /><path d="M 94.81253420990036 120.34920634021253 l -0.6412589715942627 2.515507891230545 a23.595957052705856,23.595957052705856 0 0,0 -0.3927148809966829,-0.103719569401234 l 0.6844642954024349 -2.5040969725257294" fill="#ff1702" stroke="none" /><path d="M 94.46302465271185 120.25689768951611 l -0.9352711507466369 3.4216681173972847 a24.547188299348093,24.547188299348093 0 0,0 -0.4066286533338243,-0.11491731913597336 l 0.9940309721850752 -3.40506200492279" fill="#ff2503" stroke="none" /><path d="M 94.11515582081647 120.15858648285463 l -0.9257973385593375 3.1713270813458188 a24.3036973482692,24.3036973482692 0 0,0 -0.4005770412317241,-0.1206905765395433 l 0.9802493542313075 -3.1549211357005498" fill="#ff2103" stroke="none" /><path d="M 93.42475214034765 119.94407469862007 l -0.8048089461110027 2.4411505211613718 a23.570395554522054,23.570395554522054 0 0,0 -0.38423141928356,-0.13035215892056906 l 0.8467100983317886 -2.4269353753426794" fill="#ff1702" stroke="none" /><path d="M 92.7421414339146 119.70592522655815 l -0.4536081582349543 1.2315985999098882 a22.312476846469036,22.312476846469036 0 0,0 -0.35926251763751776,-0.13584234329887127 l 0.474740896632755 -1.2236080065043837" fill="#ff0400" stroke="none" /><path d="M 92.40401165467489 119.57807347666478 l -0.8045616573510196 2.0736955519184996 a23.22430499314415,23.22430499314415 0 0,0 -0.37145497956061707,-0.1478096023242695 l 0.8401377129534948 -2.0595391051881635" fill="#ff1202" stroke="none" /><path d="M 91.7346041902142 119.30500536409082 l -0.7931296489941266 1.852466897002467 a23.015114945754583,23.015114945754583 0 0,0 -0.36284898709118646,-0.15906233279198193 l 0.8248993107430563 -1.8385400109160328" fill="#ff0f01" stroke="none" /><path d="M 91.40352486487194 119.15986991738527 l -1.225354942543992 2.731077672269481 a23.99337267763068,23.99337267763068 0 0,0 -0.37536146733720216,-0.17231003933713607 l 1.2721844056486136 -2.7095805625982705" fill="#ff1d02" stroke="none" /><path d="M 91.07499286063937 119.00905698771935 l -1.4757811437933412 3.1432140530230357 a24.472423443000217,24.472423443000217 0 0,0 -0.37977394206703197,-0.18231457101663046 l 1.5296677538606152 -3.117345205506843" fill="#ff2403" stroke="none" /><path d="M 90.7491055286396 118.85261126421891 l -1.4247420437809974 2.903514680266587 a24.234236755378436,24.234236755378436 0 0,0 -0.37291423370435045,-0.18698693835186272 l 1.4745101851681084 -2.8785599010054224" fill="#ff2003" stroke="none" /><line stroke="#e1ed5e" stroke-width="0.3" x1="58.666819895761336" x2="56.23545636021788" y1="174.27360380694188" y2="178.64263932499728" /><path d="M 58.180547188652646 175.14741091055294 a86.0,86.0 0 0,1 -31.652253787137756,-30.449443065178592" fill="none" id="id68" stroke="none" /><text fill="#e1ed5e" style="font-size:6.75px; font-family:Arial;" text-anchor="middle"><textPath startOffset="22.20632615414155" xlink:href="#id68">August</textPath></text><path d="M 89.7882731507175 118.34994917583269 l -1.3093849209307238 2.3528975172665056 a23.69269671480463,23.69269671480463 0 0,0 -0.35465849653622367,-0.20138435035145347 l 1.3496921843881549 -2.330010001120419" fill="#ff1802" stroke="none" /><path d="M 89.1626897886671 117.98757091392108 l -1.3753132446990266 2.2827199771405255 a23.665013511237984,23.665013511237984 0 0,0 -0.34711030454020225,-0.21322349947564218 l 1.4144027491715376 -2.2587080108365054" fill="#ff1802" stroke="none" /><path d="M 88.8546689885994 117.79835938074946 l -1.245709315415736 1.9893157105013086 a23.34716183816985,23.34716183816985 0 0,0 -0.3387764325069502,-0.21622314787807356 l 1.2797675499696095 -1.967578133799431" fill="#ff1402" stroke="none" /><path d="M 88.54995079064634 117.60387380957326 l -1.221650133306117 1.8782255336161287 a23.240571401079297,23.240571401079297 0 0,0 -0.3334748656612213,-0.22100895713162125 l 1.2537996977073 -1.8569185553931888" fill="#ff1202" stroke="none" /><path d="M 88.24862548938628 117.40417183066458 l -1.3284854867484617 1.9675306633306169 a23.37403677301922,23.37403677301922 0 0,0 -0.3315140919721509,-0.22801841536532458 l 1.3621564633435028 -1.9443714586001912" fill="#ff1402" stroke="none" /><path d="M 87.65650970185807 116.9893568818739 l -1.4846513496975333 2.043447275926811 a23.525839741482308,23.525839741482308 0 0,0 -0.32556964820947604,-0.24084864247434834 l 1.5196059683255736 -2.0175886847126963" fill="#ff1602" stroke="none" /><path d="M 87.36589467227662 116.77436683061367 l -1.6373754308708053 2.17395180777793 a23.721592321447186,23.721592321447186 0 0,0 -0.3240496834006046,-0.2484674790442098 l 1.6745538427648965 -2.1454449869063534" fill="#ff1902" stroke="none" /><path d="M 87.07902340077011 116.55440617244103 l -1.6858366835059382 2.159900606957341 a23.739929917970347,23.739929917970347 0 0,0 -0.3199718707950729,-0.2542050058307853 l 1.7227660470183692 -2.1305616871214252" fill="#ff1902" stroke="none" /><path d="M 86.51685102203217 116.09983520530335 l -1.4059727094569436 1.6788310328988365 a23.1898020222755,23.1898020222755 0 0,0 -0.3038245298891038,-0.2589258557039086 l 1.434662715923104 -1.6543807869719762" fill="#ff1101" stroke="none" /><path d="M 86.24171649860922 115.8653595955263 l -1.1867044925288088 1.3684478522115708 a22.81133019541179,22.81133019541179 0 0,0 -0.29443740427805853,-0.2598067756254054 l 1.2100842497134552 -1.3478179348138766" fill="#ff0c01" stroke="none" /><path d="M 85.97065885151581 115.62618273729859 l -0.987816989879319 1.1002518672468262 a22.478626584663743,22.478626584663743 0 0,0 -0.28569312203871866,-0.26097389326382436 l 1.0066096613848923 -1.0830852073964259" fill="#ff0701" stroke="none" /><path d="M 85.44109423537348 115.13401014063109 l -1.8105852175501638 1.8821067658434603 a23.611617259103046,23.611617259103046 0 0,0 -0.29047916397018053,-0.28429499970456584 l 1.8427143338961387 -1.8506616632163249" fill="#ff1702" stroke="none" /><line stroke="#e1ed5e" stroke-width="0.3" x1="26.63291911575756" x2="22.317208475507996" y1="142.92168965132927" y2="145.44649492493687" /><path d="M 25.769776987707644 143.4266507060508 a86.0,86.0 0 0,1 -11.730757126820373,-40.83630448921669" fill="none" id="id69" stroke="none" /><text fill="#e1ed5e" style="font-size:6.75px; font-family:Arial;" text-anchor="middle"><textPath startOffset="21.46611528233685" xlink:href="#id69">September</textPath></text><line stroke="#e1ed5e" stroke-width="0.3" x1="15.007084014347285" x2="10.007500721073583" y1="101.09737516637583" y2="101.16192664675087" /><path d="M 14.007167355692545 101.11028546245083 a86.0,86.0 0 0,1 10.666146001902534,-42.60595125391555" fill="none" id="id70" stroke="none" /><text fill="#e1ed5e" style="font-size:6.75px; font-family:Arial;" text-anchor="middle"><textPath startOffset="22.20632615414155" xlink:href="#id70">October</textPath></text><line stroke="#e1ed5e" stroke-width="0.3" x1="26.266209847984243" x2="21.928928074336255" y1="57.711370442889674" y2="55.22380399835377" /><path d="M 25.398753493254645 57.213857153982495 a86.0,86.0 0 0,1 29.58750427330803,-30.492523968695096" fill="none" id="id71" stroke="none" /><text fill="#e1ed5e" style="font-size:6.75px; font-family:Arial;" text-anchor="middle"><textPath startOffset="21.46611528233685" xlink:href="#id71">November</textPath></text><line stroke="#e1ed5e" stroke-width="0.3" x1="56.762969772571076" x2="54.21961505331055" y1="26.818313649435495" y2="22.513508569990535" /><path d="M 56.25429882871897 25.957352633546506 a86.0,86.0 0 0,1 42.265352541879196,-11.944610805530505" fill="none" id="id72" stroke="none" /><text fill="#e1ed5e" style="font-size:6.75px; font-family:Arial;" text-anchor="middle"><textPath startOffset="22.20632615414155" xlink:href="#id72">December</textPath></text></svg>