<?xml version="1.0" encoding="utf-8" ?>
<svg baseProfile="full" height="200mm" version="1.1" viewBox="0,0,200,200" width="200mm" xmlns="http://www.w3.org/2000/svg" xmlns:ev="http://www.w3.org/2001/xml-events" xmlns:xlink="http://www.w3.org/1999/xlink"><defs /><rect fill="#1a1a1a" height="200" width="200" x="0" y="0" /><text alignment-baseline="middle" fill="#e1ed5e" style="dominant-baseline: central; font-size:9.0px; font-family:Arial;" text-anchor="middle" x="100.0" y="100.0">2023</text><line stroke="#e1ed5e" stroke-width="0.3" x1="100.0" x2="100.0" y1="15.0" y2="10.0" /><path d="M 100.0 14.0 a86.0,86.0 0 0,1 42.46469731375804,11.215312516191453" fill="none" id="id37" stroke="none" /><text fill="#e1ed5e" style="font-size:6.75px; font-family:Arial;" text-anchor="middle"><textPath startOffset="22.20632615414155" xlink:href="#id37">January</textPath></text><path d="M 100.0 79.0 l 0.0 -5.657891522110923 a26.657891522110923,26.657891522110923 0 0,0 0.4588717811337013,0.003949654291209319 l -0.09739130186117292 5.657053244428273" fill="#ff2403" stroke="none" /><path d="M 100.36148047927253 79.00311137660856 l 0.10082461572184223 -5.856480081768692 a26.857347911067677,26.857347911067677 0 0,0 0.46216810401736264,0.011936438598045605 l -0.20161935493407265 5.853876851028287" fill="#ff2703" stroke="none" /><path d="M 100.72285384407766 79.0124445844662 l 0.1349280080320872 -3.91754027301926 a24.919863181040803,24.919863181040803 0 0,0 0.4285731925445924,0.018455263198628398 l -0.20234203296601116 3.914637283296437" fill="#ff0a01" stroke="none" /><path d="M 101.08401301168833 79.027996857942 l 0.21189302715951475 -4.099416873648369 a25.104889445394576,25.104889445394576 0 0,0 0.4313712795992491,0.026021493609292904 l -0.2824263555983757 4.095162110658772" fill="#ff0d01" stroke="none" /><path d="M 101.44485096284872 79.0497635885617 l 0.2779917256885817 -4.030860291719439 a25.040434888834596,25.040434888834596 0 0,0 0.4297532569795001,0.033357123842951114 l -0.347335172030423 4.025477905688024" fill="#ff0c01" stroke="none" /><path d="M 101.80526077348638 79.07773832637324 l 0.33435145250452397 -3.8750017077849246 a24.889399584656733,24.889399584656733 0 0,0 0.4265271196346891,0.040503889435704446 l -0.4010036992294572 3.8686722738340418" fill="#ff0a01" stroke="none" /><path d="M 102.52436894288641 79.15227682838746 l 1.6818847073665355 -13.889992936473833 a34.991448815050084,34.991448815050084 0 0,0 0.5973294775412874,0.077550509655653 l -1.920728913415669 13.858984103654043" fill="#ff9b0e" stroke="none" /><path d="M 105.36241919743992 79.69619591428918 l 2.1525665139002688 -8.150293211048838 a29.429758123625703,29.429758123625703 0 0,0 0.48867708463542503,0.13357390711467867 l -2.292541487759405 8.112032763107866" fill="#ff4d07" stroke="none" /><path d="M 109.41281617654863 81.2277094730956 l 4.911084521138427 -9.79433824094902 a31.956633276325434,31.956633276325434 0 0,0 0.48960531469666163,0.25079485856122413 l -5.078950323423845 9.708350857075295" fill="#ff710a" stroke="none" /><path d="M 110.36928655335952 81.73862282372117 l 5.025354517324159 -8.850164745002711 a31.177406547764477,31.177406547764477 0 0,0 0.464399744828457,0.26901030713405577 l -5.176950994617944 8.762350280478607" fill="#ff6609" stroke="none" /><line stroke="#e1ed5e" stroke-width="0.3" x1="143.23703022742887" x2="145.7803849466894" y1="26.81831364943548" y2="22.513508569990506" /><path d="M 143.74570117128098 25.957352633546492 a86.0,86.0 0 0,1 28.547481713284135,27.462654790039103" fill="none" id="id38" stroke="none" /><text fill="#e1ed5e" style="font-size:6.75px; font-family:Arial;" text-anchor="middle"><textPath startOffset="19.985693538727396" xlink:href="#id38">February</textPath></text><path d="M 113.6212207817346 84.01681056812373 l 28.300099572190213 -33.20743857333431 a64.63060408013682,64.63060408013682 0 0,0 0.8405247034043386,0.7288947401242774 l -28.867518074241314 32.715378839790354" fill="#34ff5c" stroke="none" /><path d="M 115.68641384162765 86.03803664274999 l 24.013952682606572 -21.37403302006082 a53.14839359882726,53.14839359882726 0 0,0 0.6023690530613285,0.6886119576687488 l -24.378313599245747 20.957505506189122" fill="#82ff25" stroke="none" /><line stroke="#e1ed5e" stroke-width="0.3" x1="172.23445277983987" x2="176.4835382374775" y1="55.19839476539836" y2="52.563006222186495" /><path d="M 173.08426987136738 54.67131705675599 a86.0,86.0 0 0,1 12.851231095245387,41.99856678651699" fill="none" id="id39" stroke="none" /><text fill="#e1ed5e" style="font-size:6.75px; font-family:Arial;" text-anchor="middle"><textPath startOffset="22.20632615414155" xlink:href="#id39">March</textPath></text><path d="M 117.84615892207809 88.93136811851018 l 14.812846025644369 -9.187295736350812 a38.43062851209382,38.43062851209382 0 0,0 0.3438337123501633,0.5651722181162553 l -14.968795536280755 8.930955745027475" fill="#ffc912" stroke="none" /><path d="M 118.56541770881063 90.18545643968196 l 22.627028072757156 -11.961699765862216 a46.59423100415343,46.59423100415343 0 0,0 0.36873912676422566,0.712286625601715 l -22.829576632681498 11.570440418000155" fill="#ceff1d" stroke="none" /><path d="M 120.28053869075195 94.5502522615342 l 47.74449076213368 -12.829808641808407 a70.43824822868312,70.43824822868312 0 0,0 0.30457387218069437,1.17364737301398 l -47.958260966184675 12.006064843245577" fill="#3cffa0" stroke="none" /><line stroke="#e1ed5e" stroke-width="0.3" x1="184.98032266829074" x2="189.97916517819016" y1="98.17113171792111" y2="98.06355123074" /><path d="M 185.9800911702706 98.14961562048488 a86.0,86.0 0 0,1 -9.607161424134198,41.387399972396054" fill="none" id="id40" stroke="none" /><text fill="#e1ed5e" style="font-size:6.75px; font-family:Arial;" text-anchor="middle"><textPath startOffset="21.466115282336823" xlink:href="#id40">April</textPath></text><path d="M 120.76222939487914 103.15116336523771 l 7.939916823927336 1.205071697395142 a29.03084534571219,29.03084534571219 0 0,0 -0.07923795831547514,0.4934148420690015 l -7.917997111250572 -1.3415657691573484" fill="#ff4706" stroke="none" /><path d="M 120.70491114924044 103.5080841355445 l 14.684843149107785 2.4880891742553652 a35.894133276325434,35.894133276325434 0 0,0 -0.10845764073972196,0.6082880472250978 l -14.639839066028875 -2.7404959722136817" fill="#ffa70f" stroke="none" /><path d="M 120.49622156327973 104.57218783832717 l 31.543361993879 7.0365250318501635 a53.31866906914244,53.31866906914244 0 0,0 -0.2075351350022781,0.8940559298906985 l -31.41756629294617 -7.578449619089428" fill="#80ff25" stroke="none" /><path d="M 120.02730092923936 106.31721596034902 l 11.419488211561301 3.602051691537268 a32.97411739555338,32.97411739555338 0 0,0 -0.17540306804682287,0.5398351348977414 l -11.355792892498231 -3.7980857264128045" fill="#ff7f0b" stroke="none" /><path d="M 119.41010516605496 108.01547362559984 l 9.931199514399637 4.101125011803286 a31.744670779379426,31.744670779379426 0 0,0 -0.21291455864994163,0.5032671227045893 l -9.859133974557386 -4.271466660174039" fill="#ff6e0a" stroke="none" /><line stroke="#e1ed5e" stroke-width="0.3" x1="174.80103733775053" x2="179.2010983576182" y1="140.37084112569926" y2="142.7455964860345" /><path d="M 175.68104954172406 140.8457921977663 a86.0,86.0 0 0,1 -30.038265399797805,32.042727171017184" fill="none" id="id41" stroke="none" /><text fill="#e1ed5e" style="font-size:6.75px; font-family:Arial;" text-anchor="middle"><textPath startOffset="22.206326154141568" xlink:href="#id41">May</textPath></text><path d="M 116.71984013943494 112.70617746262583 l 8.94790247628231 6.799923673537858 a32.23850171023699,32.23850171023699 0 0,0 -0.3395684191146697,0.4389379559892521 l -8.829527239949574 -6.952939623640363" fill="#ff750a" stroke="none" /><path d="M 114.29624159901734 115.38237550388516 l 11.390407370998158 12.25577520562875 a37.7315691424383,37.7315691424383 0 0,0 -0.47955108587804557,0.4380585469030923 l -11.177756735653249 -12.450026519118426" fill="#ffc011" stroke="none" /><line stroke="#e1ed5e" stroke-width="0.3" x1="143.8653032363475" x2="146.44561519142675" y1="172.8068346515853" y2="177.08958963109032" /><path d="M 144.38136562736335 173.6633856474863 a86.0,86.0 0 0,1 -40.68145358897372,12.25698825130547" fill="none" id="id42" stroke="none" /><text fill="#e1ed5e" style="font-size:6.75px; font-family:Arial;" text-anchor="middle"><textPath startOffset="21.466115282336833" xlink:href="#id42">June</textPath></text><path d="M 110.21172684928248 118.3499491758327 l 20.137472953366103 36.18600562645654 a62.41189225506963,62.41189225506963 0 0,0 -0.9432433747557553,0.5143314950524657 l -19.5116067667417 -36.52727777326878" fill="#31ff41" stroke="none" /><path d="M 108.92500713936063 119.00905698771935 l 1.380018053584866 2.9392516347673787 a24.24709870510628,24.24709870510628 0 0,0 -0.37933085401970357,0.17413219007695 l -1.329219203797743 -2.962570895178403" fill="#ff0000" stroke="none" /><path d="M 105.53697534728816 120.25689768951611 l 1.3966726081397058 5.1096947980258465 a26.297138407036403,26.297138407036403 0 0,0 -0.43767148571276465,0.11559301731097284 l -1.308510679615444 -5.132979164640403" fill="#ff1f03" stroke="none" /><path d="M 104.83641907484287 120.43548508189849 l 3.71881692086661 15.713242904028204 a37.147309430735405,37.147309430735405 0 0,0 -0.6235084799334639,0.14190850006352776 l -3.447788291540284 -15.774928137669416" fill="#ffb811" stroke="none" /><path d="M 104.13013068566511 120.58985236759428 l 6.087225350910029 30.34651463657768 a51.95101392621549,51.95101392621549 0 0,0 -0.8782996380782329,0.16832821600845002 l -5.563958098260092 -30.4468000509346" fill="#90ff24" stroke="none" /><path d="M 101.98527174616119 120.90594882070398 l 3.0367188088880224 31.978235787740644 a53.12209870510628,53.12209870510628 0 0,0 -0.9110583667685104,0.0786099494184678 l -2.4858161243779704 -32.02576998943778" fill="#82ff25" stroke="none" /><line stroke="#e1ed5e" stroke-width="0.3" x1="102.19456741930631" x2="102.32365962044197" y1="184.97166512339345" y2="189.96999836594603" /><path d="M 102.22038585953345 185.97133177190398 a86.0,86.0 0 0,1 -42.740103519485714,-10.115201625700543" fill="none" id="id43" stroke="none" /><text fill="#e1ed5e" style="font-size:6.75px; font-family:Arial;" text-anchor="middle"><textPath startOffset="22.20632615414155" xlink:href="#id43">July</textPath></text><path d="M 100.54218724476979 120.99299961872073 l 1.2543709880867764 48.56810987101086 a69.58430552162227,69.58430552162227 0 0,0 -1.1976463317304042,0.02061856772010431 l -0.418164966463704 -48.58250591601012" fill="#3aff96" stroke="none" /><line stroke="#e1ed5e" stroke-width="0.3" x1="58.666819895761336" x2="56.23545636021788" y1="174.27360380694188" y2="178.64263932499728" /><path d="M 58.180547188652646 175.14741091055294 a86.0,86.0 0 0,1 -31.652253787137756,-30.449443065178592" fill="none" id="id44" stroke="none" /><text fill="#e1ed5e" style="font-size:6.75px; font-family:Arial;" text-anchor="middle"><textPath startOffset="22.20632615414155" xlink:href="#id44">August</textPath></text><path d="M 89.1626897886671 117.98757091392108 l -6.636296941346081 11.014805289366953 a33.859485707305154,33.859485707305154 0 0,0 -0.4966393274973663,-0.3050764382419917 l 6.824915468775756 -10.898940384296584" fill="#ff8b0c" stroke="none" /><path d="M 88.54995079064634 117.60387380957326 l -8.610441201640608 13.238119556255405 a36.79200769606645,36.79200769606645 0 0,0 -0.5279220382370889,-0.3498779402346625 l 8.837037938617659 -13.087943594929424" fill="#ffb310" stroke="none" /><path d="M 87.95078237400918 117.19931262002967 l -5.544943678146916 7.914971970892902 a30.664014781333982,30.664014781333982 0 0,0 -0.42969436040878,-0.3065755170587975 l 5.680365366404583 -7.818352191989884" fill="#ff5e08" stroke="none" /><path d="M 87.65650970185807 116.9893568818739 l -7.58236513122486 10.436230281028937 a33.8998900561935,33.8998900561935 0 0,0 -0.46913416911848055,-0.3470542428998721 l 7.760884270761904 -10.3041660893893" fill="#ff8c0c" stroke="none" /><path d="M 87.07902340077011 116.55440617244103 l -5.976109519516154 7.6566150830238575 a30.712756535548497,30.712756535548497 0 0,0 -0.4139531245420473,-0.32886939772676826 l 6.107020136775559 -7.552611771291959" fill="#ff5f08" stroke="none" /><path d="M 85.18274418774928 114.88116024355367 l -6.468521353781394 6.496419041701618 a30.167618494991448,30.167618494991448 0 0,0 -0.3648261684071982,-0.36956698246672687 l 6.579388147244126 -6.384111565254226" fill="#ff5708" stroke="none" /><path d="M 84.67929136418377 114.36230785411682 l -5.789715632164368 5.4275347357330075 a28.93592719276814,28.93592719276814 0 0,0 -0.3375218716115533,-0.3663133302550988 l 5.882283911771651 -5.3270701506765645" fill="#ff4606" stroke="none" /><line stroke="#e1ed5e" stroke-width="0.3" x1="26.63291911575756" x2="22.317208475507996" y1="142.92168965132927" y2="145.44649492493687" /><path d="M 25.769776987707644 143.4266507060508 a86.0,86.0 0 0,1 -11.730757126820373,-40.83630448921669" fill="none" id="id45" stroke="none" /><text fill="#e1ed5e" style="font-size:6.75px; font-family:Arial;" text-anchor="middle"><textPath startOffset="21.46611528233685" xlink:href="#id45">September</textPath></text><path d="M 81.51974371655577 109.97397251340807 l -8.514609895558928 4.595417063386601 a30.67555888101637,30.67555888101637 0 0,0 -0.24678851103559696,-0.4668308582006793 l 8.592450914819413 -4.448171190099796" fill="#ff5f08" stroke="none" /><path d="M 81.18737489456691 109.33194174019688 l -15.027290982932907 7.4542390112912145 a37.77453884681163,37.77453884681163 0 0,0 -0.28393275904047643,-0.5849855817286437 l 15.153376998588103 -7.194464473597286" fill="#ffc011" stroke="none" /><path d="M 79.23777060512086 103.15116336523772 l -62.286688184637434 9.45349009571317 a84.0,84.0 0 0,0 -0.20466379593360395,-1.4314181120783975 l 62.440186031587636 -8.379926511654372" fill="#4dd2ff" stroke="none" /><path d="M 79.18660465613746 102.79330883721812 l -6.168885958104874 0.8279093044588899 a27.224193745419008,27.224193745419008 0 0,0 -0.058335601453107254,-0.46499214049150356 l 6.18222306880483 -0.7215994096799777" fill="#ff2d04" stroke="none" /><line stroke="#e1ed5e" stroke-width="0.3" x1="15.007084014347285" x2="10.007500721073583" y1="101.09737516637583" y2="101.16192664675087" /><path d="M 14.007167355692545 101.11028546245083 a86.0,86.0 0 0,1 10.666146001902534,-42.60595125391555" fill="none" id="id46" stroke="none" /><text fill="#e1ed5e" style="font-size:6.75px; font-family:Arial;" text-anchor="middle"><textPath startOffset="22.20632615414155" xlink:href="#id46">October</textPath></text><path d="M 79.54389044137918 95.25157060432595 l -28.685345545700383 -6.658662910654392 a50.44803628145614,50.44803628145614 0 0,0 0.20363517942475504,-0.8441992849088693 l 28.566477566014814 7.151447427222658" fill="#a1ff22" stroke="none" /><path d="M 80.2630227832202 92.82701384747504 l -56.93488639103816 -20.691778036369946 a81.57830442218422,81.57830442218422 0 0,0 0.49100587413245084,-1.315651629912893 l 56.57027592840409 21.66875280331218" fill="#4ae9ff" stroke="none" /><path d="M 80.95270993114464 91.15688171328213 l -7.855901917294514 -3.647273163392525 a29.661281456144636,29.661281456144636 0 0,0 0.21898755475851556,-0.4612436391107081 l 7.791956168694248 3.7819592181437653" fill="#ff5007" stroke="none" /><line stroke="#e1ed5e" stroke-width="0.3" x1="26.266209847984243" x2="21.928928074336255" y1="57.711370442889674" y2="55.22380399835377" /><path d="M 25.398753493254645 57.213857153982495 a86.0,86.0 0 0,1 29.58750427330803,-30.492523968695096" fill="none" id="id47" stroke="none" /><text fill="#e1ed5e" style="font-size:6.75px; font-family:Arial;" text-anchor="middle"><textPath startOffset="21.46611528233685" xlink:href="#id47">November</textPath></text><line stroke="#e1ed5e" stroke-width="0.3" x1="56.762969772571076" x2="54.21961505331055" y1="26.818313649435495" y2="22.513508569990535" /><path d="M 56.25429882871897 25.957352633546506 a86.0,86.0 0 0,1 42.265352541879196,-11.944610805530505" fill="none" id="id48" stroke="none" /><text fill="#e1ed5e" style="font-size:6.75px; font-family:Arial;" text-anchor="middle"><textPath startOffset="22.20632615414155" xlink:href="#id48">December</textPath></text></svg>