<?xml version="1.0" encoding="utf-8" ?>
<svg baseProfile="full" height="200mm" version="1.1" viewBox="0,0,200,200" width="200mm" xmlns="http://www.w3.org/2000/svg" xmlns:ev="http://www.w3.org/2001/xml-events" xmlns:xlink="http://www.w3.org/1999/xlink"><defs /><rect fill="#1a1a1a" height="200" width="200" x="0" y="0" /><text alignment-baseline="middle" fill="#e1ed5e" style="dominant-baseline: central; font-size:9.0px; font-family:Arial;" text-anchor="middle" x="100.0" y="100.0">2025</text><line stroke="#e1ed5e" stroke-width="0.3" x1="100.0" x2="100.0" y1="15.0" y2="10.0" /><path d="M 100.0 14.0 a86.0,86.0 0 0,1 42.46469731375804,11.215312516191453" fill="none" id="id49" stroke="none" /><text fill="#e1ed5e" style="font-size:6.75px; font-family:Arial;" text-anchor="middle"><textPath startOffset="22.20632615414155" xlink:href="#id49">January</textPath></text><path d="M 100.36148047927253 79.00311137660856 l 0.2771737601021761 -16.099864042186187 a37.10224976424627,37.10224976424627 0 0,0 0.6384649923402903,0.01648966709694278 l -0.5542653876373341 16.092707582946886" fill="#ff2d04" stroke="none" /><path d="M 101.08401301168833 79.027996857942 l 1.986811297771004 -38.43811128672122 a59.48942476087835,59.48942476087835 0 0,0 1.0221924831631144,0.06166144207098606 l -2.6481658297737303 38.39821657526993" fill="#75ff27" stroke="none" /><path d="M 101.44485096284872 79.0497635885617 l 2.846527777233847 -41.27445073448671 a62.37249090664152,62.37249090664152 0 0,0 1.0704598874600841,0.08308828951265129 l -3.5565778540562722 41.2193371827856" fill="#50ff2b" stroke="none" /><path d="M 101.80526077348638 79.07773832637324 l 2.7010063329563034 -31.303600072746676 a52.41991108716152,52.41991108716152 0 0,0 0.8983147066872834,0.08530580561745321 l -3.2394461667338312 31.252468722614044" fill="#d8ff1c" stroke="none" /><path d="M 102.16513564639614 79.11191278185805 l 1.6523494995469001 -15.9409968233806 a37.02640441869864,37.02640441869864 0 0,0 0.6333865388814851,0.071168357655843 l -1.9265027419381104 15.910192512254156" fill="#ff2b04" stroke="none" /><path d="M 102.52436894288641 79.15227682838746 l 4.857664906954618 -40.117453324731365 a61.410480937626296,61.410480937626296 0 0,0 1.048321568161367,0.136102226577807 l -5.547501203623831 40.027892774989425" fill="#5cff2a" stroke="none" /><path d="M 102.88285421437855 79.19881850522331 l 1.8731718969468207 -13.515837327107162 a34.64502222820962,34.64502222820962 0 0,0 0.5900064105974518,0.08695160799011832 l -2.1055472879729282 13.481591234956074" fill="#ff0000" stroke="none" /><path d="M 103.2404852339499 79.25152402106235 l 4.29314454430931 -27.488539530585 a48.82177017378418,48.82177017378418 0 0,0 0.8292047393137614,0.1368258868871414 l -4.765678489761947 27.410567380758234" fill="#fff016" stroke="none" /><path d="M 103.59715602781102 79.31037775812273 l 6.866148266937592 -39.49175759999085 a61.084197763707394,61.084197763707394 0 0,0 1.0343732737280773,0.18902510422622948 l -7.54491666176857 39.36771701441388" fill="#60ff29" stroke="none" /><path d="M 103.95276090670814 79.375362276772 l 9.25348674249574 -48.2826602076492 a70.16139027347432,70.16139027347432 0 0,0 1.1841692129240864,0.23753320402700281 l -10.083222364886952 48.11622304754499" fill="#37ff7b" stroke="none" /><path d="M 104.307194497241 79.44645832069477 l 3.042609067429997 -14.519054647128765 a35.834433517445774,35.834433517445774 0 0,0 0.6026281391677457,0.13171117004417757 l -3.292079930751271 14.464529978988717" fill="#ff1602" stroke="none" /><path d="M 104.66035177308747 79.52364482259891 l 7.560429160593345 -33.21852948523848 a55.068031793075576,55.068031793075576 0 0,0 0.9224585328761267,0.21831613129191205 l -8.131111380431996 33.083467441805695" fill="#b2ff20" stroke="none" /><path d="M 105.01212808612495 79.60689891045804 l 3.971845360628991 -16.160449725050377 a37.641384884817455,37.641384884817455 0 0,0 0.6278782163208289,0.16006013763184115 l -4.249432465634845 16.08968659124967" fill="#ff3605" stroke="none" /><path d="M 106.0581310904928 79.89281104454417 l 9.994285982990947 -33.171450688848665 a55.64434864609996,55.64434864609996 0 0,0 0.9147258608865831,0.28420977763479427 l -10.563797216588249 32.99450077633135" fill="#aaff21" stroke="none" /><path d="M 106.40334571778207 80.00007090966166 l 16.52374812109537 -51.60954995929615 a75.19021958776776,75.19021958776776 0 0,0 1.2292425706593013,0.40526194891760287 l -17.409673513997088 51.317474286119314" fill="#3fffc0" stroke="none" /><path d="M 106.74666289553966 80.11325718540242 l 12.317659740936321 -36.308043715607866 a59.34056311464368,59.34056311464368 0 0,0 0.9644762895260478,0.336486839427264 l -12.940818034525643 36.0906360230084" fill="#77ff27" stroke="none" /><path d="M 107.76421540070413 80.48803036053334 l 17.16631600529038 -43.14004950021609 a67.43001481880641,67.43001481880641 0 0,0 1.0747577920832654,0.4384206889518068 l -17.906357666962034 42.838167925080704" fill="#33ff54" stroke="none" /><path d="M 108.09893153111575 80.62456947434976 l 24.296794593347244 -58.12629157695072 a84.0,84.0 0 0,0 1.329264968838739,0.5691218881488367 l -25.2937433199763 57.69945016083909" fill="#4dd2ff" stroke="none" /><line stroke="#e1ed5e" stroke-width="0.3" x1="143.23703022742887" x2="145.7803849466894" y1="26.81831364943548" y2="22.513508569990506" /><path d="M 143.74570117128098 25.957352633546492 a86.0,86.0 0 0,1 28.547481713284135,27.462654790039103" fill="none" id="id50" stroke="none" /><text fill="#e1ed5e" style="font-size:6.75px; font-family:Arial;" text-anchor="middle"><textPath startOffset="19.985693538727396" xlink:href="#id50">February</textPath></text><line stroke="#e1ed5e" stroke-width="0.3" x1="172.23445277983987" x2="176.4835382374775" y1="55.19839476539836" y2="52.563006222186495" /><path d="M 173.08426987136738 54.67131705675599 a86.0,86.0 0 0,1 12.851231095245387,41.99856678651699" fill="none" id="id51" stroke="none" /><text fill="#e1ed5e" style="font-size:6.75px; font-family:Arial;" text-anchor="middle"><textPath startOffset="22.20632615414155" xlink:href="#id51">March</textPath></text><line stroke="#e1ed5e" stroke-width="0.3" x1="184.98032266829074" x2="189.97916517819016" y1="98.17113171792111" y2="98.06355123074" /><path d="M 185.9800911702706 98.14961562048488 a86.0,86.0 0 0,1 -9.607161424134198,41.387399972396054" fill="none" id="id52" stroke="none" /><text fill="#e1ed5e" style="font-size:6.75px; font-family:Arial;" text-anchor="middle"><textPath startOffset="21.466115282336823" xlink:href="#id52">April</textPath></text><line stroke="#e1ed5e" stroke-width="0.3" x1="174.80103733775053" x2="179.2010983576182" y1="140.37084112569926" y2="142.7455964860345" /><path d="M 175.68104954172406 140.8457921977663 a86.0,86.0 0 0,1 -30.038265399797805,32.042727171017184" fill="none" id="id53" stroke="none" /><text fill="#e1ed5e" style="font-size:6.75px; font-family:Arial;" text-anchor="middle"><textPath startOffset="22.206326154141568" xlink:href="#id53">May</textPath></text><line stroke="#e1ed5e" stroke-width="0.3" x1="143.8653032363475" x2="146.44561519142675" y1="172.8068346515853" y2="177.08958963109032" /><path d="M 144.38136562736335 173.6633856474863 a86.0,86.0 0 0,1 -40.68145358897372,12.25698825130547" fill="none" id="id54" stroke="none" /><text fill="#e1ed5e" style="font-size:6.75px; font-family:Arial;" text-anchor="middle"><textPath startOffset="21.466115282336833" xlink:href="#id54">June</textPath></text><line stroke="#e1ed5e" stroke-width="0.3" x1="102.19456741930631" x2="102.32365962044197" y1="184.97166512339345" y2="189.96999836594603" /><path d="M 102.22038585953345 185.97133177190398 a86.0,86.0 0 0,1 -42.740103519485714,-10.115201625700543" fill="none" id="id55" stroke="none" /><text fill="#e1ed5e" style="font-size:6.75px; font-family:Arial;" text-anchor="middle"><textPath startOffset="22.20632615414155" xlink:href="#id55">July</textPath></text><line stroke="#e1ed5e" stroke-width="0.3" x1="58.666819895761336" x2="56.23545636021788" y1="174.27360380694188" y2="178.64263932499728" /><path d="M 58.180547188652646 175.14741091055294 a86.0,86.0 0 0,1 -31.652253787137756,-30.449443065178592" fill="none" id="id56" stroke="none" /><text fill="#e1ed5e" style="font-size:6.75px; font-family:Arial;" text-anchor="middle"><textPath startOffset="22.20632615414155" xlink:href="#id56">August</textPath></text><line stroke="#e1ed5e" stroke-width="0.3" x1="26.63291911575756" x2="22.317208475507996" y1="142.92168965132927" y2="145.44649492493687" /><path d="M 25.769776987707644 143.4266507060508 a86.0,86.0 0 0,1 -11.730757126820373,-40.83630448921669" fill="none" id="id57" stroke="none" /><text fill="#e1ed5e" style="font-size:6.75px; font-family:Arial;" text-anchor="middle"><textPath startOffset="21.46611528233685" xlink:href="#id57">September</textPath></text><line stroke="#e1ed5e" stroke-width="0.3" x1="15.007084014347285" x2="10.007500721073583" y1="101.09737516637583" y2="101.16192664675087" /><path d="M 14.007167355692545 101.11028546245083 a86.0,86.0 0 0,1 10.666146001902534,-42.60595125391555" fill="none" id="id58" stroke="none" /><text fill="#e1ed5e" style="font-size:6.75px; font-family:Arial;" text-anchor="middle"><textPath startOffset="22.20632615414155" xlink:href="#id58">October</textPath></text><line stroke="#e1ed5e" stroke-width="0.3" x1="26.266209847984243" x2="21.928928074336255" y1="57.711370442889674" y2="55.22380399835377" /><path d="M 25.398753493254645 57.213857153982495 a86.0,86.0 0 0,1 29.58750427330803,-30.492523968695096" fill="none" id="id59" stroke="none" /><text fill="#e1ed5e" style="font-size:6.75px; font-family:Arial;" text-anchor="middle"><textPath startOffset="21.46611528233685" xlink:href="#id59">November</textPath></text><line stroke="#e1ed5e" stroke-width="0.3" x1="56.762969772571076" x2="54.21961505331055" y1="26.818313649435495" y2="22.513508569990535" /><path d="M 56.25429882871897 25.957352633546506 a86.0,86.0 0 0,1 42.265352541879196,-11.944610805530505" fill="none" id="id60" stroke="none" /><text fill="#e1ed5e" style="font-size:6.75px; font-family:Arial;" text-anchor="middle"><textPath startOffset="22.20632615414155" xlink:href="#id60">December</textPath></text></svg>