<?xml version="1.0" encoding="utf-8" ?>
<svg baseProfile="full" height="200mm" version="1.1" viewBox="0,0,200,200" width="200mm" xmlns="http://www.w3.org/2000/svg" xmlns:ev="http://www.w3.org/2001/xml-events" xmlns:xlink="http://www.w3.org/1999/xlink"><defs /><rect fill="#1a1a1a" height="200" width="200" x="0" y="0" /><rect fill="#1a1a1a" height="200" width="180" x="10" y="0" /><text alignment-baseline="middle" fill="#e1ed5e" style="dominant-baseline: central; font-size:9.0px; font-family:Arial;" text-anchor="middle" x="100.0" y="100.0">2025</text><line stroke="#e1ed5e" stroke-width="0.3" x1="100.0" x2="100.0" y1="15.0" y2="10.0" /><path d="M 100.0 14.0 a86.0,86.0 0 0,1 42.46469731375804,11.215312516191453" fill="none" id="id49" stroke="none" /><text fill="#e1ed5e" style="font-size:6.75px; font-family:Arial;" text-anchor="middle"><textPath startOffset="22.20632615414155" xlink:href="#id49">January</textPath></text><line stroke="#e1ed5e" stroke-width="0.3" x1="143.23703022742887" x2="145.7803849466894" y1="26.81831364943548" y2="22.513508569990506" /><path d="M 143.74570117128098 25.957352633546492 a86.0,86.0 0 0,1 28.547481713284135,27.462654790039103" fill="none" id="id50" stroke="none" /><text fill="#e1ed5e" style="font-size:6.75px; font-family:Arial;" text-anchor="middle"><textPath startOffset="19.985693538727396" xlink:href="#id50">February</textPath></text><line stroke="#e1ed5e" stroke-width="0.3" x1="172.23445277983987" x2="176.4835382374775" y1="55.19839476539836" y2="52.563006222186495" /><path d="M 173.08426987136738 54.67131705675599 a86.0,86.0 0 0,1 12.851231095245387,41.99856678651699" fill="none" id="id51" stroke="none" /><text fill="#e1ed5e" style="font-size:6.75px; font-family:Arial;" text-anchor="middle"><textPath startOffset="22.20632615414155" xlink:href="#id51">March</textPath></text><line stroke="#e1ed5e" stroke-width="0.3" x1="184.98032266829074" x2="189.97916517819016" y1="98.17113171792111" y2="98.06355123074" /><path d="M 185.9800911702706 98.14961562048488 a86.0,86.0 0 0,1 -9.607161424134198,41.387399972396054" fill="none" id="id52" stroke="none" /><text fill="#e1ed5e" style="font-size:6.75px; font-family:Arial;" text-anchor="middle"><textPath startOffset="21.466115282336823" xlink:href="#id52">April</textPath></text><path d="M 118.64920377521936 109.65438752849418 l 0.545062208001425 0.28216978304322077 a21.61376917245333,21.61376917245333 0 0,0 -0.1738853375948628,0.3289255283290606 l -0.5401243621816691 -0.2915103264584157" fill="#ff0701" stroke="none" /><line stroke="#e1ed5e" stroke-width="0.3" x1="174.80103733775053" x2="179.2010983576182" y1="140.37084112569926" y2="142.7455964860345" /><path d="M 175.68104954172406 140.8457921977663 a86.0,86.0 0 0,1 -30.038265399797805,32.042727171017184" fill="none" id="id53" stroke="none" /><text fill="#e1ed5e" style="font-size:6.75px; font-family:Arial;" text-anchor="middle"><textPath startOffset="22.206326154141568" xlink:href="#id53">May</textPath></text><path d="M 116.27256486870786 113.27417163493432 l 0.33364969798854816 0.272171190760518 a21.430580164484905,21.430580164484905 0 0,0 -0.2356384135515071,0.28384164887011415 l -0.3289152845434976 -0.2778740967444026" fill="#ff0400" stroke="none" /><path d="M 114.0293411484842 115.62618273729858 l 0.3820107254947697 0.4254917847538574 a21.571817674863293,21.571817674863293 0 0,0 -0.27843838773697754,0.2456895037016577 l -0.37462998485120447 -0.43200443022780394" fill="#ff0601" stroke="none" /><path d="M 112.04921762599082 117.19931262002967 l 0.2159867614401435 0.30830415277617035 a21.376432904694095,21.376432904694095 0 0,0 -0.3031820653325713,0.2085313890974124 l -0.21064781148468892 -0.31197633123867685" fill="#ff0300" stroke="none" /><path d="M 111.7513745106137 117.40417183066458 l 0.5901880819570705 0.874087944479507 a22.054680855410098,22.054680855410098 0 0,0 -0.31645873109287587,0.20973159100118147 l -0.5750546521242306 -0.8841175565720069" fill="#ff0d01" stroke="none" /><line stroke="#e1ed5e" stroke-width="0.3" x1="143.8653032363475" x2="146.44561519142675" y1="172.8068346515853" y2="177.08958963109032" /><path d="M 144.38136562736335 173.6633856474863 a86.0,86.0 0 0,1 -40.68145358897372,12.25698825130547" fill="none" id="id54" stroke="none" /><text fill="#e1ed5e" style="font-size:6.75px; font-family:Arial;" text-anchor="middle"><textPath startOffset="21.466115282336833" xlink:href="#id54">June</textPath></text><line stroke="#e1ed5e" stroke-width="0.3" x1="102.19456741930631" x2="102.32365962044197" y1="184.97166512339345" y2="189.96999836594603" /><path d="M 102.22038585953345 185.97133177190398 a86.0,86.0 0 0,1 -42.740103519485714,-10.115201625700543" fill="none" id="id55" stroke="none" /><text fill="#e1ed5e" style="font-size:6.75px; font-family:Arial;" text-anchor="middle"><textPath startOffset="22.20632615414155" xlink:href="#id55">July</textPath></text><path d="M 100.54218724476979 120.99299961872073 l 0.006388495899894615 0.24735678178417767 a21.247439266032067,21.247439266032067 0 0,0 -0.3656990970143493,0.006295841599645702 l -0.0021297089928774197 -0.24743010066298302" fill="#ff0200" stroke="none" /><path d="M 99.45781275523022 120.99299961872073 l -0.00977480551873215 0.3784716267439029 a21.378597832895416,21.378597832895416 0 0,0 -0.36779296698846164,-0.012667533438199631 l 0.01628812418183682 -0.3782472948796095" fill="#ff0300" stroke="none" /><path d="M 99.09653310690486 120.98055641714683 l -0.012690331201459664 0.29469835780298637 a21.294971467429953,21.294971467429953 0 0,0 -0.3660827991684061,-0.018922299170268574 l 0.01776119878335466 -0.2944362518705159" fill="#ff0200" stroke="none" /><path d="M 98.37488393609728 120.93702456842531 l -0.04477869556070957 0.5769019640634947 a21.578637198697454,21.578637198697454 0 0,0 -0.37007946678593473,-0.03193201360747482 l 0.05470248008818598 -0.5760456981773565" fill="#ff0601" stroke="none" /><path d="M 98.01472825383883 120.90594882070398 l -0.07417296998696156 0.7810801304282196 a21.784594034916434,21.784594034916434 0 0,0 -0.37300142433981825,-0.038663122743628715 l 0.08760699093237312 -0.7796876392288301" fill="#ff0901" stroke="none" /><path d="M 97.65516085044442 120.86867818915974 l -0.01582684471499547 0.14085628396712965 a21.141742660292028,21.141742660292028 0 0,0 -0.36129484141349405,-0.04374777376798725 l 0.018249109179878875 -0.1405629814737938" fill="#ff0000" stroke="none" /><path d="M 97.2962882734958 120.8252237178851 l -0.08018768517359778 0.6176422089638486 a21.62282578876219,21.62282578876219 0 0,0 -0.3686912234620856,-0.051097244049763416 l 0.09080749982251445 -0.6161703994214802" fill="#ff0701" stroke="none" /><path d="M 96.93821686468263 120.77559828337769 l -0.05997251069693364 0.4069409018271038 a21.411336358250946,21.411336358250946 0 0,0 -0.36416006949439317,-0.056874313524937804 l 0.06696844379984396 -0.40584828095506026" fill="#ff0400" stroke="none" /><path d="M 96.58105272829116 120.7198165907248 l -0.15406462543064062 0.9336765174638334 a21.9463021441762,21.9463021441762 0 0,0 -0.37219990862064334,-0.06471172499880383 l 0.17011350552333387 -0.9308862139440234" fill="#ff0c01" stroke="none" /><path d="M 96.22490169976321 120.6578951692458 l -0.32868344788509823 1.798604346236686 a22.828390112425446,22.828390112425446 0 0,0 -0.3859437046239208,-0.07396702954493123 l 0.3595947670807141 -1.7926801183432868" fill="#ff1802" stroke="none" /><path d="M 95.86986931433489 120.58985236759428 l -0.12278863013434406 0.612135537420204 a21.62432921112422,21.62432921112422 0 0,0 -0.3643272531313182,-0.07634831818120061 l 0.133307344695049 -0.6099312385124621" fill="#ff0701" stroke="none" /><path d="M 95.51606077576429 120.51570834832081 l -0.07064834715677007 0.32324275889494575 a21.33087319343519,21.33087319343519 0 0,0 -0.3580334760258012,-0.0814872534865491 l 0.07620197257543396 -0.3219787718307099" fill="#ff0300" stroke="none" /><path d="M 95.16358092515715 120.4354850818985 l -0.18255510732766253 0.7713562689023274 a21.792664406155804,21.792664406155804 0 0,0 -0.3642972979273594,-0.08953541252132145 l 0.19580568999823247 -0.768099598066976" fill="#ff0901" stroke="none" /><path d="M 94.81253420990036 120.34920634021253 l -0.14370571913397323 0.563723684984471 a21.581752289831577,21.581752289831577 0 0,0 -0.35919184219862677,-0.09486583016850905 l 0.15338800414408926 -0.5611665055123802" fill="#ff0601" stroke="none" /><path d="M 94.46302465271185 120.25689768951611 l -0.19624049437541632 0.7179413610807964 a21.744278260856284,21.744278260856284 0 0,0 -0.3601979370958244,-0.10179553494322569 l 0.20856959957585464 -0.7144570327990494" fill="#ff0901" stroke="none" /><path d="M 94.11515582081647 120.15858648285463 l -0.3563364523699571 1.2206337115097572 a22.271582606424644,22.271582606424644 0 0,0 -0.36708343328118603,-0.11059922721630173 l 0.37729486009138896 -1.2143191151877297" fill="#ff1001" stroke="none" /><path d="M 93.76903079525671 120.05430185196036 l -0.1842115639122376 0.5928827740803927 a21.620841271244313,21.620841271244313 0 0,0 -0.35445686432696544,-0.11348589457864722 l 0.19438977333014346 -0.5896240328420389" fill="#ff0701" stroke="none" /><path d="M 93.42475214034765 119.94407469862007 l -0.1748600388430337 0.5303863445040472 a21.558467284288483,21.558467284288483 0 0,0 -0.3514340887092646,-0.11922552368818083 l 0.18396386048952412 -0.5272978339177433" fill="#ff0601" stroke="none" /><path d="M 93.08242187328487 119.8279376855182 l -0.11666271479280912 0.3343917476265115 a21.354158198978283,21.354158198978283 0 0,0 -0.34601915877765027,-0.12407015956567079 l 0.12240143420018601 -0.33233404702088293" fill="#ff0300" stroke="none" /><path d="M 92.7421414339146 119.70592522655815 l -0.3155309945606721 0.8567031347963813 a21.91296224987586,21.91296224987586 0 0,0 -0.35282976609708466,-0.1334100270949484 l 0.33023098141803975 -0.8511448575947997" fill="#ff0b01" stroke="none" /><path d="M 92.40401165467489 119.57807347666478 l -0.3887795809928341 1.0020493524834222 a22.074826715061274,22.074826715061274 0 0,0 -0.3530699544579631,-0.14049382141224775 l 0.40597061149265534 -0.9952086866651078" fill="#ff0d01" stroke="none" /><path d="M 92.06813273071674 119.44442032107085 l -0.22312142990501624 0.546966649645351 a21.59072471448816,21.59072471448816 0 0,0 -0.3429106144007289,-0.14333666463037947 l 0.2325035038032074 -0.5430449419949983" fill="#ff0601" stroke="none" /><path d="M 91.7346041902142 119.30500536409082 l -0.26524760918459445 0.6195234488417762 a21.67391809431336,21.67391809431336 0 0,0 -0.34170410381850463,-0.14979303735607738 l 0.27587238766084243 -0.6148658581912466" fill="#ff0801" stroke="none" /><path d="M 91.40352486487194 119.15986991738527 l -0.21086769151781481 0.469983042555555 a21.515120610746482,21.515120610746482 0 0,0 -0.33659074740734496,-0.15451230340106745 l 0.21892643469257925 -0.4662836688204132" fill="#ff0500" stroke="none" /><path d="M 91.07499286063937 119.00905698771935 l -0.2660762031579727 0.5667062927714619 a21.626061153685274,21.626061153685274 0 0,0 -0.33560282719229056,-0.1611097516025239 l 0.2757916983505053 -0.5620422646693756" fill="#ff0701" stroke="none" /><path d="M 90.7491055286396 118.85261126421891 l -0.43489923684906745 0.8862911880363536 a21.987243341938953,21.987243341938953 0 0,0 -0.3383377031798007,-0.1696495481498543 l 0.4500908477116286 -0.8786737989771972" fill="#ff0c01" stroke="none" /><path d="M 90.42595943632237 118.69057910512821 l -0.2919013216753874 0.569853940703338 a21.640265488161717,21.640265488161717 0 0,0 -0.3300749479809573,-0.1726796124781834 l 0.30166717218284034 -0.5647449092804377" fill="#ff0701" stroke="none" /><path d="M 90.10565033884886 118.52300852407294 l -0.5439631349326208 1.0183421983457697 a22.154520127627674,22.154520127627674 0 0,0 -0.334825681071718,-0.18257365780297116 l 0.5614116278729793 -1.0088278887830326" fill="#ff0f01" stroke="none" /><line stroke="#e1ed5e" stroke-width="0.3" x1="58.666819895761336" x2="56.23545636021788" y1="174.27360380694188" y2="178.64263932499728" /><path d="M 58.180547188652646 175.14741091055294 a86.0,86.0 0 0,1 -31.652253787137756,-30.449443065178592" fill="none" id="id56" stroke="none" /><text fill="#e1ed5e" style="font-size:6.75px; font-family:Arial;" text-anchor="middle"><textPath startOffset="22.20632615414155" xlink:href="#id56">August</textPath></text><path d="M 89.7882731507175 118.34994917583269 l -23.077134617109596 41.46842679968121 a68.45718663571111,68.45718663571111 0 0,0 -1.024742906287659,-0.5818757663371611 l 23.78752629031846 -41.06504786754942" fill="#3aff92" stroke="none" /><path d="M 89.4739219176387 118.17145234162733 l -0.30293238812422607 0.5229603476682425 a21.60436376215648,21.60436376215648 0 0,0 -0.32018914898920164,-0.18917339301288166 l 0.31188940814180977 -0.5176683823616114" fill="#ff0701" stroke="none" /><path d="M 89.1626897886671 117.98757091392108 l -0.2970115217895262 0.4929743364597875 a21.575534134942227,21.575534134942227 0 0,0 -0.31646253743488995,-0.19439713774614673 l 0.3054532591567249 -0.48778873188526267" fill="#ff0601" stroke="none" /><path d="M 88.8546689885994 117.79835938074946 l -26.206111250668297 41.849433232102975 a70.37747795028264,70.37747795028264 0 0,0 -1.0212046789282145,-0.6517811427190878 l 26.922597731643435 -41.39213766056008" fill="#3cffa7" stroke="none" /><path d="M 88.54995079064634 117.60387380957326 l -0.5245004690563118 0.8063930470086154 a21.961961791499085,21.961961791499085 0 0,0 -0.31512832157547194,-0.20884986811805814 l 0.5383034893717454 -0.7972451577992389" fill="#ff0c01" stroke="none" /><path d="M 88.24862548938628 117.40417183066458 l -0.32943250139756836 0.487900360570629 a21.588704114833597,21.588704114833597 0 0,0 -0.30619270907222224,-0.21060213731405733 l 0.33778209509268087 -0.4821574338914706" fill="#ff0601" stroke="none" /><path d="M 87.95078237400918 117.19931262002967 l -0.3885387770018196 0.5546086142757983 a21.67716548661534,21.67716548661534 0 0,0 -0.3037617815432467,-0.2167259657555875 l 0.39802788639395315 -0.5478383866759915" fill="#ff0801" stroke="none" /><path d="M 87.65650970185807 116.9893568818739 l -0.41337580549738284 0.5689629850468063 a21.70327692619905,21.70327692619905 0 0,0 -0.30034754599625846,-0.22218993423231295 l 0.4231083219122056 -0.5617631020747266" fill="#ff0801" stroke="none" /><path d="M 87.36589467227662 116.77436683061367 l -0.8064767484206893 1.0707633399797614 a22.340499487500022,22.340499487500022 0 0,0 -0.30518321400332094,-0.23400147481789904 l 0.8247886909174968 -1.0567225233344955" fill="#ff1101" stroke="none" /><path d="M 87.07902340077011 116.55440617244103 l -0.5385465949434728 0.6899880211849233 a21.87528047179398,21.87528047179398 0 0,0 -0.294839725345123,-0.23423850951106245 l 0.5503438130059539 -0.6806155976687303" fill="#ff0b01" stroke="none" /><path d="M 86.79598089348748 116.32954008644616 l -0.09843935215734247 0.12174091344235284 a21.156560391092178,21.156560391092178 0 0,0 -0.28121085630486137,-0.23141739000127176 l 0.1005203370068926 -0.12002840458390036" fill="#ff0000" stroke="none" /><path d="M 86.51685102203217 116.09983520530335 l -0.16741033924655782 0.19989980663550724 a21.260741547091293,21.260741547091293 0 0,0 -0.2785506663417779,-0.23738692088411717 l 0.17082648216539228 -0.19698849552843858" fill="#ff0200" stroke="none" /><path d="M 86.24171649860922 115.8653595955263 l -0.6838338761824473 0.7885627846046648 a22.04377202275122,22.04377202275122 0 0,0 -0.28453014178812075,-0.2510647683756931 l 0.6973063708771557 -0.7766748744566829" fill="#ff0d01" stroke="none" /><path d="M 85.97065885151581 115.62618273729859 l -1.0605552377590832 1.181269296456816 a22.587505767891823,22.587505767891823 0 0,0 -0.287076926946207,-0.2622379662371173 l 1.0807317141721449 -1.1628385636331229" fill="#ff1502" stroke="none" /><path d="M 85.70375840098266 115.38237550388516 l -0.8440598941378571 0.9081859836707373 a22.2398543808964,22.2398543808964 0 0,0 -0.2781720378203756,-0.26302902438233033 l 0.8595677663490496 -0.8935223225424762" fill="#ff1001" stroke="none" /><path d="M 85.44109423537348 115.13401014063109 l -0.5984354715781466 0.6220748071178516 a21.863192956003275,21.863192956003275 0 0,0 -0.2689693781619355,-0.26324314708140134 l 0.6090548021158764 -0.6116815571138806" fill="#ff0a01" stroke="none" /><path d="M 85.18274418774928 114.88116024355367 l -44.45176743675218 44.64348073066098 a84.0,84.0 0 0,0 -1.015837499777867,-1.0290380240773414 l 45.21364556158558 -43.871702212602976" fill="#4dd2ff" stroke="none" /><path d="M 84.9287848128048 114.62390073753433 l -1.0186268015204047 0.9883939051366388 a22.419338956164786,22.419338956164786 0 0,0 -0.26635610437988744,-0.27927331056463944 l 1.0354894572792495 -0.9707134779894994" fill="#ff1202" stroke="none" /><path d="M 84.43433777217949 114.09645910891817 l -43.298372916123846 39.21155003633219 a79.41485045290717,79.41485045290717 0 0,0 -0.9088884053741377,-1.0211457584976842 l 43.96692017114632 -38.46043010809364" fill="#47fcff" stroke="none" /><path d="M 84.19399662182784 113.82643327865904 l -1.3270762861667733 1.16087104926947 a22.76316563667121,22.76316563667121 0 0,0 -0.25544335657917255,-0.2971383331709944 l 1.3468621523167246 -1.1378556169369454" fill="#ff1702" stroke="none" /><path d="M 83.95833913139862 113.55231037782056 l -0.6364510755916698 0.5376863772004215 a21.833172618278294,21.833172618278294 0 0,0 -0.24006509012263666,-0.289173865965056 l 0.6456121656078428 -0.5266512541216043" fill="#ff0a01" stroke="none" /><path d="M 83.72743513129214 113.27417163493432 l -0.588090212088699 0.4797283326307121 a21.758939635730783,21.758939635730783 0 0,0 -0.23425269068182186,-0.29226624962335507 l 0.5962608148253818 -0.4695342494290974" fill="#ff0901" stroke="none" /><path d="M 83.50135304334701 112.99209946851258 l -0.2771387686092724 0.2182369534794386 a21.352750995647426,21.352750995647426 0 0,0 -0.22490871208939583,-0.2907248283750359 l 0.28085429791673666 -0.21343413099115005" fill="#ff0300" stroke="none" /><path d="M 83.28015986056508 112.70617746262583 l -0.46105533369010426 0.35037720702481717 a21.579082211716614,21.579082211716614 0 0,0 -0.22220159063543918,-0.29767534232114756 l 0.4670181910206285 -0.34238898519436156" fill="#ff0601" stroke="none" /><path d="M 83.06392112726016 112.41649034213515 l -1.2129649778206262 0.8892712442842748 a22.504023730973117,22.504023730973117 0 0,0 -0.22634783642097134,-0.3143773478475052 l 1.2280926066172049 -0.8682602909856315" fill="#ff1402" stroke="none" /><path d="M 82.85270091963577 112.12312394758628 l -1.1463343423222168 0.8104572768116579 a22.40389580166203,22.40389580166203 0 0,0 -0.21991994078993757,-0.3168110771121545 l 1.1601151902742883 -0.7906049375124907" fill="#ff1202" stroke="none" /><path d="M 82.6465618267979 111.8261652097733 l -0.7906673268956119 0.5388305383930698 a21.9568140733315,21.9568140733315 0 0,0 -0.21015483065779064,-0.31415295765153534 l 0.7998252629641329 -0.5251406665357136" fill="#ff0c01" stroke="none" /><path d="M 82.44556493220864 111.52570212397912 l -0.6073013611565304 0.3987353942833486 a21.72650179484766,21.72650179484766 0 0,0 -0.20256873272671716,-0.31439117165343283 l 0.6140749572602933 -0.38822262270846747" fill="#ff0801" stroke="none" /><path d="M 82.24976979558568 111.22182372390057 l -0.9076626450081275 0.5738308791351602 a22.073840469991787,22.073840469991787 0 0,0 -0.20027843561247347,-0.3229126082494942 l 0.9174057202885569 -0.5581219395204018" fill="#ff0d01" stroke="none" /><path d="M 82.05923443525364 110.91462005526583 l -0.9482725906193777 0.5769004114167224 a22.10997071619605,22.10997071619605 0 0,0 -0.19500901973293186,-0.3268463339702525 l 0.9580624860505415 -0.5604919835603588" fill="#ff0e01" stroke="none" /><line stroke="#e1ed5e" stroke-width="0.3" x1="26.63291911575756" x2="22.317208475507996" y1="142.92168965132927" y2="145.44649492493687" /><path d="M 25.769776987707644 143.4266507060508 a86.0,86.0 0 0,1 -11.730757126820373,-40.83630448921669" fill="none" id="id57" stroke="none" /><text fill="#e1ed5e" style="font-size:6.75px; font-family:Arial;" text-anchor="middle"><textPath startOffset="21.46611528233685" xlink:href="#id57">September</textPath></text><path d="M 81.87401531095188 110.60418214915194 l -0.7885663900700975 0.4613322685886943 a21.91359970095736,21.91359970095736 0 0,0 -0.18767224587300213,-0.3272223796202651 l 0.7963906320954769 -0.4476900431101222" fill="#ff0b01" stroke="none" /><path d="M 81.69416730710424 110.29060199501025 l -0.5866618510997176 0.32979125924526104 a21.673004013517247,21.673004013517247 0 0,0 -0.1800134846671129,-0.32677676312199416 l 0.592251745218347 -0.31964397772544434" fill="#ff0801" stroke="none" /><path d="M 81.51974371655577 109.97397251340807 l -0.6540319553269934 0.35298735284130994 a21.74320782413452,21.74320782413452 0 0,0 -0.17492668690631236,-0.3308953687835835 l 0.6600111504581918 -0.34167696897160027" fill="#ff0901" stroke="none" /><path d="M 81.35079622478065 109.6543875284942 l -0.6195835582635396 0.3207482662454428 a21.697684195012304,21.697684195012304 0 0,0 -0.1688506863669718,-0.33315842307080645 l 0.6250129144167781 -0.31003563147195135" fill="#ff0801" stroke="none" /><path d="M 81.18737489456691 109.33194174019688 l -0.6597933186323561 0.32728833831223897 a21.73650857408932,21.73650857408932 0 0,0 -0.1633827186183923,-0.3366167927166251 l 0.6653292938654674 -0.3158825896303291" fill="#ff0901" stroke="none" /><path d="M 81.02952815118164 109.00673069616217 l -1.1701825006188975 0.5555749341623525 a22.29537276188138,22.29537276188138 0 0,0 -0.1616153172083945,-0.3481050152932923 l 1.1795724346671186 -0.5353498515902331" fill="#ff1101" stroke="none" /><path d="M 80.87730276802145 108.67885076344099 l -1.12699098530836 0.511485720585379 a22.237629315800596,22.237629315800596 0 0,0 -0.15519632527007743,-0.34992674285071906 l 1.1356283953097173 -0.4920106412419641" fill="#ff1001" stroke="none" /><path d="M 80.73074385275274 108.34839909993369 l -0.6553693027965946 0.283938542089123 a21.714233868373512,21.714233868373512 0 0,0 -0.14563945402481876,-0.3442486481154386 l 0.6601597380137199 -0.2726153683075256" fill="#ff0801" stroke="none" /><path d="M 80.58989483394504 108.01547362559985 l -0.5393312961359222 0.2227188231415802 a21.583508287150426,21.583508287150426 0 0,0 -0.13885121641657278,-0.3446173320405518 l 0.5430851268098827 -0.21340212325822305" fill="#ff0601" stroke="none" /><path d="M 80.45479744820244 107.68017299344265 l -0.6775159067307287 0.26622591174030047 a21.72794508031521,21.72794508031521 0 0,0 -0.13378798055061086,-0.3492782000122783 l 0.6819981668748486 -0.2545241448948643" fill="#ff0801" stroke="none" /><path d="M 80.32549172779594 107.34259656027581 l -0.7086925964784211 0.2644866010982873 a21.75643794092037,21.75643794092037 0 0,0 -0.1279234406023389,-0.35199036760606633 l 0.7131402980859843 -0.25224843648610384" fill="#ff0901" stroke="none" /><path d="M 80.20201598880116 107.00284435728193 l -0.6625345844078684 0.23434843534070637 a21.702759748906512,21.702759748906512 0 0,0 -0.12154493049084013,-0.35326646192719635 l 0.666470345841937 -0.22290927032421318" fill="#ff0801" stroke="none" /><path d="M 80.0844068197444 106.66101706037122 l -1.2010495979140572 0.4017059291002678 a22.266446915635957,22.266446915635957 0 0,0 -0.11844450775294625,-0.3645347115800709 l 1.2077863566832527 -0.3809723175423935" fill="#ff1001" stroke="none" /><path d="M 79.97269907076064 106.31721596034903 l -1.1624902103301524 0.3666845440827984 a22.218950796374756,22.218950796374756 0 0,0 -0.11191286367904967,-0.3657377137380929 l 1.1686298465153324 -0.34661985779265775" fill="#ff0f01" stroke="none" /><path d="M 79.86692584326677 105.97154293290107 l -1.0625459120722158 0.31515497746258286 a22.108298910529474,22.108298910529474 0 0,0 -0.10507481034256023,-0.3657791993225405 l 1.0678133593008803 -0.2968183026354464" fill="#ff0e01" stroke="none" /><path d="M 79.76711848015287 105.62410040840567 l -0.7042622402169441 0.1957626030154669 a21.73096395241816,21.73096395241816 0 0,0 -0.09707731101542354,-0.36126078793450983 l 0.7075276275741424 -0.18361088190541813" fill="#ff0801" stroke="none" /><path d="M 79.67330655649465 105.27499134158121 l -0.7086685195116535 0.1839069553966024 a21.73214263554999,21.73214263554999 0 0,0 -0.09084934473939317,-0.3628979720253512 l 0.7117291785461053 -0.1716811439738594" fill="#ff0801" stroke="none" /><path d="M 79.58551787078972 104.9243191809786 l -0.7944620103006159 0.19163770558178161 a21.81724836861969,21.81724836861969 0 0,0 -0.08492045402873773,-0.3658350933810324 l 0.7976430302599088 -0.177933954852175" fill="#ff0a01" stroke="none" /><path d="M 79.50377843672027 104.57218783832718 l -0.9757683204211145 0.21766919497236636 a21.99975181599103,21.99975181599103 0 0,0 -0.0792682080466996,-0.37031467824890396 l 0.9793705671922548 -0.2008406973072986" fill="#ff0c01" stroke="none" /><path d="M 79.4281124754447 104.21870165774334 l -1.0608325945681611 0.21754621300310725 a22.08290911367954,22.08290911367954 0 0,0 -0.07315759367290246,-0.3730289940230368 l 1.06442012121673 -0.1992534919121156" fill="#ff0e01" stroke="none" /><path d="M 79.35854240842038 103.8639653848113 l -1.203896431956924 0.22536267699801493 a22.22480812989722,22.22480812989722 0 0,0 -0.06715443543670956,-0.37663773723725963 l 1.2075973097328223 -0.20460618902754166" fill="#ff1001" stroke="none" /><path d="M 79.29508885075956 103.50808413554451 l -0.7089527683250052 0.120119615171715 a21.7190568473109,21.7190568473109 0 0,0 -0.05928086835310743,-0.3691420238228137 l 0.7109153910394034 -0.10789836165568761" fill="#ff0801" stroke="none" /><path d="M 79.23777060512086 103.15116336523772 l -1.0087780594369244 0.153106123822005 a22.020330661282472,22.020330661282472 0 0,0 -0.05365195786727617,-0.37524166836327394 l 1.0112640683207996 -0.1357189834783305" fill="#ff0d01" stroke="none" /><path d="M 79.18660465613746 102.79330883721812 l -0.6980766568231422 0.09368695795877274 a21.704335335541916,21.704335335541916 0 0,0 -0.046507730138080496,-0.3707123685643488 l 0.6995858962080709 -0.0816568351070153" fill="#ff0801" stroke="none" /><path d="M 79.1416061653843 102.43462659150553 l -1.1335224426103168 0.13230663409315316 a22.141217846568445,22.141217846568445 0 0,0 -0.04092719613179158,-0.3789350062860478 l 1.1356319402431603 -0.11277530592232328" fill="#ff0e01" stroke="none" /><path d="M 79.10278846688536 102.07522291339032 l -1.2439708802556084 0.1235340356394427 a22.250089680337087,22.250089680337087 0 0,0 -0.03456753136629891,-0.3814498281611826 l 1.2459130078989828 -0.10210281892969389" fill="#ff1001" stroke="none" /><path d="M 79.07016306316243 101.71520430193888 l -1.5780062371708816 0.12931792515392815 a22.583296185278144,22.583296185278144 0 0,0 -0.028415638186554116,-0.3877088067258571 l 1.5799984340217712 -0.10213598193131039" fill="#ff1502" stroke="none" /><path d="M 79.04373962182676 101.35467743843564 l -0.7136584110340578 0.0461330853277908 a21.715147949169623,21.715147949169623 0 0,0 -0.02090201814618342,-0.3732195751817064 l 0.7143467800677729 -0.033841793810646816" fill="#ff0801" stroke="none" /><path d="M 79.0235259727143 100.99374915477108 l -1.1057357710036613 0.052383636373096405 a22.106975898850887,22.106975898850887 0 0,0 -0.014735738652086624,-0.3802639378275305 l 1.1064736425069486 -0.03334245153156912" fill="#ff0e01" stroke="none" /><path d="M 79.0095281055655 100.63252640178507 l -1.2937150751982933 0.03898478059786996 a22.294302325159617,22.294302325159617 0 0,0 -0.008257318379361145,-0.383685138579357 l 1.294194456262662 -0.016709826228384166" fill="#ff1101" stroke="none" /><line stroke="#e1ed5e" stroke-width="0.3" x1="15.007084014347285" x2="10.007500721073583" y1="101.09737516637583" y2="101.16192664675087" /><path d="M 14.007167355692545 101.11028546245083 a86.0,86.0 0 0,1 10.666146001902534,-42.60595125391555" fill="none" id="id58" stroke="none" /><text fill="#e1ed5e" style="font-size:6.75px; font-family:Arial;" text-anchor="middle"><textPath startOffset="22.20632615414155" xlink:href="#id58">October</textPath></text><path d="M 79.00175016825051 100.2711162175752 l -0.3563415362369101 0.004600858178352262 a21.35637123669519,21.35637123669519 0 0,0 -0.0015821030771098377,-0.3676250372394744 l 0.35636793660352295 0.0015336572647975171" fill="#ff0300" stroke="none" /><path d="M 79.00486145842228 99.54816195383935 l -1.281028159180128 -0.02756910888558609 a22.281324783330586,22.281324783330586 0 0,0 0.011552660579710071,-0.38337656186365043 l 1.280363804144773 0.04961581817423093" fill="#ff1001" stroke="none" /><path d="M 79.01574976396665 99.18683210126434 l -0.8820032933953151 -0.0341788130002671 a21.882665282436264,21.882665282436264 0 0,0 0.017825402153169963,-0.37626606623685754 l 0.8812842830086464 0.049355985860133754" fill="#ff0b01" stroke="none" /><path d="M 79.03285615573316 98.82574320788736 l -1.0907616230751849 -0.06108768337667855 a22.09247087990204,22.09247087990204 0 0,0 0.02453254115102512,-0.37950755324661667 l 1.0895484909197466 0.07985430087630703" fill="#ff0e01" stroke="none" /><path d="M 79.05617556472873 98.46500227214037 l -0.7174572214516016 -0.05258329051450674 a21.719381586541097,21.719381586541097 0 0,0 0.030536950117330302,-0.3726281386897333 l 0.7164457875147743 0.06492534641201843" fill="#ff0801" stroke="none" /><path d="M 79.08570108090925 98.10471618934814 l -1.2907691034709505 -0.11697135029781126 a22.296058322478466,22.296058322478466 0 0,0 0.037927585201695126,-0.3819256070207922 l 1.2885643925870267 0.13917248802303375" fill="#ff1101" stroke="none" /><path d="M 79.12142395522702 97.74499172005258 l -1.2805885163274504 -0.1383110467558414 a22.28803606075468,22.28803606075468 0 0,0 0.0444801773118814,-0.3810789956216786 l 1.27801798601198 0.16033378070238175" fill="#ff1001" stroke="none" /><path d="M 79.16333360222342 97.38593545837743 l -0.8894643348843124 -0.1115877719819464 a21.896436631272444,21.896436631272444 0 0,0 0.05013658474324692,-0.37357579138706737 l 0.8874117510832317 0.1268819054336732" fill="#ff0b01" stroke="none" /><path d="M 79.21141760316559 97.0276538004421 l -1.2272054527209568 -0.17546552207558525 a22.239685997591852,22.239685997591852 0 0,0 0.05744628081570623,-0.3784992150314519 l 1.2240032784659483 0.1965638494991292" fill="#ff1001" stroke="none" /><path d="M 79.26566170972629 96.67025291283419 l -0.8247819359532558 -0.13245251477717052 a21.83534957385851,21.83534957385851 0 0,0 0.06279029113430985,-0.3705918526292906 l 0.8223797832987229 0.14663015572228913" fill="#ff0a01" stroke="none" /><path d="M 79.32604984820605 96.31383870115002 l -0.1423126474424407 -0.02537431741334091 a21.144557066953745,21.144557066953745 0 0,0 0.06697213840738324,-0.3577678413443976 l 0.14185478512519584 0.027820236220311205" fill="#ff0000" stroke="none" /><path d="M 79.3925641242962 95.95851677861259 l -1.0606946949997043 -0.20802101914630056 a22.08090054140387,22.08090054140387 0 0,0 0.07635859734036793,-0.3723516388355151 l 1.0569568017443418 0.22624831414521812" fill="#ff0d01" stroke="none" /><path d="M 79.46518482838121 95.60439243477599 l -0.6963895198051164 -0.14906659816586873 a21.71216515920336,21.71216515920336 0 0,0 0.08137472706514774,-0.3647869454525586 l 0.693720405737931 0.16103171316838652" fill="#ff0801" stroke="none" /><path d="M 79.54389044137918 95.25157060432595 l -0.7045341586004634 -0.1635418846075282 a21.72326642992458,21.72326642992458 0 0,0 0.08768668878347399,-0.3635179352415785 l 0.7016146695561747 0.17564505150850349" fill="#ff0801" stroke="none" /><path d="M 79.62865764111835 94.90015583598534 l -0.701813014103983 -0.17569470588408584 a21.723470895365814,21.723470895365814 0 0,0 0.09393194484799212,-0.3619581007511296 l 0.6986847373856836 0.18774923218407927" fill="#ff0801" stroke="none" /><path d="M 79.71946130924805 94.55025226153421 l -0.6717952712490965 -0.1805235460471898 a21.695627513221048,21.695627513221048 0 0,0 0.10002017924496405,-0.35982580133751846 l 0.6685883214377718 0.1920606508036508" fill="#ff0801" stroke="none" /><path d="M 79.81627453868168 94.20196356495316 l -1.1671078048481143 -0.3352668261915074 a22.214308228120814,22.214308228120814 0 0,0 0.10873808979017646,-0.36661078217243953 l 1.1611638179462307 0.35530699511048613" fill="#ff0f01" stroke="none" /><path d="M 79.91906864156998 93.8553929516997 l -0.9716158604615138 -0.29730681101730283 a22.016084996532104,22.016084996532104 0 0,0 0.11400611963171377,-0.3614305542141122 l 0.9663542570615963 0.3139875316578295" fill="#ff0d01" stroke="none" /><path d="M 80.02781315780177 93.51064311812611 l -0.6810497758216694 -0.22128648627946562 a21.716098112102426,21.716098112102426 0 0,0 0.11857269420244612,-0.3545172634479282 l 0.6771397878474509 0.232976852649716" fill="#ff0801" stroke="none" /><path d="M 80.14247586403 93.16781622104843 l -0.6938695385641848 -0.23873289407210702 a21.733790386458775,21.733790386458775 0 0,0 0.12475911778157067,-0.35271082621198346 l 0.6896573399728045 0.25064134671070154" fill="#ff0901" stroke="none" /><path d="M 80.2630227832202 92.82701384747504 l -0.7361846242102744 -0.2675507022763668 a21.783295077995643,21.783295077995643 0 0,0 0.13110993072255855,-0.3513094305799882 l 0.7314701049860882 0.28018326988569636" fill="#ff0901" stroke="none" /><path d="M 80.38941819471856 92.48833698450439 l -0.6751323282669563 -0.2586035738849188 a21.72296574545217,21.72296574545217 0 0,0 0.1367579136784693,-0.34803397341298226 l 0.6705808647067959 0.2701865521936645" fill="#ff0801" stroke="none" /><path d="M 80.52162464483688 92.15188598940014 l -0.9515532429883672 -0.38339431302463417 a22.02588731033253,22.02588731033253 0 0,0 0.14471879885306388,-0.3504480504148484 l 0.9448127572491036 0.39971693389279384" fill="#ff0d01" stroke="none" /><path d="M 80.65960295795068 91.81776055985345 l -2.505388752815105 -1.0599415628134974 a23.72037661350629,23.72037661350629 0 0,0 0.16232564216148881,-0.3746699625441934 l 2.4867724008109353 1.10291066994429" fill="#ff2503" stroke="none" /><path d="M 80.803312248108 91.48605970444005 l -1.0527844445608006 -0.4669213783612995 a22.151681666208162,22.151681666208162 0 0,0 0.15759094839509055,-0.3472307653167776 l 1.0445911792023583 0.4849741525201481" fill="#ff0e01" stroke="none" /><path d="M 80.95270993114464 91.15688171328213 l -0.35687698643857685 -0.1656878954158437 a21.39346367321115,21.39346367321115 0 0,0 0.15794672608931112,-0.33267608658123143 l 0.3539720665075142 0.17180639763760736" fill="#ff0400" stroke="none" /><path d="M 81.10775173730289 90.83032412892265 l -0.3404143542334448 -0.16522593006287123 a21.37839336745418,21.37839336745418 0 0,0 0.16353451588688978,-0.32967560501654447 l 0.33751982539314224 0.1710611235783772" fill="#ff0300" stroke="none" /><path d="M 81.26839172434947 90.50648371742162 l -0.3402769721820556 -0.17245849520545917 a21.38148440383051,21.38148440383051 0 0,0 0.16920957204527495,-0.3268590348664191 l 0.33725796697666666 0.1782902523322138" fill="#ff0300" stroke="none" /><path d="M 81.43458229118936 90.18545643968196 l -0.552725381152063 -0.2921963521260219 a21.625207209783643,21.625207209783643 0 0,0 0.17680347288772197,-0.32758998346704254 l 0.5476138090458693 0.3016673189255372" fill="#ff0701" stroke="none" /><path d="M 81.6062741919709 89.86733742301443 l -0.2648418906431677 -0.14589504824339194 a21.302368305451132,21.302368305451132 0 0,0 0.1796929413183324,-0.3196536919281072 l 0.26229130803240464 0.15043225010628375" fill="#ff0200" stroke="none" /><line stroke="#e1ed5e" stroke-width="0.3" x1="26.266209847984243" x2="21.928928074336255" y1="57.711370442889674" y2="55.22380399835377" /><path d="M 25.398753493254645 57.213857153982495 a86.0,86.0 0 0,1 29.58750427330803,-30.492523968695096" fill="none" id="id59" stroke="none" /><text fill="#e1ed5e" style="font-size:6.75px; font-family:Arial;" text-anchor="middle"><textPath startOffset="21.46611528233685" xlink:href="#id59">November</textPath></text><path d="M 81.78341655067845 89.55222093294921 l -1.4947891919020977 -0.8573082473041972 a22.723186629220155,22.723186629220155 0 0,0 0.19751894687473362,-0.33762390691626004 l 1.4798105705570392 0.8829115665743491" fill="#ff1702" stroke="none" /><path d="M 81.96595687620814 89.24020034530311 l -0.8654710420646456 -0.5163731147604863 a22.007810159851502,22.007810159851502 0 0,0 0.19690094492153257,-0.3236533818334719 l 0.8564542988568962 0.5311942698010327" fill="#ff0c01" stroke="none" /><path d="M 82.15384107792192 88.93136811851018 l -1.4142795326403135 -0.8771713617855792 a22.664216390491955,22.664216390491955 0 0,0 0.20848100758823726,-0.3297668871823261 l 1.3989709288061136 0.9013858966821209" fill="#ff1602" stroke="none" /><path d="M 82.34701348167596 88.62581576622439 l -0.5089290205415463 -0.32791349132600395 a21.60542217149935,21.60542217149935 0 0,0 0.20412325968276476,-0.31089372858873865 l 0.5032091255008613 0.3366252838924096" fill="#ff0701" stroke="none" /><path d="M 82.54541684631803 88.32363383020206 l -0.5974989813072094 -0.3997011461343632 a21.718864409248557,21.718864409248557 0 0,0 0.21054425843718821,-0.3089477194596449 l 0.5905302572012808 0.40992688886442386" fill="#ff0801" stroke="none" /><path d="M 82.7489923806493 88.02491185347247 l -0.5855605116915306 -0.4064770532456446 a21.712814637663755,21.712814637663755 0 0,0 0.2157709715913359,-0.30519273734506813 l 0.5784769202963164 0.4164962909224989" fill="#ff0801" stroke="none" /><path d="M 82.95767976084542 87.72973835380427 l -0.5149153216568013 -0.37073271911931943 a21.63449234629153,21.63449234629153 0 0,0 0.22019523208048314,-0.3003460490974026 l 0.5084574770626847 0.3795412118882227" fill="#ff0701" stroke="none" /><path d="M 83.17141714833178 87.43820079747576 l -1.1373066276665218 -0.8489495291655297 a22.419218682375824,22.419218682375824 0 0,0 0.23350583462917834,-0.30726630712572733 l 1.1225248528132346 0.8684006121722836" fill="#ff1202" stroke="none" /><path d="M 83.39014120810768 87.1503855733568 l -0.60820434020425 -0.4705152140155657 a21.76895844235134,21.76895844235134 0 0,0 0.23183517739768103,-0.2944071320641808 l 0.6000150822125978 0.48091474003279416" fill="#ff0901" stroke="none" /><path d="M 83.6137871275137 86.86637796730984 l -1.597105869502542 -1.2800874124769432 a23.046795285802023,23.046795285802023 0 0,0 0.2507727369339262,-0.3074177237788081 l 1.5748346404922233 1.3073893058638335" fill="#ff1b02" stroke="none" /><path d="M 83.84228863543731 86.58626213691792 l -0.9304570729643716 -0.7724427666759792 a22.209304838499982,22.209304838499982 0 0,0 0.24672357622148117,-0.2920428936243116 l 0.9170228832557662 0.7883446099294067" fill="#ff0f01" stroke="none" /><path d="M 84.07557802195018 86.31012108654704 l -0.4822975264003356 -0.41462068424081444 a21.63601982341135,21.63601982341135 0 0,0 0.24521660751252236,-0.2803249723635702 l 0.47508905530996964 0.42286121280732775" fill="#ff0701" stroke="none" /><path d="M 84.31358615837235 86.03803664274999 l -0.5994741458106522 -0.5335723092562887 a21.802538884229605,21.802538884229605 0 0,0 0.25192974814163205,-0.2781871202131641 l 0.5902007570529751 0.5438122167390089" fill="#ff0a01" stroke="none" /><path d="M 84.5562425177563 85.77008943001954 l -0.5007587096453721 -0.46140012646437983 a21.680918028830963,21.680918028830963 0 0,0 0.25524911554318586,-0.2722819597315612 l 0.4927422721317302 0.4699515030739912" fill="#ff0801" stroke="none" /><path d="M 84.80347519578584 85.50635884689758 l -0.8985535764100727 -0.8569928494252107 a22.241706597246417,22.241706597246417 0 0,0 0.26662058984557313,-0.27477595444736885 l 0.8836687228613812 0.8723329994227033" fill="#ff1001" stroke="none" /><path d="M 85.05521093208273 85.24692304244772 l -0.3561551293903733 -0.3515863629017701 a21.500459235871983,21.500459235871983 0 0,0 0.26226894934249745,-0.2611426831252232 l 0.3500503798805626 0.35766489667710266" fill="#ff0500" stroke="none" /><path d="M 85.31137513191541 84.99185889309783 l -0.501688401926877 -0.5126014446849079 a21.717252740476464,21.717252740476464 0 0,0 0.2694146781713356,-0.25917670694385225 l 0.49279048014311383 0.5211612383910738" fill="#ff0801" stroke="none" /><path d="M 85.57189188830299 84.74124197986013 l -0.5084331795463304 -0.5377045137205648 a21.74002056872702,21.74002056872702 0 0,0 0.2741231453684087,-0.25476758860031207 l 0.4991021503830656 0.5463766883955243" fill="#ff0901" stroke="none" /><path d="M 85.83668400450813 84.49514656593479 l -1.0374653592737082 -1.1357332099049888 a22.538253651311777,22.538253651311777 0 0,0 0.28869250433227844,-0.25919098082862935 l 1.0177618673454583 1.153423199502897" fill="#ff1402" stroke="none" /><path d="M 86.10567301691215 84.25364557470407 l -0.4108019084097599 -0.46555924992132763 a21.6208893807599,21.6208893807599 0 0,0 0.28118090326941186,-0.24383730851260138 l 0.4027272064935745 0.4725615518536096" fill="#ff0701" stroke="none" /><path d="M 86.37877921826538 84.01681056812374 l -0.6108272439423099 -0.7167468838896206 a21.941719712816738,21.941719712816738 0 0,0 0.2895705830744225,-0.24250703572067317 l 0.598399123908777 0.7271550770041062" fill="#ff0b01" stroke="none" /><path d="M 86.65592168130627 83.78471172551755 l -0.7394201031721646 -0.8985191665195436 a22.163648908209908,22.163648908209908 0 0,0 0.29667268492892496,-0.23988867901021613 l 0.7238440196787391 0.911113942793894" fill="#ff0f01" stroke="none" /><path d="M 86.93701828274178 83.55741782278169 l -0.3487918159940349 -0.4390297882485934 a21.560716404142077,21.560716404142077 0 0,0 0.29257629822002973,-0.22836044152907556 l 0.34118296261457953 0.44496861900089074" fill="#ff0601" stroke="none" /><path d="M 87.22198572758235 83.33499621200491 l -1.0012058680054203 -1.305766234655829 a22.64542962465605,22.64542962465605 0 0,0 0.3113788049482445,-0.23452406032739803 l 0.9785809092987858 1.3228068844890812" fill="#ff1602" stroke="none" /><path d="M 87.51073957382395 83.11751280151077 l -0.41513169393426125 -0.561158568992877 a21.6980209616214,21.6980209616214 0 0,0 0.3021756121942857,-0.21954343318520453 l 0.40541076538619386 0.5682212369947494" fill="#ff0801" stroke="none" /><path d="M 87.80319425747018 82.90503203632743 l -0.5376952726595808 -0.7536303893307041 a21.925783435779238,21.925783435779238 0 0,0 0.3091210340746008,-0.2165590389931378 l 0.5246430990013198 0.7627742710877845" fill="#ff0b01" stroke="none" /><path d="M 88.09926311788651 82.69761687909137 l -0.3994138932025179 -0.5807045624536432 a21.70480440331887,21.70480440331887 0 0,0 0.3096503575266002,-0.20907730365137525 l 0.38935884126937825 0.587493778403684" fill="#ff0801" stroke="none" /><path d="M 88.39885842347998 82.49532879139004 l -0.7569840175252367 -1.1421941754224083 a22.37026725026818,22.37026725026818 0 0,0 0.3228061247071011,-0.20996208294602758 l 0.7372108670338484 1.155055182527971" fill="#ff1202" stroke="none" /><path d="M 88.70189139769569 82.29822771554957 l -0.5405570259571632 -0.8469397593064245 a22.004743178232964,22.004743178232964 0 0,0 0.3210396127037207,-0.20103497602284015 l 0.5258982608812001 0.8561190766521949" fill="#ff0c01" stroke="none" /><path d="M 89.00827224532344 82.1063720568725 l -0.13957978692640452 -0.22722440287692408 a21.266671044887133,21.266671044887133 0 0,0 0.31356990860799044,-0.18892236137866206 l 0.13564781210076488 0.22959337371420538" fill="#ff0200" stroke="none" /><line stroke="#e1ed5e" stroke-width="0.3" x1="56.762969772571076" x2="54.21961505331055" y1="26.818313649435495" y2="22.513508569990535" /><path d="M 56.25429882871897 25.957352633546506 a86.0,86.0 0 0,1 42.265352541879196,-11.944610805530505" fill="none" id="id60" stroke="none" /><text fill="#e1ed5e" style="font-size:6.75px; font-family:Arial;" text-anchor="middle"><textPath startOffset="22.20632615414155" xlink:href="#id60">December</textPath></text><path d="M 89.3179101791058 81.91981866633112 l -0.6337062973664678 -1.0725920639857072 a22.24580793345003,22.24580793345003 0 0,0 0.331360067168194,-0.1919451387162215 l 0.6151494977329536 1.083341360091976" fill="#ff1001" stroke="none" /><path d="M 89.63071344664047 81.73862282372117 l -0.48565340483882197 -0.8552854583647718 a21.983550936617814,21.983550936617814 0 0,0 0.3306701989302494,-0.18401760769565687 l 0.470859116836527 0.8635184636206132" fill="#ff0c01" stroke="none" /><path d="M 89.94658935756843 81.56283822128135 l -0.7757003199117107 -1.4225731742871424 a22.62031645752073,22.62031645752073 0 0,0 0.3434571405513229,-0.1834629098084936 l 0.7510981328320825 1.4357148105973854" fill="#ff1502" stroke="none" /><path d="M 90.26544431104013 81.39251694778311 l -0.3612456477462124 -0.6905165970490209 a21.779301988202096,21.779301988202096 0 0,0 0.3336791429686291,-0.1709234171967582 l 0.34930601718881954 0.6966325395582843" fill="#ff0901" stroke="none" /><path d="M 90.58718382345135 81.22770947309562 l -0.41499564615825685 -0.827639538578527 a21.925855600052614,21.925855600052614 0 0,0 0.3388366732189253,-0.1662656839970108 l 0.40068770592890557 0.8346603827103675" fill="#ff0b01" stroke="none" /><path d="M 90.91171255644093 81.06846463323043 l -0.46959876659210953 -0.9782069188657156 a22.085086069259756,22.085086069259756 0 0,0 0.3441295889135846,-0.16157345626893568 l 0.4526909663789165 0.986145357774659" fill="#ff0e01" stroke="none" /><path d="M 91.23893434514133 80.91482961587045 l -0.289247941174851 -0.6300998597721115 a21.693318256472974,21.693318256472974 0 0,0 0.34070687003695066,-0.15286524121869619 l 0.2783589526711259 0.6349854315073367" fill="#ff0801" stroke="none" /><path d="M 91.56875222667455 80.76684994638697 l -0.28748547570952276 -0.6558046259829853 a21.71605000258684,21.71605000258684 0 0,0 0.34364743488082977,-0.1471318973881807 l 0.2761542830383847 0.6606560513339521" fill="#ff0801" stroke="none" /><path d="M 91.90106846888425 80.62456947434976 l -0.3969923652997936 -0.9497423164435655 a22.029375250212436,22.029375250212436 0 0,0 0.35112320186364804,-0.14323197021873563 l 0.38058529384776507 0.9564351728458781" fill="#ff0d01" stroke="none" /><path d="M 92.23578459929587 80.48803036053334 l -0.2521034055115481 -0.6335519740863154 a21.681868191763765,21.681868191763765 0 0,0 0.3479597426134483,-0.13500297425507085 l 0.2411604978984234 0.6377976522319376" fill="#ff0801" stroke="none" /><path d="M 92.57280143429618 80.3572730644239 l -0.1651451503697187 -0.43675971023936705 a21.466938930888197,21.466938930888197 0 0,0 0.34676024271038947,-0.1277147238203053 l 0.15760258188675977 0.4395377018659947" fill="#ff0500" stroke="none" /><path d="M 92.91201910852362 80.23233633223022 l -0.3772467437383701 -1.052103111472713 a22.117692293447426,22.117692293447426 0 0,0 0.3594841146830664,-0.12541694895730046 l 0.35908062499201837 1.0584409136022233" fill="#ff0e01" stroke="none" /><path d="M 93.25333710446033 80.11325718540243 l -0.4016004325592165 -1.1837740584039411 a22.2500415708215,22.2500415708215 0 0,0 0.36375340367064324,-0.11992377811802435 l 0.38116420664616396 1.1905115607811994" fill="#ff1001" stroke="none" /><path d="M 93.59665428221793 80.00007090966166 l -0.0823588714715529 -0.2572360859444392 a21.270098847872557,21.270098847872557 0 0,0 0.34965472600829917,-0.1086394254027698 l 0.07791877275252497 0.25861564622973426" fill="#ff0200" stroke="none" /><path d="M 93.94186890950719 79.89281104454417 l -0.2001905611391738 -0.6644407953206997 a21.693943680175575,21.693943680175575 0 0,0 0.35847669872276605,-0.1046491784354961 l 0.18872364469298644 0.6677883026748946" fill="#ff0801" stroke="none" /><path d="M 94.28887869178378 79.79150937346287 l -0.17553847021671523 -0.6211332833830342 a21.645461315844887,21.645461315844887 0 0,0 0.35941990712197014,-0.09824303778208437 l 0.1648206738710226 0.6240628619914145" fill="#ff0701" stroke="none" /><path d="M 94.63758080256005 79.69619591428918 l -0.18701953033022875 -0.7081147079734883 a21.732395210506812,21.732395210506812 0 0,0 0.36250785094405846,-0.09241132277963839 l 0.17480279070117088 0.7112290269219899" fill="#ff0801" stroke="none" /><path d="M 94.98787191387505 79.60689891045804 l -0.332453699863282 -1.3526713189298842 a22.39292683210867,22.39292683210867 0 0,0 0.375109582815092,-0.08877631894778205 l 0.309120430085656 1.3581935500185371" fill="#ff1202" stroke="none" /><path d="M 95.692805502759 79.44645832069477 l -0.24974833841484304 -1.1917764303968181 a22.21766386683286,22.21766386683286 0 0,0 0.37498506559875416,-0.07521847648276757 l 0.22919686334895248 1.1958988629567964" fill="#ff0f01" stroke="none" /><path d="M 96.04723909329186 79.375362276772 l -0.10822449454664293 -0.5646916283289345 a21.574968848134105,21.574968848134105 0 0,0 0.3653411516404561,-0.06676376026042173 l 0.09848822180329352 0.5664708699400924" fill="#ff0601" stroke="none" /><path d="M 96.40284397218896 79.31037775812273 l -0.05458725917581985 -0.3139674128215188 a21.318677431234416,21.318677431234416 0 0,0 0.36208331445082864,-0.05974684933394183 l 0.04917473858610557 0.3148605250950876" fill="#ff0300" stroke="none" /><path d="M 96.75951476605007 79.25152402106235 l -0.10480997177585816 -0.6710868974069623 a21.679222168406596,21.679222168406596 0 0,0 0.36919820607624243,-0.05441021844642033 l 0.09324278527096697 0.6727916000143516" fill="#ff0801" stroke="none" /><path d="M 97.11714578562143 79.19881850522333 l -0.16175038441503475 -1.1671069200397677 a22.17826217356882,22.17826217356882 0 0,0 0.37859906364360607,-0.04915302432682339 l 0.14163659226357092 1.1697182675307276" fill="#ff0f01" stroke="none" /><path d="M 97.83486435360386 79.11191278185805 l -0.0840042451457485 -0.810428668623714 a21.81477072856707,21.81477072856707 0 0,0 0.3738375163570813,-0.035500376722617036 l 0.0700416016984309 0.8117545898615116" fill="#ff0a01" stroke="none" /><path d="M 98.19473922651362 79.07773832637324 l -0.21513006606427945 -2.4932727737549905 a23.502536726937834,23.502536726937834 0 0,0 0.40335927672668814,-0.03130844299248209 l 0.17218059997525714 2.496606478935935" fill="#ff2203" stroke="none" /><path d="M 98.55514903715128 79.0497635885617 l -0.0501547266972671 -0.7272399773241127 a21.728967407521388,21.728967407521388 0 0,0 0.37336362286479174,-0.022522313343029513 l 0.03762905499285237 0.7279955600474486" fill="#ff0801" stroke="none" /><path d="M 98.91598698831166 79.02799685794201 l -0.046975320297714736 -0.9088143354925865 a21.910027569425182,21.910027569425182 0 0,0 0.3768098723476457,-0.01622622574391351 l 0.03132461556074496 0.9094882877606925" fill="#ff0b01" stroke="none" /><path d="M 99.27714615592234 79.0124445844662 l -0.01348652150333491 -0.391571712225161 a21.391803894923473,21.391803894923473 0 0,0 0.36811562632189465,-0.009507340581009589 l 0.006744259986561211 0.39174584494853026" fill="#ff0400" stroke="none" /><path d="M 99.63851952072746 79.00311137660856 l -0.3395288543197614 -19.721810574464595 a40.72473300650681,40.72473300650681 0 0,0 0.7010093335922922,-0.0060338086507738375 l 4.831166228090943e-15 19.72473300650681" fill="#fcff18" stroke="none" /></svg>