<?xml version="1.0" encoding="utf-8" ?>
<svg baseProfile="full" height="200mm" version="1.1" viewBox="0,0,200,200" width="200mm" xmlns="http://www.w3.org/2000/svg" xmlns:ev="http://www.w3.org/2001/xml-events" xmlns:xlink="http://www.w3.org/1999/xlink"><defs /><rect fill="#1a1a1a" height="200" width="200" x="0" y="0" /><text alignment-baseline="middle" fill="#e1ed5e" style="dominant-baseline: central; font-size:9.0px; font-family:Arial;" text-anchor="middle" x="100.0" y="100.0">2021</text><line stroke="#e1ed5e" stroke-width="0.3" x1="100.0" x2="100.0" y1="15.0" y2="10.0" /><path d="M 100.0 14.0 a86.0,86.0 0 0,1 42.46469731375804,11.215312516191453" fill="none" id="id25" stroke="none" /><text fill="#e1ed5e" style="font-size:6.75px; font-family:Arial;" text-anchor="middle"><textPath startOffset="22.20632615414155" xlink:href="#id25">January</textPath></text><line stroke="#e1ed5e" stroke-width="0.3" x1="143.23703022742887" x2="145.7803849466894" y1="26.81831364943548" y2="22.513508569990506" /><path d="M 143.74570117128098 25.957352633546492 a86.0,86.0 0 0,1 28.547481713284135,27.462654790039103" fill="none" id="id26" stroke="none" /><text fill="#e1ed5e" style="font-size:6.75px; font-family:Arial;" text-anchor="middle"><textPath startOffset="19.985693538727396" xlink:href="#id26">February</textPath></text><line stroke="#e1ed5e" stroke-width="0.3" x1="172.23445277983987" x2="176.4835382374775" y1="55.19839476539836" y2="52.563006222186495" /><path d="M 173.08426987136738 54.67131705675599 a86.0,86.0 0 0,1 12.851231095245387,41.99856678651699" fill="none" id="id27" stroke="none" /><text fill="#e1ed5e" style="font-size:6.75px; font-family:Arial;" text-anchor="middle"><textPath startOffset="22.20632615414155" xlink:href="#id27">March</textPath></text><line stroke="#e1ed5e" stroke-width="0.3" x1="184.98032266829074" x2="189.97916517819016" y1="98.17113171792111" y2="98.06355123074" /><path d="M 185.9800911702706 98.14961562048488 a86.0,86.0 0 0,1 -9.607161424134198,41.387399972396054" fill="none" id="id28" stroke="none" /><text fill="#e1ed5e" style="font-size:6.75px; font-family:Arial;" text-anchor="middle"><textPath startOffset="21.466115282336823" xlink:href="#id28">April</textPath></text><path d="M 120.9904718944345 100.63252640178507 l 52.86520884859002 1.5930389988745781 a73.88920570264764,73.88920570264764 0 0,0 -0.049251965959799096,1.2709743952313703 l -52.82995474977902 -2.5027906411199545" fill="#40ffc7" stroke="none" /><line stroke="#e1ed5e" stroke-width="0.3" x1="174.80103733775053" x2="179.2010983576182" y1="140.37084112569926" y2="142.7455964860345" /><path d="M 175.68104954172406 140.8457921977663 a86.0,86.0 0 0,1 -30.038265399797805,32.042727171017184" fill="none" id="id29" stroke="none" /><text fill="#e1ed5e" style="font-size:6.75px; font-family:Arial;" text-anchor="middle"><textPath startOffset="22.206326154141568" xlink:href="#id29">May</textPath></text><path d="M 115.80600337817218 113.82643327865902 l 25.951551513491143 22.701336124885856 a55.47946762658078,55.47946762658078 0 0,0 -0.6349523366795333,0.7133756813429616 l -25.55694032716327 -23.144685975969683" fill="#67ff28" stroke="none" /><line stroke="#e1ed5e" stroke-width="0.3" x1="143.8653032363475" x2="146.44561519142675" y1="172.8068346515853" y2="177.08958963109032" /><path d="M 144.38136562736335 173.6633856474863 a86.0,86.0 0 0,1 -40.68145358897372,12.25698825130547" fill="none" id="id30" stroke="none" /><text fill="#e1ed5e" style="font-size:6.75px; font-family:Arial;" text-anchor="middle"><textPath startOffset="21.466115282336833" xlink:href="#id30">June</textPath></text><path d="M 104.83641907484287 120.43548508189849 l 1.7795539043677735 7.51920929563437 a28.72692180173353,28.72692180173353 0 0,0 -0.4821743383370461,0.10974130958064261 l -1.6498594166378653 -7.548727338792697" fill="#ff4606" stroke="none" /><path d="M 103.7750983002368 120.6578951692458 l 3.991773529727028 21.843574010059143 a43.20531426135556,43.20531426135556 0 0,0 -0.7327436720026234,0.12739687973856095 l -3.6151808862523542 -21.90904946831871" fill="#f5ff19" stroke="none" /><line stroke="#e1ed5e" stroke-width="0.3" x1="102.19456741930631" x2="102.32365962044197" y1="184.97166512339345" y2="189.96999836594603" /><path d="M 102.22038585953345 185.97133177190398 a86.0,86.0 0 0,1 -42.740103519485714,-10.115201625700543" fill="none" id="id31" stroke="none" /><text fill="#e1ed5e" style="font-size:6.75px; font-family:Arial;" text-anchor="middle"><textPath startOffset="22.20632615414155" xlink:href="#id31">July</textPath></text><line stroke="#e1ed5e" stroke-width="0.3" x1="58.666819895761336" x2="56.23545636021788" y1="174.27360380694188" y2="178.64263932499728" /><path d="M 58.180547188652646 175.14741091055294 a86.0,86.0 0 0,1 -31.652253787137756,-30.449443065178592" fill="none" id="id32" stroke="none" /><text fill="#e1ed5e" style="font-size:6.75px; font-family:Arial;" text-anchor="middle"><textPath startOffset="22.20632615414155" xlink:href="#id32">August</textPath></text><path d="M 89.4739219176387 118.17145234162733 l -1.4956772721585685 2.5820279934107884 a23.98394354189362,23.98394354189362 0 0,0 -0.3554558956989827,-0.2100096085956907 l 1.5399010388859333 -2.5558998125213486" fill="#ff0000" stroke="none" /><path d="M 87.65650970185807 116.9893568818739 l -1.7539180075984369 2.4140610356473116 a23.98394354189362,23.98394354189362 0 0,0 -0.3319092600908047,-0.2455385357854405 l 1.7952122381078057 -2.3835125511221045" fill="#ff0000" stroke="none" /><line stroke="#e1ed5e" stroke-width="0.3" x1="26.63291911575756" x2="22.317208475507996" y1="142.92168965132927" y2="145.44649492493687" /><path d="M 25.769776987707644 143.4266507060508 a86.0,86.0 0 0,1 -11.730757126820373,-40.83630448921669" fill="none" id="id33" stroke="none" /><text fill="#e1ed5e" style="font-size:6.75px; font-family:Arial;" text-anchor="middle"><textPath startOffset="21.46611528233685" xlink:href="#id33">September</textPath></text><line stroke="#e1ed5e" stroke-width="0.3" x1="15.007084014347285" x2="10.007500721073583" y1="101.09737516637583" y2="101.16192664675087" /><path d="M 14.007167355692545 101.11028546245083 a86.0,86.0 0 0,1 10.666146001902534,-42.60595125391555" fill="none" id="id34" stroke="none" /><text fill="#e1ed5e" style="font-size:6.75px; font-family:Arial;" text-anchor="middle"><textPath startOffset="22.20632615414155" xlink:href="#id34">October</textPath></text><path d="M 79.54389044137918 95.25157060432595 l -14.028998169566158 -3.2565188952144357 a35.402003504949555,35.402003504949555 0 0,0 0.14290136677482831,-0.5924184219278605 l 13.970864002530515 3.497522548801693" fill="#ffa30f" stroke="none" /><path d="M 79.91906864156998 93.8553929516997 l -14.865386660988312 -4.548691393961295 a36.545749064557384,36.545749064557384 0 0,0 0.1892452286835195,-0.5999590908489608 l 14.784885948536589 4.80390065123667" fill="#ffb310" stroke="none" /><path d="M 80.02781315780177 93.51064311812611 l -16.288688602022233 -5.292515752601464 a38.126940747406806,38.126940747406806 0 0,0 0.20817800982385462,-0.6224257519760931 l 16.195173298426607 5.572114607499879" fill="#ffc812" stroke="none" /><path d="M 80.2630227832202 92.82701384747504 l -9.818194980091572 -3.5682149227548856 a31.446487945815377,31.446487945815377 0 0,0 0.1892710373376163,-0.5071522804253991 l 9.755319354252327 3.7366903402096265" fill="#ff6d0a" stroke="none" /><path d="M 80.38941819471856 92.48833698450439 l -49.19903283458952 -18.845262165664586 a73.68480557002793,73.68480557002793 0 0,0 0.4638860272414851,-1.180539340861814 l 48.86735325746634 19.689350511422163" fill="#40ffc4" stroke="none" /><path d="M 80.52162464483688 92.15188598940014 l -8.386228010156437 -3.3789303441648593 a30.04134893193767,30.04134893193767 0 0,0 0.19738355472818214,-0.4779799340974111 l 8.326822768542055 3.5227848487155815" fill="#ff5908" stroke="none" /><path d="M 80.65960295795068 91.81776055985345 l -14.550504459603829 -6.155804930196167 a36.79908587126415,36.79908587126415 0 0,0 0.25182716709512415,-0.5812518219966432 l 14.442386582666025 6.405355896779409" fill="#ffb610" stroke="none" /><path d="M 80.803312248108 91.48605970444005 l -24.022363902812835 -10.654180276834738 a47.27899398474872,47.27899398474872 0 0,0 0.33635105512500446,-0.7411049649460665 l 23.83541053072448 11.066107250622876" fill="#c4ff1e" stroke="none" /><path d="M 80.95270993114464 91.15688171328213 l -57.141870206566075 -26.529354860153617 a84.0,84.0 0 0,0 0.6201672246329939,-1.3062303374378712 l 56.676744788091334 27.50902761323202" fill="#4dd2ff" stroke="none" /><path d="M 81.10775173730289 90.83032412892265 l -5.967527289533797 -2.896441452385487 a27.63330649362952,27.63330649362952 0 0,0 0.21138161891385812,-0.42613244504910963 l 5.9167856576665265 2.9987334859335584" fill="#ff3605" stroke="none" /><path d="M 81.43458229118936 90.18545643968196 l -2.6380075368934737 -1.394573517783078 a23.98394354189362,23.98394354189362 0 0,0 0.19608804071164634,-0.36332135882650907 l 2.613611396963355 1.4397758599420598" fill="#ff0000" stroke="none" /><path d="M 81.6062741919709 89.86733742301443 l -7.3136687721225595 -4.028924788875867 a29.349969213280918,29.349969213280918 0 0,0 0.2475772749731012,-0.4404123467624388 l 7.243233855857027 4.154220645573091" fill="#ff4f07" stroke="none" /><line stroke="#e1ed5e" stroke-width="0.3" x1="26.266209847984243" x2="21.928928074336255" y1="57.711370442889674" y2="55.22380399835377" /><path d="M 25.398753493254645 57.213857153982495 a86.0,86.0 0 0,1 29.58750427330803,-30.492523968695096" fill="none" id="id35" stroke="none" /><text fill="#e1ed5e" style="font-size:6.75px; font-family:Arial;" text-anchor="middle"><textPath startOffset="21.46611528233685" xlink:href="#id35">November</textPath></text><path d="M 81.78341655067845 89.55222093294921 l -15.82572697520275 -9.076548271105267 a39.24383081513759,39.24383081513759 0 0,0 0.3411229358107956,-0.5830896739249372 l 15.66714436492163 9.347617357384095" fill="#ffd614" stroke="none" /><path d="M 81.96595687620814 89.24020034530311 l -8.16157258787625 -4.869506261574804 a30.50386018093118,30.50386018093118 0 0,0 0.2729139723468147,-0.4485988126408109 l 8.076542817243219 5.009272847422689" fill="#ff6008" stroke="none" /><path d="M 83.84228863543731 86.58626213691792 l -3.3790914961914513 -2.805239338826913 a25.39176810495903,25.39176810495903 0 0,0 0.2820776192230047,-0.33389092929891906 l 3.3303032634813223 2.862989217754948" fill="#ff1502" stroke="none" /><path d="M 84.31358615837235 86.03803664274999 l -18.020170035344165 -16.039163333636985 a45.12428835314735,45.12428835314735 0 0,0 0.5214140729317399,-0.575758442412889 l 17.74141232179638 16.34697456331943" fill="#deff1b" stroke="none" /><path d="M 84.5562425177563 85.77008943001954 l -5.143774101981609 -4.739484257476559 a27.994363662198644,27.994363662198644 0 0,0 0.3295772141875393,-0.35156999298855107 l 5.061429565823613 4.827323667343161" fill="#ff3b05" stroke="none" /><path d="M 84.80347519578584 85.50635884689758 l -10.105152765418666 -9.637759939604322 a34.964258987353766,34.964258987353766 0 0,0 0.41913111810744574,-0.43195145987514016 l 9.937757383608101 9.810275595029585" fill="#ff9d0e" stroke="none" /><path d="M 85.05521093208273 85.24692304244772 l -10.61686649324481 -10.480673076821642 a35.918524132051346,35.918524132051346 0 0,0 0.43814476159323734,-0.4362632287450093 l 10.43488593148426 10.66187215621676" fill="#ffaa0f" stroke="none" /><path d="M 85.31137513191541 84.99185889309783 l -11.535437045907742 -11.786363153091127 a37.49195756169185,37.49195756169185 0 0,0 0.46510872259964187,-0.4474342226356927 l 11.330845079695672 11.983180462489132" fill="#ffbf11" stroke="none" /><path d="M 86.37877921826538 84.01681056812374 l -8.81027760125837 -10.338011409165075 a34.58291100269976,34.58291100269976 0 0,0 0.45639967306724255,-0.38222160084187645 l 8.631020391232017 10.488134167400764" fill="#ff980e" stroke="none" /><path d="M 87.22198572758235 83.33499621200491 l -8.363114413894234 -10.907119871342427 a34.74434234831621,34.74434234831621 0 0,0 0.4777410708672171,-0.3598246699660944 l 8.174127189268626 11.049461130814375" fill="#ff9a0e" stroke="none" /><path d="M 87.51073957382395 83.11751280151077 l -19.21730008464232 -25.977184524755376 a53.31282622081182,53.31282622081182 0 0,0 0.742456463175873,-0.5394261956897195 l 18.767298305112664 26.304129955261764" fill="#7fff26" stroke="none" /><path d="M 88.39885842347998 82.49532879139004 l -7.866170722634763 -11.869067476014665 a35.239080187562166,35.239080187562166 0 0,0 0.5085049179934744,-0.3307457436474723 l 7.660698778857001 12.002712143821672" fill="#ffa10e" stroke="none" /><path d="M 88.70189139769569 82.29822771554957 l -9.596462434328775 -15.035648773470273 a38.83711931037749,38.83711931037749 0 0,0 0.5666166444635149,-0.3548152907815438 l 9.336226637493018 15.198608405574745" fill="#ffd113" stroke="none" /><line stroke="#e1ed5e" stroke-width="0.3" x1="56.762969772571076" x2="54.21961505331055" y1="26.818313649435495" y2="22.513508569990535" /><path d="M 56.25429882871897 25.957352633546506 a86.0,86.0 0 0,1 42.265352541879196,-11.944610805530505" fill="none" id="id36" stroke="none" /><text fill="#e1ed5e" style="font-size:6.75px; font-family:Arial;" text-anchor="middle"><textPath startOffset="22.20632615414155" xlink:href="#id36">December</textPath></text><path d="M 89.3179101791058 81.91981866633112 l -9.192375177374057 -15.558735498455754 a39.07135887841614,39.07135887841614 0 0,0 0.5819832725804139,-0.33712227589954635 l 8.923195172328322 15.714661931745347" fill="#ffd413" stroke="none" /><path d="M 90.26544431104013 81.39251694778311 l -10.880589489010966 -20.798112516271754 a44.47229668924359,44.47229668924359 0 0,0 0.6813569072669081,-0.34901747194796534 l 10.520972094155294 20.982322513532225" fill="#e6ff1a" stroke="none" /><path d="M 90.91171255644093 81.06846463323043 l -7.3183678924918665 -15.244669740494453 a37.91030644626534,37.91030644626534 0 0,0 0.5907180135965203,-0.27735002804736225 l 7.054871667595737 15.368384751181823" fill="#ffc512" stroke="none" /><path d="M 91.23893434514133 80.91482961587045 l -7.205502408500094 -15.696519874065306 a38.27136361483446,38.27136361483446 0 0,0 0.601075241468213,-0.26968493992404496 l 6.934245048565106 15.81822514450588" fill="#ffca12" stroke="none" /><path d="M 91.56875222667455 80.76684994638697 l -18.558728580420485 -42.33570417901721 a67.22486619618246,67.22486619618246 0 0,0 1.0638054722554615,-0.45546598547768474 l 17.827239350374715 42.648889692457686" fill="#37ff7c" stroke="none" /><path d="M 93.25333710446033 80.11325718540243 l -7.397618561930226 -21.805526681770253 a44.0261971297305,44.0261971297305 0 0,0 0.7197595117132578,-0.2372933946734763 l 7.02117622797456 21.929633800702963" fill="#ebff1a" stroke="none" /><path d="M 95.692805502759 79.44645832069477 l -3.4959820594619524 -16.682509465333293 a38.04488230000474,38.04488230000474 0 0,0 0.6421135349995651,-0.12880193443040416 l 3.208302114995251 16.74021535584091" fill="#ffc712" stroke="none" /><path d="M 96.04723909329186 79.375362276772 l -3.1921825339756147 -16.65610692463881 a37.95924312035239,37.95924312035239 0 0,0 0.642785335849464,-0.11746491154602279 l 2.9050020770232576 16.708587317535567" fill="#ffc512" stroke="none" /><path d="M 96.40284397218896 79.31037775812273 l -2.7322404509066285 -15.714921000419878 a36.950670203192345,36.950670203192345 0 0,0 0.6275821369082303,-0.10355642992110675 l 2.4613291078595125 15.759623693280611" fill="#ffb811" stroke="none" /><path d="M 98.55514903715128 79.0497635885617 l -1.2205237020985569 -17.69750705243225 a38.73954435655757,38.73954435655757 0 0,0 0.6656522768812753,-0.04015396315899331 l 0.9157093763776586 17.71589428497155" fill="#ffd013" stroke="none" /><path d="M 99.27714615592234 79.0124445844662 l -0.6160571787135992 -17.88678898690335 a38.89739496992374,38.89739496992374 0 0,0 0.669356309639768,-0.01728749868452537 l 0.30807423387895216 17.894743277730235" fill="#ffd213" stroke="none" /></svg>