<?xml version="1.0" encoding="utf-8" ?>
<svg baseProfile="full" height="200mm" version="1.1" viewBox="0,0,200,200" width="200mm" xmlns="http://www.w3.org/2000/svg" xmlns:ev="http://www.w3.org/2001/xml-events" xmlns:xlink="http://www.w3.org/1999/xlink"><defs /><rect fill="#1a1a1a" height="200" width="200" x="0" y="0" /><rect fill="#1a1a1a" height="200" width="180" x="10" y="0" /><text alignment-baseline="middle" fill="#e1ed5e" style="dominant-baseline: central; font-size:9.0px; font-family:Arial;" text-anchor="middle" x="100.0" y="100.0">2025</text><line stroke="#e1ed5e" stroke-width="0.3" x1="100.0" x2="100.0" y1="15.0" y2="10.0" /><path d="M 100.0 14.0 a86.0,86.0 0 0,1 42.46469731375804,11.215312516191453" fill="none" id="id13" stroke="none" /><text fill="#e1ed5e" style="font-size:6.75px; font-family:Arial;" text-anchor="middle"><textPath startOffset="22.20632615414155" xlink:href="#id13">January</textPath></text><line stroke="#e1ed5e" stroke-width="0.3" x1="143.23703022742887" x2="145.7803849466894" y1="26.81831364943548" y2="22.513508569990506" /><path d="M 143.74570117128098 25.957352633546492 a86.0,86.0 0 0,1 28.547481713284135,27.462654790039103" fill="none" id="id14" stroke="none" /><text fill="#e1ed5e" style="font-size:6.75px; font-family:Arial;" text-anchor="middle"><textPath startOffset="19.985693538727396" xlink:href="#id14">February</textPath></text><path d="M 110.99172775467656 82.1063720568725 l 3.485901411562965 -5.674760537841043 a27.659911096476787,27.659911096476787 0 0,0 0.4035460479545905,0.25270049820777896 l -3.583066611889819 5.61391569831032" fill="#ff5708" stroke="none" /><path d="M 117.2510076193507 88.02491185347247 l 6.440584454791172 -4.470844153750491 a28.840253539677313,28.840253539677313 0 0,0 0.2795795249804292,0.410248454607384 l -6.516588445440335 4.3593176758727" fill="#ff6709" stroke="none" /><path d="M 117.45458315368197 88.32363383020206 l 6.386842902241661 -4.272523482167337 a28.684153770167928,28.684153770167928 0 0,0 0.27100155332914194,0.4127539580681641 l -6.459441090928728 4.161951460121498" fill="#ff6509" stroke="none" /><path d="M 117.65298651832404 88.62581576622439 l 6.422385513367216 -4.138075785281091 a28.640072439907804,28.640072439907804 0 0,0 0.26345103032890227,0.4167162620785411 l -6.4926641399420735 4.026911875488344" fill="#ff6409" stroke="none" /><line stroke="#e1ed5e" stroke-width="0.3" x1="172.23445277983987" x2="176.4835382374775" y1="55.19839476539836" y2="52.563006222186495" /><path d="M 173.08426987136738 54.67131705675599 a86.0,86.0 0 0,1 12.851231095245387,41.99856678651699" fill="none" id="id15" stroke="none" /><text fill="#e1ed5e" style="font-size:6.75px; font-family:Arial;" text-anchor="middle"><textPath startOffset="22.20632615414155" xlink:href="#id15">March</textPath></text><path d="M 117.84615892207809 88.93136811851018 l 9.267427473167384 -5.74788914728271 a31.905202502469542,31.905202502469542 0 0,0 0.2854515953663267,0.4692073683388889 l -9.364994866819936 5.58751400573674" fill="#ff900d" stroke="none" /><path d="M 118.03404312379186 89.2402003453031 l 9.711929002317975 -5.794508175913121 a32.309194929206456,32.309194929206456 0 0,0 0.28084433142757126,0.48005399943731164 l -9.810233008215873 5.626474764121914" fill="#ff950d" stroke="none" /><path d="M 118.21658344932153 89.55222093294921 l 6.011112645287314 -3.4475606822670244 a27.92958511689167,27.92958511689167 0 0,0 0.23559583739666423,0.41909870623868195 l -6.069566123976411 3.3435784660935486" fill="#ff5a08" stroke="none" /><path d="M 118.3937258080291 89.86733742301442 l 6.376178691981507 -3.5124839790865994 a28.279642739545604,28.279642739545604 0 0,0 0.23120883882739646,0.4283948638101724 l -6.435695630027368 3.402208131943968" fill="#ff5f08" stroke="none" /><path d="M 119.04729006885535 91.15688171328212 l 10.423170084847689 -4.839183193498062 a32.49174349687191,32.49174349687191 0 0,0 0.23115196172637628,0.5093127073104413 l -10.504924363537413 4.659048477345558" fill="#ff970e" stroke="none" /><path d="M 119.196687751892 91.48605970444005 l 10.454198838608557 -4.636551154042341 a32.436252881132695,32.436252881132695 0 0,0 0.2219709941386134,0.5123396584322374 l -10.53246054258985 4.4559123510235015" fill="#ff970d" stroke="none" /><path d="M 119.34039704204932 91.81776055985345 l 7.432233743118114 -3.144315803295696 a29.069995060915375,29.069995060915375 0 0,0 0.19100137527293698,0.46252498031660505 l -7.485256805277248 3.0159162525257877" fill="#ff6a09" stroke="none" /><path d="M 119.47837535516314 92.15188598940014 l 7.515080461978439 -3.027932627286832 a29.102148501810998,29.102148501810998 0 0,0 0.1832138925828582,0.466259372528808 l -7.566087904442997 2.89812424986224" fill="#ff6a09" stroke="none" /><path d="M 119.61058180528143 92.48833698450437 l 7.570446528979898 -2.899793783130419 a29.106815936779718,29.106815936779718 0 0,0 0.1751889513207964,0.4694192910730078 l -7.61924006880232 2.769051355028078" fill="#ff6a09" stroke="none" /><path d="M 119.7369772167798 92.82701384747503 l 7.626063850849608 -2.771531314020554 a29.1140763911755,29.1140763911755 0 0,0 0.16712439114400307,0.47248315897664167 l -7.672641322803421 2.639850528617298" fill="#ff6a09" stroke="none" /><path d="M 119.85752413597 93.16781622104841 l 6.29758787341439 -2.166749360124207 a27.659911096476787,27.659911096476787 0 0,0 0.1510266790644893,0.4515505473642758 l -6.333951846250649 2.0580257098376173" fill="#ff5708" stroke="none" /><path d="M 119.97218684219823 93.5106431181261 l 11.012158765864994 -3.5780672810733907 a32.57886894962134,32.57886894962134 0 0,0 0.168703492538361,0.5348361737332122 l -11.07211774217156 3.387980940913759" fill="#ff990e" stroke="none" /><path d="M 120.08093135843002 93.85539295169968 l 10.986325814487781 -3.361729285842406 a32.489150477444845,32.489150477444845 0 0,0 0.15903300366342152,0.5361802288120158 l -11.042564715262905 3.1721196702838608" fill="#ff970e" stroke="none" /><path d="M 120.45610955862082 95.25157060432595 l 7.417949771784366 -1.721911522375975 a28.61517945340797,28.61517945340797 0 0,0 0.10724643999653206,0.48076476159084114 l -7.446490598782936 1.5939685912351698" fill="#ff6409" stroke="none" /><path d="M 120.53481517161879 95.60439243477599 l 7.462211193209677 -1.59733368428395 a28.63125617385578,28.63125617385578 0 0,0 0.09901057058016659,0.4828107050373306 l -7.48860105970484 1.4686473230832078" fill="#ff6409" stroke="none" /><path d="M 120.6074358757038 95.95851677861258 l 11.291171709933494 -2.2143987874445896 a32.50626440566349,32.50626440566349 0 0,0 0.10295860215892452,0.5500089696728864 l -11.327616036002278 2.0197117403091407" fill="#ff980e" stroke="none" /><path d="M 120.67395015179393 96.31383870115 l 11.326084380162905 -2.019438646370305 a32.50470859400724,32.50470859400724 0 0,0 0.0934713735152241,0.5516733375979286 l -11.359167615198352 1.8241795204565383" fill="#ff980e" stroke="none" /><path d="M 120.73433829027371 96.67025291283417 l 7.43179583334786 -1.1934791543412462 a28.527016792887718,28.527016792887718 0 0,0 0.0736867875605849,0.48550386298019277 l -7.451238514347745 1.065376178968971" fill="#ff6209" stroke="none" /><path d="M 120.78858239683441 97.02765380044208 l 7.543134042394339 -1.0785153780895065 a28.61984688837669,28.61984688837669 0 0,0 0.06553127355929945,0.4882841044296694 l -7.560581315011474 0.9485129315951727" fill="#ff6409" stroke="none" /><path d="M 120.83666639777658 97.38593545837742 l 8.047879382480057 -1.0096469237152725 a29.110964767863024,29.110964767863024 0 0,0 0.058096678911719025,0.4977368658717057 l -8.064066414395363 0.8709663195187143" fill="#ff6a09" stroke="none" /><path d="M 120.87857604477298 97.74499172005257 l 8.04756704577256 -0.8691842912434841 a29.0943694435298,29.0943694435298 0 0,0 0.04949211918981054,0.49837888607442193 l -8.061336290644599 0.7305298744646271" fill="#ff6a09" stroke="none" /><path d="M 120.91429891909075 98.10471618934814 l 7.574805102421427 -0.6864397193040889 a28.605844583470528,28.605844583470528 0 0,0 0.04021915843363227,0.4907756042829506 l -7.585498744674554 0.5559501978133695" fill="#ff6409" stroke="none" /><path d="M 120.94382443527127 98.46500227214037 l 11.470312672892927 -0.8406728171899018 a32.50107836680935,32.50107836680935 0 0,0 0.036090759011103354,0.5583080677537257 l -11.483084022908445 0.6431056851831409" fill="#ff980e" stroke="none" /><path d="M 120.96714384426684 98.82574320788733 l 12.25614820860544 -0.6864008462950328 a33.27535396773131,33.27535396773131 0 0,0 0.027105773387670923,0.5721600352826701 l -12.266147590226607 0.47532970438936284" fill="#ffa20e" stroke="none" /><path d="M 120.98425023603335 99.18683210126433 l 7.612318336570923 -0.2949875662284557 a28.61803177477774,28.61803177477774 0 0,0 0.014838184478182774,0.4924071048651016 l -7.616268215504752 0.163910313938355" fill="#ff6409" stroke="none" /><line stroke="#e1ed5e" stroke-width="0.3" x1="184.98032266829074" x2="189.97916517819016" y1="98.17113171792111" y2="98.06355123074" /><path d="M 185.9800911702706 98.14961562048488 a86.0,86.0 0 0,1 -9.607161424134198,41.387399972396054" fill="none" id="id16" stroke="none" /><text fill="#e1ed5e" style="font-size:6.75px; font-family:Arial;" text-anchor="middle"><textPath startOffset="21.466115282336823" xlink:href="#id16">April</textPath></text><path d="M 120.99513854157772 99.54816195383933 l 7.617045941249212 -0.16392705143594904 a28.61880968060586,28.61880968060586 0 0,0 0.006360180051373373,0.49260295414320227 l -7.618739128418301 0.03278783923228404" fill="#ff6409" stroke="none" /><path d="M 120.99980553446 99.90962569577887 l 7.218899235421875 -0.03106709700588074 a28.218966084952257,28.218966084952257 0 0,0 -0.002090491525037275,0.48575660831437695 l -7.218364446607335 -0.0931989895121809" fill="#ff5e08" stroke="none" /><path d="M 120.99824983174949 100.27111621757518 l 7.310668244846995 0.09439075819990847 a28.31127757655581,28.31127757655581 0 0,0 -0.010485873442752626,0.48723733543620124 l -7.307960308719235 -0.22021790942622457" fill="#ff5f08" stroke="none" /><path d="M 120.9904718944345 100.63252640178507 l 11.432619138090704 0.3445102846074183 a32.437808692788934,32.437808692788934 0 0,0 -0.02162191127046408,0.5579654550877248 l -11.424995093969036 -0.5412529867091492" fill="#ff970d" stroke="none" /><path d="M 120.9764740272857 100.99374915477107 l 11.491302025369084 0.544394241857586 a32.50418999012183,32.50418999012183 0 0,0 -0.03128706148311453,0.5586515002400946 l -11.48022861299844 -0.7421174584331038" fill="#ff980e" stroke="none" /><path d="M 120.95626037817324 101.35467743843564 l 6.101604622785541 0.39442658048624163 a27.114339809022063,27.114339809022063 0 0,0 -0.03411686510947181,0.4654975184432136 l -6.093911199011732 -0.4993972354262255" fill="#ff4f07" stroke="none" /><path d="M 120.92983693683757 101.71520430193887 l 7.598523200735492 0.6227004883800628 a28.623995719459995,28.623995719459995 0 0,0 -0.04446997221479284,0.4907224377672213 l -7.586678632243625 -0.7534043146958546" fill="#ff6409" stroke="none" /><path d="M 120.89721153311464 102.0752229133903 l 8.082617559227238 0.8026541307915429 a29.122374053342114,29.122374053342114 0 0,0 -0.05383159693220113,0.4984137309627653 l -8.067603660793985 -0.9416641836390997" fill="#ff6b09" stroke="none" /><path d="M 120.8583938346157 102.4346265915055 l 7.800263199808667 0.9104597581947956 a28.853218636812645,28.853218636812645 0 0,0 -0.0618262520012992,0.4928160598423214 l -7.783435438560519 -1.0445935723245119" fill="#ff6709" stroke="none" /><path d="M 120.81339534386255 102.79330883721812 l 8.001883570462269 1.0739108983654493 a29.07362528811327,29.07362528811327 0 0,0 -0.07083712515495488,0.4954346883474386 l -7.9822123942907135 -1.2114910586932972" fill="#ff6a09" stroke="none" /><path d="M 120.76222939487914 103.15116336523771 l 7.536648251777954 1.143866076036278 a28.622958511689166,28.622958511689166 0 0,0 -0.07812465556569761,0.48648230478340637 l -7.515841841850968 -1.2734276105128892" fill="#ff6409" stroke="none" /><path d="M 120.64145759157962 103.86396538481128 l 11.356200005561682 2.125817110046734 a32.55345735923609,32.55345735923609 0 0,0 -0.10784505763599594,0.5498996254603805 l -11.317925014950022 -2.320980462575059" fill="#ff980e" stroke="none" /><path d="M 120.5718875245553 104.21870165774334 l 7.449265396095345 1.5276297927434277 a28.60428877181429,28.60428877181429 0 0,0 -0.10306528602490227,0.48148670410788547 l -7.421866071346 -1.6556303162674821" fill="#ff6309" stroke="none" /><path d="M 120.49622156327973 104.57218783832717 l 5.884143291236257 1.3126033162797162 a27.028770167928876,27.028770167928876 0 0,0 -0.105205541767603,0.45322272044999284 l -5.860677183538102 -1.413694694078274" fill="#ff4e07" stroke="none" /><path d="M 120.41448212921028 104.9243191809786 l 7.858096796542659 1.8955061674492955 a29.08347876193612,29.08347876193612 0 0,0 -0.12158097029704203,0.4856555397756232 l -7.824304511950556 -2.0304895466223147" fill="#ff6a09" stroke="none" /><path d="M 120.32669344350535 105.2749913415812 l 7.064312401147122 1.833263577957005 a28.29831247942048,28.29831247942048 0 0,0 -0.12641519666552034,0.4704379743998677 l -7.031709128139824 -1.9545924855324208" fill="#ff5f08" stroke="none" /><path d="M 120.23288151984713 105.62410040840565 l 7.34149806151911 2.040703999852758 a28.61984688837669,28.61984688837669 0 0,0 -0.13602245003106905,0.47351199302713953 l -7.305282974601942 -2.1667734683844797" fill="#ff6409" stroke="none" /><path d="M 120.13307415673323 105.97154293290107 l 7.777120825476319 2.306722289013137 a29.11200197563385,29.11200197563385 0 0,0 -0.14663192417955398,0.4792016122851355 l -7.736262128790632 -2.4402508738503297" fill="#ff6a09" stroke="none" /><path d="M 119.9155931802556 106.66101706037122 l 7.677864466668676 2.5679569640135456 a29.09592525518604,29.09592525518604 0 0,0 -0.16294988534287122,0.47360864195695246 l -7.632523750382574 -2.6997383090597986" fill="#ff6a09" stroke="none" /><path d="M 119.79798401119884 107.00284435728193 l 4.643269365023594 1.6423941272910711 a25.92518109976951,25.92518109976951 0 0,0 -0.15243480451749375,0.41943511388865257 l -4.614310299500873 -1.7220770381858548" fill="#ff3f05" stroke="none" /><path d="M 119.67450827220406 107.3425965602758 l 7.103909749289486 2.6512044198499924 a28.582507408626935,28.582507408626935 0 0,0 -0.17599436721411602,0.45946575723664385 l -7.057221102481863 -2.7730937439197803" fill="#ff6309" stroke="none" /><path d="M 119.54520255179757 107.68017299344265 l 4.423107654525208 1.7380342754365432 a25.75233042476128,25.75233042476128 0 0,0 -0.165670119865003,0.4111796509972954 l -4.392534920402813 -1.813913294276652" fill="#ff3c05" stroke="none" /><path d="M 119.41010516605496 108.01547362559984 l 7.040077738899798 2.90722574429992 a28.616735265064207,28.616735265064207 0 0,0 -0.19193519445541643,0.4536781029527299 l -6.988991563252073 -3.027978372918813" fill="#ff6409" stroke="none" /><path d="M 119.26925614724726 108.34839909993367 l 6.022514960476492 2.609252692017465 a27.563450773789924,27.563450773789924 0 0,0 -0.192365211736648,0.4337327695333712 l -5.976708664008572 -2.712533798043524" fill="#ff5507" stroke="none" /><path d="M 119.12269723197855 108.67885076344098 l 6.931111967576945 3.1456904672791404 a28.611549226210077,28.611549226210077 0 0,0 -0.20740019256027883,0.4467215635875327 l -6.875937158176835 -3.2645320981455037" fill="#ff6409" stroke="none" /><path d="M 118.97047184881838 109.00673069616215 l 6.8665674815969115 3.2600835976370273 a28.60117714850181,28.60117714850181 0 0,0 -0.21498107951793632,0.44292469909935145 l -6.8094331454642605 -3.377797252701654" fill="#ff6309" stroke="none" /><path d="M 118.64920377521936 109.65438752849418 l 7.205304405580513 3.7300681482538245 a29.11355778729009,29.11355778729009 0 0,0 -0.23422202689582347,0.4430598060114314 l -7.140029870459797 -3.8535429693513903" fill="#ff6a09" stroke="none" /><line stroke="#e1ed5e" stroke-width="0.3" x1="174.80103733775053" x2="179.2010983576182" y1="140.37084112569926" y2="142.7455964860345" /><path d="M 175.68104954172406 140.8457921977663 a86.0,86.0 0 0,1 -30.038265399797805,32.042727171017184" fill="none" id="id17" stroke="none" /><text fill="#e1ed5e" style="font-size:6.75px; font-family:Arial;" text-anchor="middle"><textPath startOffset="22.206326154141568" xlink:href="#id17">May</textPath></text><path d="M 118.30583269289576 110.29060199501025 l 11.000226216238863 6.183764035509982 a33.619188343760285,33.619188343760285 0 0,0 -0.2879211387905941,0.5020147744264136 l -10.89215308129589 -6.37219865579471" fill="#ffa60f" stroke="none" /><path d="M 117.94076556474637 110.91462005526583 l 12.32135389419484 7.495939670816822 a35.42237405334211,35.42237405334211 0 0,0 -0.32139118114617815,0.5181849171875353 l -12.190498073380699 -7.706920919369631" fill="#ffbd11" stroke="none" /><path d="M 117.75023020441432 111.22182372390056 l 9.889163485633537 6.252000573210317 a32.69970365492262,32.69970365492262 0 0,0 -0.30487823545931153,0.4731777918905002 l -9.780080386797174 -6.42129996502227" fill="#ff9a0e" stroke="none" /><path d="M 117.55443506779139 111.5257021239791 l 6.776260484309691 4.449084208921237 a29.106297332894304,29.106297332894304 0 0,0 -0.27858454175733177,0.41644609108022457 l -6.698672837141638 -4.565067214207269" fill="#ff6a09" stroke="none" /><path d="M 117.35343817320211 111.8261652097733 l 6.693101680665222 4.561270536209398 a29.09955548238393,29.09955548238393 0 0,0 -0.28564552233922424,0.41149367937940606 l -6.613595251163861 -4.675805477775824" fill="#ff6a09" stroke="none" /><path d="M 117.14729908036423 112.12312394758627 l 6.217236872684582 4.395580485638663 a28.61414224563714,28.61414224563714 0 0,0 -0.28780405076750054,0.3997346544624305 l -6.140653029541479 -4.501948745552225" fill="#ff6409" stroke="none" /><path d="M 116.93607887273984 112.41649034213515 l 6.485704027319147 4.754918893698294 a29.04199045110306,29.04199045110306 0 0,0 -0.29904777275236943,0.40062336129038173 l -6.402894987871686 -4.865855134497991" fill="#ff6909" stroke="none" /><path d="M 116.71984013943494 112.70617746262583 l 24.456688787426828 18.58576549116209 a51.71742673691142,51.71742673691142 0 0,0 -0.5447401059632763,0.7041500186627909 l -24.13314186424548 -19.00399350393813" fill="#82ff25" stroke="none" /><path d="M 116.498646956653 112.99209946851258 l 29.395650691018542 23.14803260671987 a58.41571452090879,58.41571452090879 0 0,0 -0.6288927003664118,0.7846403403803431 l -28.992840078597276 -23.650600780678463" fill="#3eff2d" stroke="none" /><path d="M 116.27256486870786 113.27417163493432 l 5.912936766829947 4.823415247853727 a28.630737569970364,28.630737569970364 0 0,0 -0.31480723004306516,0.379205588362719 l -5.829033536893339 -4.924482093330217" fill="#ff6409" stroke="none" /><path d="M 116.0416608686014 113.55231037782055 l 5.796944933081436 4.897373010174057 a28.588730655251894,28.588730655251894 0 0,0 -0.3208165962273146,0.37318217992892383 l -5.711785827283342 -4.996432289264509" fill="#ff6309" stroke="none" /><path d="M 115.80600337817218 113.82643327865902 l 5.742232030695362 5.023065359623466 a28.629181758314125,28.629181758314125 0 0,0 -0.3276557370200012,0.36812469399659103 l -5.654917444027023 -5.121164223360924" fill="#ff6409" stroke="none" /><path d="M 115.56566222782051 114.09645910891815 l 5.981273565975154 5.4167164241381265 a29.069476457029964,29.069476457029964 0 0,0 -0.3390796512301563,0.3680039923658836 l -5.887147506749275 -5.518871671305345" fill="#ff6a09" stroke="none" /><path d="M 115.32070863581623 114.36230785411682 l 5.889417615042365 5.520999770921528 a29.07258808034244,29.07258808034244 0 0,0 -0.3454009647858784,0.36215153068313394 l -5.7935100988775226 -5.62155841818717" fill="#ff6a09" stroke="none" /><path d="M 115.07121518719521 114.62390073753431 l 29.919612606229368 29.03159694984134 a62.68952914059928,62.68952914059928 0 0,0 -0.758123506481399,0.7679751094902523 l -29.415448474692433 -29.542312553312254" fill="#33ff50" stroke="none" /><path d="M 114.81725581225074 114.88116024355365 l 24.12024328390184 24.224269997719606 a55.184812314784324,55.184812314784324 0 0,0 -0.6789047090313042,0.6644511482871618 l -23.69968862249474 -24.63587124892934" fill="#5eff29" stroke="none" /><path d="M 114.55890576462653 115.13401014063108 l 5.610487902171575 5.832112809717793 a29.092658050707936,29.092658050707936 0 0,0 -0.3638856548687025,0.3440765992757509 l -5.509266412912065 -5.927824045739465" fill="#ff6a09" stroke="none" /><path d="M 114.29624159901734 115.38237550388516 l 5.509372328432638 5.9279380080209405 a29.09281363187356,29.09281363187356 0 0,0 -0.36975643169636263,0.33776373351424943 l -5.406516347269411 -6.021894508121773" fill="#ff6a09" stroke="none" /><path d="M 114.0293411484842 115.62618273729858 l 5.405476965722356 6.020736822538668 a29.091257820217322,29.091257820217322 0 0,0 -0.3754956140826637,0.33133122130151965 l -5.301038998733104 -6.112891185612476" fill="#ff6a09" stroke="none" /><path d="M 113.75828350139079 115.86535959552629 l 5.312251297602363 6.125820643959174 a29.108371748435957,29.108371748435957 0 0,0 -0.3813675232678128,0.32500967692055566 l -5.206018297757503 -6.216354711102676" fill="#ff6a09" stroke="none" /><path d="M 113.48314897796784 116.09983520530334 l 5.1940313032759375 6.202041390373562 a29.08970200856108,29.08970200856108 0 0,0 -0.3866573705868045,0.3181926924931725 l -5.086503804144442 -6.290529201723913" fill="#ff6a09" stroke="none" /><path d="M 113.20401910651253 116.32954008644616 l 12.856962529239775 15.900331809396258 a41.448032597958516,41.448032597958516 0 0,0 -0.5586454794504353,0.4438217553567086 l -12.581359557071988 -16.119287478758093" fill="#f6ff19" stroke="none" /><path d="M 112.92097659922987 116.55440617244103 l 13.949294032234118 17.87189052274693 a43.67128745472506,43.67128745472506 0 0,0 -0.5965732266887197,0.45742691103749433 l -13.639592077051903 -18.109356775611797" fill="#dcff1b" stroke="none" /><path d="M 112.63410532772338 116.77436683061366 l 7.118103614353321 9.450742895381211 a32.831480902206124,32.831480902206124 0 0,0 -0.45434865683795117,0.33611627438640895 l -6.954369987096806 -9.571869118507388" fill="#ff9c0e" stroke="none" /><path d="M 112.04921762599082 117.19931262002967 l 4.660095420825873 6.651920520471307 a29.121855449456703,29.121855449456703 0 0,0 -0.41303543583944036,0.28408953902854917 l -4.544903100363549 -6.731150848864951" fill="#ff6b09" stroke="none" /><path d="M 111.7513745106137 117.40417183066458 l 7.495419020253479 11.100961887777533 a34.39450115245308,34.39450115245308 0 0,0 -0.4935206391167417,0.3270785687486576 l -7.303223682396773 -11.228338477617509" fill="#ffb010" stroke="none" /><path d="M 111.45004920935366 117.60387380957326 l 17.17818421593953 26.41059280059397 a52.505704642739545,52.505704642739545 0 0,0 -0.7618782714757958,0.4862667598786472 l -16.721024142416805 -26.70237398929643" fill="#7aff26" stroke="none" /><line stroke="#e1ed5e" stroke-width="0.3" x1="143.8653032363475" x2="146.44561519142675" y1="172.8068346515853" y2="177.08958963109032" /><path d="M 144.38136562736335 173.6633856474863 a86.0,86.0 0 0,1 -40.68145358897372,12.25698825130547" fill="none" id="id18" stroke="none" /><text fill="#e1ed5e" style="font-size:6.75px; font-family:Arial;" text-anchor="middle"><textPath startOffset="21.466115282336833" xlink:href="#id18">June</textPath></text><path d="M 110.8373102113329 117.98757091392108 l 11.097626898826073 18.419639830012795 a42.50442871254528,42.50442871254528 0 0,0 -0.6299401828060872,0.3721797635953034 l -10.778918844991605 -18.607938165901846" fill="#eaff1a" stroke="none" /><path d="M 110.5260780823613 118.17145234162733 l 15.422593331243714 26.624438609534476 a51.76876852156734,51.76876852156734 0 0,0 -0.7749322009393194,0.4400267281814506 l -14.962012363383195 -26.885968503510554" fill="#82ff25" stroke="none" /><path d="M 110.21172684928248 118.3499491758327 l 5.03281444018268 9.043709311049385 a31.349777741191964,31.349777741191964 0 0,0 -0.473795443240111,0.2583510525412731 l -4.8763961850739195 -9.129001015350429" fill="#ff880c" stroke="none" /><path d="M 109.89434966115114 118.52300852407294 l 6.602963458880145 12.361272101914926 a35.01428465591044,35.01428465591044 0 0,0 -0.5340663769911926,0.279398286906 l -6.389206179362457 -12.473099807765642" fill="#ffb811" stroke="none" /><path d="M 109.57404056367764 118.69057910512821 l 3.6916958189314104 7.206981449147312 a29.097481066842278,29.097481066842278 0 0,0 -0.44774939538214015,0.22451084196957896 l -3.5670925158665097 -7.269460132026193" fill="#ff6a09" stroke="none" /><path d="M 108.92500713936063 119.00905698771935 l 1.8772049507557078 3.9981924192724483 a25.416949292064537,25.416949292064537 0 0,0 -0.3976324424952301,0.18253355170983462 l -1.8081045124930581 -4.029913041316357" fill="#ff3705" stroke="none" /><path d="M 108.59647513512805 119.15986991738527 l 15.863001688682202 35.35554329849018 a59.751119525847876,59.751119525847876 0 0,0 -0.9420171590981729,0.4129526392162081 l -15.252063854926275 -35.623360491000845" fill="#31ff2f" stroke="none" /><path d="M 108.2653958097858 119.30500536409082 l 6.9485661217499555 16.229362675445657 a38.6543134672374,38.6543134672374 0 0,0 -0.6139198454693011,0.2566185451965416 l -6.668174816783193 -16.346566263662172" fill="#ffe615" stroke="none" /><path d="M 107.93186726928326 119.44442032107085 l 4.0347530954732465 9.890916276920084 a31.68220283174185,31.68220283174185 0 0,0 -0.5067325807499424,0.20163935164901323 l -3.8638994386814374 -9.958902472975167" fill="#ff8d0d" stroke="none" /><path d="M 107.59598834532513 119.57807347666477 l 2.9814942071270405 7.684571118820631 a29.242690154757987,29.242690154757987 0 0,0 -0.47084877935257163,0.17803471942263835 l -2.848775207014194 -7.7347540883498995" fill="#ff6c0a" stroke="none" /><path d="M 107.2578585660854 119.70592522655815 l 3.7128714240152894 10.080875232173657 a31.742879486335198,31.742879486335198 0 0,0 -0.5143562370708342,0.18442984669523643 l -3.5387956263147204 -10.143292619908854" fill="#ff8e0d" stroke="none" /><path d="M 106.91757812671514 119.82793768551818 l 2.715041220807137 7.782155424002481 a29.24217155087257,29.24217155087257 0 0,0 -0.4766895426907443,0.16171897431100102 l -2.580681945179166 -7.827737385211605" fill="#ff6c0a" stroke="none" /><path d="M 106.57524785965236 119.94407469862006 l 12.654808199559124 38.38462753281831 a61.41687520579519,61.41687520579519 0 0,0 -1.006881865931845,0.32237177719004056 l -11.992204988536338 -38.59677215666805" fill="#31ff41" stroke="none" /><path d="M 106.2309692047433 120.05430185196036 l 9.811160598314945 31.577106175855917 a54.06618373394797,54.06618373394797 0 0,0 -0.8911266298491003,0.2684891435503232 l -9.266158994025599 -31.741310688511966" fill="#6aff28" stroke="none" /><path d="M 105.53697534728816 120.25689768951611 l 2.759248746224788 10.09464844006868 a31.464959664142242,31.464959664142242 0 0,0 -0.5236811485318309,0.13830895099114884 l -2.5850771548814597 -10.140648740363414" fill="#ff8a0c" stroke="none" /><path d="M 104.83641907484287 120.43548508189849 l 2.454355280572979 10.370470371916122 a31.656946822522226,31.656946822522226 0 0,0 -0.5313540898419402,0.12093446090763225 l -2.275481041338177 -10.411181566401439" fill="#ff8c0c" stroke="none" /><path d="M 104.48393922423573 120.51570834832081 l 1.2863162233555787 5.8853805019122625 a27.024310174514323,27.024310174514323 0 0,0 -0.45530627089162395,0.09541385592529139 l -1.184818491034577 -5.906650338564095" fill="#ff4e07" stroke="none" /><path d="M 104.13013068566511 120.58985236759428 l 6.6168549007632524 32.98686552882484 a54.64396032268686,54.64396032268686 0 0,0 -0.9238274086958407,0.17705372160432187 l -6.048059877495707 -33.09587644877764" fill="#64ff29" stroke="none" /><path d="M 103.7750983002368 120.6578951692458 l 7.732236017109752 42.31193689851734 a64.01264323345407,64.01264323345407 0 0,0 -1.0856270822089233,0.18875018388777007 l -7.00275996342878 -42.438765660926116" fill="#34ff5f" stroke="none" /><path d="M 103.41894727170886 120.7198165907248 l 1.3278253441355627 8.047008452766715 a29.155824003951267,29.155824003951267 0 0,0 -0.4958768905311105,0.07744577207763265 l -1.189112589995935 -8.068672532191453" fill="#ff6b09" stroke="none" /><path d="M 102.34483914955558 120.86867818915974 l 0.9059286440353315 8.062614161955757 a29.113350345735924,29.113350345735924 0 0,0 -0.4984862756156022,0.05167014065496868 l -0.7670097718141266 -8.077013671066485" fill="#ff6a09" stroke="none" /><path d="M 101.98527174616119 120.90594882070398 l 0.6673327224120772 7.027362258141559 a28.05897678630227,28.05897678630227 0 0,0 -0.4812190441878542,0.04152160399666519 l -0.5462693604826813 -7.037808114416888" fill="#ff5c08" stroke="none" /><path d="M 101.62511606390274 120.93702456842531 l 2.605389605346596 33.56628328838335 a54.66724563714192,54.66724563714192 0 0,0 -0.9388116448761393,0.06474594760621938 l -2.0272151996915264 -33.60615758050586" fill="#64ff29" stroke="none" /><path d="M 100.90346689309514 120.98055641714683 l 0.35328024659043006 8.203970949352227 a29.21157392163319,29.21157392163319 0 0,0 -0.5025498644494065,0.017308833457044946 l -0.21201003046637126 -8.208836581235365" fill="#ff6c09" stroke="none" /><line stroke="#e1ed5e" stroke-width="0.3" x1="102.19456741930631" x2="102.32365962044197" y1="184.97166512339345" y2="189.96999836594603" /><path d="M 102.22038585953345 185.97133177190398 a86.0,86.0 0 0,1 -42.740103519485714,-10.115201625700543" fill="none" id="id19" stroke="none" /><text fill="#e1ed5e" style="font-size:6.75px; font-family:Arial;" text-anchor="middle"><textPath startOffset="22.20632615414155" xlink:href="#id19">July</textPath></text><path d="M 100.54218724476979 120.99299961872073 l 0.20752855028466774 8.035317722845859 a29.03799720118538,29.03799720118538 0 0,0 -0.49978584349010874,0.008604266540574963 l -0.06918301690189103 -8.037699466665593" fill="#ff6909" stroke="none" /><path d="M 100.18074693466247 120.99922214144158 l 0.0705430825338877 8.195712217402273 a29.196015805070793,29.196015805070793 0 0,0 -0.5025800343926806,0.0 l 0.07054308253388207 -8.195712217402273" fill="#ff6c09" stroke="none" /><path d="M 99.81925306533755 120.99922214144158 l -0.06867014673084379 7.978114087408473 a28.9784096147514,28.9784096147514 0 0,0 -0.49876025512252564,-0.008586610106743274 l 0.20599009174603736 -7.97575000002257" fill="#ff6909" stroke="none" /><path d="M 99.45781275523022 120.99299961872073 l -0.04972876425111043 1.925452763844144 a22.926094830424763,22.926094830424763 0 0,0 -0.394415784657602,-0.013584477108450692 l 0.0828649005833555 -1.9243114883095995" fill="#ff1402" stroke="none" /><path d="M 98.73552117531835 120.96189622390904 l -0.7090522332721564 11.754312560294466 a32.775679124135664,32.775679124135664 0 0,0 -0.5628633539487591,-0.038818352353346984 l 0.9112783479998456 -11.740365863424834" fill="#ff9b0e" stroke="none" /><path d="M 97.65516085044442 120.86867818915974 l -0.9219398728347725 8.20511143358819 a29.256744320052682,29.256744320052682 0 0,0 -0.4999734870125683,-0.060539826459311906 l 1.0630407828987303 -8.18802607840353" fill="#ff6c0a" stroke="none" /><path d="M 97.2962882734958 120.8252237178851 l -1.3922401645999882 10.72367020958547 a31.813668916694105,31.813668916694105 0 0,0 -0.5424554880245895,-0.07517938777454068 l 1.5766242438114089 -10.698116256318324" fill="#ff8e0d" stroke="none" /><path d="M 96.58105272829116 120.7198165907248 l -1.88741762680031 11.438300725198726 a32.59297497530458,32.59297497530458 0 0,0 -0.5527629314400221,-0.09610492098572063 l 2.084029529712382 -11.404117225691998" fill="#ff990e" stroke="none" /><line stroke="#e1ed5e" stroke-width="0.3" x1="58.666819895761336" x2="56.23545636021788" y1="174.27360380694188" y2="178.64263932499728" /><path d="M 58.180547188652646 175.14741091055294 a86.0,86.0 0 0,1 -31.652253787137756,-30.449443065178592" fill="none" id="id20" stroke="none" /><text fill="#e1ed5e" style="font-size:6.75px; font-family:Arial;" text-anchor="middle"><textPath startOffset="22.20632615414155" xlink:href="#id20">August</textPath></text><line stroke="#e1ed5e" stroke-width="0.3" x1="26.63291911575756" x2="22.317208475507996" y1="142.92168965132927" y2="145.44649492493687" /><path d="M 25.769776987707644 143.4266507060508 a86.0,86.0 0 0,1 -11.730757126820373,-40.83630448921669" fill="none" id="id21" stroke="none" /><text fill="#e1ed5e" style="font-size:6.75px; font-family:Arial;" text-anchor="middle"><textPath startOffset="21.46611528233685" xlink:href="#id21">September</textPath></text><path d="M 81.87401531095188 110.60418214915194 l -6.626563373590596 3.876715458052369 a28.677256338491933,28.677256338491933 0 0,0 -0.2455974908716363,-0.4282199268088164 l 6.692312860614609 -3.7620756853852453" fill="#ff6409" stroke="none" /><path d="M 81.69416730710424 110.29060199501025 l -6.74036793178488 3.7890897862759996 a28.73238393151136,28.73238393151136 0 0,0 -0.2386478843024649,-0.4332152299728179 l 6.804592225538862 -3.6725040379053593" fill="#ff6509" stroke="none" /><path d="M 81.51974371655577 109.97397251340807 l -6.808653987497766 3.674696210000419 a28.736999506091536,28.736999506091536 0 0,0 -0.23119257084270728,-0.43732921683925063 l 6.870899066565359 -3.5569519780750416" fill="#ff6509" stroke="none" /><path d="M 81.35079622478065 109.6543875284942 l -6.898716285235672 3.5713524968449057 a28.768323180770494,28.768323180770494 0 0,0 -0.22387417343905203,-0.4417249831435935 l 6.9591691284609904 -3.4520733019986274" fill="#ff6609" stroke="none" /><path d="M 79.86692584326677 105.97154293290107 l -7.261032638745439 2.1536486580199368 a28.57369114257491,28.57369114257491 0 0,0 -0.1358030841605374,-0.4727483516537234 l 7.297028359792081 -2.028342830861617" fill="#ff6309" stroke="none" /><path d="M 79.76711848015287 105.62410040840567 l -1.1542136066228215 0.3208348356128684 a22.197974975304575,22.197974975304575 0 0,0 -0.0991635587500221,-0.36902449185815805 l 1.1595652417146185 -0.3009194105791714" fill="#ff0a01" stroke="none" /><path d="M 79.4281124754447 104.21870165774334 l -10.525395926911502 2.1584555715786924 a31.744435297991437,31.744435297991437 0 0,0 -0.10516488053956591,-0.5362334601877113 l 10.560990740426735 -1.9769583843230263" fill="#ff8e0d" stroke="none" /><path d="M 79.18660465613746 102.79330883721812 l -7.714303029758668 1.035315500906854 a28.783466414224563,28.783466414224563 0 0,0 -0.06167678796591151,-0.4916246844212865 l 7.730981326971428 -0.9023730621981588" fill="#ff6609" stroke="none" /><path d="M 79.1416061653843 102.43462659150553 l -7.645679630749523 0.8924165056402075 a28.697585610800132,28.697585610800132 0 0,0 -0.053046391708942445,-0.4911437057879962 l 7.659908323959518 -0.7606764779674292" fill="#ff6509" stroke="none" /><path d="M 79.10278846688536 102.07522291339032 l -10.575162224615546 1.050179299116801 a31.62717895949951,31.62717895949951 0 0,0 -0.0491356896271838,-0.5422082406250008 l 10.591672510519805 -0.8679896699432341" fill="#ff8c0c" stroke="none" /><path d="M 79.07016306316243 101.71520430193888 l -13.74748118029809 1.126608818426557 a34.793566842278565,34.793566842278565 0 0,0 -0.04377932249121307,-0.5973340725589047 l 13.764837061453639 -0.8898016093708916" fill="#ffb510" stroke="none" /><path d="M 79.0235259727143 100.99374915477108 l -7.3619342678508435 0.34876766927752706 a28.370190977938755,28.370190977938755 0 0,0 -0.0189105792521546,-0.48799802322808133 l 7.366846979954199 -0.22199239903544896" fill="#ff6008" stroke="none" /><line stroke="#e1ed5e" stroke-width="0.3" x1="15.007084014347285" x2="10.007500721073583" y1="101.09737516637583" y2="101.16192664675087" /><path d="M 14.007167355692545 101.11028546245083 a86.0,86.0 0 0,1 10.666146001902534,-42.60595125391555" fill="none" id="id22" stroke="none" /><text fill="#e1ed5e" style="font-size:6.75px; font-family:Arial;" text-anchor="middle"><textPath startOffset="22.20632615414155" xlink:href="#id22">October</textPath></text><path d="M 79.03285615573316 98.82574320788736 l -18.51180638213505 -1.0367465659582484 a39.54081494896279,39.54081494896279 0 0,0 0.043908020753032226,-0.679237646899397 l 18.491217770377602 1.355243277110657" fill="#fff116" stroke="none" /><path d="M 79.12142395522702 97.74499172005258 l -62.635728134318974 -6.7650248398422725 a84.0,84.0 0 0,0 0.16763858798564435,-1.436225046700553 l 62.50999919332974 7.842193624867687" fill="#4dd2ff" stroke="none" /><path d="M 79.21141760316559 97.0276538004421 l -2.5253301813474267 -0.36107106410006556 a23.55101251234771,23.55101251234771 0 0,0 0.06083350630152933,-0.4008167988560961 l 2.5187407816065948 0.40448697534825373" fill="#ff1d02" stroke="none" /><path d="M 79.32604984820605 96.31383870115002 l -2.363344960141279 -0.4213839476220756 a23.400617385577874,23.400617385577874 0 0,0 0.07411786311733423,-0.39594058847648933 l 2.3557413731140833 0.4620026135611376" fill="#ff1b02" stroke="none" /><path d="M 79.3925641242962 95.95851677861259 l -13.850476822353178 -2.716323856271315 a35.11432334540665,35.11432334540665 0 0,0 0.12142985165771307,-0.5921350816170595 l 13.801667674780472 2.954334594051777" fill="#ffb911" stroke="none" /><path d="M 79.46518482838121 95.60439243477599 l -7.333860146454572 -1.569859327811485 a28.499997530457687,28.499997530457687 0 0,0 0.10681475124167082,-0.478829585548463 l 7.305751008210864 1.6958670829099072" fill="#ff6209" stroke="none" /><path d="M 79.54389044137918 95.25157060432595 l -13.67905502045608 -3.1752874014503263 a35.04275600921962,35.04275600921962 0 0,0 0.14145125228785968,-0.586406761190295 l 13.622370967907406 3.410279394300018" fill="#ffb811" stroke="none" /><path d="M 79.62865764111835 94.90015583598534 l -13.470944213297019 -3.372370608655425 a34.88665623971024,34.88665623971024 0 0,0 0.15084935025453905,-0.5812840818534594 l 13.410898531172172 3.6037511160577482" fill="#ffb610" stroke="none" /><path d="M 79.71946130924805 94.55025226153421 l -13.432935336466697 -3.60967280441367 a34.90947481066842,34.90947481066842 0 0,0 0.1609380473453853,-0.5789797847684267 l 13.36881051855495 3.8403638926010393" fill="#ffb710" stroke="none" /><path d="M 80.52162464483688 92.15188598940014 l -2.10978319824857 -0.8500616080957593 a23.274596641422455,23.274596641422455 0 0,0 0.1529233134755996,-0.3703159333495808 l 2.094838197886771 0.8862521118986513" fill="#ff1902" stroke="none" /><path d="M 80.65960295795068 91.81776055985345 l -10.811390206877556 -4.573917648184651 a32.739117550214026,32.739117550214026 0 0,0 0.22404358778658526,-0.5171234903278987 l 10.73105590924829 4.7593402830991485" fill="#ff9b0e" stroke="none" /><path d="M 80.95270993114464 91.15688171328213 l -12.327742298104077 -5.723422227320595 a34.591570628910105,34.591570628910105 0 0,0 0.25538759943604006,-0.5379114163703238 l 12.227396504826286 5.93477605933145" fill="#ffb310" stroke="none" /><line stroke="#e1ed5e" stroke-width="0.3" x1="26.266209847984243" x2="21.928928074336255" y1="57.711370442889674" y2="55.22380399835377" /><path d="M 25.398753493254645 57.213857153982495 a86.0,86.0 0 0,1 29.58750427330803,-30.492523968695096" fill="none" id="id23" stroke="none" /><text fill="#e1ed5e" style="font-size:6.75px; font-family:Arial;" text-anchor="middle"><textPath startOffset="21.46611528233685" xlink:href="#id23">November</textPath></text><path d="M 82.34701348167596 88.62581576622439 l -11.718281468864427 -7.550331055413769 a34.9400724399078,34.9400724399078 0 0,0 0.3301060920436052,-0.5027742254596143 l 11.586578741462903 7.750923344851049" fill="#ffb711" stroke="none" /><path d="M 82.54541684631803 88.32363383020206 l -11.622786800029978 -7.775144980303711 a34.98363516628252,34.98363516628252 0 0,0 0.3391339153250385,-0.49763717381231004 l 11.4872284190362 7.974060177386438" fill="#ffb811" stroke="none" /><path d="M 83.6137871275137 86.86637796730984 l -13.178707473286003 -10.562792280341302 a37.88937273625288,37.88937273625288 0 0,0 0.41227518116730494,-0.5054006241449698 l 12.994933800042306 10.788077074094353" fill="#ffdc14" stroke="none" /><path d="M 84.31358615837235 86.03803664274999 l -11.952690955303458 -10.638698865359302 a37.00152288442542,37.00152288442542 0 0,0 0.42755499213317955,-0.4721169011268347 l 11.767792322554234 10.842868553755693" fill="#ffd113" stroke="none" /><path d="M 85.31137513191541 84.99185889309783 l -9.725833304982318 -9.937395769466445 a34.904807375699704,34.904807375699704 0 0,0 0.4330136761833477,-0.41655881341209 l 9.553336385186544 10.10333766964085" fill="#ffb710" stroke="none" /><path d="M 86.10567301691215 84.25364557470407 l -11.37669506382764 -12.893137816721572 a38.19483042476128,38.19483042476128 0 0,0 0.4967259546970093,-0.4307558530944058 l 11.153075310483858 13.08705866323566" fill="#ffe015" stroke="none" /><path d="M 86.37877921826538 84.01681056812374 l -11.013140477296458 -12.922858626925303 a37.97909120842937,37.97909120842937 0 0,0 0.5012199467408911,-0.41975729108149007 l 10.789062993596458 13.110517075400605" fill="#ffdd14" stroke="none" /><path d="M 87.22198572758235 83.33499621200491 l -10.579255453324121 -13.797396719487063 a38.38645456042147,38.38645456042147 0 0,0 0.5278207808524044,-0.39754366926566725 l 10.340188518713328 13.977456978258584" fill="#ffe215" stroke="none" /><path d="M 87.51073957382395 83.11751280151077 l -0.718327811966514 -0.9710070633507113 a22.20782844912743,22.20782844912743 0 0,0 0.3092754020742404,-0.22470173247289374 l 0.7015070935384918 0.983228030640273" fill="#ff0a01" stroke="none" /><path d="M 87.80319425747018 82.90503203632743 l -9.939472983974527 -13.931104243494351 a38.113409614751404,38.113409614751404 0 0,0 0.537342559581934,-0.37644280228790117 l 9.698199284808933 14.100131888546194" fill="#ffdf14" stroke="none" /><path d="M 88.09926311788651 82.69761687909137 l -9.839856063962173 -14.306085510482589 a38.36337668752058,38.36337668752058 0 0,0 0.547308931537846,-0.3695454337087855 l 9.592142438017788 14.47334285649004" fill="#ffe215" stroke="none" /><path d="M 88.39885842347998 82.49532879139004 l -9.490150182471826 -14.319449303223696 a38.178753704313465,38.178753704313465 0 0,0 0.5509248231841559,-0.3583368299699201 l 9.242258333503383 14.480685057353151" fill="#ffe015" stroke="none" /><path d="M 88.70189139769569 82.29822771554957 l -0.4006606178690071 -0.6277513582598981 a21.744715179453408,21.744715179453408 0 0,0 0.31724591752881454,-0.19865936445234814 l 0.38979554796795024 0.6345550640351766" fill="#ff0300" stroke="none" /><line stroke="#e1ed5e" stroke-width="0.3" x1="56.762969772571076" x2="54.21961505331055" y1="26.818313649435495" y2="22.513508569990535" /><path d="M 56.25429882871897 25.957352633546506 a86.0,86.0 0 0,1 42.265352541879196,-11.944610805530505" fill="none" id="id24" stroke="none" /><text fill="#e1ed5e" style="font-size:6.75px; font-family:Arial;" text-anchor="middle"><textPath startOffset="22.20632615414155" xlink:href="#id24">December</textPath></text><path d="M 89.3179101791058 81.91981866633112 l -8.767614519770493 -14.839798488783803 a38.23631873559434,38.23631873559434 0 0,0 0.5695450209043528,-0.32991723769517817 l 8.51087276640082 14.98851988386903" fill="#ffe115" stroke="none" /><path d="M 89.63071344664047 81.73862282372117 l -0.6102241485838594 -1.0746673150577655 a22.235833058939743,22.235833058939743 0 0,0 0.3344649534635483,-0.18612938448494418 l 0.5916351060482655 1.0850120971028943" fill="#ff0a01" stroke="none" /><path d="M 89.94658935756843 81.56283822128135 l -4.642957666054811 -8.514817972270762 a30.69841126111294,30.69841126111294 0 0,0 0.4661114521103388,-0.2489805952555139 l 4.495701167416167 8.593477294028025" fill="#ff800b" stroke="none" /><path d="M 90.26544431104013 81.39251694778311 l -4.29614598111211 -8.212030018386471 a30.26791817583141,30.26791817583141 0 0,0 0.46373263026643785,-0.23754186469554756 l 4.154152863256908 8.284764408394524" fill="#ff7a0b" stroke="none" /><path d="M 90.91171255644093 81.06846463323043 l -1.0380308551150979 -2.162290526950344 a23.39854297003622,23.39854297003622 0 0,0 0.3645958611256297,-0.17118264549524015 l 1.0006567826898598 2.1798381550855916" fill="#ff1b02" stroke="none" /><path d="M 91.56875222667455 80.76684994638697 l -3.8454901660902467 -8.772235306392302 a30.57809515969707,30.57809515969707 0 0,0 0.4838856036857569,-0.20717456253907346 l 3.693920804614182 8.837129396894163" fill="#ff7e0b" stroke="none" /><path d="M 91.90106846888425 80.62456947434976 l -0.3132102431114736 -0.7493066563179519 a21.81213368455713,21.81213368455713 0 0,0 0.3476606182340906,-0.14181949541594194 l 0.3002657552890025 0.7545870379174707" fill="#ff0400" stroke="none" /><path d="M 92.57280143429618 80.3572730644239 l -10.272773057342519 -27.168423497965403 a50.04570711228186,50.04570711228186 0 0,0 0.8083994462712111,-0.2977403384252565 l 9.803591285298738 27.34122710419698" fill="#94ff23" stroke="none" /><path d="M 92.91201910852362 80.23233633223022 l -2.065305067629153 -5.759927484755079 a27.11900724399078,27.11900724399078 0 0,0 0.44077167639581816,-0.1537765831157659 l 1.9658513871700494 5.794624921043055" fill="#ff4f07" stroke="none" /><path d="M 93.25333710446033 80.11325718540243 l -0.5629809167935919 -1.6594658537337457 a22.752362528811325,22.752362528811325 0 0,0 0.3719655662242411,-0.12263119899713873 l 0.5343325283269414 1.6689107769901184" fill="#ff1202" stroke="none" /><path d="M 93.59665428221793 80.00007090966166 l -1.352198120664008 -4.223396287079764 a25.43458182416859,25.43458182416859 0 0,0 0.41811379450899205,-0.12990999122760466 l 1.2792989534442873 4.246046413189894" fill="#ff3805" stroke="none" /><path d="M 94.28887869178378 79.79150937346287 l -0.16981042282908326 -0.6008649007495238 a21.624399078037538,21.624399078037538 0 0,0 0.35907017156096566,-0.09814744184192448 l 0.15944236204439513 0.6036988834177442" fill="#ff0100" stroke="none" /><path d="M 95.692805502759 79.44645832069477 l -0.10785714241527114 -0.5146845059964315 a21.525864339809022,21.525864339809022 0 0,0 0.3633090184419924,-0.07287637126566986 l 0.0989817145061423 0.5164648333393119" fill="#ff0000" stroke="none" /><path d="M 96.40284397218896 79.31037775812273 l -1.631316773053579 -9.382781155549534 a30.523538030951595,30.523538030951595 0 0,0 0.5184216448071153,-0.08554401340123431 l 1.469565922107578 9.409471431890395" fill="#ff7d0b" stroke="none" /><path d="M 97.11714578562143 79.19881850522333 l -1.953715142229069 -14.09699563020068 a35.23173526506421,35.23173526506421 0 0,0 0.6014313419826584,-0.07808304938444319 l 1.7107690717385529 14.12853700274926" fill="#ffbb11" stroke="none" /><path d="M 97.47563105711357 79.15227682838746 l -1.1945659618930615 -9.865428171248919 a30.937487652288443,30.937487652288443 0 0,0 0.529227413069475,-0.05946486624284549 l 1.0245718453138686 9.884528990962362" fill="#ff830c" stroke="none" /><path d="M 97.83486435360386 79.11191278185805 l -1.0106111048477666 -9.749843127297806 a30.80208017780705,30.80208017780705 0 0,0 0.5278521280640316,-0.050125919898871746 l 0.8426338496934987 9.765794591711858" fill="#ff810b" stroke="none" /><path d="M 98.55514903715128 79.0497635885617 l -0.05298659071033122 -0.768301804518915 a21.770126769838658,21.770126769838658 0 0,0 0.37407085429191705,-0.022564975474078958 l 0.03975368757879119 0.7691000493733005" fill="#ff0400" stroke="none" /><path d="M 99.27714615592234 79.0124445844662 l -0.03181080548599914 -0.9236044719414189 a21.924152123806387,21.924152123806387 0 0,0 0.37727641064186923,-0.009743936613048204 l 0.015907759649250917 0.9240152006968267" fill="#ff0600" stroke="none" /></svg>