<?xml version="1.0" encoding="utf-8" ?>
<svg baseProfile="full" height="200mm" version="1.1" viewBox="0,0,200,200" width="200mm" xmlns="http://www.w3.org/2000/svg" xmlns:ev="http://www.w3.org/2001/xml-events" xmlns:xlink="http://www.w3.org/1999/xlink"><defs /><rect fill="#1a1a1a" height="200" width="200" x="0" y="0" /><text alignment-baseline="middle" fill="#e1ed5e" style="dominant-baseline: central; font-size:9.0px; font-family:Arial;" text-anchor="middle" x="100.0" y="100.0">2023</text><line stroke="#e1ed5e" stroke-width="0.3" x1="100.0" x2="100.0" y1="15.0" y2="10.0" /><path d="M 100.0 14.0 a86.0,86.0 0 0,1 42.46469731375804,11.215312516191453" fill="none" id="id37" stroke="none" /><text fill="#e1ed5e" style="font-size:6.75px; font-family:Arial;" text-anchor="middle"><textPath startOffset="22.20632615414155" xlink:href="#id37">January</textPath></text><path d="M 100.0 79.0 l 0.0 -4.95876661179588 a25.95876661179588,25.95876661179588 0 0,0 0.4468374950550325,0.003846071391570508 l -0.08535701578250413 4.958031917012868" fill="#ff2003" stroke="none" /><path d="M 100.36148047927253 79.00311137660856 l 0.08836608763790638 -5.132816311276187 a26.133576906090656,26.133576906090656 0 0,0 0.4497132676641751,0.011614766920389234 l -0.17670599049694927 5.130534752213438" fill="#ff2203" stroke="none" /><path d="M 100.72285384407766 79.0124445844662 l 0.11825544880295127 -3.4334641854296004 a24.435500060224033,24.435500060224033 0 0,0 0.42024308866195004,0.01809655140260283 l -0.17733936985423285 3.4309199075028025" fill="#ff0901" stroke="none" /><path d="M 101.08401301168833 79.027996857942 l 0.18571018271466255 -3.5928669613828026 a24.597663307503915,24.597663307503915 0 0,0 0.4226557348196556,0.02549574814706744 l -0.24752796637393007 3.589137943855431" fill="#ff0b01" stroke="none" /><path d="M 101.44485096284872 79.0497635885617 l 0.24364130742219503 -3.5327816649151185 a24.541173164170715,24.541173164170715 0 0,0 0.4211847415678458,0.032692042135960296 l -0.304416238352382 3.528064360590694" fill="#ff0a01" stroke="none" /><path d="M 101.80526077348638 79.07773832637324 l 0.2930368694425431 -3.3961819547305194 a24.408800738748145,24.408800738748145 0 0,0 0.4182911458922163,0.03972178448972541 l -0.3514531424250036 3.3906346257256157" fill="#ff0801" stroke="none" /><path d="M 102.52436894288641 79.15227682838746 l 1.4740603808302848 -12.173657437986627 a33.262576785642594,33.262576785642594 0 0,0 0.5678163747395095,0.07371886188026029 l -1.6833914840776405 12.14648025294223" fill="#ff880c" stroke="none" /><path d="M 105.36241919743992 79.69619591428918 l 1.8865817623198406 -7.14319136260444 a28.38812382061268,28.38812382061268 0 0,0 0.4713808903441093,0.12884620384733753 l -2.009260541887661 7.109658617930808" fill="#ff4306" stroke="none" /><path d="M 109.41281617654863 81.2277094730956 l 4.304239813711184 -8.584087776170948 a30.602762275665476,30.602762275665476 0 0,0 0.46886275300046837,0.2401697128149667 l -4.451363054300408 8.508725538043482" fill="#ff6309" stroke="none" /><path d="M 110.36928655335952 81.73862282372117 l 4.404389885447525 -7.756582337237692 a29.919821736861124,29.919821736861124 0 0,0 0.44566752396881215,0.25815939573095537 l -4.537254141881665 7.679618784116687" fill="#ff5908" stroke="none" /><line stroke="#e1ed5e" stroke-width="0.3" x1="143.23703022742887" x2="145.7803849466894" y1="26.81831364943548" y2="22.513508569990506" /><path d="M 143.74570117128098 25.957352633546492 a86.0,86.0 0 0,1 28.547481713284135,27.462654790039103" fill="none" id="id38" stroke="none" /><text fill="#e1ed5e" style="font-size:6.75px; font-family:Arial;" text-anchor="middle"><textPath startOffset="19.985693538727396" xlink:href="#id38">February</textPath></text><path d="M 113.6212207817346 84.01681056812373 l 24.80316003243523 -29.10411714632456 a59.23933030874855,59.23933030874855 0 0,0 0.7704108795872346,0.6680927230231777 l -25.300464710669228 28.672859429881708" fill="#3fff2d" stroke="none" /><path d="M 115.68641384162765 86.03803664274999 l 21.046636598527044 -18.732922129223954 a49.175934476251655,49.175934476251655 0 0,0 0.5573463105481191,0.6371431800081532 l -21.36597477265301 18.367863393012854" fill="#adff20" stroke="none" /><line stroke="#e1ed5e" stroke-width="0.3" x1="172.23445277983987" x2="176.4835382374775" y1="55.19839476539836" y2="52.563006222186495" /><path d="M 173.08426987136738 54.67131705675599 a86.0,86.0 0 0,1 12.851231095245387,41.99856678651699" fill="none" id="id39" stroke="none" /><text fill="#e1ed5e" style="font-size:6.75px; font-family:Arial;" text-anchor="middle"><textPath startOffset="22.20632615414155" xlink:href="#id39">March</textPath></text><path d="M 117.84615892207809 88.93136811851018 l 12.982476954636558 -8.052055288100293 a36.276789657525995,36.276789657525995 0 0,0 0.3245636031210876,0.5334972252777176 l -13.11915635604387 7.827390289615493" fill="#ffb110" stroke="none" /><path d="M 118.56541770881063 90.18545643968196 l 19.831089177456416 -10.483636384239837 a43.43164572208616,43.43164572208616 0 0,0 0.3437109438734527,0.6639401425673552 l -20.008609554489983 10.140723519412136" fill="#f1ff19" stroke="none" /><path d="M 120.28053869075195 94.5502522615342 l 41.84487909731682 -11.244476229369909 a64.32934516401012,64.32934516401012 0 0,0 0.2781590718701678,1.0718603721423292 l -42.032234501057296 10.52251943167873" fill="#34ff5a" stroke="none" /><line stroke="#e1ed5e" stroke-width="0.3" x1="184.98032266829074" x2="189.97916517819016" y1="98.17113171792111" y2="98.06355123074" /><path d="M 185.9800911702706 98.14961562048488 a86.0,86.0 0 0,1 -9.607161424134198,41.387399972396054" fill="none" id="id40" stroke="none" /><text fill="#e1ed5e" style="font-size:6.75px; font-family:Arial;" text-anchor="middle"><textPath startOffset="21.466115282336823" xlink:href="#id40">April</textPath></text><path d="M 120.76222939487914 103.15116336523771 l 6.958810414279163 1.0561654062313548 a28.038503232023125,28.038503232023125 0 0,0 -0.0765294197902338,0.4765487700868217 l -6.939599240127641 -1.1757934060113813" fill="#ff3e05" stroke="none" /><path d="M 120.70491114924044 103.5080841355445 l 12.870290924221717 2.1806451177531807 a34.053719837796606,34.053719837796606 0 0,0 -0.1028966512044162,0.5770990646693354 l -12.830847830678112 -2.4018629331557344" fill="#ff930d" stroke="none" /><path d="M 120.49622156327973 104.57218783832717 l 27.64566440833431 6.167047433597028 a49.32516963102742,49.32516963102742 0 0,0 -0.19199102147712685,0.8270922956515941 l -27.53541282092663 -6.642008386597187" fill="#abff21" stroke="none" /><path d="M 120.02730092923936 106.31721596034902 l 10.008423923645653 3.1569593711994313 a31.49451961296021,31.49451961296021 0 0,0 -0.1675324710137355,0.5156119279812678 l -9.95259920161567 -3.328770199158494" fill="#ff6f0a" stroke="none" /><path d="M 119.41010516605496 108.01547362559984 l 8.704037603873122 3.59436403116893 a30.416991207291122,30.416991207291122 0 0,0 -0.20400968412519624,0.4822186297855015 l -8.640876938555616 -3.743657186620595" fill="#ff6008" stroke="none" /><line stroke="#e1ed5e" stroke-width="0.3" x1="174.80103733775053" x2="179.2010983576182" y1="140.37084112569926" y2="142.7455964860345" /><path d="M 175.68104954172406 140.8457921977663 a86.0,86.0 0 0,1 -30.038265399797805,32.042727171017184" fill="none" id="id41" stroke="none" /><text fill="#e1ed5e" style="font-size:6.75px; font-family:Arial;" text-anchor="middle"><textPath startOffset="22.206326154141568" xlink:href="#id41">May</textPath></text><path d="M 116.71984013943494 112.70617746262583 l 7.842242975425598 5.959682037615226 a30.849801260689766,30.849801260689766 0 0,0 -0.32494122519247687,0.4200303360792345 l -7.738494933015052 -6.093790367807713" fill="#ff6609" stroke="none" /><path d="M 114.29624159901734 115.38237550388516 l 9.982936495923873 10.741374000163487 a35.66411049102662,35.66411049102662 0 0,0 -0.4532746265675499,0.41405562433179155 l -9.796562319889459 -10.911622391081861" fill="#ffa80f" stroke="none" /><line stroke="#e1ed5e" stroke-width="0.3" x1="143.8653032363475" x2="146.44561519142675" y1="172.8068346515853" y2="177.08958963109032" /><path d="M 144.38136562736335 173.6633856474863 a86.0,86.0 0 0,1 -40.68145358897372,12.25698825130547" fill="none" id="id42" stroke="none" /><text fill="#e1ed5e" style="font-size:6.75px; font-family:Arial;" text-anchor="middle"><textPath startOffset="21.466115282336833" xlink:href="#id42">June</textPath></text><path d="M 110.21172684928248 118.3499491758327 l 17.64915925603297 31.714633589825976 a57.29477656883608,57.29477656883608 0 0,0 -0.8659073848586298,0.47216174717011167 l -17.100629059305692 -32.013735988755855" fill="#53ff2b" stroke="none" /><path d="M 108.92500713936063 119.00905698771935 l 1.2094942826402986 2.576059087239815 a23.84586662384069,23.84586662384069 0 0,0 -0.37305382640919904,0.17125071456972996 l -1.1649724604636802 -2.596496872143619" fill="#ff0000" stroke="none" /><path d="M 105.53697534728816 120.25689768951611 l 1.2240908949539366 4.478308546902701 a25.642590436423497,25.642590436423497 0 0,0 -0.426777639457167,0.11271585350224166 l -1.1468228126852722 -4.498715749708527" fill="#ff1b02" stroke="none" /><path d="M 104.83641907484287 120.43548508189849 l 3.25929634926878 13.771615092129373 a35.152045609667965,35.152045609667965 0 0,0 -0.5900184659538602,0.1342862819158944 l -3.021757733922058 -13.825678107622952" fill="#ffa20e" stroke="none" /><path d="M 104.13013068566511 120.58985236759428 l 5.335049233554102 26.59670709064653 a48.12651061950456,48.12651061950456 0 0,0 -0.8136414222658526,0.1559363150601567 l -4.876440196716545 -26.684600604055152" fill="#b9ff1f" stroke="none" /><path d="M 101.98527174616119 120.90594882070398 l 2.6614826000248772 28.026802441984977 a49.15288874613563,49.15288874613563 0 0,0 -0.8429853419685036,0.0727363224023731 l -2.178652940314832 -28.068463016666016" fill="#adff20" stroke="none" /><line stroke="#e1ed5e" stroke-width="0.3" x1="102.19456741930631" x2="102.32365962044197" y1="184.97166512339345" y2="189.96999836594603" /><path d="M 102.22038585953345 185.97133177190398 a86.0,86.0 0 0,1 -42.740103519485714,-10.115201625700543" fill="none" id="id43" stroke="none" /><text fill="#e1ed5e" style="font-size:6.75px; font-family:Arial;" text-anchor="middle"><textPath startOffset="22.20632615414155" xlink:href="#id43">July</textPath></text><path d="M 100.54218724476979 120.99299961872073 l 1.0993729643316716 42.566726612769635 a63.58092102621753,63.58092102621753 0 0,0 -1.0943194196488502,0.01883970122369495 l -0.36649385479015345 -42.57934379127249" fill="#33ff51" stroke="none" /><line stroke="#e1ed5e" stroke-width="0.3" x1="58.666819895761336" x2="56.23545636021788" y1="174.27360380694188" y2="178.64263932499728" /><path d="M 58.180547188652646 175.14741091055294 a86.0,86.0 0 0,1 -31.652253787137756,-30.449443065178592" fill="none" id="id44" stroke="none" /><text fill="#e1ed5e" style="font-size:6.75px; font-family:Arial;" text-anchor="middle"><textPath startOffset="22.20632615414155" xlink:href="#id44">August</textPath></text><path d="M 89.1626897886671 117.98757091392108 l -5.816274060771028 9.653746186347384 a32.27048620869635,32.27048620869635 0 0,0 -0.4733324276464784,-0.2907594367495769 l 5.981585688349815 -9.552198282769428" fill="#ff7a0b" stroke="none" /><path d="M 88.54995079064634 117.60387380957326 l -7.5464805531649795 11.602333661220467 a34.84064720761232,34.84064720761232 0 0,0 -0.4999223102823091,-0.3313212473247339 l 7.745077562187251 -11.470714392804414" fill="#ff9d0e" stroke="none" /><path d="M 87.95078237400918 117.19931262002967 l -4.859775318778996 6.9369479052720715 a29.469867908620067,29.469867908620067 0 0,0 -0.4129607989242839,-0.29463656524322285 l 4.978463445552167 -6.85226707818463" fill="#ff5307" stroke="none" /><path d="M 87.65650970185807 116.9893568818739 l -6.645440073254555 9.146663570402204 a32.305897940338056,32.305897940338056 0 0,0 -0.4470752135993422,-0.3307355549619592 l 6.801900257272462 -9.030918066700478" fill="#ff7b0b" stroke="none" /><path d="M 87.07902340077011 116.55440617244103 l -5.237663578031261 6.710515230752618 a29.51258682298149,29.51258682298149 0 0,0 -0.39777697956063524,-0.31601808983179064 l 5.3523980503092545 -6.619363226915697" fill="#ff5307" stroke="none" /><path d="M 85.18274418774928 114.88116024355367 l -5.6692298874002764 5.693680360313107 a29.034809491307666,29.034809491307666 0 0,0 -0.35112676524019837,-0.35568955938568186 l 5.766397277696008 -5.5952503069467605" fill="#ff4c07" stroke="none" /><path d="M 84.67929136418377 114.36230785411682 l -5.074301699912745 4.756874168890716 a27.955313767214037,27.955313767214037 0 0,0 -0.32608354870883466,-0.35389928984040764 l 5.155431656617308 -4.668823624248964" fill="#ff3d05" stroke="none" /><line stroke="#e1ed5e" stroke-width="0.3" x1="26.63291911575756" x2="22.317208475507996" y1="142.92168965132927" y2="145.44649492493687" /><path d="M 25.769776987707644 143.4266507060508 a86.0,86.0 0 0,1 -11.730757126820373,-40.83630448921669" fill="none" id="id45" stroke="none" /><text fill="#e1ed5e" style="font-size:6.75px; font-family:Arial;" text-anchor="middle"><textPath startOffset="21.46611528233685" xlink:href="#id45">September</textPath></text><path d="M 81.51974371655577 109.97397251340807 l -7.462490770203334 4.0275782262959785 a29.479985546231987,29.479985546231987 0 0,0 -0.2371699816953574,-0.4486362255263699 l 7.530713260123577 -3.8985269856834828" fill="#ff5307" stroke="none" /><path d="M 81.18737489456691 109.33194174019688 l -13.17042373483104 6.533146028177341 a35.701770586582086,35.701770586582086 0 0,0 -0.2683527723895427,-0.5528861945881071 l 13.280929763835303 -6.305470877623948" fill="#ffa90f" stroke="none" /><path d="M 79.23777060512086 103.15116336523772 l -54.59015050435001 8.285356986497291 a76.21532099409805,76.21532099409805 0 0,0 -0.18569662979702625,-1.298761796295487 l 54.72468118516363 -7.344449718221403" fill="#43ffdf" stroke="none" /><path d="M 79.18660465613746 102.79330883721812 l -5.4066193389324555 0.7256075872967945 a26.45509294575822,26.45509294575822 0 0,0 -0.05668758358540356,-0.4518558165866616 l 5.418308431764707 -0.6324340164227243" fill="#ff2703" stroke="none" /><line stroke="#e1ed5e" stroke-width="0.3" x1="15.007084014347285" x2="10.007500721073583" y1="101.09737516637583" y2="101.16192664675087" /><path d="M 14.007167355692545 101.11028546245083 a86.0,86.0 0 0,1 10.666146001902534,-42.60595125391555" fill="none" id="id46" stroke="none" /><text fill="#e1ed5e" style="font-size:6.75px; font-family:Arial;" text-anchor="middle"><textPath startOffset="22.20632615414155" xlink:href="#id46">October</textPath></text><path d="M 79.54389044137918 95.25157060432595 l -25.140802573531232 -5.835876349258374 a46.8092504115309,46.8092504115309 0 0,0 0.18894709901313228,-0.7833077090269245 l 25.036622674257284 6.267769289944695" fill="#c8ff1d" stroke="none" /><path d="M 80.2630227832202 92.82701384747504 l -49.89965123561392 -18.13497089233007 a74.09286545950938,74.09286545950938 0 0,0 0.4459522961356301,-1.1949304401111287 l 49.580094350976665 18.99122446947054" fill="#40ffc9" stroke="none" /><path d="M 80.95270993114464 91.15688171328213 l -6.885176921612173 -3.19659299158536 a28.591038663829444,28.591038663829444 0 0,0 0.21108601306573485,-0.4446009771613471 l 6.829132714704686 3.314636384387239" fill="#ff4606" stroke="none" /><path d="M 81.43458229118936 90.18545643968196 l -7.098096292947128 -3.752383940674856 a29.028907536034048,29.028907536034048 0 0,0 0.23733468154632922,-0.43974512001408206 l 7.032453512182327 3.8740100440214102" fill="#ff4c07" stroke="none" /><line stroke="#e1ed5e" stroke-width="0.3" x1="26.266209847984243" x2="21.928928074336255" y1="57.711370442889674" y2="55.22380399835377" /><path d="M 25.398753493254645 57.213857153982495 a86.0,86.0 0 0,1 29.58750427330803,-30.492523968695096" fill="none" id="id47" stroke="none" /><text fill="#e1ed5e" style="font-size:6.75px; font-family:Arial;" text-anchor="middle"><textPath startOffset="21.46611528233685" xlink:href="#id47">November</textPath></text><path d="M 81.78341655067845 89.55222093294921 l -20.73035055556951 -11.88950294601869 a44.89786003934637,44.89786003934637 0 0,0 0.3902699993889559,-0.6670979368347415 l 20.52262088171023 12.244580295207323" fill="#dfff1b" stroke="none" /><path d="M 81.96595687620814 89.24020034530311 l -10.419154476707956 -6.216465934519949 a33.132733769623,33.132733769623 0 0,0 0.29643415404290097,-0.4872598071338016 l 10.310604524378837 6.394893514860825" fill="#ff860c" stroke="none" /><path d="M 82.54541684631803 88.32363383020206 l -12.04751905847076 -8.059272611998752 a35.49464006102702,35.49464006102702 0 0,0 0.3440876341104433,-0.5049061448730991 l 11.907006958691577 8.265456780142268" fill="#ffa60f" stroke="none" /><path d="M 82.7489923806493 88.02491185347247 l -23.476016899747822 -16.296287028967818 a49.57782952583611,49.57782952583611 0 0,0 0.4926793980741272,-0.6968600689092926 l 23.192024881869816 16.697973598208897" fill="#a8ff21" stroke="none" /><path d="M 82.95767976084542 87.72973835380427 l -6.879102537882809 -4.952869494665617 a29.476613000361343,29.476613000361343 0 0,0 0.3000121073639954,-0.40921617728410575 l 6.79282781800518 5.070548115621222" fill="#ff5307" stroke="none" /><path d="M 83.6137871275137 86.86637796730984 l -14.84717509275759 -11.900076450786553 a40.02762275665476,40.02762275665476 0 0,0 0.43554153135680557,-0.5339224184330844 l 14.640135069324392 12.153883038827718" fill="#ffe215" stroke="none" /><path d="M 84.31358615837235 86.03803664274999 l -12.622439724330569 -11.234820315815025 a37.898141084835586,37.898141084835586 0 0,0 0.4379154734793188,-0.4835572033974676 l 12.427180610235204 11.45043030648205" fill="#ffc612" stroke="none" /><path d="M 85.05521093208273 85.24692304244772 l -20.016188963610734 -19.759420814509454 a49.12618942465974,49.12618942465974 0 0,0 0.5992557621331887,-0.5966823674477347 l 19.673097401310233 20.101039032607297" fill="#adff20" stroke="none" /><path d="M 86.37877921826538 84.01681056812374 l -13.893568633716143 -16.30276338044792 a42.41988196089453,42.41988196089453 0 0,0 0.5598262175498149,-0.4688383574578437 l 13.610884879207218 16.539502895299577" fill="#feff18" stroke="none" /><path d="M 88.09926311788651 82.69761687909137 l -6.39624192911869 -9.299443344383647 a32.286786847071106,32.286786847071106 0 0,0 0.4606176081942471,-0.31101106520545785 l 6.235219626517904 9.408166321887771" fill="#ff7a0b" stroke="none" /><line stroke="#e1ed5e" stroke-width="0.3" x1="56.762969772571076" x2="54.21961505331055" y1="26.818313649435495" y2="22.513508569990535" /><path d="M 56.25429882871897 25.957352633546506 a86.0,86.0 0 0,1 42.265352541879196,-11.944610805530505" fill="none" id="id48" stroke="none" /><text fill="#e1ed5e" style="font-size:6.75px; font-family:Arial;" text-anchor="middle"><textPath startOffset="22.20632615414155" xlink:href="#id48">December</textPath></text><path d="M 90.26544431104013 81.39251694778311 l -10.139592206631963 -19.38170535664727 a42.87377042598466,42.87377042598466 0 0,0 0.6568659996232183,-0.3364722778208538 l 9.804465719419982 19.55337015978063" fill="#f8ff18" stroke="none" /><path d="M 91.56875222667455 80.76684994638697 l -9.963227417848936 -22.727863431082593 a45.81575460713855,45.81575460713855 0 0,0 0.7250152097640788,-0.3104136758211823 l 9.570528450294548 22.895996634866563" fill="#d4ff1c" stroke="none" /><path d="M 92.57280143429618 80.3572730644239 l -5.310892779346567 -14.045728779965895 a36.01626048901915,36.01626048901915 0 0,0 0.5817786722597322,-0.21427399482544374 l 5.0683317813142645 14.13506604259766" fill="#ffad10" stroke="none" /><path d="M 93.59665428221793 80.00007090966166 l -6.286883855247235 -19.636177218257266 a41.618059180150155,41.618059180150155 0 0,0 0.6841506089703986,-0.21256892448161846 l 5.947947873566108 19.741486277621412" fill="#fff617" stroke="none" /><path d="M 94.63758080256005 79.69619591428918 l -5.224269855821505 -19.780727268417248 a41.4589874332517,41.4589874332517 0 0,0 0.6915578467613516,-0.17629349331724428 l 4.883003120375154 19.867723757903356" fill="#fff417" stroke="none" /><path d="M 94.98787191387505 79.60689891045804 l -4.04372438195362 -16.452907563896996 a37.94254627213233,37.94254627213233 0 0,0 0.6355851921363886,-0.15042248004472256 l 3.7599155028546978 16.52007595608259" fill="#ffc712" stroke="none" /><path d="M 95.692805502759 79.44645832069477 l -3.2208990742607613 -15.369838397142148 a36.70369775565102,36.70369775565102 0 0,0 0.6194773038746856,-0.1242613194173595 l 2.9558553609189393 15.423003672636717" fill="#ffb610" stroke="none" /><path d="M 97.11714578562143 79.19881850522333 l -8.648562643135705 -62.403544484330034 a84.0,84.0 0 0,0 1.433941085968569,-0.1861667073434532 l 7.573106828659279 62.54316951483762" fill="#4dd2ff" stroke="none" /></svg>