<?xml version="1.0" encoding="utf-8" ?>
<svg baseProfile="full" height="200mm" version="1.1" viewBox="0,0,200,200" width="200mm" xmlns="http://www.w3.org/2000/svg" xmlns:ev="http://www.w3.org/2001/xml-events" xmlns:xlink="http://www.w3.org/1999/xlink"><defs /><rect fill="#1a1a1a" height="200" width="200" x="0" y="0" /><text alignment-baseline="middle" fill="#e1ed5e" style="dominant-baseline: central; font-size:9.0px; font-family:Arial;" text-anchor="middle" x="100.0" y="100.0">2021</text><line stroke="#e1ed5e" stroke-width="0.3" x1="100.0" x2="100.0" y1="15.0" y2="10.0" /><path d="M 100.0 14.0 a86.0,86.0 0 0,1 42.46469731375804,11.215312516191453" fill="none" id="id109" stroke="none" /><text fill="#e1ed5e" style="font-size:6.75px; font-family:Arial;" text-anchor="middle"><textPath startOffset="22.20632615414155" xlink:href="#id109">January</textPath></text><path d="M 100.0 79.0 l 0.0 -0.2136874758558278 a21.213687475855828,21.213687475855828 0 0,0 0.3651587579004761,0.003143036713983622 l -0.003678278627947689 0.21365581575040307" fill="#ff0000" stroke="none" /><path d="M 100.36148047927253 79.00311137660856 l 0.03267883503464952 -1.8981768004335613 a22.89845807748378,22.89845807748378 0 0,0 0.39404251639569393,0.010176955659839044 l -0.06534798662521125 1.8973330526313625" fill="#ff1802" stroke="none" /><path d="M 102.52436894288641 79.15227682838746 l 0.024880749632239962 -0.2054798614508547 a21.20698073621505,21.20698073621505 0 0,0 0.36201858317861574,0.04700040209949044 l -0.0284140613187018 0.20502113618722756" fill="#ff0000" stroke="none" /><path d="M 102.88285421437855 79.19881850522331 l 1.34561706428073 -9.70927514716722 a30.80207677826911,30.80207677826911 0 0,0 0.5245608630060575,0.07730663550057681 l -1.5125469077154432 9.684674027505675" fill="#ff850c" stroke="none" /><path d="M 108.76106565485865 80.91482961587045 l 0.34015564894953426 -0.7409975878591634 a21.815342437706622,21.815342437706622 0 0,0 0.3399264463608643,0.15960002448244465 l -0.3528603066099965 0.7350325807367157" fill="#ff0901" stroke="none" /><path d="M 110.05341064243156 81.56283822128135 l 0.5537489940405113 -1.0155319573674844 a22.156694905684084,22.156694905684084 0 0,0 0.3332745803088552,0.18546694311314588 l -0.5711476634214016 1.0058496166941584" fill="#ff0e01" stroke="none" /><path d="M 110.36928655335952 81.73862282372117 l 1.0830916473222878 -1.9074354813563714 a23.193489829480985,23.193489829480985 0 0,0 0.34547616210446797,0.20012209203419637 l -1.115764541892084 1.8885092319321255" fill="#ff1c02" stroke="none" /><line stroke="#e1ed5e" stroke-width="0.3" x1="143.23703022742887" x2="145.7803849466894" y1="26.81831364943548" y2="22.513508569990506" /><path d="M 143.74570117128098 25.957352633546492 a86.0,86.0 0 0,1 28.547481713284135,27.462654790039103" fill="none" id="id110" stroke="none" /><text fill="#e1ed5e" style="font-size:6.75px; font-family:Arial;" text-anchor="middle"><textPath startOffset="19.985693538727396" xlink:href="#id110">February</textPath></text><path d="M 114.94478906791727 85.2469230424477 l 1.1831818254308721 -1.1680039407736857 a22.662574039762678,22.662574039762678 0 0,0 0.2716657029658316,0.27997538699575836 l -1.203111792099813 1.147464358227813" fill="#ff1502" stroke="none" /><path d="M 115.68641384162765 86.03803664274999 l 0.43782272123230176 -0.3896916690158291 a21.586129961806765,21.586129961806765 0 0,0 0.24465116975123824,0.27967857925662276 l -0.4444657545613882 0.3820975335562586" fill="#ff0500" stroke="none" /><line stroke="#e1ed5e" stroke-width="0.3" x1="172.23445277983987" x2="176.4835382374775" y1="55.19839476539836" y2="52.563006222186495" /><path d="M 173.08426987136738 54.67131705675599 a86.0,86.0 0 0,1 12.851231095245387,41.99856678651699" fill="none" id="id111" stroke="none" /><text fill="#e1ed5e" style="font-size:6.75px; font-family:Arial;" text-anchor="middle"><textPath startOffset="22.20632615414155" xlink:href="#id111">March</textPath></text><path d="M 118.03404312379186 89.2402003453031 l 0.6580813281834466 -0.39263648196610845 a21.766312234976326,21.766312234976326 0 0,0 0.1892014152834798,0.3234065492593291 l -0.6647424179372536 0.381250520352884" fill="#ff0801" stroke="none" /><path d="M 118.89224826269711 90.83032412892265 l 0.8305507005500244 -0.4031219901750686 a21.923212762664622,21.923212762664622 0 0,0 0.1618578335007136,0.34091387624639213 l -0.8373667278924942 0.3887656982881361" fill="#ff0a01" stroke="none" /><path d="M 120.28053869075195 94.5502522615342 l 0.3256202334197245 -0.08750004907350184 a21.337171758900684,21.337171758900684 0 0,0 0.09226159348674132,0.3555215555770225 l -0.3270781587767685 0.08188206794762896" fill="#ff0200" stroke="none" /><path d="M 120.45610955862082 95.25157060432595 l 1.848423886322874 -0.4290703612204046 a22.897570087877327,22.897570087877327 0 0,0 0.08581748999667586,0.3847029805363273 l -1.8555357633215874 0.39718921113411343" fill="#ff1802" stroke="none" /><path d="M 120.53481517161879 95.60439243477599 l 0.7006461521510658 -0.14997775734533386 a21.71651821904431,21.71651821904431 0 0,0 0.0750985163496093,0.36620703641592284 l -0.7031239644156722 0.13789506476599922" fill="#ff0701" stroke="none" /><path d="M 120.87857604477298 97.74499172005257 l 62.63572813431897 -6.7650248398422885 a84.0,84.0 0 0,0 0.1428914972710853,1.43889787718226 l -62.74289675727228 5.6858514319555935" fill="#4dd2ff" stroke="none" /><line stroke="#e1ed5e" stroke-width="0.3" x1="184.98032266829074" x2="189.97916517819016" y1="98.17113171792111" y2="98.06355123074" /><path d="M 185.9800911702706 98.14961562048488 a86.0,86.0 0 0,1 -9.607161424134198,41.387399972396054" fill="none" id="id112" stroke="none" /><text fill="#e1ed5e" style="font-size:6.75px; font-family:Arial;" text-anchor="middle"><textPath startOffset="21.466115282336823" xlink:href="#id112">April</textPath></text><path d="M 120.9904718944345 100.63252640178507 l 0.7402459563048106 0.02230655478029426 a21.740581972648396,21.740581972648396 0 0,0 -0.01449151324717424,0.37396156531798674 l -0.7397523102064332 -0.035045367112287194" fill="#ff0801" stroke="none" /><path d="M 120.9764740272857 100.99374915477107 l 1.5559682000832908 0.07371315511234676 a22.557713281996097,22.557713281996097 0 0,0 -0.021713033383904234,0.3877007970604036 l -1.5544688158118574 -0.10048566850817373" fill="#ff1302" stroke="none" /><path d="M 120.95626037817324 101.35467743843564 l 0.3218787128592931 0.020807234800219555 a21.322550533733843,21.322550533733843 0 0,0 -0.026829293483562455,0.36606439361029425 l -0.32147286071139297 -0.026344764907284074" fill="#ff0200" stroke="none" /><path d="M 120.5718875245553 104.21870165774334 l 0.8337105532559679 0.1709700234798993 a21.851060535766457,21.851060535766457 0 0,0 -0.0787324523966264,0.36781180621400783 l -0.8306440621348984 -0.18529564911007615" fill="#ff0901" stroke="none" /><path d="M 120.32669344350535 105.2749913415812 l 0.9457666695387681 0.24543642608862778 a21.977094484920272,21.977094484920272 0 0,0 -0.09817683381185187,0.3653525212925391 l -0.9414017593851389 -0.26167988055671515" fill="#ff0b01" stroke="none" /><path d="M 118.64920377521936 109.65438752849418 l 0.8342543177024285 0.43187980449444224 a21.939414941405182,21.939414941405182 0 0,0 -0.17650519644589097,0.3338813139556197 l -0.8266966130316445 -0.44617613353619634" fill="#ff0b01" stroke="none" /><line stroke="#e1ed5e" stroke-width="0.3" x1="174.80103733775053" x2="179.2010983576182" y1="140.37084112569926" y2="142.7455964860345" /><path d="M 175.68104954172406 140.8457921977663 a86.0,86.0 0 0,1 -30.038265399797805,32.042727171017184" fill="none" id="id113" stroke="none" /><text fill="#e1ed5e" style="font-size:6.75px; font-family:Arial;" text-anchor="middle"><textPath startOffset="22.206326154141568" xlink:href="#id113">May</textPath></text><path d="M 118.48025628344425 109.97397251340804 l 2.071923789275496 1.1182372477498217 a23.354426199909614,23.354426199909614 0 0,0 -0.19397918442799866,0.3521285647997191 l -2.052368195395988 -1.1537363309473458" fill="#ff1f03" stroke="none" /><path d="M 116.71984013943494 112.70617746262583 l 0.4070043935604354 0.309301405367508 a21.511194616305584,21.511194616305584 0 0,0 -0.22657760012486586,0.292882091129252 l -0.40161997621750106 -0.31626149061001274" fill="#ff0400" stroke="none" /><path d="M 116.0416608686014 113.55231037782055 l 0.4180158057953891 0.35314796824200567 a21.547220889009388,21.547220889009388 0 0,0 -0.24179828573466886,0.28126603310012255 l -0.41187501048994146 -0.3602911005036562" fill="#ff0500" stroke="none" /><path d="M 111.1453310114006 117.79835938074945 l 0.26589291030441153 0.4246134609685838 a21.50099464167381,21.50099464167381 0 0,0 -0.3153692177037862,0.1937255314698061 l -0.2585444926683166 -0.42912745926676804" fill="#ff0400" stroke="none" /><line stroke="#e1ed5e" stroke-width="0.3" x1="143.8653032363475" x2="146.44561519142675" y1="172.8068346515853" y2="177.08958963109032" /><path d="M 144.38136562736335 173.6633856474863 a86.0,86.0 0 0,1 -40.68145358897372,12.25698825130547" fill="none" id="id114" stroke="none" /><text fill="#e1ed5e" style="font-size:6.75px; font-family:Arial;" text-anchor="middle"><textPath startOffset="21.466115282336833" xlink:href="#id114">June</textPath></text><path d="M 104.83641907484287 120.43548508189849 l 0.15229417533016232 0.6434937295256369 a21.66126976021765,21.66126976021765 0 0,0 -0.36357910138297295,0.08274941976283755 l -0.1411949245543273 -0.6460198828661589" fill="#ff0701" stroke="none" /><line stroke="#e1ed5e" stroke-width="0.3" x1="102.19456741930631" x2="102.32365962044197" y1="184.97166512339345" y2="189.96999836594603" /><path d="M 102.22038585953345 185.97133177190398 a86.0,86.0 0 0,1 -42.740103519485714,-10.115201625700543" fill="none" id="id115" stroke="none" /><text fill="#e1ed5e" style="font-size:6.75px; font-family:Arial;" text-anchor="middle"><textPath startOffset="22.20632615414155" xlink:href="#id115">July</textPath></text><path d="M 95.86986931433489 120.58985236759428 l -0.7885749684916954 3.931265961723346 a25.009576354521293,25.009576354521293 0 0,0 -0.42136198382206397,-0.08830050053574603 l 0.8561284137431462 -3.917109480461059" fill="#ff3605" stroke="none" /><path d="M 94.46302465271185 120.25689768951611 l -0.9130078295719847 3.3402182659933684 a24.462750548528653,24.462750548528653 0 0,0 -0.40522992658404183,-0.11452202498498096 l 0.9703689242606404 -3.324007447669866" fill="#ff2e04" stroke="none" /><path d="M 93.42475214034765 119.94407469862007 l -1.309126517815326 3.9708491023536405 a25.181082973741372,25.181082973741372 0 0,0 -0.41048794568241714,-0.13925979824956441 l 1.377284196434969 -3.947726317205953" fill="#ff3805" stroke="none" /><path d="M 92.40401165467489 119.57807347666478 l -0.42845087056031267 1.104299038338212 a22.18450264438649,22.18450264438649 0 0,0 -0.3548241369877661,-0.14119184684305786 l 0.4473960835899369 -1.0967603470890877" fill="#ff0e01" stroke="none" /><path d="M 92.06813273071674 119.44442032107085 l -2.0028284276674597 4.9097944350844624 a26.302584568440118,26.302584568440118 0 0,0 -0.4177458401217335,-0.174617795051076 l 2.0870457272866556 -4.8745915970134135" fill="#ff4806" stroke="none" /><path d="M 91.07499286063937 119.00905698771935 l -2.077772365257449 4.425373860431075 a25.888872242799373,25.888872242799373 0 0,0 -0.4017550239851656,-0.1928668261254831 l 2.153640057242857 -4.388952757806029" fill="#ff4206" stroke="none" /><path d="M 90.42595943632237 118.69057910512821 l -2.144006382400384 4.185559965578546 a25.702730652847073,25.702730652847073 0 0,0 -0.3920389741913344,-0.20509626239071538 l 2.2157362591182137 -4.1480342842431135" fill="#ff4006" stroke="none" /><line stroke="#e1ed5e" stroke-width="0.3" x1="58.666819895761336" x2="56.23545636021788" y1="174.27360380694188" y2="178.64263932499728" /><path d="M 58.180547188652646 175.14741091055294 a86.0,86.0 0 0,1 -31.652253787137756,-30.449443065178592" fill="none" id="id116" stroke="none" /><text fill="#e1ed5e" style="font-size:6.75px; font-family:Arial;" text-anchor="middle"><textPath startOffset="22.20632615414155" xlink:href="#id116">August</textPath></text><path d="M 89.7882731507175 118.34994917583269 l -3.3256880964041886 5.976090865373717 a27.839142003626456,27.839142003626456 0 0,0 -0.41672707698550426,-0.2366285102209989 l 3.4280639403109 -5.917959189358085" fill="#ff5d08" stroke="none" /><path d="M 87.95078237400918 117.19931262002967 l -3.704254944784726 5.287533248815754 a27.45596720509748,27.45596720509748 0 0,0 -0.3847400398065411,-0.27450180292034043 l 3.794722312440154 -5.222987184051194" fill="#ff5808" stroke="none" /><path d="M 86.51685102203217 116.09983520530335 l -3.214706823237907 3.8385877195354676 a26.00690479637279,26.00690479637279 0 0,0 -0.34073320746932806,-0.2903802314544361 l 3.2803055072842913 -3.78268309785808" fill="#ff4406" stroke="none" /><path d="M 85.70375840098266 115.38237550388516 l -0.4492228653486847 0.48335184823678984 a21.659871344995373,21.659871344995373 0 0,0 -0.27091771590645064,-0.2561696102207705 l 0.45747641564595226 -0.47554760127008855" fill="#ff0701" stroke="none" /><path d="M 85.18274418774928 114.88116024355367 l -3.5662140956838897 3.581594601128141 a26.0542757011351,26.0542757011351 0 0,0 -0.31508226531862277,-0.31917667126502797 l 3.6273369860580456 -3.5196774358824485" fill="#ff4406" stroke="none" /><path d="M 84.9287848128048 114.62390073753433 l -3.556945103238373 3.4513747878015133 a25.956192731656365,25.956192731656365 0 0,0 -0.3083761922711135,-0.32333120472449245 l 3.6158278468884446 -3.389636466494521" fill="#ff4306" stroke="none" /><path d="M 84.67929136418377 114.36230785411682 l -6.106850980416427 5.724831395521352 a29.37062264136665,29.37062264136665 0 0,0 -0.3425923578764158,-0.3718163416624074 l 6.204489746288571 -5.6188637990576" fill="#ff720a" stroke="none" /><path d="M 83.50135304334701 112.99209946851258 l -3.9333354407274688 3.09736219116746 a26.0064738322053,26.0064738322053 0 0,0 -0.27392641523240513,-0.3540868173402545 l 3.9860686731779422 -3.029197379713953" fill="#ff4406" stroke="none" /><path d="M 83.06392112726016 112.41649034213515 l -4.025106278045323 2.9509601131972136 a25.990956435317862,25.990956435317862 0 0,0 -0.2614197721249705,-0.36308919906217807 l 4.075305842545901 -2.8812373086838976" fill="#ff4406" stroke="none" /><line stroke="#e1ed5e" stroke-width="0.3" x1="26.63291911575756" x2="22.317208475507996" y1="142.92168965132927" y2="145.44649492493687" /><path d="M 25.769776987707644 143.4266507060508 a86.0,86.0 0 0,1 -11.730757126820373,-40.83630448921669" fill="none" id="id117" stroke="none" /><text fill="#e1ed5e" style="font-size:6.75px; font-family:Arial;" text-anchor="middle"><textPath startOffset="21.46611528233685" xlink:href="#id117">September</textPath></text><path d="M 81.69416730710424 110.29060199501025 l -4.959789045704305 2.788139491101233 a26.689747727248253,26.689747727248253 0 0,0 -0.22168198235332695,-0.4024171898557861 l 5.007047437509148 -2.7023517828476247" fill="#ff4d07" stroke="none" /><line stroke="#e1ed5e" stroke-width="0.3" x1="15.007084014347285" x2="10.007500721073583" y1="101.09737516637583" y2="101.16192664675087" /><path d="M 14.007167355692545 101.11028546245083 a86.0,86.0 0 0,1 10.666146001902534,-42.60595125391555" fill="none" id="id118" stroke="none" /><text fill="#e1ed5e" style="font-size:6.75px; font-family:Arial;" text-anchor="middle"><textPath startOffset="22.20632615414155" xlink:href="#id118">October</textPath></text><line stroke="#e1ed5e" stroke-width="0.3" x1="26.266209847984243" x2="21.928928074336255" y1="57.711370442889674" y2="55.22380399835377" /><path d="M 25.398753493254645 57.213857153982495 a86.0,86.0 0 0,1 29.58750427330803,-30.492523968695096" fill="none" id="id119" stroke="none" /><text fill="#e1ed5e" style="font-size:6.75px; font-family:Arial;" text-anchor="middle"><textPath startOffset="21.46611528233685" xlink:href="#id119">November</textPath></text><line stroke="#e1ed5e" stroke-width="0.3" x1="56.762969772571076" x2="54.21961505331055" y1="26.818313649435495" y2="22.513508569990535" /><path d="M 56.25429882871897 25.957352633546506 a86.0,86.0 0 0,1 42.265352541879196,-11.944610805530505" fill="none" id="id120" stroke="none" /><text fill="#e1ed5e" style="font-size:6.75px; font-family:Arial;" text-anchor="middle"><textPath startOffset="22.20632615414155" xlink:href="#id120">December</textPath></text></svg>