<?xml version="1.0" encoding="utf-8" ?>
<svg baseProfile="full" height="200mm" version="1.1" viewBox="0,0,200,200" width="200mm" xmlns="http://www.w3.org/2000/svg" xmlns:ev="http://www.w3.org/2001/xml-events" xmlns:xlink="http://www.w3.org/1999/xlink"><defs /><rect fill="#1a1a1a" height="200" width="200" x="0" y="0" /><text alignment-baseline="middle" fill="#e1ed5e" style="dominant-baseline: central; font-size:9.0px; font-family:Arial;" text-anchor="middle" x="100.0" y="100.0">2022</text><line stroke="#e1ed5e" stroke-width="0.3" x1="100.0" x2="100.0" y1="15.0" y2="10.0" /><path d="M 100.0 14.0 a86.0,86.0 0 0,1 42.46469731375804,11.215312516191453" fill="none" id="id25" stroke="none" /><text fill="#e1ed5e" style="font-size:6.75px; font-family:Arial;" text-anchor="middle"><textPath startOffset="22.20632615414155" xlink:href="#id25">January</textPath></text><path d="M 100.0 79.0 l 0.0 -14.833043083213447 a35.83304308321345,35.83304308321345 0 0,0 0.6168069327387217,0.005309052002980595 l -0.25532645346619326 14.830845407819025" fill="#ffb110" stroke="none" /><path d="M 100.36148047927253 79.00311137660856 l 0.1829279142260702 -10.625517175488593 a31.62709169379874,31.62709169379874 0 0,0 0.5442470735423094,0.014056296224327356 l -0.3658016229632474 10.620794087121904" fill="#ff780b" stroke="none" /><path d="M 100.72285384407766 79.0124445844662 l 0.8888344539499207 -25.806686248327573 a46.82198833951692,46.82198833951692 0 0,0 0.8052471587893503,0.03467563653986338 l -1.3329224451286024 25.78756288526351" fill="#c4ff1e" stroke="none" /><path d="M 101.80526077348638 79.07773832637324 l 0.22368291880157096 -2.5923969699120004 a23.602029226925115,23.602029226925115 0 0,0 0.40446558421200085,0.03840888081747691 l -0.268273630103816 2.5881625445793457" fill="#ff0500" stroke="none" /><path d="M 102.52436894288641 79.15227682838746 l 1.3161265459564169 -10.86934695747628 a31.94873930491406,31.94873930491406 0 0,0 0.5453882135025793,0.07080704285916924 l -1.5030294879668422 10.845081591452972" fill="#ff7c0b" stroke="none" /><path d="M 105.01212808612495 79.60689891045804 l 2.866783945073665 -11.664230001544635 a33.01135761338684,33.01135761338684 0 0,0 0.5506469116385398,0.1403721584415942 l -3.0671397453972298 11.613154846934172" fill="#ff8b0c" stroke="none" /><path d="M 105.71112130821622 79.79150937346287 l 1.8699568626994865 -6.616740162308717 a27.875899144393124,27.875899144393124 0 0,0 0.4606290329933125,0.13447024601050986 l -1.983576113416226 6.583571587379503" fill="#ff4306" stroke="none" /><line stroke="#e1ed5e" stroke-width="0.3" x1="143.23703022742887" x2="145.7803849466894" y1="26.81831364943548" y2="22.513508569990506" /><path d="M 143.74570117128098 25.957352633546492 a86.0,86.0 0 0,1 28.547481713284135,27.462654790039103" fill="none" id="id26" stroke="none" /><text fill="#e1ed5e" style="font-size:6.75px; font-family:Arial;" text-anchor="middle"><textPath startOffset="19.985693538727396" xlink:href="#id26">February</textPath></text><path d="M 112.48926042617603 83.11751280151076 l 6.831138711181485 -9.234062539116781 a32.486181570379344,32.486181570379344 0 0,0 0.4466909465785986,0.33643836008849465 l -6.989075811518467 9.11510758952244" fill="#ff840c" stroke="none" /><path d="M 112.77801427241765 83.33499621200491 l 13.875732899461108 -18.096641340421375 a43.804043310365714,43.804043310365714 0 0,0 0.5944155378971698,0.4639507557917713 l -14.185180992517708 17.855112195406377" fill="#e8ff1a" stroke="none" /><path d="M 116.82858285166822 87.43820079747576 l 5.487324146973337 -4.0960468686529135 a27.847505110926022,27.847505110926022 0 0,0 0.28343109478203643,0.3865996947564268 l -5.557017854268999 4.000984730224993" fill="#ff4306" stroke="none" /><line stroke="#e1ed5e" stroke-width="0.3" x1="172.23445277983987" x2="176.4835382374775" y1="55.19839476539836" y2="52.563006222186495" /><path d="M 173.08426987136738 54.67131705675599 a86.0,86.0 0 0,1 12.851231095245387,41.99856678651699" fill="none" id="id27" stroke="none" /><text fill="#e1ed5e" style="font-size:6.75px; font-family:Arial;" text-anchor="middle"><textPath startOffset="22.20632615414155" xlink:href="#id27">March</textPath></text><path d="M 117.84615892207809 88.93136811851018 l 6.230297560926243 -3.864185593950004 a28.331339441205422,28.331339441205422 0 0,0 0.25347671878061423,0.416649078459691 l -6.295890077993081 3.756368742283231" fill="#ff4a06" stroke="none" /><path d="M 118.21658344932153 89.55222093294921 l 10.499525674664925 -6.021805618100807 a33.10380858635572,33.10380858635572 0 0,0 0.2792422254852791,0.4967407604534688 l -10.601625541442639 5.8401813477125435" fill="#ff8c0c" stroke="none" /><path d="M 119.04729006885535 91.15688171328212 l 7.1822143214128635 -3.334499058670028 a28.918528053305067,28.918528053305067 0 0,0 0.20573148038067757,0.45330204627768644 l -7.238548118756888 3.2103750035502787" fill="#ff5207" stroke="none" /><path d="M 119.7369772167798 92.82701384747503 l 6.966619871907305 -2.531870373170015 a28.41243280078746,28.41243280078746 0 0,0 0.16309672575396392,0.4610964065477466 l -7.009169678471078 2.411576340195654" fill="#ff4b07" stroke="none" /><path d="M 120.37134235888165 94.90015583598534 l 14.30592715946818 -3.5814036134552354 a35.747406678276676,35.747406678276676 0 0,0 0.14429559819310459,0.5981984112677903 l -14.365455557922104 3.3346199705280393" fill="#ffb010" stroke="none" /><path d="M 120.45610955862082 95.25157060432595 l 13.952567366201402 -3.238777189618262 a35.32354054667979,35.32354054667979 0 0,0 0.13238861485641967,0.5934722016026491 l -14.006250368059858 2.9981268184656495" fill="#ffaa0f" stroke="none" /><path d="M 120.83666639777658 97.38593545837742 l 8.679371180996855 -1.0888707442302654 a29.747406678276672,29.747406678276672 0 0,0 0.05936682442596462,0.5086186969729682 l -8.696828358426409 0.9393083089324445" fill="#ff5e08" stroke="none" /><path d="M 120.94382443527127 98.46500227214037 l 8.098064319389138 -0.5935167365798487 a29.119784962519873,29.119784962519873 0 0,0 0.0323360083525939,0.5002237369585625 l -8.107080918746147 0.45403393536825093" fill="#ff5507" stroke="none" /><path d="M 120.98425023603335 99.18683210126433 l 23.823339917396115 -0.9231864395244899 a44.84122056485198,44.84122056485198 0 0,0 0.0232497576424724,0.7715462674276697 l -23.83570136949423 0.512970024671821" fill="#dcff1b" stroke="none" /><line stroke="#e1ed5e" stroke-width="0.3" x1="184.98032266829074" x2="189.97916517819016" y1="98.17113171792111" y2="98.06355123074" /><path d="M 185.9800911702706 98.14961562048488 a86.0,86.0 0 0,1 -9.607161424134198,41.387399972396054" fill="none" id="id28" stroke="none" /><text fill="#e1ed5e" style="font-size:6.75px; font-family:Arial;" text-anchor="middle"><textPath startOffset="21.466115282336823" xlink:href="#id28">April</textPath></text><path d="M 120.5718875245553 104.21870165774334 l 4.52875698925623 0.9287176295946129 a25.62300295297948,25.62300295297948 0 0,0 -0.09232329281922028,0.4313036880446161 l -4.512099657712567 -1.006535137055398" fill="#ff2303" stroke="none" /><path d="M 120.41448212921028 104.9243191809786 l 14.406442780255151 3.47507823433704 a35.81964109941698,35.81964109941698 0 0,0 -0.1497409149781161,0.5981405207782089 l -14.344490550981973 -3.722546594512645" fill="#ffb110" stroke="none" /><line stroke="#e1ed5e" stroke-width="0.3" x1="174.80103733775053" x2="179.2010983576182" y1="140.37084112569926" y2="142.7455964860345" /><path d="M 175.68104954172406 140.8457921977663 a86.0,86.0 0 0,1 -30.038265399797805,32.042727171017184" fill="none" id="id29" stroke="none" /><text fill="#e1ed5e" style="font-size:6.75px; font-family:Arial;" text-anchor="middle"><textPath startOffset="22.206326154141568" xlink:href="#id29">May</textPath></text><path d="M 118.12598468904814 110.60418214915192 l 5.474322258790393 3.2026238227181576 a27.342318467479366,27.342318467479366 0 0,0 -0.2411581087107961,0.4041948615877905 l -5.41838327438137 -3.296380778192052" fill="#ff3c05" stroke="none" /><path d="M 117.94076556474637 110.91462005526583 l 1.9437171618568028 1.1824988315021523 a23.27515711365185,23.27515711365185 0 0,0 -0.21117811654449678,0.34048636444588093 l -1.9230744056443432 -1.2157815273133068" fill="#ff0000" stroke="none" /><path d="M 117.55443506779139 111.5257021239791 l 3.8025843077544383 2.496659896102774 a25.54895131369728,25.54895131369728 0 0,0 -0.24453618447932532,0.3655484166913852 l -3.759045017864392 -2.561745226999966" fill="#ff2203" stroke="none" /><path d="M 117.14729908036423 112.12312394758627 l 4.228723639338708 2.989703543370067 a26.178844552131444,26.178844552131444 0 0,0 -0.26330957055562015,0.3657139637959094 l -4.176634276407484 -3.062051112617108" fill="#ff2b04" stroke="none" /><path d="M 115.32070863581623 114.36230785411682 l 2.94336451536233 2.759239686713418 a25.034451427273414,25.034451427273414 0 0,0 -0.2974253152822023,0.3118492539826487 l -2.8954326487011635 -2.8094960572785737" fill="#ff1a02" stroke="none" /><path d="M 115.07121518719521 114.62390073753431 l 2.8422874967684715 2.757928256215977 a24.960399787991218,24.960399787991218 0 0,0 -0.3018536918343901,0.3057761961668449 l -2.7943931798785457 -2.8064449463634866" fill="#ff1902" stroke="none" /><path d="M 114.81725581225074 114.88116024355365 l 6.753664457339955 6.782791921414657 a30.57174225789354,30.57174225789354 0 0,0 -0.37610528896579715,0.36809818492314467 l -6.635909215998363 -6.898040209260374" fill="#ff6909" stroke="none" /><path d="M 114.29624159901734 115.38237550388516 l 8.052837578219643 8.66463892919144 a32.828954342394184,32.828954342394184 0 0,0 -0.4172410811674648,0.381139834955929 l -7.902496947585315 -8.801971530733953" fill="#ff880c" stroke="none" /><path d="M 114.0293411484842 115.62618273729858 l 10.017467662102774 11.157671525430818 a35.994775497842056,35.994775497842056 0 0,0 -0.46460281686193694,0.4099579674374125 l -9.82392249233425 -11.32845263464052" fill="#ffb310" stroke="none" /><path d="M 113.20401910651253 116.32954008644616 l 2.651829903521057 3.2795440814399934 a25.217536155069283,25.217536155069283 0 0,0 -0.3398873648010314,0.27002707874403115 l -2.5949850460026744 -3.3247050741891506" fill="#ff1d02" stroke="none" /><path d="M 112.92097659922987 116.55440617244103 l 6.783551149501038 8.691112483483845 a32.02506246687363,32.02506246687363 0 0,0 -0.43747954237844416,0.3354406580110984 l -6.6329428786291 -8.806592483322316" fill="#ff7d0b" stroke="none" /><line stroke="#e1ed5e" stroke-width="0.3" x1="143.8653032363475" x2="146.44561519142675" y1="172.8068346515853" y2="177.08958963109032" /><path d="M 144.38136562736335 173.6633856474863 a86.0,86.0 0 0,1 -40.68145358897372,12.25698825130547" fill="none" id="id30" stroke="none" /><text fill="#e1ed5e" style="font-size:6.75px; font-family:Arial;" text-anchor="middle"><textPath startOffset="21.466115282336833" xlink:href="#id30">June</textPath></text><path d="M 110.8373102113329 117.98757091392108 l 2.2384064563748858 3.715266434480879 a25.337472552434313,25.337472552434313 0 0,0 -0.3755159773930507,0.22186145844807412 l -2.174122607953453 -3.753246465222703" fill="#ff1e03" stroke="none" /><path d="M 107.59598834532513 119.57807347666477 l 5.367451618153894 13.83419212686566 a35.838949042174605,35.838949042174605 0 0,0 -0.5770579013244885,0.21819392139910992 l -5.128523496069131 -13.924534298371398" fill="#ffb110" stroke="none" /><path d="M 103.41894727170886 120.7198165907248 l 1.856643433989243 11.251800150577585 a32.403952449458615,32.403952449458615 0 0,0 -0.5511204615372173,0.08607368172736665 l -1.6626871088435087 -11.282092139652057" fill="#ff830c" stroke="none" /><path d="M 102.70371172650421 120.8252237178851 l 4.465252342655037 34.393414830816255 a55.682062542591055,55.682062542591055 0 0,0 -0.9515602511654221,0.11522069463191602 l -3.8725646684382347 -34.46518105417352" fill="#62ff29" stroke="none" /><path d="M 101.26447882468166 120.96189622390904 l 0.5292403773132458 8.773481730337116 a29.78942984780798,29.78942984780798 0 0,0 -0.5121114100103954,0.02647031035256798 l -0.3781408988893708 -8.781291847451886" fill="#ff5e08" stroke="none" /><line stroke="#e1ed5e" stroke-width="0.3" x1="102.19456741930631" x2="102.32365962044197" y1="184.97166512339345" y2="189.96999836594603" /><path d="M 102.22038585953345 185.97133177190398 a86.0,86.0 0 0,1 -42.740103519485714,-10.115201625700543" fill="none" id="id31" stroke="none" /><text fill="#e1ed5e" style="font-size:6.75px; font-family:Arial;" text-anchor="middle"><textPath startOffset="22.20632615414155" xlink:href="#id31">July</textPath></text><path d="M 98.37488393609728 120.93702456842531 l -0.4582718664987599 5.904100969170547 a26.921859619898537,26.921859619898537 0 0,0 -0.4617171770986189,-0.039838900844628836 l 0.5598333613389205 -5.895337816047254" fill="#ff3605" stroke="none" /><path d="M 97.65516085044442 120.86867818915974 l -2.5210146921013443 22.436611197649864 a43.577799651699856,43.577799651699856 0 0,0 -0.7447084408931332,-0.09017382110368122 l 2.9068505560458666 -22.389891847820834" fill="#ebff1a" stroke="none" /><path d="M 95.16358092515715 120.4354850818985 l -2.8245097542411535 11.934496587921796 a33.26417808737791,33.26417808737791 0 0,0 -0.5560609739662328,-0.13666625850461828 l 3.029524012950597 -11.884109071103149" fill="#ff8e0d" stroke="none" /><path d="M 92.7421414339146 119.70592522655815 l -4.042855440055596 10.976819991477084 a32.69766033164231,32.69766033164231 0 0,0 -0.5264786985520699,-0.19906919480092347 l 4.231204359367949 -10.905602546569527" fill="#ff870c" stroke="none" /><path d="M 90.10565033884886 118.52300852407294 l -5.365053750325531 10.043806794051331 a32.386916029378355,32.386916029378355 0 0,0 -0.4894699210309788,-0.26689802759787673 l 5.5371464832251505 -9.949968114693688" fill="#ff820c" stroke="none" /><line stroke="#e1ed5e" stroke-width="0.3" x1="58.666819895761336" x2="56.23545636021788" y1="174.27360380694188" y2="178.64263932499728" /><path d="M 58.180547188652646 175.14741091055294 a86.0,86.0 0 0,1 -31.652253787137756,-30.449443065178592" fill="none" id="id32" stroke="none" /><text fill="#e1ed5e" style="font-size:6.75px; font-family:Arial;" text-anchor="middle"><textPath startOffset="22.20632615414155" xlink:href="#id32">August</textPath></text><path d="M 87.95078237400918 117.19931262002967 l -6.627467211993997 9.460189366337211 a32.55069281441659,32.55069281441659 0 0,0 -0.45613235023182885,-0.3254383208253763 l 6.789326890074713 -9.344706783667617" fill="#ff850c" stroke="none" /><path d="M 86.24171649860922 115.8653595955263 l -11.959195471792698 13.790741891166949 a39.25395623532975,39.25395623532975 0 0,0 -0.5066707150598221,-0.44707799644639257 l 12.194808539759109 -13.582840752948268" fill="#ffdd14" stroke="none" /><path d="M 83.72743513129214 113.27417163493432 l -4.38316704735111 3.575521877501481 a26.656545771181946,26.656545771181946 0 0,0 -0.2869794059692372,-0.3580509340475035 l 4.444064365375208 -3.4995431098757175" fill="#ff3204" stroke="none" /><path d="M 82.85270091963577 112.12312394758628 l -10.54908798576205 7.458195053694144 a33.91928522753086,33.91928522753086 0 0,0 -0.33295669935771643,-0.4796489585088702 l 10.6759055922819 -7.275504832998262" fill="#ff970d" stroke="none" /><line stroke="#e1ed5e" stroke-width="0.3" x1="26.63291911575756" x2="22.317208475507996" y1="142.92168965132927" y2="145.44649492493687" /><path d="M 25.769776987707644 143.4266507060508 a86.0,86.0 0 0,1 -11.730757126820373,-40.83630448921669" fill="none" id="id33" stroke="none" /><text fill="#e1ed5e" style="font-size:6.75px; font-family:Arial;" text-anchor="middle"><textPath startOffset="21.46611528233685" xlink:href="#id33">September</textPath></text><path d="M 79.97269907076064 106.31721596034903 l -9.688162685993817 3.055939298193915 a31.158703717725448,31.158703717725448 0 0,0 -0.15694079317852644,-0.5128915926409485 l 9.739330251678474 -2.8887207330009184" fill="#ff710a" stroke="none" /><path d="M 79.67330655649465 105.27499134158121 l -42.431029873854676 11.01129978769231 a64.83652608465206,64.83652608465206 0 0,0 -0.27104349574503617,-1.0826840327653477 l 42.614284683894766 -10.279287915529572" fill="#35ff62" stroke="none" /><path d="M 79.35854240842038 103.8639653848113 l -11.954089708414074 2.2377387175934484 a33.1617324146286,33.1617324146286 0 0,0 -0.10020142380495385,-0.56198279807471 l 11.990837574558217 -2.0316371687855246" fill="#ff8d0d" stroke="none" /><path d="M 79.18660465613746 102.79330883721812 l -13.530766947846736 1.8159272077106994 a34.65207844324979,34.65207844324979 0 0,0 -0.07425196340028901,-0.5918612054587482 l 13.560020420493874 -1.5827482479645425" fill="#ffa10e" stroke="none" /><line stroke="#e1ed5e" stroke-width="0.3" x1="15.007084014347285" x2="10.007500721073583" y1="101.09737516637583" y2="101.16192664675087" /><path d="M 14.007167355692545 101.11028546245083 a86.0,86.0 0 0,1 10.666146001902534,-42.60595125391555" fill="none" id="id34" stroke="none" /><text fill="#e1ed5e" style="font-size:6.75px; font-family:Arial;" text-anchor="middle"><textPath startOffset="22.20632615414155" xlink:href="#id34">October</textPath></text><path d="M 79.00175016825051 100.2711162175752 l -23.039042860752183 0.29746565580507395 a44.04096312561521,44.04096312561521 0 0,0 -0.0032626021765436867,-0.7581138447948254 l 23.04074976021823 0.09915766719342678" fill="#e5ff1a" stroke="none" /><path d="M 79.54389044137918 95.25157060432595 l -61.3683286758625 -14.245288187022146 a84.0,84.0 0 0,0 0.3390687989567409,-1.4056590733624128 l 61.114027076644945 15.299532492043955" fill="#4dd2ff" stroke="none" /><path d="M 80.2630227832202 92.82701384747504 l -15.142876548001508 -5.50335761120829 a37.11191035057166,37.11191035057166 0 0,0 0.22337024667862912,-0.598521208399044 l 15.045901712821252 5.763201956636675" fill="#ffc212" stroke="none" /><path d="M 80.52162464483688 92.15188598940014 l -19.097652748463435 -7.6947154663521715 a41.58953585219959,41.58953585219959 0 0,0 0.2732597142891627,-0.6617200729173142 l 18.96237134728807 8.022310109722797" fill="#fffb17" stroke="none" /><path d="M 81.43458229118936 90.18545643968196 l -11.680374645645296 -6.174789469246164 a34.2120845006436,34.2120845006436 0 0,0 0.27971132464827425,-0.5182626037852901 l 11.57235522177855 6.374933056363927" fill="#ff9b0e" stroke="none" /><line stroke="#e1ed5e" stroke-width="0.3" x1="26.266209847984243" x2="21.928928074336255" y1="57.711370442889674" y2="55.22380399835377" /><path d="M 25.398753493254645 57.213857153982495 a86.0,86.0 0 0,1 29.58750427330803,-30.492523968695096" fill="none" id="id35" stroke="none" /><text fill="#e1ed5e" style="font-size:6.75px; font-family:Arial;" text-anchor="middle"><textPath startOffset="21.46611528233685" xlink:href="#id35">November</textPath></text><path d="M 83.6137871275137 86.86637796730984 l -9.598932863766706 -7.693587110756941 a33.30165821155448,33.30165821155448 0 0,0 0.3623561484617516,-0.44420579254082915 l 9.465078223228561 7.857677072905853" fill="#ff8f0d" stroke="none" /><path d="M 84.07557802195018 86.31012108654704 l -10.402403137691122 -8.942719526034224 a34.71795260089347,34.71795260089347 0 0,0 0.39348358090149593,-0.4498197534850802 l 10.246927693211783 9.120454835722247" fill="#ffa20f" stroke="none" /><path d="M 86.10567301691215 84.25364557470407 l -21.5703305778723 -24.445521597656533 a53.60157492238964,53.60157492238964 0 0,0 0.6970915482668667,-0.6045109214028397 l 21.146345230958662 24.813197512479054" fill="#78ff26" stroke="none" /><path d="M 88.09926311788651 82.69761687909137 l -10.7438620391238 -15.620412335853022 a39.95858256984933,39.95858256984933 0 0,0 0.5700668455283587,-0.384911678824319 l 10.4733904991889 15.803035926976007" fill="#ffe615" stroke="none" /><line stroke="#e1ed5e" stroke-width="0.3" x1="56.762969772571076" x2="54.21961505331055" y1="26.818313649435495" y2="22.513508569990535" /><path d="M 56.25429882871897 25.957352633546506 a86.0,86.0 0 0,1 42.265352541879196,-11.944610805530505" fill="none" id="id36" stroke="none" /><text fill="#e1ed5e" style="font-size:6.75px; font-family:Arial;" text-anchor="middle"><textPath startOffset="22.20632615414155" xlink:href="#id36">December</textPath></text><path d="M 89.94658935756843 81.56283822128135 l -10.26731299652586 -18.829441816563723 a42.4468085106383,42.4468085106383 0 0,0 0.6444940548895957,-0.34426640387944263 l 9.941673895107959 19.003386946944914" fill="#f9ff18" stroke="none" /><path d="M 97.11714578562143 79.19881850522333 l -8.059980037630016 -58.156637533320186 a79.71250094646778,79.71250094646778 0 0,0 1.3607503591958166,-0.17666445042042625 l 7.057714949926342 58.286760306904746" fill="#48fbff" stroke="none" /></svg>