<?xml version="1.0" encoding="utf-8" ?>
<svg baseProfile="full" height="200mm" version="1.1" viewBox="0,0,200,200" width="200mm" xmlns="http://www.w3.org/2000/svg" xmlns:ev="http://www.w3.org/2001/xml-events" xmlns:xlink="http://www.w3.org/1999/xlink"><defs /><rect fill="#1a1a1a" height="200" width="200" x="0" y="0" /><text alignment-baseline="middle" fill="#e1ed5e" style="dominant-baseline: central; font-size:9.0px; font-family:Arial;" text-anchor="middle" x="100.0" y="100.0">2022</text><line stroke="#e1ed5e" stroke-width="0.3" x1="100.0" x2="100.0" y1="15.0" y2="10.0" /><path d="M 100.0 14.0 a86.0,86.0 0 0,1 42.46469731375804,11.215312516191453" fill="none" id="id37" stroke="none" /><text fill="#e1ed5e" style="font-size:6.75px; font-family:Arial;" text-anchor="middle"><textPath startOffset="22.20632615414155" xlink:href="#id37">January</textPath></text><path d="M 100.0 79.0 l 0.0 -8.349397590361448 a29.34939759036145,29.34939759036145 0 0,0 0.5052016336820879,0.004348429958949745 l -0.14372115440955952 8.348160537011058" fill="#ff1602" stroke="none" /><path d="M 100.72285384407766 79.0124445844662 l 1.5414334051950105 -44.75444002399134 a65.78097719795414,65.78097719795414 0 0,0 1.1313049033061657,0.04871636889944243 l -2.3115791408905078 44.7212759285677" fill="#34ff5c" stroke="none" /><path d="M 101.08401301168833 79.027996857942 l 1.092604565330708 -21.13822078708654 a42.16643953951157,42.16643953951157 0 0,0 0.724535792912654,0.04370597764991634 l -1.456302407082974 21.116281540056317" fill="#ffd614" stroke="none" /><path d="M 101.44485096284872 79.0497635885617 l 0.7219600090508079 -10.468368889340073 a31.49323465181122,31.49323465181122 0 0,0 0.5404986065346018,0.04195309439150394 l -0.9020488049477509 10.454390532760105" fill="#ff3805" stroke="none" /><path d="M 103.2404852339499 79.25152402106235 l 4.6349845843662445 -29.677304282682012 a51.03706829209883,51.03706829209883 0 0,0 0.8668300792422539,0.1430343903616954 l -5.145143869747374 29.593123629380692" fill="#b3ff20" stroke="none" /><path d="M 103.59715602781102 79.31037775812273 l 3.645356306438208 -20.966853907404 a42.28139058838288,42.28139058838288 0 0,0 0.7159747037991828,0.13083980072416548 l -4.005726131340292 20.9009986253291" fill="#ffd714" stroke="none" /><path d="M 105.71112130821622 79.79150937346287 l 3.921997662884065 -13.877774386208596 a35.421327524960226,35.421327524960226 0 0,0 0.585311769161125,0.17086855572363788 l -4.160299649768618 13.808207501566255" fill="#ff740a" stroke="none" /><path d="M 106.0581310904928 79.89281104454417 l 6.2073917456568575 -20.602591275440112 a42.517399460596764,42.517399460596764 0 0,0 0.6989346765761629,0.21716240625188576 l -6.561111794943739 20.492688734305705" fill="#ffdb14" stroke="none" /><line stroke="#e1ed5e" stroke-width="0.3" x1="143.23703022742887" x2="145.7803849466894" y1="26.81831364943548" y2="22.513508569990506" /><path d="M 143.74570117128098 25.957352633546492 a86.0,86.0 0 0,1 28.547481713284135,27.462654790039103" fill="none" id="id38" stroke="none" /><text fill="#e1ed5e" style="font-size:6.75px; font-family:Arial;" text-anchor="middle"><textPath startOffset="19.985693538727396" xlink:href="#id38">February</textPath></text><path d="M 116.15771136456269 86.58626213691792 l 16.151999288974373 -13.408995837255079 a41.99257607809372,41.99257607809372 0 0,0 0.45692223597335885,0.5601326342100106 l -16.38042001702414 13.128979033436968" fill="#ffd313" stroke="none" /><path d="M 116.38621287248628 86.86637796730983 l 16.356874862565135 -13.110107488085259 a41.96240142776501,41.96240142776501 0 0,0 0.44689142132369813,0.5675067225467212 l -16.5801203644828 12.826608371585499" fill="#ffd313" stroke="none" /><path d="M 116.82858285166822 87.43820079747576 l 17.197147997627855 -12.836916923214265 a42.45992393616111,42.45992393616111 0 0,0 0.4321558673802484,0.5894601174401268 l -17.415566477521732 12.538994362102645" fill="#ffda14" stroke="none" /><path d="M 117.04232023915458 87.72973835380427 l 17.294293031678926 -12.451678967816827 a42.31048757262842,42.31048757262842 0 0,0 0.42046022887391404,0.5947111756895669 l -17.506065880356722 12.152141291795468" fill="#ffd814" stroke="none" /><path d="M 117.65298651832404 88.62581576622439 l 16.806065116302253 -10.828495262216938 a40.9925019529134,40.9925019529134 0 0,0 0.377077149435078,0.5964454951329851 l -16.989969861983287 10.537602119369748" fill="#ffc512" stroke="none" /><line stroke="#e1ed5e" stroke-width="0.3" x1="172.23445277983987" x2="176.4835382374775" y1="55.19839476539836" y2="52.563006222186495" /><path d="M 173.08426987136738 54.67131705675599 a86.0,86.0 0 0,1 12.851231095245387,41.99856678651699" fill="none" id="id39" stroke="none" /><text fill="#e1ed5e" style="font-size:6.75px; font-family:Arial;" text-anchor="middle"><textPath startOffset="22.20632615414155" xlink:href="#id39">March</textPath></text><path d="M 117.84615892207809 88.93136811851018 l 17.73422548184701 -10.999207976292281 a41.868285256501636,41.868285256501636 0 0,0 0.37458996916868903,0.6157274175126914 l -17.920931249301923 10.69231278557251" fill="#ffd213" stroke="none" /><path d="M 118.03404312379186 89.2402003453031 l 13.311828021790516 -7.942345572151978 a36.50114894029502,36.50114894029502 0 0,0 0.31728245760802476,0.5423385686718496 l -13.44657015386887 7.712027591126232" fill="#ff840c" stroke="none" /><path d="M 119.04729006885535 91.15688171328212 l 19.442291716603524 -9.026506384544833 a42.43549683827596,42.43549683827596 0 0,0 0.30189356695941155,0.665182457286318 l -19.594787600526285 8.690501918416452" fill="#ffd914" stroke="none" /><path d="M 119.196687751892 91.48605970444005 l 19.94352175443027 -8.845169317487342 a42.81699063171759,42.81699063171759 0 0,0 0.29300949192174874,0.6763063056556257 l -20.0928219561947 8.500563867245113" fill="#ffdf14" stroke="none" /><path d="M 119.34039704204932 91.81776055985345 l 19.81657625636557 -8.383694060725707 a42.51704023856904,42.51704023856904 0 0,0 0.27935378527187726,0.6764773491793369 l -19.957951728523643 8.041342141093068" fill="#ffdb14" stroke="none" /><path d="M 119.7369772167798 92.82701384747503 l 18.509176730774822 -6.726768082379469 a40.69362922584802,40.69362922584802 0 0,0 0.23359483970685113,0.6604040680706806 l -18.622224651291482 6.4071663878821745" fill="#ffc111" stroke="none" /><path d="M 120.18372546131832 94.20196356495316 l 20.604020738316894 -5.918771694460976 a42.43729294841457,42.43729294841457 0 0,0 0.1956424466074915,0.7038299736872102 l -20.70284995549075 5.563230417354815" fill="#ffd914" stroke="none" /><path d="M 120.53481517161879 95.60439243477599 l 20.88092795392058 -4.469695203782808 a42.35395343798288,42.35395343798288 0 0,0 0.1464654247357026,0.7142174271481474 l -20.954772674571277 4.109602120471249" fill="#ffd814" stroke="none" /><path d="M 120.6074358757038 95.95851677861258 l 20.603675802103062 -4.04074580434728 a41.996168298370954,41.996168298370954 0 0,0 0.1330164158536124,0.710579012332521 l -20.670177941866534 3.6854887145521955" fill="#ffd313" stroke="none" /><path d="M 120.67395015179393 96.31383870115 l 20.496892048326615 -3.654591873372182 a41.82014950478677,41.82014950478677 0 0,0 0.12025909426381143,0.7097759818220181 l -20.55676300411065 3.3012301032343263" fill="#ffd113" stroke="none" /><path d="M 120.73433829027371 96.67025291283417 l 20.344665758187535 -3.2671692049832513 a41.60533473220853,41.60533473220853 0 0,0 0.1074687719384532,0.7080849315483744 l -20.39789042356529 2.916485161042795" fill="#ffce13" stroke="none" /><path d="M 120.78858239683441 97.02765380044208 l 20.339926717579665 -2.908197525170861 a41.54678154168971,41.54678154168971 0 0,0 0.09513026108545151,0.70883094155399 l -20.386972977722955 2.5576482415522066" fill="#ffcd13" stroke="none" /><path d="M 120.98425023603335 99.18683210126433 l 20.98867731828797 -0.8133394541228764 a42.00443040500858,42.00443040500858 0 0,0 0.02177890821268219,0.7227359355113636 l -20.9995679209563 0.45193337118651383" fill="#ffd313" stroke="none" /><line stroke="#e1ed5e" stroke-width="0.3" x1="184.98032266829074" x2="189.97916517819016" y1="98.17113171792111" y2="98.06355123074" /><path d="M 185.9800911702706 98.14961562048488 a86.0,86.0 0 0,1 -9.607161424134198,41.387399972396054" fill="none" id="id40" stroke="none" /><text fill="#e1ed5e" style="font-size:6.75px; font-family:Arial;" text-anchor="middle"><textPath startOffset="21.466115282336823" xlink:href="#id40">April</textPath></text><path d="M 120.95626037817324 101.35467743843564 l 20.921966382150135 1.3524605685434017 a41.96563442601452,41.96563442601452 0 0,0 -0.05280364187474504,0.7204637406921036 l -20.89558618161105 -1.7123974457322755" fill="#ffd313" stroke="none" /><path d="M 120.92983693683757 101.71520430193887 l 21.504581317224105 1.7623047182836873 a42.57667109517103,42.57667109517103 0 0,0 -0.06614671826943484,0.7299235241860803 l -21.471060002677596 -2.132209631018338" fill="#ffdb14" stroke="none" /><path d="M 120.89721153311464 102.0752229133903 l 21.794922158049705 2.1643711547959557 a42.9021262522879,42.9021262522879 0 0,0 -0.07930294294405327,0.7342467606683486 l -21.7544369136046 -2.539214237349096" fill="#ffe015" stroke="none" /><path d="M 120.76222939487914 103.15116336523771 l 21.415122244722966 3.2502554227775806 a42.66036982763045,42.66036982763045 0 0,0 -0.11643893127706674,0.7250653362119341 l -21.35600155908461 -3.61839998868272" fill="#ffdd14" stroke="none" /><path d="M 120.70491114924044 103.5080841355445 l 21.65952892875086 3.669827379148425 a42.9682231053889,42.9682231053889 0 0,0 -0.1298326963047809,0.7281707103580759 l -21.593149790106892 -4.04211684023972" fill="#ffe115" stroke="none" /><path d="M 120.5718875245553 104.21870165774334 l 24.02026132898385 4.92586381133264 a45.52013639033179,45.52013639033179 0 0,0 -0.1640154703509007,0.7662256739177828 l -23.931911819908503 -5.3386033046665915" fill="#fbff18" stroke="none" /><path d="M 119.9155931802556 106.66101706037122 l 20.137143778073348 6.735117404681455 a42.233614058695736,42.233614058695736 0 0,0 -0.2365266788432139,0.6874572444025564 l -20.018226268286902 -7.0807473521733115" fill="#ffd714" stroke="none" /><path d="M 119.79798401119884 107.00284435728193 l 20.478804642925212 7.243660842258843 a42.72215601639877,42.72215601639877 0 0,0 -0.251197608836897,0.6911879344390119 l -20.35108277308309 -7.595096573703986" fill="#ffdd14" stroke="none" /><path d="M 119.54520255179757 107.68017299344265 l 19.986303890612444 7.853501183864796 a42.4739335952423,42.4739335952423 0 0,0 -0.27324368528201654,0.6781684183184334 l -19.848157591073036 -8.196368970026043" fill="#ffda14" stroke="none" /><line stroke="#e1ed5e" stroke-width="0.3" x1="174.80103733775053" x2="179.2010983576182" y1="140.37084112569926" y2="142.7455964860345" /><path d="M 175.68104954172406 140.8457921977663 a86.0,86.0 0 0,1 -30.038265399797805,32.042727171017184" fill="none" id="id41" stroke="none" /><text fill="#e1ed5e" style="font-size:6.75px; font-family:Arial;" text-anchor="middle"><textPath startOffset="22.206326154141568" xlink:href="#id41">May</textPath></text><path d="M 116.0416608686014 113.55231037782055 l 5.315511196078394 4.490648327258597 a27.958489899018694,27.958489899018694 0 0,0 -0.3137441697996894,0.3649553501991487 l -5.237424516707926 -4.581480776619274" fill="#ff0000" stroke="none" /><path d="M 115.80600337817218 113.82643327865902 l 19.99013895218629 17.48654076812483 a47.559080619686505,47.559080619686505 0 0,0 -0.5443049593239464,0.6115323919377103 l -19.686175143214005 -17.828047329803407" fill="#e0ff1b" stroke="none" /><path d="M 115.56566222782051 114.09645910891815 l 9.071057209427398 8.214863277632277 a33.23797604046094,33.23797604046094 0 0,0 -0.3877029343839542,0.4207749630142781 l -8.928307867047723 -8.36978949544789" fill="#ff5307" stroke="none" /><path d="M 113.20401910651253 116.32954008644616 l 7.685749642027977 9.505042052838535 a33.22360715935203,33.22360715935203 0 0,0 -0.44779490815984585,0.3557553573597507 l -7.52099724115078 -9.635931324203412" fill="#ff5307" stroke="none" /><path d="M 112.04921762599082 117.19931262002967 l 23.806512469363224 33.98192837599633 a62.49122186806857,62.49122186806857 0 0,0 -0.8863133430908642,0.6096143992144426 l -23.218042241649478 -34.38668356457587" fill="#2fff30" stroke="none" /><path d="M 111.1453310114006 117.79835938074945 l 12.02333746173679 19.20047783965522 a43.65433717833948,43.65433717833948 0 0,0 -0.6403068506712803,0.3933287651002165 l -11.691051411133202 -19.404595071583813" fill="#ffea16" stroke="none" /><line stroke="#e1ed5e" stroke-width="0.3" x1="143.8653032363475" x2="146.44561519142675" y1="172.8068346515853" y2="177.08958963109032" /><path d="M 144.38136562736335 173.6633856474863 a86.0,86.0 0 0,1 -40.68145358897372,12.25698825130547" fill="none" id="id42" stroke="none" /><text fill="#e1ed5e" style="font-size:6.75px; font-family:Arial;" text-anchor="middle"><textPath startOffset="21.466115282336833" xlink:href="#id42">June</textPath></text><line stroke="#e1ed5e" stroke-width="0.3" x1="102.19456741930631" x2="102.32365962044197" y1="184.97166512339345" y2="189.96999836594603" /><path d="M 102.22038585953345 185.97133177190398 a86.0,86.0 0 0,1 -42.740103519485714,-10.115201625700543" fill="none" id="id43" stroke="none" /><text fill="#e1ed5e" style="font-size:6.75px; font-family:Arial;" text-anchor="middle"><textPath startOffset="22.20632615414155" xlink:href="#id43">July</textPath></text><path d="M 99.09653310690486 120.98055641714683 l -0.7680748741856529 17.83644575534893 a38.8529755557963,38.8529755557963 0 0,0 -0.6679232263467391,-0.03452400151117167 l 1.0749861689458808 -17.820581947075556" fill="#ffa70f" stroke="none" /><path d="M 98.73552117531835 120.96189622390904 l -1.1861856678201195 19.66399150843324 a40.699736000319305,40.699736000319305 0 0,0 -0.6989447822943593,-0.04820332438467085 l 1.5244932108934088 -19.640659839532283" fill="#ffc112" stroke="none" /><path d="M 98.37488393609728 120.93702456842531 l -0.7290268865003584 9.392346905392674 a30.420597677030887,30.420597677030887 0 0,0 -0.5217214814800539,-0.04501632471160427 l 0.8905926857219539 -9.378406328402406" fill="#ff2703" stroke="none" /><path d="M 98.01472825383883 120.90594882070398 l -1.4851248553667298 15.639140726546959 a36.70949771637425,36.70949771637425 0 0,0 -0.628549465418552,-0.06515172207433702 l 1.754106917390875 -15.611259636016861" fill="#ff870c" stroke="none" /><path d="M 96.93821686468263 120.77559828337769 l -3.0314235091801573 20.569594340974135 a41.79177096459667,41.79177096459667 0 0,0 -0.7107867516590867,-0.11101027254129908 l 3.3850461244477614 -20.51436576108573" fill="#ffd013" stroke="none" /><path d="M 94.11515582081647 120.15858648285463 l -4.885676632763793 16.73592909685082 a38.43448189349922,38.43448189349922 0 0,0 -0.6334826679887298,-0.19086313132743998 l 5.1730342751927685 -16.649350596417655" fill="#ffa10e" stroke="none" /><path d="M 93.76903079525671 120.05430185196036 l -3.277512753166392 10.548636643174744 a32.04607735247664,32.04607735247664 0 0,0 -0.5253704955248731,-0.16820704201363557 l 3.4586045937822054 -10.490656754501401" fill="#ff4106" stroke="none" /><path d="M 93.08242187328487 119.8279376855182 l -7.324083809687008 20.99310983148179 a43.23404740590378,43.23404740590378 0 0,0 -0.7005571736683889,-0.2511948778471121 l 7.6843605439851235 -20.863927412594716" fill="#ffe415" stroke="none" /><path d="M 92.40401165467489 119.57807347666478 l -3.0517960234689037 7.8657686224649295 a29.43704776512581,29.43704776512581 0 0,0 -0.47082304418356585,-0.18735020596087668 l 3.186740143694328 -7.812071572097986" fill="#ff1802" stroke="none" /><path d="M 92.06813273071674 119.44442032107085 l -7.850910926665175 19.245961484068033 a41.78566419012539,41.78566419012539 0 0,0 -0.6636529329172226,-0.2774069797832466 l 8.181035319079859 -19.107969461264815" fill="#ffd013" stroke="none" /><path d="M 91.7346041902142 119.30500536409082 l -8.637854445567369 20.174935386456145 a42.9463105616978,42.9463105616978 0 0,0 -0.6770778822240925,-0.2968110460822474 l 8.983853002449205 -20.023259787079446" fill="#ffe115" stroke="none" /><path d="M 91.40352486487194 119.15986991738527 l -8.676666225971706 19.33860025103321 a42.19589574578484,42.19589574578484 0 0,0 -0.660128676178653,-0.30303269796665616 l 9.008262897917778 -19.18638048273248" fill="#ffd614" stroke="none" /><path d="M 91.07499286063937 119.00905698771935 l -7.333325989976824 15.61899161270353 a38.25487087963781,38.25487087963781 0 0,0 -0.5936560860457333,-0.28499099772289327 l 7.6010947440228 -15.490446338481075" fill="#ff9e0e" stroke="none" /><path d="M 90.7491055286396 118.85261126421891 l -10.047231283830113 20.4754844260907 a43.80772498417712,43.80772498417712 0 0,0 -0.6741092924735781,-0.33801239352560614 l 10.398194483986451 -20.29950419165579" fill="#ffec16" stroke="none" /><line stroke="#e1ed5e" stroke-width="0.3" x1="58.666819895761336" x2="56.23545636021788" y1="174.27360380694188" y2="178.64263932499728" /><path d="M 58.180547188652646 175.14741091055294 a86.0,86.0 0 0,1 -31.652253787137756,-30.449443065178592" fill="none" id="id44" stroke="none" /><text fill="#e1ed5e" style="font-size:6.75px; font-family:Arial;" text-anchor="middle"><textPath startOffset="22.20632615414155" xlink:href="#id44">August</textPath></text><path d="M 83.28015986056508 112.70617746262583 l -50.159520418304766 38.118532387877515 a84.0,84.0 0 0,0 -0.8649549332196598,-1.158748481962768 l 50.80823661821951 -37.24947102640544" fill="#4dd2ff" stroke="none" /><path d="M 83.06392112726016 112.41649034213515 l -46.454544443565744 34.057611963548304 a78.6016113673815,78.6016113673815 0 0,0 -0.7905832701252443,-1.098051015837121 l 47.0339075060666 -33.252927342260044" fill="#46fff4" stroke="none" /><path d="M 82.44556493220864 111.52570212397912 l -49.37310606257976 32.41686281645284 a80.06400424224108,80.06400424224108 0 0,0 -0.7464829832947804,-1.1585581672864094 l 49.923793909251586 -31.562183049244982" fill="#48fbff" stroke="none" /><path d="M 82.05923443525364 110.91462005526583 l -47.24346699265337 28.741498820515556 a76.29935739170597,76.29935739170597 0 0,0 -0.6729571505180675,-1.1279148926912606 l 47.731205018869666 -27.924021833938184" fill="#42ffda" stroke="none" /><line stroke="#e1ed5e" stroke-width="0.3" x1="26.63291911575756" x2="22.317208475507996" y1="142.92168965132927" y2="145.44649492493687" /><path d="M 25.769776987707644 143.4266507060508 a86.0,86.0 0 0,1 -11.730757126820373,-40.83630448921669" fill="none" id="id45" stroke="none" /><text fill="#e1ed5e" style="font-size:6.75px; font-family:Arial;" text-anchor="middle"><textPath startOffset="21.46611528233685" xlink:href="#id45">September</textPath></text><path d="M 81.02952815118164 109.00673069616217 l -45.438855061851044 21.573292111315045 a71.3000644318875,71.3000644318875 0 0,0 -0.5168418870232915,-1.1132314442353604 l 45.80347156571416 -20.78794059980086" fill="#3cffa0" stroke="none" /><path d="M 80.87730276802145 108.67885076344099 l -51.40292756472787 23.32925798732016 a77.44922710244668,77.44922710244668 0 0,0 -0.5405178434540641,-1.2187250444456426 l 51.79688649291321 -22.440984606381825" fill="#44ffe7" stroke="none" /><path d="M 80.73074385275274 108.34839909993369 l -55.27895256592402 23.9495886255352 a81.24404860331055,81.24404860331055 0 0,0 -0.5449116442733736,-1.2880101627647051 l 55.6830151913897 -22.994503937104334" fill="#49eeff" stroke="none" /><path d="M 80.58989483394504 108.01547362559985 l -53.702814587947685 22.176772885443455 a79.10164842997165,79.10164842997165 0 0,0 -0.5088774243247798,-1.2629920344402694 l 54.076594626529854 -21.249081483160378" fill="#46fff9" stroke="none" /><path d="M 79.97269907076064 106.31721596034903 l -51.71156693900004 16.311390993519936 a75.22312819664839,75.22312819664839 0 0,0 -0.37888538340688616,-1.2382193551352794 l 51.98467909491306 -15.418844665832607" fill="#41ffce" stroke="none" /><path d="M 79.86692584326677 105.97154293290107 l -24.352342185154946 7.222993157590726 a46.40094880230814,46.40094880230814 0 0,0 -0.2205312545686316,-0.7676982281359969 l 24.47306607660968 -6.802737453950133" fill="#efff19" stroke="none" /><path d="M 79.76711848015287 105.62410040840567 l -52.961582544542146 14.721642971436765 a75.96959157025641,75.96959157025641 0 0,0 -0.3393739773683541,-1.262936820006079 l 53.20714459825227 -13.807815218255147" fill="#42ffd7" stroke="none" /><path d="M 79.50377843672027 104.57218783832718 l -55.32679079431051 12.342005536114046 a77.68667286277147,77.68667286277147 0 0,0 -0.2799160371648336,-1.3076745367870022 l 55.53104087019978 -11.38781717991088" fill="#44ffea" stroke="none" /><path d="M 79.35854240842038 103.8639653848113 l -54.85906450395089 10.269309972221523 a76.81196722526641,76.81196722526641 0 0,0 -0.23209488530327568,-1.301711374036536 l 55.02770583159335 -9.323479847451772" fill="#43ffe0" stroke="none" /><path d="M 79.10278846688536 102.07522291339032 l -61.42156590393871 6.099543029374167 a82.7236841355008,82.7236841355008 0 0,0 -0.12851874249373388,-1.418193614124286 l 61.51745924270952 -5.041368026701315" fill="#4bdfff" stroke="none" /><path d="M 79.07016306316243 101.71520430193888 l -29.63955337566023 2.428967297303795 a50.73891400908889,50.73891400908889 0 0,0 -0.06384270084545209,-0.8710829297741614 l 29.67697263517002 -1.9184112310328731" fill="#b7ff1f" stroke="none" /><path d="M 79.0235259727143 100.99374915477108 l -61.32872786015917 2.905415438025589 a82.39751053432852,82.39751053432852 0 0,0 -0.054923305040538474,-1.41732645687635 l 61.369653298050906 -1.8493117341352423" fill="#4be2ff" stroke="none" /><line stroke="#e1ed5e" stroke-width="0.3" x1="15.007084014347285" x2="10.007500721073583" y1="101.09737516637583" y2="101.16192664675087" /><path d="M 14.007167355692545 101.11028546245083 a86.0,86.0 0 0,1 10.666146001902534,-42.60595125391555" fill="none" id="id46" stroke="none" /><text fill="#e1ed5e" style="font-size:6.75px; font-family:Arial;" text-anchor="middle"><textPath startOffset="22.20632615414155" xlink:href="#id46">October</textPath></text><path d="M 79.26566170972629 96.67025291283419 l -59.022974892649394 -9.478555619826617 a80.77921529943721,80.77921529943721 0 0,0 0.2322907828471492,-1.3709933495911868 l 58.85107224828202 10.493134757733632" fill="#49f3ff" stroke="none" /><path d="M 79.32604984820605 96.31383870115002 l -25.86451101189572 -4.611637292617551 a47.272421441563694,47.272421441563694 0 0,0 0.14972813767683546,-0.7998536985531387 l 25.78129715030902 5.056169068633262" fill="#e3ff1b" stroke="none" /><path d="M 79.54389044137918 95.25157060432595 l -21.56651709314931 -5.006185728227074 a43.13993123464041,43.13993123464041 0 0,0 0.17413576989054663,-0.7219051876690815 l 21.47714852299795 5.376676147555552" fill="#ffe315" stroke="none" /><path d="M 79.81627453868168 94.20196356495316 l -59.31791127214857 -17.03983793606007 a82.71685891697408,82.71685891697408 0 0,0 0.4048954907670406,-1.3651063105359857 l 59.01580988426982 18.058373633342597" fill="#4bdfff" stroke="none" /><path d="M 79.91906864156998 93.8553929516997 l -58.642768218130975 -17.94422581767845 a82.3267437948671,82.3267437948671 0 0,0 0.4263134250910404,-1.3515300581874117 l 58.32519930927173 18.951006042292278" fill="#4be3ff" stroke="none" /><path d="M 80.02781315780177 93.51064311812611 l -58.908037917419655 -19.140381785804507 a82.93957657416225,82.93957657416225 0 0,0 0.45286077635317873,-1.3539960800884048 l 58.5698398472947 20.151550968815236" fill="#4cddff" stroke="none" /><path d="M 80.14247586403 93.16781622104843 l -52.15737870932194 -17.945278290004527 a76.1581831348109,76.1581831348109 0 0,0 0.4371730641916083,-1.2359471228276377 l 51.840752564320525 18.840423039258773" fill="#42ffd9" stroke="none" /><path d="M 80.52162464483688 92.15188598940014 l -57.06103646585613 -22.99070182094682 a82.51856835767109,82.51856835767109 0 0,0 0.5421796601217749,-1.312931052289745 l 56.65683511884815 23.969507443689878" fill="#4be1ff" stroke="none" /><path d="M 80.65960295795068 91.81776055985345 l -53.71903653862936 -22.726628543220023 a79.32867675149248,79.32867675149248 0 0,0 0.5428698964322104,-1.2530185684420576 l 53.31987593235446 23.64794625624868" fill="#47fffc" stroke="none" /><path d="M 80.95270993114464 91.15688171328213 l -27.835397940958458 -12.923188320224451 a51.68905627241574,51.68905627241574 0 0,0 0.381617363956699,-0.8037834930543182 l 27.608822383160007 13.400414228919301" fill="#abff21" stroke="none" /><line stroke="#e1ed5e" stroke-width="0.3" x1="26.266209847984243" x2="21.928928074336255" y1="57.711370442889674" y2="55.22380399835377" /><path d="M 25.398753493254645 57.213857153982495 a86.0,86.0 0 0,1 29.58750427330803,-30.492523968695096" fill="none" id="id47" stroke="none" /><text fill="#e1ed5e" style="font-size:6.75px; font-family:Arial;" text-anchor="middle"><textPath startOffset="21.46611528233685" xlink:href="#id47">November</textPath></text><path d="M 81.78341655067845 89.55222093294921 l -27.004384874500154 -15.487857412740777 a52.130540144487085,52.130540144487085 0 0,0 0.4531393222863079,-0.7745619890567569 l 26.73378587774352 15.950398814151425" fill="#a6ff21" stroke="none" /><path d="M 81.96595687620814 89.24020034530311 l -26.180668811487706 -15.620388024133145 a51.48645504878006,51.48645504878006 0 0,0 0.4606424526625056,-0.7571750743994576 l 25.907910560538983 16.068730871739678" fill="#aeff20" stroke="none" /><path d="M 82.15384107792192 88.93136811851018 l -26.182656277469807 -16.239135002679088 a51.8097548737306,51.8097548737306 0 0,0 0.4765816612793329,-0.7538377368103939 l 25.89924701994451 16.687420387203698" fill="#aaff21" stroke="none" /><line stroke="#e1ed5e" stroke-width="0.3" x1="56.762969772571076" x2="54.21961505331055" y1="26.818313649435495" y2="22.513508569990535" /><path d="M 56.25429882871897 25.957352633546506 a86.0,86.0 0 0,1 42.265352541879196,-11.944610805530505" fill="none" id="id48" stroke="none" /><text fill="#e1ed5e" style="font-size:6.75px; font-family:Arial;" text-anchor="middle"><textPath startOffset="22.20632615414155" xlink:href="#id48">December</textPath></text></svg>