<?xml version="1.0" encoding="utf-8" ?>
<svg baseProfile="full" height="200mm" version="1.1" viewBox="0,0,200,200" width="200mm" xmlns="http://www.w3.org/2000/svg" xmlns:ev="http://www.w3.org/2001/xml-events" xmlns:xlink="http://www.w3.org/1999/xlink"><defs /><rect fill="#1a1a1a" height="200" width="200" x="0" y="0" /><text alignment-baseline="middle" fill="#e1ed5e" style="dominant-baseline: central; font-size:9.0px; font-family:Arial;" text-anchor="middle" x="100.0" y="100.0">2023</text><line stroke="#e1ed5e" stroke-width="0.3" x1="100.0" x2="100.0" y1="15.0" y2="10.0" /><path d="M 100.0 14.0 a86.0,86.0 0 0,1 42.46469731375804,11.215312516191453" fill="none" id="id37" stroke="none" /><text fill="#e1ed5e" style="font-size:6.75px; font-family:Arial;" text-anchor="middle"><textPath startOffset="22.20632615414155" xlink:href="#id37">January</textPath></text><path d="M 100.0 79.0 l 0.0 -7.209947331551774 a28.209947331551774,28.209947331551774 0 0,0 0.485587870555339,0.0041796081074318035 l -0.12410739128281059 7.208879100052902" fill="#ff2f04" stroke="none" /><path d="M 100.36148047927253 79.00311137660856 l 0.12848252149012798 -7.463012108454222 a28.464117998080066,28.464117998080066 0 0,0 0.48981781415126274,0.012650549036213486 l -0.2569269708362585 7.459694767275648" fill="#ff3204" stroke="none" /><path d="M 100.72285384407766 79.0124445844662 l 0.17194105395283174 -4.992188154778142 a25.995148275951536,25.995148275951536 0 0,0 0.44706600539326474,0.019251602620557393 l -0.25784789173542805 4.9884888256333895" fill="#ff0d01" stroke="none" /><path d="M 101.08401301168833 79.027996857942 l 0.27001888597064905 -5.223956598243865 a26.230930389435176,26.230930389435176 0 0,0 0.4507197704168833,0.027188647413849087 l -0.35990070522714424 5.218534681449713" fill="#ff1101" stroke="none" /><path d="M 101.44485096284872 79.0497635885617 l 0.3542495809594575 -5.1365937806629445 a26.148794852502398,26.148794852502398 0 0,0 0.44877534291397037,0.03483360381363729 l -0.4426151132357691 5.129734914660842" fill="#ff0f01" stroke="none" /><path d="M 101.80526077348638 79.07773832637324 l 0.42606973876481324 -4.9379805380890005 a25.956327997301717,25.956327997301717 0 0,0 0.44481096377299484,0.04224016074729624 l -0.5110058296280523 4.929914832826526" fill="#ff0d01" stroke="none" /><path d="M 102.52436894288641 79.15227682838746 l 2.14325426892081 -17.700254081619203 a38.82954103209403,38.82954103209403 0 0,0 0.6628485028002836,0.08605675954288639 l -2.4476175002289398 17.66073899891218" fill="#ffc512" stroke="none" /><path d="M 105.36241919743992 79.69619591428918 l 2.7430520949777026 -10.386057166122894 a31.74218405417326,31.74218405417326 0 0,0 0.5270745990637945,0.14406939828246268 l -2.921424583265208 10.337301227014137" fill="#ff6309" stroke="none" /><path d="M 109.41281617654863 81.2277094730956 l 6.258278477031759 -12.481091690902426 a34.96222400954778,34.96222400954778 0 0,0 0.5356537574116479,0.27438265945105866 l -6.472192722032163 12.371516506138867" fill="#ff900d" stroke="none" /><path d="M 110.36928655335952 81.73862282372117 l 6.40389467537279 -11.27791535727767 a33.969242145136604,33.969242145136604 0 0,0 0.50598523517501,0.29309930730045086 l -6.5970766430131285 11.166011892587171" fill="#ff820c" stroke="none" /><line stroke="#e1ed5e" stroke-width="0.3" x1="143.23703022742887" x2="145.7803849466894" y1="26.81831364943548" y2="22.513508569990506" /><path d="M 143.74570117128098 25.957352633546492 a86.0,86.0 0 0,1 28.547481713284135,27.462654790039103" fill="none" id="id38" stroke="none" /><text fill="#e1ed5e" style="font-size:6.75px; font-family:Arial;" text-anchor="middle"><textPath startOffset="19.985693538727396" xlink:href="#id38">February</textPath></text><path d="M 113.6212207817346 84.01681056812373 l 36.063297890348295 -42.31680338759016 a76.59922035129595,76.59922035129595 0 0,0 0.9961772427029482,0.8638750883784395 l -36.78636893169801 41.689763305792056" fill="#43ffe2" stroke="none" /><path d="M 115.68641384162765 86.03803664274999 l 30.6013880590225 -27.23729356337875 a61.967244376410754,61.967244376410754 0 0,0 0.7023194453926471,0.8028725342757967 l -31.065699367993 26.706505472900005" fill="#30ff37" stroke="none" /><line stroke="#e1ed5e" stroke-width="0.3" x1="172.23445277983987" x2="176.4835382374775" y1="55.19839476539836" y2="52.563006222186495" /><path d="M 173.08426987136738 54.67131705675599 a86.0,86.0 0 0,1 12.851231095245387,41.99856678651699" fill="none" id="id39" stroke="none" /><text fill="#e1ed5e" style="font-size:6.75px; font-family:Arial;" text-anchor="middle"><textPath startOffset="22.20632615414155" xlink:href="#id39">March</textPath></text><path d="M 117.84615892207809 88.93136811851018 l 18.87626145851513 -11.707527109633563 a43.21214617440261,43.21214617440261 0 0,0 0.3866133137293637,0.6354906346448502 l -19.07499057053072 11.380868701781631" fill="#ffff18" stroke="none" /><path d="M 118.56541770881063 90.18545643968196 l 28.83400645568691 -15.242997319878802 a53.615163583530084,53.615163583530084 0 0,0 0.42430163938856913,0.8196157147993789 l -29.092117528235597 14.744408882819078" fill="#82ff25" stroke="none" /><path d="M 120.28053869075195 94.5502522615342 l 60.84161607225586 -16.349243215397394 a84.0,84.0 0 0,0 0.36321467251878925,1.3996142978045985 l -61.11402707664495 15.299532492043943" fill="#4dd2ff" stroke="none" /><line stroke="#e1ed5e" stroke-width="0.3" x1="184.98032266829074" x2="189.97916517819016" y1="98.17113171792111" y2="98.06355123074" /><path d="M 185.9800911702706 98.14961562048488 a86.0,86.0 0 0,1 -9.607161424134198,41.387399972396054" fill="none" id="id40" stroke="none" /><text fill="#e1ed5e" style="font-size:6.75px; font-family:Arial;" text-anchor="middle"><textPath startOffset="21.466115282336823" xlink:href="#id40">April</textPath></text><path d="M 120.76222939487914 103.15116336523771 l 10.11797096033041 1.5356433461136858 a31.233842721116673,31.233842721116673 0 0,0 -0.08525090806332614,0.5308574858886784 l -10.090038297905796 -1.7095800616955692" fill="#ff5b08" stroke="none" /><path d="M 120.70491114924044 103.5080841355445 l 18.713145217330716 3.170614323813053 a39.979847183664994,39.979847183664994 0 0,0 -0.12080302564471955,0.6775275219627486 l -18.655795749346808 -3.49226059650902" fill="#ffd513" stroke="none" /><path d="M 120.49622156327973 104.57218783832717 l 40.19624231874428 8.966763445096454 a62.18422930233765,62.18422930233765 0 0,0 -0.2420430338675149,1.0427150550465176 l -40.03593871894622 -9.657347157491538" fill="#30ff3a" stroke="none" /><path d="M 120.02730092923936 106.31721596034902 l 14.552047920479595 4.59015569316204 a36.25882131645175,36.25882131645175 0 0,0 -0.1928757766697593,0.5936106025764133 l -14.470879892793588 -4.839965195716248" fill="#ffa20f" stroke="none" /><path d="M 119.41010516605496 108.01547362559984 l 12.655496337837029 5.22613330772722 a34.69211659704745,34.69211659704745 0 0,0 -0.23268336109791182,0.5499947320817516 l -12.56366199554681 -5.443202565475135" fill="#ff8d0c" stroke="none" /><line stroke="#e1ed5e" stroke-width="0.3" x1="174.80103733775053" x2="179.2010983576182" y1="140.37084112569926" y2="142.7455964860345" /><path d="M 175.68104954172406 140.8457921977663 a86.0,86.0 0 0,1 -30.038265399797805,32.042727171017184" fill="none" id="id41" stroke="none" /><text fill="#e1ed5e" style="font-size:6.75px; font-family:Arial;" text-anchor="middle"><textPath startOffset="22.206326154141568" xlink:href="#id41">May</textPath></text><path d="M 116.71984013943494 112.70617746262583 l 11.402464209456504 8.665258312780153 a35.321413745686634,35.321413745686634 0 0,0 -0.3720407584174235,0.4809128318534501 l -11.251616633821012 -8.860249138746855" fill="#ff950d" stroke="none" /><path d="M 114.29624159901734 115.38237550388516 l 14.51498971107453 15.617742651056268 a42.321322938017275,42.321322938017275 0 0,0 -0.5378847694911979,0.491344983805418 l -14.244005392116469 -15.86528040144827" fill="#fff316" stroke="none" /><line stroke="#e1ed5e" stroke-width="0.3" x1="143.8653032363475" x2="146.44561519142675" y1="172.8068346515853" y2="177.08958963109032" /><path d="M 144.38136562736335 173.6633856474863 a86.0,86.0 0 0,1 -40.68145358897372,12.25698825130547" fill="none" id="id42" stroke="none" /><text fill="#e1ed5e" style="font-size:6.75px; font-family:Arial;" text-anchor="middle"><textPath startOffset="21.466115282336833" xlink:href="#id42">June</textPath></text><path d="M 110.21172684928248 118.3499491758327 l 25.66152405307137 46.112442008900196 a73.77187816205279,73.77187816205279 0 0,0 -1.1149291073448073,0.6079482453896417 l -24.863972133857914 -46.5473309060496" fill="#40ffc3" stroke="none" /><path d="M 108.92500713936063 119.00905698771935 l 1.7585804612996985 3.7455383154719293 a25.137833069558674,25.137833069558674 0 0,0 -0.3932658419241026,0.18052905955586343 l -1.6938466236081764 -3.775254445361867" fill="#ff0000" stroke="none" /><path d="M 105.53697534728816 120.25689768951611 l 1.7798036432397533 6.511370928569066 a27.75023350543549,27.75023350543549 0 0,0 -0.46185580116010977,0.12198031482843928 l -1.667457399268146 -6.54104259270109" fill="#ff2803" stroke="none" /><path d="M 104.83641907484287 120.43548508189849 l 4.7389516095084545 20.023652504326314 a41.57679085696495,41.57679085696495 0 0,0 -0.6978562395232011,0.15882980809062827 l -4.393575220592392 -20.102259045994625" fill="#ffea16" stroke="none" /><path d="M 104.13013068566511 120.58985236759428 l 7.757054726806347 38.67107938899799 a60.4414031082168,60.4414031082168 0 0,0 -1.0218407392449242,0.19583820967774654 l -7.090246372989718 -38.7988747970242" fill="#38ff2e" stroke="none" /><path d="M 101.98527174616119 120.90594882070398 l 3.8697423920645546 40.750409385638626 a61.93373634641829,61.93373634641829 0 0,0 -1.0621803366028455,0.09164938886386044 l -3.1677177377201673 -40.81098302678115" fill="#30ff37" stroke="none" /><line stroke="#e1ed5e" stroke-width="0.3" x1="102.19456741930631" x2="102.32365962044197" y1="184.97166512339345" y2="189.96999836594603" /><path d="M 102.22038585953345 185.97133177190398 a86.0,86.0 0 0,1 -42.740103519485714,-10.115201625700543" fill="none" id="id43" stroke="none" /><text fill="#e1ed5e" style="font-size:6.75px; font-family:Arial;" text-anchor="middle"><textPath startOffset="22.20632615414155" xlink:href="#id43">July</textPath></text><path d="M 100.54218724476979 120.99299961872073 l 1.5984662701624188 61.89116790142359 a82.91180629426873,82.91180629426873 0 0,0 -1.4270318561218827,0.024567647547238107 l -0.5328747241478683 -61.90951302624999" fill="#4cdcff" stroke="none" /><line stroke="#e1ed5e" stroke-width="0.3" x1="58.666819895761336" x2="56.23545636021788" y1="174.27360380694188" y2="178.64263932499728" /><path d="M 58.180547188652646 175.14741091055294 a86.0,86.0 0 0,1 -31.652253787137756,-30.449443065178592" fill="none" id="id44" stroke="none" /><text fill="#e1ed5e" style="font-size:6.75px; font-family:Arial;" text-anchor="middle"><textPath startOffset="22.20632615414155" xlink:href="#id44">August</textPath></text><path d="M 89.1626897886671 117.98757091392108 l -8.456745986849858 14.036353594493093 a37.38706120436915,37.38706120436915 0 0,0 -0.5483805954452156,-0.3368601510123786 l 8.697105782227384 -13.888704976652336" fill="#ffb210" stroke="none" /><path d="M 88.54995079064634 117.60387380957326 l -10.972431571485878 16.869560753574984 a41.124023817554416,41.124023817554416 0 0,0 -0.5900813745642652,-0.3910737589073034 l 11.261187644790104 -16.67818897357636" fill="#ffe415" stroke="none" /><path d="M 87.95078237400918 117.19931262002967 l -7.066015974258981 10.08618331013091 a33.31501829125911,33.31501829125911 0 0,0 -0.466842831206287,-0.3330799646197449 l 7.238586133314155 -9.963059083666947" fill="#ff790b" stroke="none" /><path d="M 87.65650970185807 116.9893568818739 l -9.662336761156118 13.29906562755928 a37.43854915289417,37.43854915289417 0 0,0 -0.5181050033121131,-0.3832816953090229 l 9.889826734886794 -13.13077398351049" fill="#ffb210" stroke="none" /><path d="M 87.07902340077011 116.55440617244103 l -7.615457934269657 9.7569547367304 a33.377130737098824,33.377130737098824 0 0,0 -0.4498641318918564,-0.35739927383764103 l 7.782279558878872 -9.624421548887629" fill="#ff7a0b" stroke="none" /><path d="M 85.18274418774928 114.88116024355367 l -8.242946704001428 8.278497201884043 a32.682452066523105,32.682452066523105 0 0,0 -0.39523881421270013,-0.4003748321016352 l 8.384226143269661 -8.135381875801745" fill="#ff700a" stroke="none" /><path d="M 84.67929136418377 114.36230785411682 l -7.377933035554709 6.916399763387967 a31.11288690553408,31.11288690553408 0 0,0 -0.3629149240539629,-0.39387247349256793 l 7.495894367604401 -6.788376035094055" fill="#ff5908" stroke="none" /><line stroke="#e1ed5e" stroke-width="0.3" x1="26.63291911575756" x2="22.317208475507996" y1="142.92168965132927" y2="145.44649492493687" /><path d="M 25.769776987707644 143.4266507060508 a86.0,86.0 0 0,1 -11.730757126820373,-40.83630448921669" fill="none" id="id45" stroke="none" /><text fill="#e1ed5e" style="font-size:6.75px; font-family:Arial;" text-anchor="middle"><textPath startOffset="21.46611528233685" xlink:href="#id45">September</textPath></text><path d="M 81.51974371655577 109.97397251340807 l -10.850312109339496 5.856018070344713 a33.32972913369483,33.32972913369483 0 0,0 -0.2681416256515087,-0.5072229039226364 l 10.949506243215891 -5.66838015133595" fill="#ff790b" stroke="none" /><path d="M 81.18737489456691 109.33194174019688 l -19.149532312423336 9.499063468816109 a42.37607996263913,42.37607996263913 0 0,0 -0.31852029616842137,-0.6562461527023071 l 19.310205865206477 -9.168028360148517" fill="#fff417" stroke="none" /><line stroke="#e1ed5e" stroke-width="0.3" x1="15.007084014347285" x2="10.007500721073583" y1="101.09737516637583" y2="101.16192664675087" /><path d="M 14.007167355692545 101.11028546245083 a86.0,86.0 0 0,1 10.666146001902534,-42.60595125391555" fill="none" id="id46" stroke="none" /><text fill="#e1ed5e" style="font-size:6.75px; font-family:Arial;" text-anchor="middle"><textPath startOffset="22.20632615414155" xlink:href="#id46">October</textPath></text><line stroke="#e1ed5e" stroke-width="0.3" x1="26.266209847984243" x2="21.928928074336255" y1="57.711370442889674" y2="55.22380399835377" /><path d="M 25.398753493254645 57.213857153982495 a86.0,86.0 0 0,1 29.58750427330803,-30.492523968695096" fill="none" id="id47" stroke="none" /><text fill="#e1ed5e" style="font-size:6.75px; font-family:Arial;" text-anchor="middle"><textPath startOffset="21.46611528233685" xlink:href="#id47">November</textPath></text><line stroke="#e1ed5e" stroke-width="0.3" x1="56.762969772571076" x2="54.21961505331055" y1="26.818313649435495" y2="22.513508569990535" /><path d="M 56.25429882871897 25.957352633546506 a86.0,86.0 0 0,1 42.265352541879196,-11.944610805530505" fill="none" id="id48" stroke="none" /><text fill="#e1ed5e" style="font-size:6.75px; font-family:Arial;" text-anchor="middle"><textPath startOffset="22.20632615414155" xlink:href="#id48">December</textPath></text></svg>