<?xml version="1.0" encoding="utf-8" ?>
<svg baseProfile="full" height="200mm" version="1.1" viewBox="0,0,200,200" width="200mm" xmlns="http://www.w3.org/2000/svg" xmlns:ev="http://www.w3.org/2001/xml-events" xmlns:xlink="http://www.w3.org/1999/xlink"><defs /><rect fill="#1a1a1a" height="200" width="200" x="0" y="0" /><text alignment-baseline="middle" fill="#e1ed5e" style="dominant-baseline: central; font-size:9.0px; font-family:Arial;" text-anchor="middle" x="100.0" y="100.0">2024</text><line stroke="#e1ed5e" stroke-width="0.3" x1="100.0" x2="100.0" y1="15.0" y2="10.0" /><path d="M 100.0 14.0 a86.0,86.0 0 0,1 42.35913384403234,11.155469271406648" fill="none" id="id37" stroke="none" /><text fill="#e1ed5e" style="font-size:6.75px; font-family:Arial;" text-anchor="middle"><textPath startOffset="22.145653131862478" xlink:href="#id37">January</textPath></text><path d="M 102.51750503828377 79.15144685158666 l 0.6852293634547886 -5.674682110102013 a26.715903807032838,26.715903807032838 0 0,0 0.45483467234507,0.05888745444244221 l -0.7825418576906503 5.662083059459174" fill="#ff4906" stroke="none" /><path d="M 103.58742460773223 79.30868818359171 l 1.0637688748908976 -6.1355361847928505 a27.227070619006103,27.227070619006103 0 0,0 0.4598331550340037,0.0837969186955247 l -1.1689367634759549 6.116371092165959" fill="#ff5007" stroke="none" /><path d="M 104.29559338865022 79.4440306129975 l 2.501799279383663 -11.972015213384791 a33.23062336530079,33.23062336530079 0 0,0 0.5573844984968231,0.12147935719341509 l -2.7069461944996203 11.927304398057657" fill="#ffa10e" stroke="none" /><path d="M 104.64783097203109 79.52079915486377 l 1.1471673480226676 -5.054631001968674 a26.183173496076723,26.183173496076723 0 0,0 0.43746827108682695,0.1032413208121448 l -1.2337677728493797 5.034193537510301" fill="#ff4206" stroke="none" /><path d="M 105.3480935250658 79.69241777938227 l 1.4492255855860403 -5.502945600628642 a26.69057686718977,26.69057686718977 0 0,0 0.44207043115194483,0.12048826181035158 l -1.543477417672678 5.477256844674148" fill="#ff4906" stroke="none" /><path d="M 106.72888874123014 80.10723608172694 l 7.0840082400407685 -20.942611615906994 a43.108282476024414,43.108282476024414 0 0,0 0.6989581600066286,0.24313393074934742 l -7.442472172092415 20.817919252589057" fill="#e3ff1b" stroke="none" /><path d="M 107.06938296918511 80.22567764915836 l 1.6482728987656134 -4.610512652153637 a25.896287416448708,25.896287416448708 0 0,0 0.41731355207662013,0.15324331671753333 l -1.7271756024963583 4.581538486427381" fill="#ff3e05" stroke="none" /><path d="M 108.73861861582097 80.90454125486305 l 16.151080114181394 -35.29302485536821 a59.81307759372276,59.81307759372276 0 0,0 0.9299830901157087,0.43527904377318066 l -16.754551918168605 35.010569580024494" fill="#31ff2f" stroke="none" /><path d="M 109.06512990194946 81.05736502329252 l 18.244902127709775 -38.12482831786417 a63.265576867189765,63.265576867189765 0 0,0 0.9756146972839176,0.4772220371175013 l -18.89667707425576 37.806012530649454" fill="#33ff57" stroke="none" /><path d="M 109.3889696526874 81.21577127319529 l 15.159870790564122 -30.329896775974124 a54.9075850043592,54.9075850043592 0 0,0 0.839491946016545,0.4286505692529826 l -15.678289958294247 30.065188255048305" fill="#61ff29" stroke="none" /><line stroke="#e1ed5e" stroke-width="0.3" x1="143.13028292997686" x2="145.6673583964461" y1="26.7553504044142" y2="22.446841604673864" /><path d="M 143.63769802327073 25.89364864446614 a86.0,86.0 0 0,1 29.32050498858742,28.57503671076993" fill="none" id="id38" stroke="none" /><text fill="#e1ed5e" style="font-size:6.75px; font-family:Arial;" text-anchor="middle"><textPath startOffset="20.669276256404974" xlink:href="#id38">February</textPath></text><path d="M 112.16784306229584 82.88440491214696 l 23.36180487552209 -32.86130423639954 a61.31921679744261,61.31921679744261 0 0,0 0.8526845587547051,0.6172778633803128 l -23.922470444650763 32.455425601646155" fill="#31ff40" stroke="none" /><path d="M 112.45986205192187 83.09580414077388 l 24.16384029002837 -32.7828901533219 a61.726024411508284,61.726024411508284 0 0,0 0.8475483164514042,0.6360160573946345 l -24.723041595390544 32.36325506866325" fill="#32ff45" stroke="none" /><path d="M 112.7482090630111 83.31218511350987 l 27.36008576161425 -35.81523053250505 a66.07000145306597,66.07000145306597 0 0,0 0.8953745414989878,0.6962486590941105 l -27.970870247748465 35.340280821790145" fill="#37ff77" stroke="none" /><path d="M 114.65682725009322 84.96080404539774 l 14.142851519730556 -14.511811576459666 a41.263586166811976,41.263586166811976 0 0,0 0.5030386411008273,0.49873919137090694 l -14.389882080961346 14.266892374860099" fill="#f9ff18" stroke="none" /><path d="M 114.91283532996326 85.21462403516908 l 12.204818719696604 -12.10050465659942 a38.18661726242372,38.18661726242372 0 0,0 0.45753604393466957,0.46947228780247846 l -12.410741564782086 11.889209676729198" fill="#ffe015" stroke="none" /><path d="M 115.41159269507618 85.73525988315684 l 4.0694860658777525 -3.766655548677129 a26.545124963673352,26.545124963673352 0 0,0 0.30666230226794416,0.33707558952084316 l -4.133546068987574 3.6962423835986145" fill="#ff4706" stroke="none" /><path d="M 116.7966241395341 87.39550010848427 l 8.258462234952274 -6.197304022511157 a31.325152571926765,31.325152571926765 0 0,0 0.3190660414935077,0.43287436369347715 l -8.363630296029609 6.054623349548804" fill="#ff880c" stroke="none" /><path d="M 117.01052211995028 87.68569379921539 l 6.2481906917925505 -4.523208214131558 a28.71357890148213,28.71357890148213 0 0,0 0.28561109998515694,0.401747780187093 l -6.324916890307668 4.415283207234961" fill="#ff6509" stroke="none" /><path d="M 117.21940702142032 87.97951657250589 l 3.7860009799978376 -2.6429227196922764 a25.61723336239465,25.61723336239465 0 0,0 0.24862167017394715,0.3627464469324225 l -3.83081238698711 2.577541537689805" fill="#ff3a05" stroke="none" /><path d="M 117.42321728460499 88.27688183743584 l 4.335846019844416 -2.9173507048111156 a26.22594449287998,26.22594449287998 0 0,0 0.24811686842651756,0.37568056252482135 l -4.385287327191658 2.842490263947236" fill="#ff4206" stroke="none" /><path d="M 117.81537515405839 88.88188828441811 l 4.183498102388154 -2.6108122260720776 a25.931328102295844,25.931328102295844 0 0,0 0.23243365109857025,0.3796629010024885 l -4.2276997179421265 2.5386122089450347" fill="#ff3e05" stroke="none" /><line stroke="#e1ed5e" stroke-width="0.3" x1="172.87174338648825" x2="177.1583165268699" y1="56.24261187166439" y2="53.66864786411523" /><path d="M 173.72905801456457 55.72781907015455 a86.0,86.0 0 0,1 12.242430191666344,42.057860355516425" fill="none" id="id39" stroke="none" /><text fill="#e1ed5e" style="font-size:6.75px; font-family:Arial;" text-anchor="middle"><textPath startOffset="22.145653131862474" xlink:href="#id39">March</textPath></text><path d="M 118.18653347947321 89.5 l 4.772797879742115 -2.755576140656786 a26.51115228131357,26.51115228131357 0 0,0 0.2241664809523201,0.3960806926254026 l -4.819397725715811 2.6732386779322654" fill="#ff4606" stroke="none" /><path d="M 119.31412917781788 91.75594674310238 l 22.21447599543134 -9.48203884805437 a45.1535091543156,45.1535091543156 0 0,0 0.29817260705661386,0.7155057110096139 l -22.373974447024437 9.099300627603478" fill="#cbff1d" stroke="none" /><path d="M 119.4528033332814 92.08871423366111 l 26.678823480707937 -10.850045253091505 a49.80074832897414,49.80074832897414 0 0,0 0.3152655938348755,0.7946752431924986 l -26.861147749508937 10.39046899268544" fill="#97ff23" stroke="none" /><path d="M 119.94978838288452 93.4421083053983 l 4.9004337060147085 -1.6108698941483932 a26.15840598663179,26.15840598663179 0 0,0 0.1365659178646797,0.4277907926229506 l -4.927364339656646 1.5265100678340555" fill="#ff4106" stroke="none" /><path d="M 120.16314734710363 94.1308016681162 l 16.752229570076892 -4.876329878239638 a38.44751525719268,38.44751525719268 0 0,0 0.1790217151349435,0.6352849114220888 l -16.833469777286417 4.588037042914536" fill="#ffe315" stroke="none" /><path d="M 120.7213421655516 96.59031103205396 l 5.275381124216428 -0.8680619564718588 a26.346323743097937,26.346323743097937 0 0,0 0.06960260613853662,0.44689866095008346 l -5.28950522249323 0.7773751135903341" fill="#ff4406" stroke="none" /><path d="M 120.86939407059847 97.66154086499901 l 10.120230867743137 -1.1339929775121742 a31.183565823888404,31.183565823888404 0 0,0 0.055042865665810806,0.5324897944542341 l -10.138206125890614 0.9600986607750087" fill="#ff860c" stroke="none" /><path d="M 120.93736805541906 98.37931529534042 l 14.219328650617827 -1.1006659668773144 a35.26186428363848,35.26186428363848 0 0,0 0.04153518306248813,0.6039124460089523 l -14.236127794845382 0.8564100967140279" fill="#ffbb11" stroke="none" /><path d="M 120.98066250479742 99.09900007780936 l 62.94198751439227 -2.7029997665719256 a84.0,84.0 0 0,0 0.049501252012607466,1.4411749417435202 l -62.97911345340172 1.6221185602642854" fill="#4dd2ff" stroke="none" /><line stroke="#e1ed5e" stroke-width="0.3" x1="184.99686870605535" x2="189.99668451229388" y1="99.2704041080226" y2="99.22748670261217" /><path d="M 185.99683186730306 99.26182062694052 a86.0,86.0 0 0,1 -10.086455211305974,41.156179273409016" fill="none" id="id40" stroke="none" /><text fill="#e1ed5e" style="font-size:6.75px; font-family:Arial;" text-anchor="middle"><textPath startOffset="21.40746469413373" xlink:href="#id40">April</textPath></text><path d="M 120.99922638620191 99.81974689727618 l 2.5971870859811372 -0.022293727492264607 a23.597282766637605,23.597282766637605 0 0,0 0.0,0.40509366043218265 l -2.5971870859811372 -0.02229372749226429" fill="#ff1d03" stroke="none" /><path d="M 120.99922638620191 100.18025310272382 l 13.11404027168338 0.11256826345609368 a34.11452339436211,34.11452339436211 0 0,0 -0.01005333626213516,0.5855564365591951 l -13.110175503822578 -0.33767161598435985" fill="#ffac0f" stroke="none" /><path d="M 120.9064616781168 101.97986365728391 l 3.1592594105180973 0.2991851508456883 a24.17339436210404,24.17339436210404 0 0,0 -0.04266904260001804,0.4127842809200853 l -3.1536579754364134 -0.35337395404870503" fill="#ff2603" stroke="none" /><path d="M 120.86939407059847 102.33845913500097 l 2.63379314106129 0.2951220150226949 a23.65027608253415,23.65027608253415 0 0,0 -0.04867217103190955,0.4030753977355262 l -2.628338883769717 -0.34029108968162963" fill="#ff1e03" stroke="none" /><path d="M 120.82617615685814 102.69636545807757 l 4.066178247035511 0.5264481818032887 a25.100116245277537,25.100116245277537 0 0,0 -0.058991827228861655,0.42683547508217096 l -4.056541903251439 -0.5961719650855447" fill="#ff3304" stroke="none" /><path d="M 120.77682067341334 103.0534771498775 l 11.654129904757898 1.7127557639951425 a32.77931560592851,32.77931560592851 0 0,0 -0.08659750088312927,0.5560180765252652 l -11.6230109117365 -1.9125620224518582" fill="#ff9b0e" stroke="none" /><path d="M 120.35273937422433 105.17358676015961 l 2.5157015037320445 0.6394814846744802 a23.59570619006103,23.59570619006103 0 0,0 -0.10315876362326394,0.3917106281403143 l -2.5043532593040503 -0.6825726171875978" fill="#ff1d03" stroke="none" /><path d="M 119.58574465831526 107.57618678355244 l 5.053437072306762 1.9547780197609164 a26.41833769253124,26.41833769253124 0 0,0 -0.16724232466845151,0.4215599089369417 l -5.019136072672186 -2.0412389459114224" fill="#ff4506" stroke="none" /><line stroke="#e1ed5e" stroke-width="0.3" x1="174.33088141563837" x2="178.70328620479359" y1="141.23008692659167" y2="143.65538615756765" /><path d="M 175.20536237346943 141.71514677278685 a86.0,86.0 0 0,1 -30.301960400862466,31.631185727798858" fill="none" id="id41" stroke="none" /><text fill="#e1ed5e" style="font-size:6.75px; font-family:Arial;" text-anchor="middle"><textPath startOffset="22.145653131862474" xlink:href="#id41">May</textPath></text><path d="M 117.62189284568427 111.42229804090321 l 2.192195562571709 1.420954678303586 a23.61243824469631,23.61243824469631 0 0,0 -0.22339116270070147,0.3382426926419501 l -2.167479960950281 -1.458377249284597" fill="#ff1e03" stroke="none" /><path d="M 117.423217284605 111.72311816256416 l 2.840830007999894 1.91143721159739 a24.424019180470793,24.424019180470793 0 0,0 -0.23704122748568648,0.34585023496452494 l -2.807599043698887 -1.9599221816319592" fill="#ff2904" stroke="none" /><path d="M 117.21940702142032 112.02048342749411 l 2.2321592551476446 1.5582205183170525 a23.72223917465853,23.72223917465853 0 0,0 -0.23596274250701213,0.3319111477599341 l -2.205081414110672 -1.5963088927864906" fill="#ff1f03" stroke="none" /><path d="M 115.89218393027572 113.72728997021213 l 3.9840148686004326 3.4412971550578986 a26.26449433304272,26.26449433304272 0 0,0 -0.2976504315231713,0.33867155213727795 l -3.924353373118676 -3.50918098500647" fill="#ff4306" stroke="none" /><path d="M 115.41159269507618 114.26474011684316 l 3.755633302696275 3.4761581166260433 a26.117465852949724,26.117465852949724 0 0,0 -0.30737044395947427,0.32641675989117297 l -3.6954070250005406 -3.5401163364617134" fill="#ff4106" stroke="none" /><path d="M 115.16444852881244 114.52719865689866 l 5.526217080358377 5.293990954895579 a28.652804417320546,28.652804417320546 0 0,0 -0.3433058940686812,0.352262090913022 l -5.4345243851388885 -5.388075737876338" fill="#ff6409" stroke="none" /><path d="M 114.65682725009322 115.03919595460226 l 8.138493329351626 8.35081111804494 a32.660665504213895,32.660665504213895 0 0,0 -0.4048795171760265,0.38786541870942515 l -7.993941326310288 -8.489288667059945" fill="#ff990e" stroke="none" /><path d="M 114.13192950727249 115.5334660781643 l 3.5445844404211577 3.8961192198232055 a26.267240627724497,26.267240627724497 0 0,0 -0.33613934311978194,0.3005778733557574 l -3.477180070477998 -3.95639262306235" fill="#ff4306" stroke="none" /><path d="M 113.86319453409587 115.77377054828091 l 10.665447206297522 12.13532109162693 a37.15604475443185,37.15604475443185 0 0,0 -0.4827110218980343,0.4169542838469245 l -10.455556704636631 -12.31661950793857" fill="#ffd313" stroke="none" /><path d="M 113.31354834802062 116.24036423190432 l 3.3482161876397414 4.084279336583612 a26.281277244986924,26.281277244986924 0 0,0 -0.3513546828861957,0.28302646144011384 l -3.277610734398293 -4.14115409181713" fill="#ff4306" stroke="none" /><path d="M 110.96478420261333 117.91015095944535 l 2.7150932150649143 4.43490071963191 a26.200007265329845,26.200007265329845 0 0,0 -0.3855982868414585,0.2315406921096337 l -2.638562171666019 -4.480855412277467" fill="#ff4206" stroke="none" /><line stroke="#e1ed5e" stroke-width="0.3" x1="143.1302829299769" x2="145.66735839644613" y1="173.24464959558577" y2="177.55315839532614" /><path d="M 143.63769802327073 174.10635135553383 a86.0,86.0 0 0,1 -40.68552437913181,11.842963189579606" fill="none" id="id42" stroke="none" /><text fill="#e1ed5e" style="font-size:6.75px; font-family:Arial;" text-anchor="middle"><textPath startOffset="21.407464694133747" xlink:href="#id42">June</textPath></text><path d="M 110.34350942703117 118.27599006163325 l 2.5380074388195535 4.484415957218395 a26.15281168265039,26.15281168265039 0 0,0 -0.3926107561435584,0.21777456819862348 l -2.4606524945199 -4.527323440850162" fill="#ff4106" stroke="none" /><path d="M 110.02825361518725 118.45085714620011 l 3.723388662465377 6.850615764931167 a28.797086602731763,28.797086602731763 0 0,0 -0.4363597633215449,0.23233699590731105 l -3.6052400833572786 -6.913523228561047" fill="#ff6609" stroke="none" /><path d="M 109.71004243097381 118.62028667847754 l 1.9449479304064043 3.729694107551581 a25.206357163615227,25.206357163615227 0 0,0 -0.3853845297619851,0.19678008686995987 l -1.880636178930837 -3.762532146094377" fill="#ff3404" stroke="none" /><path d="M 109.06512990194946 118.94263497670748 l 2.375875443787597 4.964665897629655 a26.50387968613775,26.50387968613775 0 0,0 -0.4120864687483665,0.1928772748398455 l -2.290300261167724 -5.004719404040034" fill="#ff4606" stroke="none" /><path d="M 108.4095320186766 119.2426549942271 l 0.2240260878752365 0.5126155306996474 a21.559430398140076,21.559430398140076 0 0,0 -0.3403976628251255,0.14529552096383197 l -0.21519334987967983 -0.5163857013228832" fill="#ff0000" stroke="none" /><path d="M 108.07796709384702 119.3841803445677 l 4.299700071818648 10.317714921513854 a32.17777535600116,32.17777535600116 0 0,0 -0.5116964061406077,0.20810247372732332 l -4.121949204487599 -10.390004651820469" fill="#ff930d" stroke="none" /><path d="M 107.407793817531 119.65005319985036 l 4.101752773076709 10.880386548130845 a32.62786253995932,32.62786253995932 0 0,0 -0.5257915543742935,0.19307794173813672 l -3.914372067048288 -10.949195338877704" fill="#ff990e" stroke="none" /><path d="M 107.06938296918513 119.77432235084164 l 1.7434284507919893 4.876679666650334 a26.178952339436208,26.178952339436208 0 0,0 -0.42446581740411915,0.14765124518071382 l -1.6594568613428482 -4.905889344399639" fill="#ff4206" stroke="none" /><path d="M 106.72888874123015 119.89276391827305 l 1.7687532305849067 5.229004639371686 a26.52005231037489,26.52005231037489 0 0,0 -0.4325007101283844,0.14217157397486935 l -1.6787297828087882 -5.258597134748575" fill="#ff4606" stroke="none" /><path d="M 106.0420521117495 120.11202640906438 l 2.9952728549722054 9.970289174502277 a31.410491136297587,31.410491136297587 0 0,0 -0.5177346196669379,0.15070500223984953 l -2.8236782229236606 -10.020237871044644" fill="#ff890c" stroke="none" /><path d="M 105.69591212413111 120.21278271476187 l 2.1126134206018787 7.496919738281532 a28.78889857599535,28.78889857599535 0 0,0 -0.47682449387313586,0.12996063614946532 l -1.9836075257940475 -7.5320808685751395" fill="#ff6609" stroke="none" /><path d="M 104.9986988182912 120.39639698878246 l 1.3531181837026516 5.521183942219215 a26.684575704736993,26.684575704736993 0 0,0 -0.4458456955183912,0.10521837016745106 l -1.2581403344443811 -5.543598456032892" fill="#ff4906" stroke="none" /><path d="M 104.29559338865022 120.5559693870025 l 1.1306049236459708 5.410353843235543 a26.52722319093287,26.52722319093287 0 0,0 -0.4465460298618774,0.08932171222332362 l -1.0375624082531347 -5.428964952121728" fill="#ff4706" stroke="none" /><path d="M 103.58742460773223 120.69131181640829 l 3.377089555535203 19.478155129700824 a40.76874455100261,40.76874455100261 0 0,0 -0.6905885528130525,0.11363608356561923 l -3.042223499669078 -19.533257211762116" fill="#ffff18" stroke="none" /><path d="M 103.2317021107853 120.74984581791261 l 1.1927760747602751 7.658478039783339 a28.750806451612902,28.750806451612902 0 0,0 -0.4883186121344241,0.07176601980881502 l -1.0611323570181654 -7.677825132891036" fill="#ff6509" stroke="none" /><path d="M 102.875027216393 120.80226474461374 l 0.7179909099933285 5.195024557939961 a26.2444056960186,26.2444056960186 0 0,0 -0.44680748036298623,0.057848173730379544 l -0.6287056077395669 -5.206584327870735" fill="#ff4306" stroke="none" /><path d="M 102.51750503828377 120.84855314841334 l 0.6619577449060875 5.481959724730772 a26.521781458878234,26.521781458878234 0 0,0 -0.4524667677288404,0.050699845079380364 l -0.5677550755764478 -5.492515330317123" fill="#ff4606" stroke="none" /><path d="M 102.15924093988457 120.88869738790638 l 1.9862119670572849 19.214799035033085 a40.317182505085725,40.317182505085725 0 0,0 -0.6890406859124424,0.06525286934880876 l -1.656071717759827 -19.246063659887078" fill="#fffa17" stroke="none" /><path d="M 101.80034050326958 120.92268563240118 l 0.44897768009466305 5.217801210118532 a26.237082243533855,26.237082243533855 0 0,0 -0.44906765928372305,0.03476067693093045 l -0.35934102603570417 -5.224739654044516" fill="#ff4306" stroke="none" /><path d="M 101.08105385017728 120.97215588758144 l 0.5361599827702844 10.401360429452629 a31.4151700087184,31.4151700087184 0 0,0 -0.5388064268326562,0.023138666309559068 l -0.35752779533679874 -10.409031664188019" fill="#ff890c" stroke="none" /><path d="M 100.72087961077811 120.9876233191556 l 0.1789664115569256 5.210411802996417 a26.21348445219413,26.21348445219413 0 0,0 -0.4498567042087774,0.011586712948831622 l -0.08949639327740436 -5.212716233295293" fill="#ff4206" stroke="none" /><line stroke="#e1ed5e" stroke-width="0.3" x1="101.45913802915013" x2="101.54496967792366" y1="184.9874750549273" y2="189.98673829345242" /><path d="M 101.47630435890484 185.9873277026323 a86.0,86.0 0 0,1 -42.54439059252881,-10.42667462771756" fill="none" id="id43" stroke="none" /><text fill="#e1ed5e" style="font-size:6.75px; font-family:Arial;" text-anchor="middle"><textPath startOffset="22.145653131862474" xlink:href="#id43">July</textPath></text><path d="M 100.36049292484886 120.99690560180557 l 0.04875541964813798 2.8397587674087794 a23.84017727404824,23.84017727404824 0 0,0 -0.4092483444969899,0.003512904833896337 l -3.478214007674233e-16 -2.8401772740482407" fill="#ff2103" stroke="none" /><path d="M 99.63950707515114 120.99690560180557 l -0.438379720832249 25.533420995488317 a46.5371839581517,46.5371839581517 0 0,0 -0.7986372142456396,-0.02057006167773345 l 0.8766302491486325 -25.522133216460535" fill="#bbff1f" stroke="none" /><path d="M 99.27912038922189 120.98762331915562 l -0.2176657681686609 6.337101346045246 a27.340838419064227,27.340838419064227 0 0,0 -0.4689269372438964,-0.020137740353683462 l 0.326418466013396 -6.332431037265734" fill="#ff5207" stroke="none" /><path d="M 98.55909050195518 120.95050786540614 l -0.3563714096866882 5.181562084071009 a26.193802673641382,26.193802673641382 0 0,0 -0.44832689645933477,-0.034703337203411296 l 0.44526730092125905 -5.1746809798725435" fill="#ff4206" stroke="none" /><path d="M 98.19965949673042 120.92268563240118 l -0.3443763795668607 4.002175541691387 a25.01696454519035,25.01696454519035 0 0,0 -0.42755235705001954,-0.04048965273714669 l 0.4130283000018955 -3.995674133449057" fill="#ff3104" stroke="none" /><path d="M 97.84075906011543 120.88869738790638 l -0.5405946148534018 5.229762510805386 a26.25762859633827,26.25762859633827 0 0,0 -0.4479602683413429,-0.05019488242335306 l 0.630290784795544 -5.219711867875061" fill="#ff4306" stroke="none" /><path d="M 97.48249496171623 120.84855314841334 l -1.9490910301847824 16.14126975555341 a37.25852223190933,37.25852223190933 0 0,0 -0.6343213343563094,-0.08212559628795732 l 2.2258901864318856 -16.105432563065055" fill="#ffd413" stroke="none" /><path d="M 97.12497278360702 120.80226474461374 l -0.5600148068432226 4.051988171253579 a25.09050421389131,25.09050421389131 0 0,0 -0.42615014003522,-0.06262939529914527 l 0.6294900524861274 -4.041777702655551" fill="#ff3204" stroke="none" /><path d="M 96.76829788921471 120.74984581791261 l -0.7469730525466671 4.796102839661961 a25.853923278116827,25.853923278116827 0 0,0 -0.43794391163648777,-0.07206350400257928 l 0.8291944672362185 -4.782573337163712" fill="#ff3d05" stroke="none" /><path d="M 96.05791012581884 120.62667999033965 l -1.9553117100426083 10.231017103025877 a31.416187154896832,31.416187154896832 0 0,0 -0.5288444081177714,-0.1057836927750103 l 2.130652603691338 -10.195944013588006" fill="#ff890c" stroke="none" /><path d="M 95.70440661134978 120.55596938700252 l -1.8761127920244451 8.97787887031285 a30.171810520197617,30.171810520197617 0 0,0 -0.5060783630409392,-0.11029742376672835 l 2.029953571684521 -8.944349988412403" fill="#ff780b" stroke="none" /><path d="M 95.35216902796893 120.47920084513623 l -1.135371051261335 5.002654341875427 a26.12987503632665,26.12987503632665 0 0,0 -0.4365777608115143,-0.10303116281190564 l 1.2210809658127373 -4.982427035417294" fill="#ff4106" stroke="none" /><path d="M 95.00130118170881 120.39639698878247 l -1.2119532439562242 4.945182815399999 a26.091528625399594,26.091528625399594 0 0,0 -0.43410676158919664,-0.11034824123468875 l 1.2966652987707994 -4.923649342330047" fill="#ff4006" stroke="none" /><path d="M 94.30408787586889 120.21278271476187 l -1.4421312334820582 5.117614990064649 a26.316928218541122,26.316928218541122 0 0,0 -0.43377815274856985,-0.12626649831457495 l 1.529769398612235 -5.092104797447558" fill="#ff4406" stroke="none" /><path d="M 93.61358852112213 120.00534299687104 l -3.165799168818546 9.916820806314874 a31.409880848590525,31.409880848590525 0 0,0 -0.5122461906588501,-0.16838549737174335 l 3.33556809712514 -9.86101438754111" fill="#ff890c" stroke="none" /><path d="M 93.27111125876986 119.89276391827306 l -3.258146440606725 9.63213101697123 a31.168257773902937,31.168257773902937 0 0,0 -0.505362469877468,-0.17579130023082284 l 3.4230146825292143 -9.574781284171818" fill="#ff860c" stroke="none" /><path d="M 92.59220618246901 119.65005319985036 l -1.8514820138149475 4.911276010940029 a26.24867770996803,26.24867770996803 0 0,0 -0.42026350090281467,-0.16256695043747443 l 1.9355177772112904 -4.878769172364514" fill="#ff4306" stroke="none" /><path d="M 92.25597844496254 119.51999308798841 l -4.560255723335753 11.494823402327533 a33.366361522813136,33.366361522813136 0 0,0 -0.5305975036595416,-0.21578938554192514 l 4.756907688185735 -11.414846760206318" fill="#ffa20f" stroke="none" /><path d="M 91.92203290615298 119.3841803445677 l -1.8151754692669033 4.355760334813181 a25.71884626562046,25.71884626562046 0 0,0 -0.4060698727982707,-0.17332708229037463 l 1.8896804172356052 -4.323958602863403" fill="#ff3b05" stroke="none" /><path d="M 90.93487009805054 118.94263497670748 l -6.604095979789151 13.800020611881646 a36.29884481255449,36.29884481255449 0 0,0 -0.5597623264844034,-0.273807803931414 l 6.840018555535623 -13.684619057853011" fill="#ffc812" stroke="none" /><path d="M 90.6110303473126 118.78422872680471 l -6.963008328013067 13.930680990390272 a36.57393199651264,36.57393199651264 0 0,0 -0.559185426618039,-0.2855240631850798 l 7.201120976344688 -13.809098975532356" fill="#ffcb13" stroke="none" /><path d="M 89.97174638481275 118.45085714620012 l -9.750638176179198 17.94007600690385 a41.41865010171462,41.41865010171462 0 0,0 -0.6217842934902079,-0.34489326618958893 l 10.057166657825508 -17.770049825281113" fill="#f7ff18" stroke="none" /><line stroke="#e1ed5e" stroke-width="0.3" x1="58.13341422392154" x2="55.67067388415222" y1="173.97424548756322" y2="178.32567169271397" /><path d="M 57.64086615596768 174.84453072859336 a86.0,86.0 0 0,1 -31.369924170532247,-30.572349798747897" fill="none" id="id44" stroke="none" /><text fill="#e1ed5e" style="font-size:6.75px; font-family:Arial;" text-anchor="middle"><textPath startOffset="22.145653131862474" xlink:href="#id44">August</textPath></text><path d="M 89.65649057296885 118.27599006163327 l -4.291434187035492 7.582553011209982 a29.712721592560303,29.712721592560303 0 0,0 -0.44173978483639365,-0.25503858368706117 l 4.420966439732285 -7.50776753024675" fill="#ff720a" stroke="none" /><path d="M 89.03521579738668 117.91015095944536 l -6.3029186727024555 10.295343969131912 a33.071490845684394,33.071490845684394 0 0,0 -0.48164039119109203,-0.3005792260725525 l 6.47872319268326 -10.185628946217811" fill="#ff9f0e" stroke="none" /><path d="M 88.72937992617639 117.7192867562869 l -9.107524631049104 14.318541439642072 a37.96960912525428,37.96960912525428 0 0,0 -0.5469691570464179,-0.35453879930361215 l 9.351979420352531 -14.160088798634565" fill="#ffdd14" stroke="none" /><path d="M 88.4268655584334 117.5232005979908 l -7.4769365690961 11.321034938309117 a34.567255158384185,34.567255158384185 0 0,0 -0.4923425870557447,-0.3312700651226418 l 7.670175444248851 -11.191015199129355" fill="#ffb210" stroke="none" /><path d="M 88.1277618465304 117.32195027204791 l -6.37976102846403 9.308262001997266 a32.284728276663756,32.284728276663756 0 0,0 -0.454453531366807,-0.3172438595339195 l 6.5386096510046015 -9.197373326658216" fill="#ff940d" stroke="none" /><path d="M 87.83215693770417 117.11559508785305 l -3.0073361031739827 4.23019484813243 a26.190242662016857,26.190242662016857 0 0,0 -0.3641927714391967,-0.26364748077631417 l 3.0795098849871336 -4.177946595983051" fill="#ff4206" stroke="none" /><path d="M 87.54013794807813 116.9041958592261 l -5.506787089909626 7.471014296545262 a30.281204591688464,30.281204591688464 0 0,0 -0.41578546839023556,-0.3120131669127109 l 5.634225547210628 -7.375382102368536" fill="#ff7a0b" stroke="none" /><path d="M 86.96720088162412 116.46651593811092 l -6.5119808052487445 8.22767501780259 a31.492879976750945,31.492879976750945 0 0,0 -0.4210286567984298,-0.33915088286197914 l 6.652260232402436 -8.1146758411472" fill="#ff8a0c" stroke="none" /><path d="M 86.68645165197938 116.24036423190432 l -7.290338121115328 8.893027115363477 a32.49934612031386,32.49934612031386 0 0,0 -0.428412053764714,-0.3573965722532151 l 7.441924509041934 -8.766568359198391" fill="#ff970d" stroke="none" /><path d="M 86.40962598614128 116.0094264158162 l -2.7185684955214486 3.202466851981018 a25.200762859633826,25.200762859633826 0 0,0 -0.3273945349399063,-0.2827956016303721 l 2.7731425102242175 -3.1553271178859235" fill="#ff3404" stroke="none" /><path d="M 86.13680546590413 115.77377054828092 l -12.07093716265917 13.734510659733795 a39.285084277826215,39.285084277826215 0 0,0 -0.5027274318877734,-0.4495419695652237 l 12.304929621370315 -13.525273160285188" fill="#ffed16" stroke="none" /><path d="M 85.08716467003676 114.78537596483092 l -42.78068170616091 42.415037051100626 a81.24302528334786,81.24302528334786 0 0,0 -0.9734198797966105,-0.9988145502822621 l 43.50248838710833 -41.67439980875063" fill="#4aebff" stroke="none" /><path d="M 84.83555147118756 114.52719865689866 l -5.976684787552053 5.725528828395335 a29.276620168555652,29.276620168555652 0 0,0 -0.3445498039322899,-0.36589995177137197 l 6.074090425220596 -5.622087416679474" fill="#ff6c0a" stroke="none" /><path d="M 84.58840730492382 114.26474011684316 l -3.000281629338357 2.777015884511658 a25.08821563498983,25.08821563498983 0 0,0 -0.28983137118205854,-0.31857544791229786 l 3.0475107013622957 -2.725102861041686" fill="#ff3204" stroke="none" /><path d="M 84.3458050057657 113.99807769240083 l -7.640575557342782 6.832249777502814 a31.24978204010462,31.24978204010462 0 0,0 -0.3541477323452563,-0.40295510940634627 l 7.756734353646631 -6.700082390285168" fill="#ff870c" stroke="none" /><path d="M 82.98947788004972 112.3143062007846 l -4.244844545582187 3.0729400979246497 a26.240387968613774,26.240387968613774 0 0,0 -0.2610105169218807,-0.36714397929317444 l 4.296970161034029 -2.9996188919219713" fill="#ff4306" stroke="none" /><path d="M 82.78059297857968 112.02048342749411 l -4.883544265372156 3.409093172390665 a26.95574687590817,26.95574687590817 0 0,0 -0.2616122792913488,-0.38170013386376556 l 4.94134628147883 -3.324758303456848" fill="#ff4c07" stroke="none" /><path d="M 82.576782715395 111.72311816256416 l -9.915562577160662 6.671633019411602 a32.95111159546643,32.95111159546643 0 0,0 -0.3117419325911924,-0.47201701900054227 l 10.02862894867258 -6.500436122071998" fill="#ff9d0e" stroke="none" /><path d="M 82.37810715431573 111.42229804090323 l -4.405686592861126 2.85571282149725 a26.25025428654461,26.25025428654461 0 0,0 -0.2418552283222871,-0.3802365900083069 l 4.454059512809303 -2.779662556810271" fill="#ff4306" stroke="none" /><path d="M 81.99639281039703 110.81064883170644 l -23.24729076575524 13.959330155919394 a48.116405114792215,48.116405114792215 0 0,0 -0.4191312128353284,-0.7117764302297158 l 23.48349568872034 -13.55820255739612" fill="#aaff21" stroke="none" /><line stroke="#e1ed5e" stroke-width="0.3" x1="26.387840678322732" x2="22.057713659400548" y1="142.50000000000003" y2="145.00000000000006" /><path d="M 25.521815274538298 143.00000000000003 a86.0,86.0 0 0,1 -11.493303480769221,-40.785679425670985" fill="none" id="id45" stroke="none" /><text fill="#e1ed5e" style="font-size:6.75px; font-family:Arial;" text-anchor="middle"><textPath startOffset="21.40746469413373" xlink:href="#id45">September</textPath></text><path d="M 81.63589988554817 110.18625677009913 l -4.582308173962098 2.5417291001898525 a26.240031967451323,26.240031967451323 0 0,0 -0.21511159663995985,-0.39578110929345384 l 4.625265120217388 -2.462693157421812" fill="#ff4306" stroke="none" /><line stroke="#e1ed5e" stroke-width="0.3" x1="15.003131293944662" x2="10.003315487706104" y1="100.72959589197737" y2="100.7725132973878" /><path d="M 14.003168132696942 100.73817937305945 a86.0,86.0 0 0,1 10.791469493833604,-42.45332614584628" fill="none" id="id46" stroke="none" /><text fill="#e1ed5e" style="font-size:6.75px; font-family:Arial;" text-anchor="middle"><textPath startOffset="22.145653131862435" xlink:href="#id46">October</textPath></text><line stroke="#e1ed5e" stroke-width="0.3" x1="26.387840678322718" x2="22.05771365940052" y1="57.49999999999999" y2="54.99999999999999" /><path d="M 25.521815274538284 56.99999999999999 a86.0,86.0 0 0,1 29.574782752854787,-30.34633250058573" fill="none" id="id47" stroke="none" /><text fill="#e1ed5e" style="font-size:6.75px; font-family:Arial;" text-anchor="middle"><textPath startOffset="21.40746469413373" xlink:href="#id47">November</textPath></text><line stroke="#e1ed5e" stroke-width="0.3" x1="56.869717070023135" x2="54.33264160355391" y1="26.7553504044142" y2="22.446841604673864" /><path d="M 56.362301976729285 25.89364864446614 a86.0,86.0 0 0,1 42.16139366436587,-11.88097634709845" fill="none" id="id48" stroke="none" /><text fill="#e1ed5e" style="font-size:6.75px; font-family:Arial;" text-anchor="middle"><textPath startOffset="22.145653131862474" xlink:href="#id48">December</textPath></text></svg>