<?xml version="1.0" encoding="utf-8" ?>
<svg baseProfile="full" height="200mm" version="1.1" viewBox="0,0,200,200" width="200mm" xmlns="http://www.w3.org/2000/svg" xmlns:ev="http://www.w3.org/2001/xml-events" xmlns:xlink="http://www.w3.org/1999/xlink"><defs /><rect fill="#1a1a1a" height="200" width="200" x="0" y="0" /><text alignment-baseline="middle" fill="#e1ed5e" style="dominant-baseline: central; font-size:9.0px; font-family:Arial;" text-anchor="middle" x="100.0" y="100.0">2025</text><line stroke="#e1ed5e" stroke-width="0.3" x1="100.0" x2="100.0" y1="15.0" y2="10.0" /><path d="M 100.0 14.0 a86.0,86.0 0 0,1 42.46469731375804,11.215312516191453" fill="none" id="id49" stroke="none" /><text fill="#e1ed5e" style="font-size:6.75px; font-family:Arial;" text-anchor="middle"><textPath startOffset="22.20632615414155" xlink:href="#id49">January</textPath></text><path d="M 100.36148047927253 79.00311137660856 l 0.23473682523686917 -13.63488005002658 a34.636900503990454,34.636900503990454 0 0,0 0.5960406324546481,0.015393971045150046 l -0.46940409288638507 13.62881928683907" fill="#ff2b04" stroke="none" /><path d="M 101.08401301168833 79.027996857942 l 1.682618788342685 -32.55301009814303 a53.596467177236946,53.596467177236946 0 0,0 0.92093520979377,0.055553326819728126 l -2.2427160469760667 32.519223501942996" fill="#b2ff20" stroke="none" /><path d="M 101.44485096284872 79.0497635885617 l 2.410707612185651 -34.955089274097965 a56.03811891856651,56.03811891856651 0 0,0 0.9617470394252935,0.07465008019993068 l -3.0120448409732856 34.90841393170957" fill="#91ff24" stroke="none" /><path d="M 101.80526077348638 79.07773832637324 l 2.287466357959413 -26.510834564038134 a47.60933767722517,47.60933767722517 0 0,0 0.8158763974242408,0.07747729481486573 l -2.7434678824738983 26.46753172470809" fill="#fff817" stroke="none" /><path d="M 102.16513564639614 79.11191278185805 l 1.399365060972537 -13.500336337941828 a34.5726675274768,34.5726675274768 0 0,0 0.5914120630646557,0.06645203622497722 l -1.6315438275469178 13.47424834824625" fill="#ff2a04" stroke="none" /><path d="M 102.52436894288641 79.15227682838746 l 4.11392780435902 -33.97523498098907 a55.22339834079751,55.22339834079751 0 0,0 0.9427035689009599,0.12238997901693081 l -4.698146101767825 33.89938667880801" fill="#9cff22" stroke="none" /><path d="M 102.88285421437855 79.19881850522331 l 1.5863782489732468 -11.446483041589333 a32.555888973601625,32.555888973601625 0 0,0 0.5544283698419349,0.08170832961675699 l -1.7831755992438374 11.417480227811607" fill="#ff0801" stroke="none" /><path d="M 103.2404852339499 79.25152402106235 l 3.6358388335268725 -23.279882256635894 a44.56209332606534,44.56209332606534 0 0,0 0.7568570096533932,0.12488789159391218 l -4.03602504931914 23.213848102102357" fill="#ffcb12" stroke="none" /><path d="M 103.59715602781102 79.31037775812273 l 5.814900534568706 -33.44533695624196 a54.947071042189954,54.947071042189954 0 0,0 0.9304498354146791,0.17003376013635657 l -6.389745491086287 33.340287714754865" fill="#a0ff22" stroke="none" /><path d="M 103.95276090670814 79.375362276772 l 7.836723431194149 -40.89030060766244 a62.634491925830275,62.634491925830275 0 0,0 1.0571318030702082,0.2120506947162176 l -8.539421643731483 40.749345956869014" fill="#3fff2d" stroke="none" /><path d="M 104.307194497241 79.44645832069477 l 2.576767702188494 -12.296101882267832 a33.56319439036714,33.56319439036714 0 0,0 0.5644326809336976,0.12336312227241619 l -2.7880431072757195 12.249925261899547" fill="#ff1902" stroke="none" /><path d="M 104.66035177308747 79.52364482259891 l 6.4028829349925065 -28.132577007028864 a49.8520155090702,49.8520155090702 0 0,0 0.8350837244413243,0.19763733710223377 l -6.886190346396354 28.018193757785763" fill="#e5ff1a" stroke="none" /><path d="M 105.01212808612495 79.60689891045804 l 3.363732446903143 -13.686189708073238 a35.09349086279616,35.09349086279616 0 0,0 0.585377995916704,0.14922588514394808 l -3.598819331504872 13.626260826760422" fill="#ff3304" stroke="none" /><path d="M 106.0581310904928 79.89281104454417 l 8.464101945623604 -28.09270625159934 a50.34009485813837,50.34009485813837 0 0,0 0.8275303373409203,0.2571177040230972 l -8.946417655675242 27.94284841269372" fill="#dfff1b" stroke="none" /><path d="M 106.40334571778207 80.00007090966166 l 13.99386498032776 -43.707823947270036 a66.89337785882834,66.89337785882834 0 0,0 1.0936021760554526,0.3605434434076404 l -14.74414997862563 43.46046677960316" fill="#34ff58" stroke="none" /><path d="M 106.74666289553966 80.11325718540242 l 10.43175349957194 -30.7490684155002 a53.47039712564266,53.47039712564266 0 0,0 0.8690670851840594,0.3032004414411799 l -10.959502588819273 30.56494712088681" fill="#b3ff20" stroke="none" /><path d="M 107.76421540070413 80.48803036053334 l 14.53805193756176 -36.535053882839065 a60.321306137528,60.321306137528 0 0,0 0.9614530557965535,0.39220084210795675 l -15.1647888629467 36.27939215454753" fill="#5bff2a" stroke="none" /><path d="M 108.09893153111575 80.62456947434976 l 20.5768122645239 -49.22681404811258 a74.35432901177668,74.35432901177668 0 0,0 1.1766262480579128,0.503769953800264 l -21.42112227037213 48.86532456634952" fill="#3fffbb" stroke="none" /><path d="M 108.43124777332544 80.76684994638697 l 25.2937433199763 -57.69945016083909 a84.0,84.0 0 0,0 1.3192715261328791,0.591918677933875 l -26.283196964575957 57.255511152388685" fill="#4dd2ff" stroke="none" /><path d="M 108.76106565485865 80.91482961587045 l 16.755203095081196 -36.49965865887336 a61.16169708779358,61.16169708779358 0 0,0 0.9530209486199992,0.44745611399285945 l -17.38100225500079 36.20583756224049" fill="#51ff2b" stroke="none" /><path d="M 109.41281617654863 81.2277094730956 l 5.246373411298042 -10.463015960609692 a32.704663043537316,32.704663043537316 0 0,0 0.5010658257715115,0.2566653774624274 l -5.425699724658309 10.371158057834764" fill="#ff0a01" stroke="none" /><path d="M 109.73455568895987 81.39251694778311 l 6.117404910286735 -11.693343982900517 a34.19685327412698,34.19685327412698 0 0,0 0.5192302885523775,0.27735483806104605 l -6.317780245367424 11.586310418337716" fill="#ff2403" stroke="none" /><line stroke="#e1ed5e" stroke-width="0.3" x1="143.23703022742887" x2="145.7803849466894" y1="26.81831364943548" y2="22.513508569990506" /><path d="M 143.74570117128098 25.957352633546492 a86.0,86.0 0 0,1 28.547481713284135,27.462654790039103" fill="none" id="id50" stroke="none" /><text fill="#e1ed5e" style="font-size:6.75px; font-family:Arial;" text-anchor="middle"><textPath startOffset="19.985693538727396" xlink:href="#id50">February</textPath></text><path d="M 110.99172775467656 82.1063720568725 l 18.624825029446505 -30.319681948178957 a56.583243539849285,56.583243539849285 0 0,0 0.8255248627269374,0.5169435933058117 l -19.143969044545706 29.994594013550202" fill="#8aff24" stroke="none" /><path d="M 111.2981086023043 82.29822771554956 l 22.13311573446218 -34.67796145957814 a62.139224872463075,62.139224872463075 0 0,0 0.8966778156458057,0.5832241940121661 l -22.726760575892264 34.29183834140645" fill="#45ff2d" stroke="none" /><path d="M 111.60114157652 82.49532879139004 l 26.74893281013211 -40.360793024906535 a69.42002705575769,69.42002705575769 0 0,0 0.9903768676226599,0.6687068819658954 l -27.439714372161315 39.894374230641965" fill="#37ff7b" stroke="none" /><path d="M 112.77801427241765 83.33499621200491 l 15.71993365295176 -20.501836066888853 a46.83489106163968,46.83489106163968 0 0,0 0.6355437731058046,0.49605199573736775 l -16.070509981216993 20.228205681928262" fill="#ffed16" stroke="none" /><path d="M 113.06298171725822 83.55741782278167 l 8.062436367397284 -10.148316470839237 a33.96114220933623,33.96114220933623 0 0,0 0.45458865028154394,0.3675790740060919 l -8.235928416243318 10.008031299569016" fill="#ff2003" stroke="none" /><path d="M 113.34407831869373 83.78471172551755 l 16.956353061543304 -20.604806597368896 a47.68475152709288,47.68475152709288 0 0,0 0.6293080708433815,0.5270274114000744 l -17.3085186693458 20.309878028575" fill="#fff917" stroke="none" /><path d="M 113.6212207817346 84.01681056812373 l 7.211025583271963 -8.461443342148408 a32.117324920815726,32.117324920815726 0 0,0 0.4176876479405523,0.3622146123316166 l -7.3556070298592795 8.33606373639712" fill="#ff0000" stroke="none" /><path d="M 114.16331599549186 84.49514656593476 l 15.33581847940947 -16.78841437205508 a43.73847368583086,43.73847368583086 0 0,0 0.5515049050883124,0.5125637041037138 l -15.62253126829263 16.521946081876724" fill="#ffbe11" stroke="none" /><path d="M 114.68862486808459 84.99185889309783 l 29.183677700368197 -29.818499476908155 a62.72325436939621,62.72325436939621 0 0,0 0.7651167745922796,0.76183112000887 l -29.6926302751278 29.311732506249164" fill="#3eff2d" stroke="none" /><path d="M 115.4437574822437 85.77008943001954 l 10.012279657779834 -9.225335498543638 a34.6144246667379,34.6144246667379 0 0,0 0.3999719177048148,0.4416589814152661 l -10.169595216100685 9.051623729858823" fill="#ff2b04" stroke="none" /><path d="M 115.68641384162765 86.03803664274999 l 10.062641038641486 -8.956427318386664 a34.47124103347924,34.47124103347924 0 0,0 0.39068742088272396,0.4466232592184915 l -10.215320323102059 8.781888502965225" fill="#ff2903" stroke="none" /><path d="M 116.38621287248628 86.86637796730983 l 40.70194583397868 -32.622789459550994 a73.16219691303584,73.16219691303584 0 0,0 0.779163180684826,0.9894581142098912 l -41.25746309525747 31.91733895138806" fill="#3dffac" stroke="none" /><path d="M 116.60985879189232 87.15038557335679 l 43.25184452979001 -33.460219765396424 a75.68371203546585,75.68371203546585 0 0,0 0.7882785121574386,1.0372821210306151 l -43.821398982171566 32.710752868484775" fill="#41ffcc" stroke="none" /><path d="M 117.04232023915458 87.72973835380427 l 20.788530197029928 -14.96748689015669 a46.61617948796888,46.61617948796888 0 0,0 0.46324801771886653,0.655231468601193 l -21.043090834552675 14.607428921223704" fill="#ffea16" stroke="none" /><path d="M 117.2510076193507 88.02491185347247 l 10.419247082365244 -7.2327022852749625 a33.68355991473996,33.68355991473996 0 0,0 0.3265308908486867,0.47914379052480094 l -10.542202438882665 7.052280471479755" fill="#ff1b02" stroke="none" /><line stroke="#e1ed5e" stroke-width="0.3" x1="172.23445277983987" x2="176.4835382374775" y1="55.19839476539836" y2="52.563006222186495" /><path d="M 173.08426987136738 54.67131705675599 a86.0,86.0 0 0,1 12.851231095245387,41.99856678651699" fill="none" id="id51" stroke="none" /><text fill="#e1ed5e" style="font-size:6.75px; font-family:Arial;" text-anchor="middle"><textPath startOffset="22.20632615414155" xlink:href="#id51">March</textPath></text><line stroke="#e1ed5e" stroke-width="0.3" x1="184.98032266829074" x2="189.97916517819016" y1="98.17113171792111" y2="98.06355123074" /><path d="M 185.9800911702706 98.14961562048488 a86.0,86.0 0 0,1 -9.607161424134198,41.387399972396054" fill="none" id="id52" stroke="none" /><text fill="#e1ed5e" style="font-size:6.75px; font-family:Arial;" text-anchor="middle"><textPath startOffset="21.466115282336823" xlink:href="#id52">April</textPath></text><line stroke="#e1ed5e" stroke-width="0.3" x1="174.80103733775053" x2="179.2010983576182" y1="140.37084112569926" y2="142.7455964860345" /><path d="M 175.68104954172406 140.8457921977663 a86.0,86.0 0 0,1 -30.038265399797805,32.042727171017184" fill="none" id="id53" stroke="none" /><text fill="#e1ed5e" style="font-size:6.75px; font-family:Arial;" text-anchor="middle"><textPath startOffset="22.206326154141568" xlink:href="#id53">May</textPath></text><line stroke="#e1ed5e" stroke-width="0.3" x1="143.8653032363475" x2="146.44561519142675" y1="172.8068346515853" y2="177.08958963109032" /><path d="M 144.38136562736335 173.6633856474863 a86.0,86.0 0 0,1 -40.68145358897372,12.25698825130547" fill="none" id="id54" stroke="none" /><text fill="#e1ed5e" style="font-size:6.75px; font-family:Arial;" text-anchor="middle"><textPath startOffset="21.466115282336833" xlink:href="#id54">June</textPath></text><line stroke="#e1ed5e" stroke-width="0.3" x1="102.19456741930631" x2="102.32365962044197" y1="184.97166512339345" y2="189.96999836594603" /><path d="M 102.22038585953345 185.97133177190398 a86.0,86.0 0 0,1 -42.740103519485714,-10.115201625700543" fill="none" id="id55" stroke="none" /><text fill="#e1ed5e" style="font-size:6.75px; font-family:Arial;" text-anchor="middle"><textPath startOffset="22.20632615414155" xlink:href="#id55">July</textPath></text><line stroke="#e1ed5e" stroke-width="0.3" x1="58.666819895761336" x2="56.23545636021788" y1="174.27360380694188" y2="178.64263932499728" /><path d="M 58.180547188652646 175.14741091055294 a86.0,86.0 0 0,1 -31.652253787137756,-30.449443065178592" fill="none" id="id56" stroke="none" /><text fill="#e1ed5e" style="font-size:6.75px; font-family:Arial;" text-anchor="middle"><textPath startOffset="22.20632615414155" xlink:href="#id56">August</textPath></text><line stroke="#e1ed5e" stroke-width="0.3" x1="26.63291911575756" x2="22.317208475507996" y1="142.92168965132927" y2="145.44649492493687" /><path d="M 25.769776987707644 143.4266507060508 a86.0,86.0 0 0,1 -11.730757126820373,-40.83630448921669" fill="none" id="id57" stroke="none" /><text fill="#e1ed5e" style="font-size:6.75px; font-family:Arial;" text-anchor="middle"><textPath startOffset="21.46611528233685" xlink:href="#id57">September</textPath></text><line stroke="#e1ed5e" stroke-width="0.3" x1="15.007084014347285" x2="10.007500721073583" y1="101.09737516637583" y2="101.16192664675087" /><path d="M 14.007167355692545 101.11028546245083 a86.0,86.0 0 0,1 10.666146001902534,-42.60595125391555" fill="none" id="id58" stroke="none" /><text fill="#e1ed5e" style="font-size:6.75px; font-family:Arial;" text-anchor="middle"><textPath startOffset="22.20632615414155" xlink:href="#id58">October</textPath></text><line stroke="#e1ed5e" stroke-width="0.3" x1="26.266209847984243" x2="21.928928074336255" y1="57.711370442889674" y2="55.22380399835377" /><path d="M 25.398753493254645 57.213857153982495 a86.0,86.0 0 0,1 29.58750427330803,-30.492523968695096" fill="none" id="id59" stroke="none" /><text fill="#e1ed5e" style="font-size:6.75px; font-family:Arial;" text-anchor="middle"><textPath startOffset="21.46611528233685" xlink:href="#id59">November</textPath></text><line stroke="#e1ed5e" stroke-width="0.3" x1="56.762969772571076" x2="54.21961505331055" y1="26.818313649435495" y2="22.513508569990535" /><path d="M 56.25429882871897 25.957352633546506 a86.0,86.0 0 0,1 42.265352541879196,-11.944610805530505" fill="none" id="id60" stroke="none" /><text fill="#e1ed5e" style="font-size:6.75px; font-family:Arial;" text-anchor="middle"><textPath startOffset="22.20632615414155" xlink:href="#id60">December</textPath></text></svg>