<?xml version="1.0" encoding="utf-8" ?>
<svg baseProfile="full" height="200mm" version="1.1" viewBox="0,0,200,200" width="200mm" xmlns="http://www.w3.org/2000/svg" xmlns:ev="http://www.w3.org/2001/xml-events" xmlns:xlink="http://www.w3.org/1999/xlink"><defs /><rect fill="#1a1a1a" height="200" width="200" x="0" y="0" /><text alignment-baseline="middle" fill="#e1ed5e" style="dominant-baseline: central; font-size:9.0px; font-family:Arial;" text-anchor="middle" x="100.0" y="100.0">2024</text><line stroke="#e1ed5e" stroke-width="0.3" x1="100.0" x2="100.0" y1="15.0" y2="10.0" /><path d="M 100.0 14.0 a86.0,86.0 0 0,1 42.35913384403234,11.155469271406648" fill="none" id="id61" stroke="none" /><text fill="#e1ed5e" style="font-size:6.75px; font-family:Arial;" text-anchor="middle"><textPath startOffset="22.145653131862478" xlink:href="#id61">January</textPath></text><path d="M 100.36049292484886 79.00309439819443 l 0.5765990866901072 -33.584006117167334 a54.588955526849965,54.588955526849965 0 0,0 0.9368158462219593,0.024129053084097095 l -1.153028246982808 33.569159346733194" fill="#72ff27" stroke="none" /><path d="M 100.72087961077811 79.0123766808444 l 1.1394128145851077 -33.172760888214 a54.192323306883196,54.192323306883196 0 0,0 0.9294608965871538,0.0399150501235459 l -1.7086994717730977 33.14831326966463" fill="#76ff27" stroke="none" /><path d="M 101.08105385017728 79.02784411241856 l 1.7250479425282237 -33.465469234785 a54.5099003506182,54.5099003506182 0 0,0 0.9340807383746015,0.056191977693525054 l -2.2992730330352873 33.43092527926678" fill="#73ff27" stroke="none" /><path d="M 101.44090949804482 79.04949213459386 l 2.291442292175826 -33.317068025781595 a54.39577412806791,54.39577412806791 0 0,0 0.9310251321347999,0.07206723344169227 l -2.8630364190858595 33.27282302534485" fill="#74ff27" stroke="none" /><path d="M 102.51750503828377 79.15144685158666 l 3.935744451620678 -32.59360999496736 a53.83037460786122,53.83037460786122 0 0,0 0.9164548942017697,0.1186534341205988 l -4.494677167713239 32.521244964646364" fill="#7aff26" stroke="none" /><path d="M 102.87502721639298 79.19773525538626 l 5.392970640943684 -39.020849052548705 a60.39176047241189,60.39176047241189 0 0,0 1.0257249899363654,0.1507462507407052 l -6.062020736487732 38.92252172850912" fill="#35ff2f" stroke="none" /><path d="M 103.58742460773223 79.30868818359171 l 5.603671102757077 -32.32048580305599 a53.80266654364274,53.80266654364274 0 0,0 0.9086636697792791,0.16558878981321112 l -6.15766950608741 32.219528839311415" fill="#7aff26" stroke="none" /><path d="M 104.9986988182912 79.60360301121754 l 8.062719473352455 -32.89864686104473 a54.87223657501384,54.87223657501384 0 0,0 0.912955667056845,0.2320697604804857 l -8.626280433634694 32.75539186872898" fill="#6fff28" stroke="none" /><path d="M 108.07796709384702 80.6158196554323 l 12.471582191172125 -29.927257138732458 a53.42192286399705,53.42192286399705 0 0,0 0.8434683732691556,0.3600264928188385 l -12.983485639611711 29.70875599625422" fill="#7fff26" stroke="none" /><path d="M 108.4095320186766 80.7573450057729 l 14.019352519564952 -32.0790221355136 a56.00865473334563,56.00865473334563 0 0,0 0.8776998855633588,0.3925839949206479 l -14.567965807983944 31.833634389683095" fill="#62ff29" stroke="none" /><path d="M 108.73861861582097 80.90454125486305 l 13.882534945711441 -30.335844255041938 a54.36147813249677,54.36147813249677 0 0,0 0.845220768613694,0.39560599740972335 l -14.401244428196641 30.09306202606168" fill="#74ff27" stroke="none" /><path d="M 109.71004243097381 81.37971332152246 l 15.364587715975487 -29.463622842211 a54.22913821738329,54.22913821738329 0 0,0 0.821729442429899,0.43752464399900876 l -15.868105974191945 29.195527730489417" fill="#76ff27" stroke="none" /><line stroke="#e1ed5e" stroke-width="0.3" x1="143.13028292997686" x2="145.6673583964461" y1="26.7553504044142" y2="22.446841604673864" /><path d="M 143.63769802327073 25.89364864446614 a86.0,86.0 0 0,1 29.32050498858742,28.57503671076993" fill="none" id="id62" stroke="none" /><text fill="#e1ed5e" style="font-size:6.75px; font-family:Arial;" text-anchor="middle"><textPath startOffset="20.669276256404974" xlink:href="#id62">February</textPath></text><path d="M 111.8722381534696 82.67804972795209 l 18.72194337340367 -27.315874893852268 a54.11598080826721,54.11598080826721 0 0,0 0.7617595034700162,0.5317672946464862 l -19.188097968047444 26.990462783400655" fill="#77ff27" stroke="none" /><path d="M 113.31354834802062 83.75963576809568 l 4.633945232814005 -5.652659715077753 a28.309309835763056,28.309309835763056 0 0,0 0.37317826403344706,0.3113185804015873 l -4.730297831009344 5.5722789507642965" fill="#ff3e05" stroke="none" /><path d="M 114.13192950727249 84.46653392183569 l 9.664424720612866 -10.62289572597695 a35.36130282339915,35.36130282339915 0 0,0 0.44550228450585005,0.41235026357569515 l -9.84535677643268 10.45542771626888" fill="#ffa10e" stroke="none" /><path d="M 114.91283532996326 85.21462403516908 l 5.627469453080245 -5.579371712582163 a28.92450636648828,28.92450636648828 0 0,0 0.34656131295265835,0.35560243747473347 l -5.722417567183715 5.481946583039687" fill="#ff4706" stroke="none" /><path d="M 115.41159269507618 85.73525988315684 l 2.853234982715479 -2.64091170367649 a24.887848311496587,24.887848311496587 0 0,0 0.2875166295936985,0.3160311414236469 l -2.898149313151055 2.5915429866951714" fill="#ff0b01" stroke="none" /><path d="M 117.62189284568427 88.57770195909679 l 26.333006806750706 -17.068736865773406 a52.381029710278646,52.381029710278646 0 0,0 0.4826096449217883,0.7587425211484272 l -26.622134143298382 16.614180669946304" fill="#8aff24" stroke="none" /><line stroke="#e1ed5e" stroke-width="0.3" x1="172.87174338648825" x2="177.1583165268699" y1="56.24261187166439" y2="53.66864786411523" /><path d="M 173.72905801456457 55.72781907015455 a86.0,86.0 0 0,1 12.242430191666344,42.057860355516425" fill="none" id="id63" stroke="none" /><text fill="#e1ed5e" style="font-size:6.75px; font-family:Arial;" text-anchor="middle"><textPath startOffset="22.145653131862474" xlink:href="#id63">March</textPath></text><path d="M 119.0197475246899 91.09779779509293 l 31.71092764547348 -14.842315316684802 a56.01252998708249,56.01252998708249 0 0,0 0.4001309362302219,0.874358307799811 l -31.96104304655875 14.295768026670306" fill="#62ff29" stroke="none" /><path d="M 119.4528033332814 92.08871423366111 l 5.606995048241165 -2.2803160735805545 a27.052952574275697,27.052952574275697 0 0,0 0.17125977910965742,0.4316865185242593 l -5.645313502316947 2.18372853784273" fill="#ff2b04" stroke="none" /><path d="M 119.58574465831526 92.42381321644754 l 28.827078948192792 -11.150933413348588 a51.90863627975641,51.90863627975641 0 0,0 0.314342179991502,0.8338299785250556 l -29.014251811998733 10.654435154629374" fill="#8fff24" stroke="none" /><path d="M 119.71291397450082 92.76114493625339 l 32.54449675877016 -11.950789998071505 a55.66937626868426,55.66937626868426 0 0,0 0.32171552560606015,0.899895583014098 l -32.74485245442016 11.39035945867649" fill="#66ff29" stroke="none" /><path d="M 119.83427380445688 93.10060997987247 l 31.37815789110882 -10.914952144870327 a54.2223565233438,54.2223565233438 0 0,0 0.29826060262604687,0.8817544742279488 l -31.560903915307232 10.374695996168215" fill="#76ff27" stroke="none" /><path d="M 119.94978838288452 93.4421083053983 l 31.41548656134452 -10.32689442356501 a54.06928400073815,54.06928400073815 0 0,0 0.28228101519719656,0.8842412596184919 l -31.588132292318974 9.786084130255132" fill="#77ff26" stroke="none" /><path d="M 120.16314734710363 94.1308016681162 l 7.034776625170971 -2.047720949654199 a28.32674847757889,28.32674847757889 0 0,0 0.13189677051246196,0.4680551077767743 l -7.0688918877580145 1.9266579179744117" fill="#ff3e05" stroke="none" /><path d="M 120.43855184770803 95.1765574152323 l 16.66539678802043 -3.932988264450006 a38.12319616165344,38.12319616165344 0 0,0 0.14484842744792414,0.6382288976640403 l -16.73045607702602 3.6463250328469394" fill="#ffc612" stroke="none" /><path d="M 120.51834098615036 95.52812308129327 l 32.966790821944166 -7.184958621166988 a54.740671710647725,54.740671710647725 0 0,0 0.19222392585499942,0.9198610710606686 l -33.08527245862353 6.617981098820915" fill="#70ff27" stroke="none" /><path d="M 120.65975698304385 96.23510406497455 l 33.13719795999639 -6.038701326453997 a54.68293042996862,54.68293042996862 0 0,0 0.1603646785994796,0.9249408509068279 l -33.2359774560881 5.468967442626576" fill="#71ff27" stroke="none" /><path d="M 120.77682067341334 96.94652285012252 l 8.850181797460793 -1.3006719514785388 a29.945248200775055,29.945248200775055 0 0,0 0.07037915246778118,0.5092284879212915 l -8.871205466483788 1.1485551553571616" fill="#ff5507" stroke="none" /><line stroke="#e1ed5e" stroke-width="0.3" x1="184.99686870605535" x2="189.99668451229388" y1="99.2704041080226" y2="99.22748670261217" /><path d="M 185.99683186730306 99.26182062694052 a86.0,86.0 0 0,1 -10.086455211305974,41.156179273409016" fill="none" id="id64" stroke="none" /><text fill="#e1ed5e" style="font-size:6.75px; font-family:Arial;" text-anchor="middle"><textPath startOffset="21.40746469413373" xlink:href="#id64">April</textPath></text><path d="M 120.99922638620191 99.81974689727618 l 31.136710458470503 -0.2672712111166443 a52.1378575382912,52.1378575382912 0 0,0 0.0,0.8950486276809386 l -31.136710458470503 -0.26727121111664054" fill="#8dff24" stroke="none" /><path d="M 120.86939407059847 102.33845913500097 l 30.659600776000175 3.4354722167582685 a51.85147628713784,51.85147628713784 0 0,0 -0.1067101252136485,0.8837129154296465 l -30.596108564526865 -3.9612788091113234" fill="#90ff24" stroke="none" /><path d="M 120.82617615685814 102.69636545807757 l 31.091686238530723 4.025441260821807 a52.35119025650489,52.35119025650489 0 0,0 -0.12303896685809372,0.8902486723923659 l -31.01800275511742 -4.558578241414258" fill="#8bff24" stroke="none" /><path d="M 120.7213421655516 103.40968896794604 l 34.97008497999983 5.754314175780935 a56.44035799963092,56.44035799963092 0 0,0 -0.1655185594386144,0.9546670659964346 l -34.86615160306898 -6.353774274697956" fill="#5eff2a" stroke="none" /><path d="M 120.26092885502905 105.52220625578681 l 30.117147271929746 8.208562413969567 a52.215750138401916,52.215750138401916 0 0,0 -0.24313022790428154,0.8627834069278977 l -29.971798551950883 -8.724353744800473" fill="#8cff24" stroke="none" /><path d="M 120.16314734710363 105.8691983318838 l 38.04282476859046 11.073711848067816 a60.62175678169403,60.62175678169403 0 0,0 -0.29942436672582023,0.9966863343327615 l -37.847124081861004 -11.7251357859913" fill="#33ff2f" stroke="none" /><path d="M 120.05942366710727 106.21446072829308 l 31.81337974205941 9.85586636596589 a54.30509319062557,54.30509319062557 0 0,0 -0.2835121107950903,0.8880976490445718 l -31.639502915487064 -10.400533048701844" fill="#75ff27" stroke="none" /><path d="M 119.71291397450082 107.23885506374661 l 15.656106138301656 5.74913903365061 a37.678317032662854,37.678317032662854 0 0,0 -0.2281678958126881,0.6052424516198989 l -15.555107558674527 -6.017049765464667" fill="#ffc011" stroke="none" /><path d="M 119.16976305983485 108.57439118712176 l 31.09417638521671 13.90802959515081 a55.062899058866954,55.062899058866954 0 0,0 -0.3933471556641883,0.8595345229855726 l -30.850844764697463 -14.439753100351071" fill="#6dff28" stroke="none" /><line stroke="#e1ed5e" stroke-width="0.3" x1="174.33088141563837" x2="178.70328620479359" y1="141.23008692659167" y2="143.65538615756765" /><path d="M 175.20536237346943 141.71514677278685 a86.0,86.0 0 0,1 -30.301960400862466,31.631185727798858" fill="none" id="id65" stroke="none" /><text fill="#e1ed5e" style="font-size:6.75px; font-family:Arial;" text-anchor="middle"><textPath startOffset="22.145653131862474" xlink:href="#id65">May</textPath></text><path d="M 117.423217284605 111.72311816256416 l 27.55803816736338 18.54227795516918 a54.21538106661746,54.21538106661746 0 0,0 -0.5261738611354764,0.7677033882930104 l -27.235674569412584 -19.012616078532233" fill="#76ff27" stroke="none" /><path d="M 117.21940702142032 112.02048342749411 l 13.829385914056918 9.65398541224737 a37.865685550839636,37.865685550839636 0 0,0 -0.37664619025631574,0.5298000352901697 l -13.66162462527064 -9.889962674247043" fill="#ffc312" stroke="none" /><path d="M 117.01052211995028 112.31430620078461 l 13.384917202337702 9.689647839111565 a37.52408193393615,37.52408193393615 0 0,0 -0.38220596869713835,0.5185358013193322 l -13.216609214056735 -9.917989949699775" fill="#ffbe11" stroke="none" /><path d="M 116.79662413953412 112.60449989151573 l 32.17255577595778 24.142885642917744 a61.22377744971397,61.22377744971397 0 0,0 -0.6380334587509539,0.8352062786541823 l -31.753370339852523 -24.691612834812805" fill="#30ff33" stroke="none" /><path d="M 116.35404254752997 113.17365903436017 l 27.6147620451492 22.24449755713339 a56.45973426831518,56.45973426831518 0 0,0 -0.6144786596173949,0.7495640519007468 l -27.228836566293175 -22.71526389073263" fill="#5eff2a" stroke="none" /><path d="M 116.1254893667686 113.45245675266167 l 2.4220967097400465 2.02059922011976 a24.15426277911054,24.15426277911054 0 0,0 -0.26834861051639247,0.3161139884353268 l -2.3870535357165394 -2.0618799910046435" fill="#ff0000" stroke="none" /><path d="M 115.89218393027572 113.72728997021213 l 25.17015176401198 21.741377608939118 a54.25994648459126,54.25994648459126 0 0,0 -0.6149174730253315,0.699663205459219 l -24.79322322702806 -22.17025309220963" fill="#75ff27" stroke="none" /><path d="M 115.6541949942343 113.99807769240083 l 25.14362991697097 22.483588915071454 a54.730014762871384,54.730014762871384 0 0,0 -0.632267972115736,0.6949732584015095 l -24.753964244013353 -22.911899749030635" fill="#70ff27" stroke="none" /><path d="M 115.41159269507618 114.26474011684316 l 24.74116627997426 22.900054144578558 a54.71257612105555,54.71257612105555 0 0,0 -0.6438997147418898,0.6837991834003717 l -24.344410731496108 -23.321394787923428" fill="#70ff27" stroke="none" /><path d="M 114.65682725009322 115.03919595460226 l 5.088642699451075 5.221395694591012 a28.29090238051301,28.29090238051301 0 0,0 -0.3507095375879084,0.3359718036385205 l -4.998260675997854 -5.307979628535112" fill="#ff3d05" stroke="none" /><path d="M 114.13192950727249 115.5334660781643 l 22.583574412908966 24.823304339728935 a54.55911607307621,54.55911607307621 0 0,0 -0.6981877425923022,0.6243237846653031 l -22.154121643493287 -25.207323654277626" fill="#72ff27" stroke="none" /><path d="M 113.59037401385872 116.0094264158162 l 22.137588200356593 26.078023235846306 a55.20725226056468,55.20725226056468 0 0,0 -0.7277516364820497,0.6071162985372035 l -21.686662229712645 -26.45420171829538" fill="#6bff28" stroke="none" /><path d="M 113.31354834802062 116.24036423190432 l 16.83479639559408 20.535714303020193 a47.55420741834287,47.55420741834287 0 0,0 -0.635752719003157,0.5121173878552678 l -16.47979290623567 -20.82167998466886" fill="#c2ff1e" stroke="none" /><path d="M 112.16784306229584 117.11559508785304 l 9.552172203600799 13.436326455662595 a37.48571692194132,37.48571692194132 0 0,0 -0.5276648539522268,0.36835104857639306 l -9.320112258474815 -13.59832232004411" fill="#ffbd11" stroke="none" /><path d="M 111.8722381534696 117.32195027204791 l 19.11640664698406 27.891408598683824 a54.81372024358737,54.81372024358737 0 0,0 -0.7807136756223529,0.5252990031030349 l -18.634796683264703 -28.21545727584398" fill="#6fff27" stroke="none" /><line stroke="#e1ed5e" stroke-width="0.3" x1="143.1302829299769" x2="145.66735839644613" y1="173.24464959558577" y2="177.55315839532614" /><path d="M 143.63769802327073 174.10635135553383 a86.0,86.0 0 0,1 -40.68552437913181,11.842963189579606" fill="none" id="id66" stroke="none" /><text fill="#e1ed5e" style="font-size:6.75px; font-family:Arial;" text-anchor="middle"><textPath startOffset="21.407464694133747" xlink:href="#id66">June</textPath></text><path d="M 110.34350942703117 118.27599006163325 l 10.017304267208386 17.699616800601127 a41.33771913637203,41.33771913637203 0 0,0 -0.6205693431482054,0.34421935371528195 l -9.711990735904088 -17.868969069749554" fill="#fff016" stroke="none" /><path d="M 110.02825361518725 118.45085714620011 l 7.856143875230428 14.45441987449825 a37.451420926370176,37.451420926370176 0 0,0 -0.567498143021738,0.3021607966990528 l -7.606856916422136 -14.58715113891987" fill="#ffbd11" stroke="none" /><path d="M 109.06512990194946 118.94263497670748 l 21.350731261868656 44.614816682591645 a70.46044473150027,70.46044473150027 0 0,0 -1.095530020498467,0.5127633661468579 l -20.581712527498684 -44.97475628030903" fill="#3cffa1" stroke="none" /><path d="M 108.4095320186766 119.2426549942271 l 10.971110543612655 25.10404795717616 a48.39668758073445,48.39668758073445 0 0,0 -0.764125908557445,0.3261599126279914 l -10.538549559884778 -25.288682519463553" fill="#b8ff1f" stroke="none" /><path d="M 107.74402155503746 119.51999308798841 l 1.832042006561733 4.617942634951308 a25.96807529064403,25.96807529064403 0 0,0 -0.41577081916052033,0.1608290846257594 l -1.7524989249076834 -4.648711607715107" fill="#ff1b02" stroke="none" /><path d="M 106.38641147887787 120.00534299687104 l 10.238764651447726 32.07278444144974 a54.66742941502122,54.66742941502122 0 0,0 -0.8964400664710407,0.2777194240873278 l -9.68668395210506 -32.24382045334371" fill="#71ff27" stroke="none" /><path d="M 102.875027216393 120.80226474461374 l 4.5841006475661885 33.16826871860552 a54.483548625207604,54.483548625207604 0 0,0 -0.9275750940763845,0.12009316662852572 l -4.014047731599029 -33.24207348143444" fill="#73ff27" stroke="none" /><path d="M 101.80034050326958 120.92268563240118 l 2.9159104163354157 33.887299020620105 a55.01252076028788,55.01252076028788 0 0,0 -0.94158122080088,0.07288434146581799 l -2.3337602007592997 -33.93236112908098" fill="#6dff28" stroke="none" /><path d="M 101.44090949804482 120.95050786540614 l 2.1355454036901893 31.05036148186433 a52.123712862151685,52.123712862151685 0 0,0 -0.8931910695843311,0.053732156757107616 l -1.602209981973393 -31.082445616446126" fill="#8dff24" stroke="none" /><line stroke="#e1ed5e" stroke-width="0.3" x1="101.45913802915013" x2="101.54496967792366" y1="184.9874750549273" y2="189.98673829345242" /><path d="M 101.47630435890484 185.9873277026323 a86.0,86.0 0 0,1 -42.54439059252881,-10.42667462771756" fill="none" id="id67" stroke="none" /><text fill="#e1ed5e" style="font-size:6.75px; font-family:Arial;" text-anchor="middle"><textPath startOffset="22.145653131862474" xlink:href="#id67">July</textPath></text><path d="M 99.63950707515114 120.99690560180557 l -0.6039803171510302 35.178825520323485 a56.18400996493818,56.18400996493818 0 0,0 -0.964189007308589,-0.024834088614395608 l 1.2077826385303632 -35.16327371435904" fill="#61ff29" stroke="none" /><path d="M 99.27912038922189 120.98762331915562 l -2.1626388323343173 62.962869957466836 a84.0,84.0 0 0,0 -1.440696957596645,-0.061869726296685634 l 3.2431615505318008 -62.916467662744324" fill="#4dd2ff" stroke="none" /><path d="M 98.91894614982273 120.97215588758144 l -0.3626886791501716 7.036063482453853 a28.045405056283446,28.045405056283446 0 0,0 -0.4805855907731831,-0.02891083574161554 l 0.483418622055801 -7.028800668887547" fill="#ff3a05" stroke="none" /><path d="M 97.48249496171623 120.84855314841334 l -4.222430622339427 34.967782747852745 a56.22179368887249,56.22179368887249 0 0,0 -0.957168482707243,-0.12392462326707142 l 4.822076926937465 -34.89014652838528" fill="#60ff29" stroke="none" /><path d="M 95.35216902796893 120.47920084513623 l -7.383781519674908 32.53430377480962 a54.36167189518361,54.36167189518361 0 0,0 -0.9082744160458067,-0.21435028908379508 l 7.941188089460603 -32.402757342079596" fill="#74ff27" stroke="none" /><line stroke="#e1ed5e" stroke-width="0.3" x1="58.13341422392154" x2="55.67067388415222" y1="173.97424548756322" y2="178.32567169271397" /><path d="M 57.64086615596768 174.84453072859336 a86.0,86.0 0 0,1 -31.369924170532247,-30.572349798747897" fill="none" id="id68" stroke="none" /><text fill="#e1ed5e" style="font-size:6.75px; font-family:Arial;" text-anchor="middle"><textPath startOffset="22.145653131862474" xlink:href="#id68">August</textPath></text><path d="M 86.13680546590413 115.77377054828092 l -21.43256526439348 24.38632494913967 a53.46610075659715,53.46610075659715 0 0,0 -0.6842005310801468,-0.6118163338817034 l 21.848030822297 -24.014813085374584" fill="#7eff26" stroke="none" /><path d="M 85.34317274990678 115.03919595460226 l -23.20560634021494 23.81099640740009 a54.24851448606755,54.24851448606755 0 0,0 -0.661336096637146,-0.6556836853316231 l 23.610934356982046 -23.409132711839806" fill="#76ff27" stroke="none" /><path d="M 84.58840730492382 114.26474011684316 l -24.797477321746264 22.952174804167676 a54.78930614504521,54.78930614504521 0 0,0 -0.6329529352412423,-0.6957261528643134 l 25.187827957829388 -22.52311107574569" fill="#70ff27" stroke="none" /><path d="M 83.4222238831116 112.89097897827486 l -5.149695409921406 4.0044342984091115 a27.523408377929506,27.523408377929506 0 0,0 -0.28683064285619525,-0.37547051888608685 l 5.217678030131896 -3.915442866282154" fill="#ff3204" stroke="none" /><path d="M 82.78059297857968 112.02048342749411 l -27.707706847145012 19.342131268263593 a54.7910500092268,54.7910500092268 0 0,0 -0.5317608725021525,-0.7758550048468481 l 28.035657456462488 -18.863641528346694" fill="#70ff27" stroke="none" /><path d="M 82.576782715395 111.72311816256416 l -28.419553404752172 19.121943855087814 a55.2537553054069,55.2537553054069 0 0,0 -0.522741468430409,-0.7914972091998217 l 28.743619312103306 -18.63126676754893" fill="#6bff28" stroke="none" /><line stroke="#e1ed5e" stroke-width="0.3" x1="26.387840678322732" x2="22.057713659400548" y1="142.50000000000003" y2="145.00000000000006" /><path d="M 25.521815274538298 143.00000000000003 a86.0,86.0 0 0,1 -11.493303480769221,-40.785679425670985" fill="none" id="id69" stroke="none" /><text fill="#e1ed5e" style="font-size:6.75px; font-family:Arial;" text-anchor="middle"><textPath startOffset="21.40746469413373" xlink:href="#id69">September</textPath></text><path d="M 81.63589988554817 110.18625677009913 l -28.983863674825223 16.076860599827523 a54.144076397859386,54.144076397859386 0 0,0 -0.44386450203211264,-0.8166606902383169 l 29.255573526472666 -15.576945076114619" fill="#77ff27" stroke="none" /><path d="M 81.29705330413844 109.54985784667822 l -14.954074080795147 7.635656777650376 a37.79069939103155,37.79069939103155 0 0,0 -0.29005277179217254,-0.5802998422333115 l 15.082946765799056 -7.377825079253311" fill="#ffc212" stroke="none" /><path d="M 81.1358732173502 109.22738970284198 l -20.339942717232645 9.94928523052602 a43.642913821738325,43.642913821738325 0 0,0 -0.3234163158919301,-0.675815711822826 l 20.507738291084486 -9.59865701663809" fill="#f1ff19" stroke="none" /><path d="M 80.9802524753101 108.90220220490708 l -32.68999363034379 15.300567633543787 a57.0935320169773,57.0935320169773 0 0,0 -0.40785317899246853,-0.8912328018782655 l 32.947831274191316 -14.737145849450833" fill="#57ff2a" stroke="none" /><path d="M 80.41425534168474 107.57618678355246 l -31.636272532927165 12.237589840275374 a54.920677246724495,54.920677246724495 0 0,0 -0.3325821414244771,-0.8822136432638032 l 31.841685358166078 -11.692707916817426" fill="#6eff28" stroke="none" /><path d="M 80.28708602549918 107.23885506374661 l -33.52559528228425 12.31106296553643 a56.71453220151319,56.71453220151319 0 0,0 -0.3277555230482355,-0.9167905308391575 l 33.731990975376426 -11.733737478316351" fill="#5bff2a" stroke="none" /><path d="M 79.83685265289637 105.86919833188381 l -5.916482855993631 1.7222019316347 a27.162040966968075,27.162040966968075 0 0,0 -0.1264735868610622,-0.44881014219810167 l 5.945174934929268 -1.6203838655336027" fill="#ff2d04" stroke="none" /><path d="M 79.64726062577567 105.17358676015961 l -14.524471988927903 3.6920639820795755 a35.98638125115335,35.98638125115335 0 0,0 -0.14705144699472134,-0.600020085167792 l 14.585710962438917 -3.4421880723036837" fill="#ffa90f" stroke="none" /><path d="M 79.48165901384964 104.47187691870673 l -32.351316319766866 7.0508188180417255 a54.11074921572246,54.11074921572246 0 0,0 -0.19001192934171296,-0.9092758669928289 l 32.46758595993295 -6.494426499763487" fill="#77ff27" stroke="none" /><path d="M 79.22317932658666 103.0534771498775 l -32.85988957030615 4.829272174391048 a54.212862151688505,54.212862151688505 0 0,0 -0.12741438192486698,-0.9219069962050013 l 32.93794846878623 -4.264476869985961" fill="#76ff27" stroke="none" /><path d="M 79.17382384314188 102.69636545807758 l -33.80554567628037 4.376804698397294 a55.0877006827828,55.0877006827828 0 0,0 -0.11337026172676681,-0.9388683999104352 l 33.875698024266796 -3.7958426215634593" fill="#6cff28" stroke="none" /><path d="M 79.13060592940153 102.33845913500099 l -33.30495726005518 3.7318899284822358 a54.51338807898136,54.51338807898136 0 0,0 -0.09622289875268118,-0.9308692590551558 l 33.36411255128953 -3.1596161471441486" fill="#73ff27" stroke="none" /><path d="M 79.06263194458094 101.62068470465958 l -33.24864865549053 2.573655685085349 a54.34810850710463,54.34810850710463 0 0,0 -0.06401699631604488,-0.9307930766358787 l 33.28792961297164 -2.0025191842951267" fill="#74ff27" stroke="none" /><path d="M 79.01933749520258 100.90099992219065 l -33.6952769476383 1.447020173985093 a54.72633327182137,54.72633327182137 0 0,0 -0.032250262083504455,-0.9389311924387339 l 33.71515189671865 -0.8683827169822392" fill="#70ff27" stroke="none" /><line stroke="#e1ed5e" stroke-width="0.3" x1="15.003131293944662" x2="10.003315487706104" y1="100.72959589197737" y2="100.7725132973878" /><path d="M 14.003168132696942 100.73817937305945 a86.0,86.0 0 0,1 10.791469493833604,-42.45332614584628" fill="none" id="id70" stroke="none" /><text fill="#e1ed5e" style="font-size:6.75px; font-family:Arial;" text-anchor="middle"><textPath startOffset="22.145653131862435" xlink:href="#id70">October</textPath></text><path d="M 79.17382384314186 97.30363454192245 l -33.6145397794367 -4.352075160979561 a54.89510057206126,54.89510057206126 0 0,0 0.12901782035640802,-0.9335086779436318 l 33.53487744252509 4.92847214712326" fill="#6eff28" stroke="none" /><path d="M 79.22317932658666 96.9465228501225 l -39.06341343994682 -5.740976553151282 a60.48302269791474,60.48302269791474 0 0,0 0.15978608810702888,-1.025941308452647 l 38.95910585970152 6.410706043535379" fill="#34ff2f" stroke="none" /><path d="M 79.56144815229197 95.17655741523228 l -22.39301901277213 -5.284691513984662 a44.00815648643662,44.00815648643662 0 0,0 0.17983089340756866,-0.733771412545727 l 22.29900059284826 5.668318751138507" fill="#edff1a" stroke="none" /><path d="M 79.83685265289637 94.1308016681162 l -31.92206865381181 -9.292048947911177 a54.24696438457279,54.24696438457279 0 0,0 0.26793784640952034,-0.8918779486355369 l 31.75785448739866 9.838664500137437" fill="#76ff27" stroke="none" /><path d="M 81.1358732173502 90.77261029715801 l -30.16850436294835 -14.756927246950472 a54.58430522236574,54.58430522236574 0 0,0 0.41894776442940795,-0.8381761708403096 l 29.9107366853072 15.272635273954553" fill="#72ff27" stroke="none" /><path d="M 81.29705330413844 90.45014215332179 l -31.974998065413278 -16.32666184308138 a56.902094482376825,56.902094482376825 0 0,0 0.4516723813637052,-0.8661413465007247 l 31.690017615074634 16.87314943268659" fill="#59ff2a" stroke="none" /><path d="M 81.46374523516351 90.13048839642627 l -29.961586256397403 -15.952857088474405 a54.94392876914559,54.94392876914559 0 0,0 0.45042156419101614,-0.8287249460734123 l 29.683319342591034 16.464836868022438" fill="#6eff28" stroke="none" /><line stroke="#e1ed5e" stroke-width="0.3" x1="26.387840678322718" x2="22.05771365940052" y1="57.49999999999999" y2="54.99999999999999" /><path d="M 25.521815274538284 56.99999999999999 a86.0,86.0 0 0,1 29.574782752854787,-30.34633250058573" fill="none" id="id71" stroke="none" /><text fill="#e1ed5e" style="font-size:6.75px; font-family:Arial;" text-anchor="middle"><textPath startOffset="21.40746469413373" xlink:href="#id71">November</textPath></text><path d="M 84.10781606972428 86.27271002978789 l -13.062882500725339 -11.283406781660329 a38.261348957372206,38.261348957372206 0 0,0 0.4336084633273346,-0.49336683485875266 l 12.867262973439411 11.505985894330381" fill="#ffc812" stroke="none" /><path d="M 86.13680546590413 84.22622945171909 l -21.521848432734522 -24.487912805226582 a53.60134711201329,53.60134711201329 0 0,0 0.6963594002148381,-0.601498664511508 l 21.098309552756838 24.8537556022028" fill="#7dff26" stroke="none" /><line stroke="#e1ed5e" stroke-width="0.3" x1="56.869717070023135" x2="54.33264160355391" y1="26.7553504044142" y2="22.446841604673864" /><path d="M 56.362301976729285 25.89364864446614 a86.0,86.0 0 0,1 42.16139366436587,-11.88097634709845" fill="none" id="id72" stroke="none" /><text fill="#e1ed5e" style="font-size:6.75px; font-family:Arial;" text-anchor="middle"><textPath startOffset="22.145653131862474" xlink:href="#id72">December</textPath></text><path d="M 89.65649057296885 81.72400993836675 l -8.242931437651606 -14.564470027895043 a37.73528326259458,37.73528326259458 0 0,0 0.5664889219099375,-0.31422185568734834 l 7.991698327585565 14.703824799015537" fill="#ffc111" stroke="none" /></svg>